<?xml version="1.0" encoding="utf-8" standalone="no"?>
<!DOCTYPE svg PUBLIC "-//W3C//DTD SVG 1.1//EN"
  "http://www.w3.org/Graphics/SVG/1.1/DTD/svg11.dtd">
<!-- Created with matplotlib (https://matplotlib.org/) -->
<svg height="720pt" version="1.1" viewBox="0 0 720 720" width="720pt" xmlns="http://www.w3.org/2000/svg" xmlns:xlink="http://www.w3.org/1999/xlink">
 <metadata>
  <rdf:RDF xmlns:cc="http://creativecommons.org/ns#" xmlns:dc="http://purl.org/dc/elements/1.1/" xmlns:rdf="http://www.w3.org/1999/02/22-rdf-syntax-ns#">
   <cc:Work>
    <dc:type rdf:resource="http://purl.org/dc/dcmitype/StillImage"/>
    <dc:date>2021-06-05T11:00:28.436026</dc:date>
    <dc:format>image/svg+xml</dc:format>
    <dc:creator>
     <cc:Agent>
      <dc:title>Matplotlib v3.3.4, https://matplotlib.org/</dc:title>
     </cc:Agent>
    </dc:creator>
   </cc:Work>
  </rdf:RDF>
 </metadata>
 <defs>
  <style type="text/css">*{stroke-linecap:butt;stroke-linejoin:round;}</style>
 </defs>
 <g id="figure_1">
  <g id="patch_1">
   <path d="M 0 720 
L 720 720 
L 720 0 
L 0 0 
z
" style="fill:#ffffff;"/>
  </g>
  <g id="axes_1">
   <g id="patch_2">
    <path d="M 78.21 655.54 
L 495.034457 655.54 
L 495.034457 123.116571 
L 78.21 123.116571 
z
" style="fill:#eaeaf2;"/>
   </g>
   <g id="matplotlib.axis_1">
    <g id="xtick_1">
     <g id="line2d_1">
      <path clip-path="url(#p87e1bd9e03)" d="M 116.962235 655.54 
L 116.962235 123.116571 
" style="fill:none;stroke:#ffffff;stroke-linecap:round;"/>
     </g>
     <g id="text_1">
      <!-- 0 -->
      <g style="fill:#262626;" transform="translate(108.620829 686.513438)scale(0.3 -0.3)">
       <defs>
        <path d="M 4.15625 35.296875 
Q 4.15625 48 6.765625 55.734375 
Q 9.375 63.484375 14.515625 67.671875 
Q 19.671875 71.875 27.484375 71.875 
Q 33.25 71.875 37.59375 69.546875 
Q 41.9375 67.234375 44.765625 62.859375 
Q 47.609375 58.5 49.21875 52.21875 
Q 50.828125 45.953125 50.828125 35.296875 
Q 50.828125 22.703125 48.234375 14.96875 
Q 45.65625 7.234375 40.5 3 
Q 35.359375 -1.21875 27.484375 -1.21875 
Q 17.140625 -1.21875 11.234375 6.203125 
Q 4.15625 15.140625 4.15625 35.296875 
z
M 13.1875 35.296875 
Q 13.1875 17.671875 17.3125 11.828125 
Q 21.4375 6 27.484375 6 
Q 33.546875 6 37.671875 11.859375 
Q 41.796875 17.71875 41.796875 35.296875 
Q 41.796875 52.984375 37.671875 58.78125 
Q 33.546875 64.59375 27.390625 64.59375 
Q 21.34375 64.59375 17.71875 59.46875 
Q 13.1875 52.9375 13.1875 35.296875 
z
" id="ArialMT-48"/>
       </defs>
       <use xlink:href="#ArialMT-48"/>
      </g>
     </g>
    </g>
    <g id="xtick_2">
     <g id="line2d_2">
      <path clip-path="url(#p87e1bd9e03)" d="M 320.290375 655.54 
L 320.290375 123.116571 
" style="fill:none;stroke:#ffffff;stroke-linecap:round;"/>
     </g>
     <g id="text_2">
      <!-- 2 -->
      <g style="fill:#262626;" transform="translate(311.948969 686.513438)scale(0.3 -0.3)">
       <defs>
        <path d="M 50.34375 8.453125 
L 50.34375 0 
L 3.03125 0 
Q 2.9375 3.171875 4.046875 6.109375 
Q 5.859375 10.9375 9.828125 15.625 
Q 13.8125 20.3125 21.34375 26.46875 
Q 33.015625 36.03125 37.109375 41.625 
Q 41.21875 47.21875 41.21875 52.203125 
Q 41.21875 57.421875 37.46875 61 
Q 33.734375 64.59375 27.734375 64.59375 
Q 21.390625 64.59375 17.578125 60.78125 
Q 13.765625 56.984375 13.71875 50.25 
L 4.6875 51.171875 
Q 5.609375 61.28125 11.65625 66.578125 
Q 17.71875 71.875 27.9375 71.875 
Q 38.234375 71.875 44.234375 66.15625 
Q 50.25 60.453125 50.25 52 
Q 50.25 47.703125 48.484375 43.546875 
Q 46.734375 39.40625 42.65625 34.8125 
Q 38.578125 30.21875 29.109375 22.21875 
Q 21.1875 15.578125 18.9375 13.203125 
Q 16.703125 10.84375 15.234375 8.453125 
z
" id="ArialMT-50"/>
       </defs>
       <use xlink:href="#ArialMT-50"/>
      </g>
     </g>
    </g>
    <g id="text_3">
     <!-- ConsensusPath log(Degree) -->
     <g style="fill:#262626;" transform="translate(34.275354 725.594687)scale(0.4 -0.4)">
      <defs>
       <path d="M 58.796875 25.09375 
L 68.265625 22.703125 
Q 65.28125 11.03125 57.546875 4.90625 
Q 49.8125 -1.21875 38.625 -1.21875 
Q 27.046875 -1.21875 19.796875 3.484375 
Q 12.546875 8.203125 8.765625 17.140625 
Q 4.984375 26.078125 4.984375 36.328125 
Q 4.984375 47.515625 9.25 55.828125 
Q 13.53125 64.15625 21.40625 68.46875 
Q 29.296875 72.796875 38.765625 72.796875 
Q 49.515625 72.796875 56.828125 67.328125 
Q 64.15625 61.859375 67.046875 51.953125 
L 57.71875 49.75 
Q 55.21875 57.5625 50.484375 61.125 
Q 45.75 64.703125 38.578125 64.703125 
Q 30.328125 64.703125 24.78125 60.734375 
Q 19.234375 56.78125 16.984375 50.109375 
Q 14.75 43.453125 14.75 36.375 
Q 14.75 27.25 17.40625 20.4375 
Q 20.0625 13.625 25.671875 10.25 
Q 31.296875 6.890625 37.84375 6.890625 
Q 45.796875 6.890625 51.3125 11.46875 
Q 56.84375 16.0625 58.796875 25.09375 
z
" id="ArialMT-67"/>
       <path d="M 3.328125 25.921875 
Q 3.328125 40.328125 11.328125 47.265625 
Q 18.015625 53.03125 27.640625 53.03125 
Q 38.328125 53.03125 45.109375 46.015625 
Q 51.90625 39.015625 51.90625 26.65625 
Q 51.90625 16.65625 48.90625 10.90625 
Q 45.90625 5.171875 40.15625 2 
Q 34.421875 -1.171875 27.640625 -1.171875 
Q 16.75 -1.171875 10.03125 5.8125 
Q 3.328125 12.796875 3.328125 25.921875 
z
M 12.359375 25.921875 
Q 12.359375 15.96875 16.703125 11.015625 
Q 21.046875 6.0625 27.640625 6.0625 
Q 34.1875 6.0625 38.53125 11.03125 
Q 42.875 16.015625 42.875 26.21875 
Q 42.875 35.84375 38.5 40.796875 
Q 34.125 45.75 27.640625 45.75 
Q 21.046875 45.75 16.703125 40.8125 
Q 12.359375 35.890625 12.359375 25.921875 
z
" id="ArialMT-111"/>
       <path d="M 6.59375 0 
L 6.59375 51.859375 
L 14.5 51.859375 
L 14.5 44.484375 
Q 20.21875 53.03125 31 53.03125 
Q 35.6875 53.03125 39.625 51.34375 
Q 43.5625 49.65625 45.515625 46.921875 
Q 47.46875 44.1875 48.25 40.4375 
Q 48.734375 37.984375 48.734375 31.890625 
L 48.734375 0 
L 39.9375 0 
L 39.9375 31.546875 
Q 39.9375 36.921875 38.90625 39.578125 
Q 37.890625 42.234375 35.28125 43.8125 
Q 32.671875 45.40625 29.15625 45.40625 
Q 23.53125 45.40625 19.453125 41.84375 
Q 15.375 38.28125 15.375 28.328125 
L 15.375 0 
z
" id="ArialMT-110"/>
       <path d="M 3.078125 15.484375 
L 11.765625 16.84375 
Q 12.5 11.625 15.84375 8.84375 
Q 19.1875 6.0625 25.203125 6.0625 
Q 31.25 6.0625 34.171875 8.515625 
Q 37.109375 10.984375 37.109375 14.3125 
Q 37.109375 17.28125 34.515625 19 
Q 32.71875 20.171875 25.53125 21.96875 
Q 15.875 24.421875 12.140625 26.203125 
Q 8.40625 27.984375 6.46875 31.125 
Q 4.546875 34.28125 4.546875 38.09375 
Q 4.546875 41.546875 6.125 44.5 
Q 7.71875 47.46875 10.453125 49.421875 
Q 12.5 50.921875 16.03125 51.96875 
Q 19.578125 53.03125 23.640625 53.03125 
Q 29.734375 53.03125 34.34375 51.265625 
Q 38.96875 49.515625 41.15625 46.5 
Q 43.359375 43.5 44.1875 38.484375 
L 35.59375 37.3125 
Q 35.015625 41.3125 32.203125 43.546875 
Q 29.390625 45.796875 24.265625 45.796875 
Q 18.21875 45.796875 15.625 43.796875 
Q 13.03125 41.796875 13.03125 39.109375 
Q 13.03125 37.40625 14.109375 36.03125 
Q 15.1875 34.625 17.484375 33.6875 
Q 18.796875 33.203125 25.25 31.453125 
Q 34.578125 28.953125 38.25 27.359375 
Q 41.9375 25.78125 44.03125 22.75 
Q 46.140625 19.734375 46.140625 15.234375 
Q 46.140625 10.84375 43.578125 6.953125 
Q 41.015625 3.078125 36.171875 0.953125 
Q 31.34375 -1.171875 25.25 -1.171875 
Q 15.140625 -1.171875 9.84375 3.03125 
Q 4.546875 7.234375 3.078125 15.484375 
z
" id="ArialMT-115"/>
       <path d="M 42.09375 16.703125 
L 51.171875 15.578125 
Q 49.03125 7.625 43.21875 3.21875 
Q 37.40625 -1.171875 28.375 -1.171875 
Q 17 -1.171875 10.328125 5.828125 
Q 3.65625 12.84375 3.65625 25.484375 
Q 3.65625 38.578125 10.390625 45.796875 
Q 17.140625 53.03125 27.875 53.03125 
Q 38.28125 53.03125 44.875 45.953125 
Q 51.46875 38.875 51.46875 26.03125 
Q 51.46875 25.25 51.421875 23.6875 
L 12.75 23.6875 
Q 13.234375 15.140625 17.578125 10.59375 
Q 21.921875 6.0625 28.421875 6.0625 
Q 33.25 6.0625 36.671875 8.59375 
Q 40.09375 11.140625 42.09375 16.703125 
z
M 13.234375 30.90625 
L 42.1875 30.90625 
Q 41.609375 37.453125 38.875 40.71875 
Q 34.671875 45.796875 27.984375 45.796875 
Q 21.921875 45.796875 17.796875 41.75 
Q 13.671875 37.703125 13.234375 30.90625 
z
" id="ArialMT-101"/>
       <path d="M 40.578125 0 
L 40.578125 7.625 
Q 34.515625 -1.171875 24.125 -1.171875 
Q 19.53125 -1.171875 15.546875 0.578125 
Q 11.578125 2.34375 9.640625 5 
Q 7.71875 7.671875 6.9375 11.53125 
Q 6.390625 14.109375 6.390625 19.734375 
L 6.390625 51.859375 
L 15.1875 51.859375 
L 15.1875 23.09375 
Q 15.1875 16.21875 15.71875 13.8125 
Q 16.546875 10.359375 19.234375 8.375 
Q 21.921875 6.390625 25.875 6.390625 
Q 29.828125 6.390625 33.296875 8.421875 
Q 36.765625 10.453125 38.203125 13.9375 
Q 39.65625 17.4375 39.65625 24.078125 
L 39.65625 51.859375 
L 48.4375 51.859375 
L 48.4375 0 
z
" id="ArialMT-117"/>
       <path d="M 7.71875 0 
L 7.71875 71.578125 
L 34.71875 71.578125 
Q 41.84375 71.578125 45.609375 70.90625 
Q 50.875 70.015625 54.4375 67.546875 
Q 58.015625 65.09375 60.1875 60.640625 
Q 62.359375 56.203125 62.359375 50.875 
Q 62.359375 41.75 56.546875 35.421875 
Q 50.734375 29.109375 35.546875 29.109375 
L 17.1875 29.109375 
L 17.1875 0 
z
M 17.1875 37.546875 
L 35.6875 37.546875 
Q 44.875 37.546875 48.734375 40.96875 
Q 52.59375 44.390625 52.59375 50.59375 
Q 52.59375 55.078125 50.3125 58.265625 
Q 48.046875 61.46875 44.34375 62.5 
Q 41.9375 63.140625 35.5 63.140625 
L 17.1875 63.140625 
z
" id="ArialMT-80"/>
       <path d="M 40.4375 6.390625 
Q 35.546875 2.25 31.03125 0.53125 
Q 26.515625 -1.171875 21.34375 -1.171875 
Q 12.796875 -1.171875 8.203125 3 
Q 3.609375 7.171875 3.609375 13.671875 
Q 3.609375 17.484375 5.34375 20.625 
Q 7.078125 23.78125 9.890625 25.6875 
Q 12.703125 27.59375 16.21875 28.5625 
Q 18.796875 29.25 24.03125 29.890625 
Q 34.671875 31.15625 39.703125 32.90625 
Q 39.75 34.71875 39.75 35.203125 
Q 39.75 40.578125 37.25 42.78125 
Q 33.890625 45.75 27.25 45.75 
Q 21.046875 45.75 18.09375 43.578125 
Q 15.140625 41.40625 13.71875 35.890625 
L 5.125 37.0625 
Q 6.296875 42.578125 8.984375 45.96875 
Q 11.671875 49.359375 16.75 51.1875 
Q 21.828125 53.03125 28.515625 53.03125 
Q 35.15625 53.03125 39.296875 51.46875 
Q 43.453125 49.90625 45.40625 47.53125 
Q 47.359375 45.171875 48.140625 41.546875 
Q 48.578125 39.3125 48.578125 33.453125 
L 48.578125 21.734375 
Q 48.578125 9.46875 49.140625 6.21875 
Q 49.703125 2.984375 51.375 0 
L 42.1875 0 
Q 40.828125 2.734375 40.4375 6.390625 
z
M 39.703125 26.03125 
Q 34.90625 24.078125 25.34375 22.703125 
Q 19.921875 21.921875 17.671875 20.9375 
Q 15.4375 19.96875 14.203125 18.09375 
Q 12.984375 16.21875 12.984375 13.921875 
Q 12.984375 10.40625 15.640625 8.0625 
Q 18.3125 5.71875 23.4375 5.71875 
Q 28.515625 5.71875 32.46875 7.9375 
Q 36.421875 10.15625 38.28125 14.015625 
Q 39.703125 17 39.703125 22.796875 
z
" id="ArialMT-97"/>
       <path d="M 25.78125 7.859375 
L 27.046875 0.09375 
Q 23.34375 -0.6875 20.40625 -0.6875 
Q 15.625 -0.6875 12.984375 0.828125 
Q 10.359375 2.34375 9.28125 4.8125 
Q 8.203125 7.28125 8.203125 15.1875 
L 8.203125 45.015625 
L 1.765625 45.015625 
L 1.765625 51.859375 
L 8.203125 51.859375 
L 8.203125 64.703125 
L 16.9375 69.96875 
L 16.9375 51.859375 
L 25.78125 51.859375 
L 25.78125 45.015625 
L 16.9375 45.015625 
L 16.9375 14.703125 
Q 16.9375 10.9375 17.40625 9.859375 
Q 17.875 8.796875 18.921875 8.15625 
Q 19.96875 7.515625 21.921875 7.515625 
Q 23.390625 7.515625 25.78125 7.859375 
z
" id="ArialMT-116"/>
       <path d="M 6.59375 0 
L 6.59375 71.578125 
L 15.375 71.578125 
L 15.375 45.90625 
Q 21.53125 53.03125 30.90625 53.03125 
Q 36.671875 53.03125 40.921875 50.75 
Q 45.171875 48.484375 47 44.484375 
Q 48.828125 40.484375 48.828125 32.859375 
L 48.828125 0 
L 40.046875 0 
L 40.046875 32.859375 
Q 40.046875 39.453125 37.1875 42.453125 
Q 34.328125 45.453125 29.109375 45.453125 
Q 25.203125 45.453125 21.75 43.421875 
Q 18.3125 41.40625 16.84375 37.9375 
Q 15.375 34.46875 15.375 28.375 
L 15.375 0 
z
" id="ArialMT-104"/>
       <path id="ArialMT-32"/>
       <path d="M 6.390625 0 
L 6.390625 71.578125 
L 15.1875 71.578125 
L 15.1875 0 
z
" id="ArialMT-108"/>
       <path d="M 4.984375 -4.296875 
L 13.53125 -5.5625 
Q 14.0625 -9.515625 16.5 -11.328125 
Q 19.78125 -13.765625 25.4375 -13.765625 
Q 31.546875 -13.765625 34.859375 -11.328125 
Q 38.1875 -8.890625 39.359375 -4.5 
Q 40.046875 -1.8125 39.984375 6.78125 
Q 34.234375 0 25.640625 0 
Q 14.9375 0 9.078125 7.71875 
Q 3.21875 15.4375 3.21875 26.21875 
Q 3.21875 33.640625 5.90625 39.90625 
Q 8.59375 46.1875 13.6875 49.609375 
Q 18.796875 53.03125 25.6875 53.03125 
Q 34.859375 53.03125 40.828125 45.609375 
L 40.828125 51.859375 
L 48.921875 51.859375 
L 48.921875 7.03125 
Q 48.921875 -5.078125 46.453125 -10.125 
Q 44 -15.1875 38.640625 -18.109375 
Q 33.296875 -21.046875 25.484375 -21.046875 
Q 16.21875 -21.046875 10.5 -16.875 
Q 4.78125 -12.703125 4.984375 -4.296875 
z
M 12.25 26.859375 
Q 12.25 16.65625 16.296875 11.96875 
Q 20.359375 7.28125 26.46875 7.28125 
Q 32.515625 7.28125 36.609375 11.9375 
Q 40.71875 16.609375 40.71875 26.5625 
Q 40.71875 36.078125 36.5 40.90625 
Q 32.28125 45.75 26.3125 45.75 
Q 20.453125 45.75 16.34375 40.984375 
Q 12.25 36.234375 12.25 26.859375 
z
" id="ArialMT-103"/>
       <path d="M 23.390625 -21.046875 
Q 16.109375 -11.859375 11.078125 0.4375 
Q 6.0625 12.75 6.0625 25.921875 
Q 6.0625 37.546875 9.8125 48.1875 
Q 14.203125 60.546875 23.390625 72.796875 
L 29.6875 72.796875 
Q 23.78125 62.640625 21.875 58.296875 
Q 18.890625 51.5625 17.1875 44.234375 
Q 15.09375 35.109375 15.09375 25.875 
Q 15.09375 2.390625 29.6875 -21.046875 
z
" id="ArialMT-40"/>
       <path d="M 7.71875 0 
L 7.71875 71.578125 
L 32.375 71.578125 
Q 40.71875 71.578125 45.125 70.5625 
Q 51.265625 69.140625 55.609375 65.4375 
Q 61.28125 60.640625 64.078125 53.1875 
Q 66.890625 45.75 66.890625 36.1875 
Q 66.890625 28.03125 64.984375 21.734375 
Q 63.09375 15.4375 60.109375 11.296875 
Q 57.125 7.171875 53.578125 4.796875 
Q 50.046875 2.4375 45.046875 1.21875 
Q 40.046875 0 33.546875 0 
z
M 17.1875 8.453125 
L 32.46875 8.453125 
Q 39.546875 8.453125 43.578125 9.765625 
Q 47.609375 11.078125 50 13.484375 
Q 53.375 16.84375 55.25 22.53125 
Q 57.125 28.21875 57.125 36.328125 
Q 57.125 47.5625 53.4375 53.59375 
Q 49.75 59.625 44.484375 61.671875 
Q 40.671875 63.140625 32.234375 63.140625 
L 17.1875 63.140625 
z
" id="ArialMT-68"/>
       <path d="M 6.5 0 
L 6.5 51.859375 
L 14.40625 51.859375 
L 14.40625 44 
Q 17.4375 49.515625 20 51.265625 
Q 22.5625 53.03125 25.640625 53.03125 
Q 30.078125 53.03125 34.671875 50.203125 
L 31.640625 42.046875 
Q 28.421875 43.953125 25.203125 43.953125 
Q 22.3125 43.953125 20.015625 42.21875 
Q 17.71875 40.484375 16.75 37.40625 
Q 15.28125 32.71875 15.28125 27.15625 
L 15.28125 0 
z
" id="ArialMT-114"/>
       <path d="M 12.359375 -21.046875 
L 6.0625 -21.046875 
Q 20.65625 2.390625 20.65625 25.875 
Q 20.65625 35.0625 18.5625 44.09375 
Q 16.890625 51.421875 13.921875 58.15625 
Q 12.015625 62.546875 6.0625 72.796875 
L 12.359375 72.796875 
Q 21.53125 60.546875 25.921875 48.1875 
Q 29.6875 37.546875 29.6875 25.921875 
Q 29.6875 12.75 24.625 0.4375 
Q 19.578125 -11.859375 12.359375 -21.046875 
z
" id="ArialMT-41"/>
      </defs>
      <use xlink:href="#ArialMT-67"/>
      <use x="72.216797" xlink:href="#ArialMT-111"/>
      <use x="127.832031" xlink:href="#ArialMT-110"/>
      <use x="183.447266" xlink:href="#ArialMT-115"/>
      <use x="233.447266" xlink:href="#ArialMT-101"/>
      <use x="289.0625" xlink:href="#ArialMT-110"/>
      <use x="344.677734" xlink:href="#ArialMT-115"/>
      <use x="394.677734" xlink:href="#ArialMT-117"/>
      <use x="450.292969" xlink:href="#ArialMT-115"/>
      <use x="500.292969" xlink:href="#ArialMT-80"/>
      <use x="566.992188" xlink:href="#ArialMT-97"/>
      <use x="622.607422" xlink:href="#ArialMT-116"/>
      <use x="650.390625" xlink:href="#ArialMT-104"/>
      <use x="706.005859" xlink:href="#ArialMT-32"/>
      <use x="733.789062" xlink:href="#ArialMT-108"/>
      <use x="756.005859" xlink:href="#ArialMT-111"/>
      <use x="811.621094" xlink:href="#ArialMT-103"/>
      <use x="867.236328" xlink:href="#ArialMT-40"/>
      <use x="900.537109" xlink:href="#ArialMT-68"/>
      <use x="972.753906" xlink:href="#ArialMT-101"/>
      <use x="1028.369141" xlink:href="#ArialMT-103"/>
      <use x="1083.984375" xlink:href="#ArialMT-114"/>
      <use x="1117.285156" xlink:href="#ArialMT-101"/>
      <use x="1172.900391" xlink:href="#ArialMT-101"/>
      <use x="1228.515625" xlink:href="#ArialMT-41"/>
     </g>
    </g>
   </g>
   <g id="matplotlib.axis_2">
    <g id="ytick_1">
     <g id="line2d_3">
      <path clip-path="url(#p87e1bd9e03)" d="M 78.21 613.428856 
L 495.034457 613.428856 
" style="fill:none;stroke:#ffffff;stroke-linecap:round;"/>
     </g>
     <g id="text_4">
      <!-- 0.0 -->
      <g style="fill:#262626;" transform="translate(27.01 624.165575)scale(0.3 -0.3)">
       <defs>
        <path d="M 9.078125 0 
L 9.078125 10.015625 
L 19.09375 10.015625 
L 19.09375 0 
z
" id="ArialMT-46"/>
       </defs>
       <use xlink:href="#ArialMT-48"/>
       <use x="55.615234" xlink:href="#ArialMT-46"/>
       <use x="83.398438" xlink:href="#ArialMT-48"/>
      </g>
     </g>
    </g>
    <g id="ytick_2">
     <g id="line2d_4">
      <path clip-path="url(#p87e1bd9e03)" d="M 78.21 515.664661 
L 495.034457 515.664661 
" style="fill:none;stroke:#ffffff;stroke-linecap:round;"/>
     </g>
     <g id="text_5">
      <!-- 0.5 -->
      <g style="fill:#262626;" transform="translate(27.01 526.401379)scale(0.3 -0.3)">
       <defs>
        <path d="M 4.15625 18.75 
L 13.375 19.53125 
Q 14.40625 12.796875 18.140625 9.390625 
Q 21.875 6 27.15625 6 
Q 33.5 6 37.890625 10.78125 
Q 42.28125 15.578125 42.28125 23.484375 
Q 42.28125 31 38.0625 35.34375 
Q 33.84375 39.703125 27 39.703125 
Q 22.75 39.703125 19.328125 37.765625 
Q 15.921875 35.84375 13.96875 32.765625 
L 5.71875 33.84375 
L 12.640625 70.609375 
L 48.25 70.609375 
L 48.25 62.203125 
L 19.671875 62.203125 
L 15.828125 42.96875 
Q 22.265625 47.46875 29.34375 47.46875 
Q 38.71875 47.46875 45.15625 40.96875 
Q 51.609375 34.46875 51.609375 24.265625 
Q 51.609375 14.546875 45.953125 7.46875 
Q 39.0625 -1.21875 27.15625 -1.21875 
Q 17.390625 -1.21875 11.203125 4.25 
Q 5.03125 9.71875 4.15625 18.75 
z
" id="ArialMT-53"/>
       </defs>
       <use xlink:href="#ArialMT-48"/>
       <use x="55.615234" xlink:href="#ArialMT-46"/>
       <use x="83.398438" xlink:href="#ArialMT-53"/>
      </g>
     </g>
    </g>
    <g id="ytick_3">
     <g id="line2d_5">
      <path clip-path="url(#p87e1bd9e03)" d="M 78.21 417.900465 
L 495.034457 417.900465 
" style="fill:none;stroke:#ffffff;stroke-linecap:round;"/>
     </g>
     <g id="text_6">
      <!-- 1.0 -->
      <g style="fill:#262626;" transform="translate(27.01 428.637184)scale(0.3 -0.3)">
       <defs>
        <path d="M 37.25 0 
L 28.46875 0 
L 28.46875 56 
Q 25.296875 52.984375 20.140625 49.953125 
Q 14.984375 46.921875 10.890625 45.40625 
L 10.890625 53.90625 
Q 18.265625 57.375 23.78125 62.296875 
Q 29.296875 67.234375 31.59375 71.875 
L 37.25 71.875 
z
" id="ArialMT-49"/>
       </defs>
       <use xlink:href="#ArialMT-49"/>
       <use x="55.615234" xlink:href="#ArialMT-46"/>
       <use x="83.398438" xlink:href="#ArialMT-48"/>
      </g>
     </g>
    </g>
    <g id="ytick_4">
     <g id="line2d_6">
      <path clip-path="url(#p87e1bd9e03)" d="M 78.21 320.13627 
L 495.034457 320.13627 
" style="fill:none;stroke:#ffffff;stroke-linecap:round;"/>
     </g>
     <g id="text_7">
      <!-- 1.5 -->
      <g style="fill:#262626;" transform="translate(27.01 330.872989)scale(0.3 -0.3)">
       <use xlink:href="#ArialMT-49"/>
       <use x="55.615234" xlink:href="#ArialMT-46"/>
       <use x="83.398438" xlink:href="#ArialMT-53"/>
      </g>
     </g>
    </g>
    <g id="ytick_5">
     <g id="line2d_7">
      <path clip-path="url(#p87e1bd9e03)" d="M 78.21 222.372075 
L 495.034457 222.372075 
" style="fill:none;stroke:#ffffff;stroke-linecap:round;"/>
     </g>
     <g id="text_8">
      <!-- 2.0 -->
      <g style="fill:#262626;" transform="translate(27.01 233.108794)scale(0.3 -0.3)">
       <use xlink:href="#ArialMT-50"/>
       <use x="55.615234" xlink:href="#ArialMT-46"/>
       <use x="83.398438" xlink:href="#ArialMT-48"/>
      </g>
     </g>
    </g>
    <g id="ytick_6">
     <g id="line2d_8">
      <path clip-path="url(#p87e1bd9e03)" d="M 78.21 124.60788 
L 495.034457 124.60788 
" style="fill:none;stroke:#ffffff;stroke-linecap:round;"/>
     </g>
     <g id="text_9">
      <!-- 2.5 -->
      <g style="fill:#262626;" transform="translate(27.01 135.344598)scale(0.3 -0.3)">
       <use xlink:href="#ArialMT-50"/>
       <use x="55.615234" xlink:href="#ArialMT-46"/>
       <use x="83.398438" xlink:href="#ArialMT-53"/>
      </g>
     </g>
    </g>
    <g id="text_10">
     <!-- log(Publication_count) -->
     <g style="fill:#262626;" transform="translate(14.59125 587.215786)rotate(-90)scale(0.4 -0.4)">
      <defs>
       <path d="M 14.703125 0 
L 6.546875 0 
L 6.546875 71.578125 
L 15.328125 71.578125 
L 15.328125 46.046875 
Q 20.90625 53.03125 29.546875 53.03125 
Q 34.328125 53.03125 38.59375 51.09375 
Q 42.875 49.171875 45.625 45.671875 
Q 48.390625 42.1875 49.953125 37.25 
Q 51.515625 32.328125 51.515625 26.703125 
Q 51.515625 13.375 44.921875 6.09375 
Q 38.328125 -1.171875 29.109375 -1.171875 
Q 19.921875 -1.171875 14.703125 6.5 
z
M 14.59375 26.3125 
Q 14.59375 17 17.140625 12.84375 
Q 21.296875 6.0625 28.375 6.0625 
Q 34.125 6.0625 38.328125 11.0625 
Q 42.53125 16.0625 42.53125 25.984375 
Q 42.53125 36.140625 38.5 40.96875 
Q 34.46875 45.796875 28.765625 45.796875 
Q 23 45.796875 18.796875 40.796875 
Q 14.59375 35.796875 14.59375 26.3125 
z
" id="ArialMT-98"/>
       <path d="M 6.640625 61.46875 
L 6.640625 71.578125 
L 15.4375 71.578125 
L 15.4375 61.46875 
z
M 6.640625 0 
L 6.640625 51.859375 
L 15.4375 51.859375 
L 15.4375 0 
z
" id="ArialMT-105"/>
       <path d="M 40.4375 19 
L 49.078125 17.875 
Q 47.65625 8.9375 41.8125 3.875 
Q 35.984375 -1.171875 27.484375 -1.171875 
Q 16.84375 -1.171875 10.375 5.78125 
Q 3.90625 12.75 3.90625 25.734375 
Q 3.90625 34.125 6.6875 40.421875 
Q 9.46875 46.734375 15.15625 49.875 
Q 20.84375 53.03125 27.546875 53.03125 
Q 35.984375 53.03125 41.359375 48.75 
Q 46.734375 44.484375 48.25 36.625 
L 39.703125 35.296875 
Q 38.484375 40.53125 35.375 43.15625 
Q 32.28125 45.796875 27.875 45.796875 
Q 21.234375 45.796875 17.078125 41.03125 
Q 12.9375 36.28125 12.9375 25.984375 
Q 12.9375 15.53125 16.9375 10.796875 
Q 20.953125 6.0625 27.390625 6.0625 
Q 32.5625 6.0625 36.03125 9.234375 
Q 39.5 12.40625 40.4375 19 
z
" id="ArialMT-99"/>
       <path d="M -1.515625 -19.875 
L -1.515625 -13.53125 
L 56.734375 -13.53125 
L 56.734375 -19.875 
z
" id="ArialMT-95"/>
      </defs>
      <use xlink:href="#ArialMT-108"/>
      <use x="22.216797" xlink:href="#ArialMT-111"/>
      <use x="77.832031" xlink:href="#ArialMT-103"/>
      <use x="133.447266" xlink:href="#ArialMT-40"/>
      <use x="166.748047" xlink:href="#ArialMT-80"/>
      <use x="233.447266" xlink:href="#ArialMT-117"/>
      <use x="289.0625" xlink:href="#ArialMT-98"/>
      <use x="344.677734" xlink:href="#ArialMT-108"/>
      <use x="366.894531" xlink:href="#ArialMT-105"/>
      <use x="389.111328" xlink:href="#ArialMT-99"/>
      <use x="439.111328" xlink:href="#ArialMT-97"/>
      <use x="494.726562" xlink:href="#ArialMT-116"/>
      <use x="522.509766" xlink:href="#ArialMT-105"/>
      <use x="544.726562" xlink:href="#ArialMT-111"/>
      <use x="600.341797" xlink:href="#ArialMT-110"/>
      <use x="655.957031" xlink:href="#ArialMT-95"/>
      <use x="711.572266" xlink:href="#ArialMT-99"/>
      <use x="761.572266" xlink:href="#ArialMT-111"/>
      <use x="817.1875" xlink:href="#ArialMT-117"/>
      <use x="872.802734" xlink:href="#ArialMT-110"/>
      <use x="928.417969" xlink:href="#ArialMT-116"/>
      <use x="956.201172" xlink:href="#ArialMT-41"/>
     </g>
    </g>
   </g>
   <g id="LineCollection_1">
    <path clip-path="url(#p87e1bd9e03)" d="M 107.534334 631.514495 
L 108.513853 631.460548 
L 109.628929 631.406503 
L 111.723524 631.000701 
L 113.818119 630.353664 
L 115.912715 629.478891 
L 117.250819 628.785054 
L 118.00731 628.414517 
L 120.101905 627.242635 
L 121.863088 626.109559 
L 122.196501 625.892968 
L 124.291096 624.500522 
L 125.812969 623.434065 
L 126.385691 622.994092 
L 128.480286 621.476995 
L 129.582063 620.75857 
L 130.574882 619.955005 
L 132.669477 618.542217 
L 133.777613 618.083075 
L 134.764072 617.412524 
L 136.858667 617.223365 
L 137.803786 618.083075 
L 138.953263 618.821799 
L 141.047858 620.574142 
L 141.346414 620.75857 
L 143.142453 621.386573 
L 145.237048 621.638357 
L 147.331644 621.485128 
L 149.426239 621.027414 
L 150.234732 620.75857 
L 151.520834 620.241805 
L 153.615429 619.21732 
L 155.653657 618.083075 
L 155.710025 618.039562 
L 157.80462 616.320765 
L 158.874897 615.407581 
L 159.899215 613.821742 
L 160.606743 612.732086 
L 160.880173 610.056592 
L 159.899215 608.002767 
L 159.5406 607.381097 
L 157.80462 606.137758 
L 155.710025 605.313946 
L 153.615429 605.103976 
L 151.520834 605.347067 
L 149.426239 605.89891 
L 147.331644 606.653296 
L 145.574516 607.381097 
L 145.237048 607.563043 
L 143.142453 608.628382 
L 141.047858 609.462277 
L 138.953263 609.434444 
L 137.707643 607.381097 
L 136.858667 605.707588 
L 136.608173 604.705602 
L 135.674285 602.030108 
L 134.764072 600.173032 
L 134.372002 599.354613 
L 132.669477 597.058684 
L 132.270828 596.679118 
L 130.574882 595.444814 
L 128.480286 594.731738 
L 126.385691 594.608773 
L 124.291096 594.898378 
L 122.196501 595.515373 
L 120.101905 596.444761 
L 119.70363 596.679118 
L 118.00731 597.546911 
L 115.912715 598.906527 
L 115.337319 599.354613 
L 113.818119 600.465272 
L 112.035876 602.030108 
L 111.723524 602.30376 
L 109.628929 604.37647 
L 109.327632 604.705602 
L 107.534334 606.780936 
L 107.0518 607.381097 
L 105.439738 609.627128 
L 105.140158 610.056592 
L 103.548067 612.732086 
L 103.345143 613.159344 
L 102.236369 615.407581 
L 101.275906 618.083075 
L 101.250548 618.19655 
L 100.61556 620.75857 
L 100.381441 623.434065 
L 100.69304 626.109559 
L 101.250548 627.541957 
L 101.931132 628.785054 
L 103.345143 630.168642 
L 105.439738 631.189621 
L 107.145805 631.460548 
L 107.534334 631.514495 
" style="fill:none;stroke:#ffa500;stroke-width:1.5;"/>
    <path clip-path="url(#p87e1bd9e03)" d="M 99.155953 578.184898 
L 101.250548 579.038751 
L 103.345143 579.422479 
L 105.439738 579.481244 
L 107.534334 579.296478 
L 109.628929 578.911042 
L 113.818119 577.696506 
L 120.101905 575.751969 
L 122.558864 575.275162 
L 124.757036 575.275162 
L 126.385691 575.580088 
L 132.911291 577.950656 
L 134.764072 578.412428 
L 136.858667 578.601991 
L 138.953263 578.524677 
L 142.46851 577.950656 
L 145.237048 577.434577 
L 151.520834 575.923955 
L 155.710025 574.95709 
L 159.899215 574.221125 
L 164.088406 573.672026 
L 168.277596 573.409554 
L 172.466787 573.482035 
L 185.034358 574.264108 
L 191.318144 574.287787 
L 203.885716 574.138944 
L 208.074906 573.89013 
L 212.264097 573.381866 
L 216.453287 572.594503 
L 229.020859 570.203143 
L 233.210049 569.925305 
L 237.39924 569.99416 
L 245.777621 570.245981 
L 249.966811 570.162546 
L 256.250597 569.741451 
L 260.439788 569.274838 
L 264.628978 568.646638 
L 270.912764 567.430733 
L 279.291145 565.529623 
L 285.574931 563.942554 
L 289.764121 562.712563 
L 292.193675 561.897688 
L 296.047907 560.18301 
L 298.142503 559.061304 
L 301.522356 556.546699 
L 303.852966 553.871205 
L 305.222594 551.19571 
L 305.858626 548.520215 
L 306.002095 545.844721 
L 306.001782 543.169226 
L 306.288335 540.493732 
L 307.179684 537.818237 
L 308.746215 535.142742 
L 310.840257 532.467248 
L 319.088455 523.266438 
L 321.18305 520.552677 
L 322.240571 519.089775 
L 323.859722 516.41428 
L 325.372241 513.255415 
L 326.277157 511.063291 
L 327.942968 505.712302 
L 330.203725 497.685818 
L 335.26735 481.63285 
L 336.580493 476.281861 
L 337.590196 470.930872 
L 338.949169 462.904388 
L 340.1118 457.553398 
L 341.779523 452.202409 
L 342.790256 449.526915 
L 344.223598 446.076659 
L 346.370413 441.500431 
L 350.507384 433.910284 
L 359.994906 417.420979 
L 362.57342 412.06999 
L 364.668017 406.719001 
L 366.217363 401.368011 
L 368.711452 390.666033 
L 369.456476 387.990538 
L 371.453337 382.115416 
L 376.354924 369.262076 
L 378.100044 363.911087 
L 378.835529 361.235592 
L 379.4269 358.560098 
L 380.282002 353.209108 
L 381.119181 345.182625 
L 382.037005 337.156141 
L 383.06542 329.129657 
L 383.512326 323.778668 
L 383.662359 318.427678 
L 383.486504 307.7257 
L 383.1861 294.348227 
L 382.741354 286.321743 
L 382.28545 280.970754 
L 381.555821 275.619765 
L 381.003208 272.94427 
L 379.831718 268.943346 
L 379.232706 267.593281 
L 377.683137 264.917786 
L 375.642527 263.009249 
L 373.547932 262.070996 
L 371.453337 261.690076 
L 369.358741 261.612642 
L 365.169551 261.69948 
L 363.074956 261.589152 
L 360.98036 261.239354 
L 358.885765 260.636517 
L 354.696575 259.160507 
L 352.601979 258.604703 
L 350.507384 258.217307 
L 348.412789 258.003333 
L 346.318194 257.950438 
L 344.223598 258.043724 
L 342.129003 258.272334 
L 340.034408 258.631011 
L 336.443189 259.566797 
L 335.845217 259.742789 
L 333.750622 260.495624 
L 329.867847 262.242291 
L 327.466836 263.510226 
L 323.277646 266.079539 
L 314.899265 271.906929 
L 310.710074 274.738127 
L 308.615479 276.051952 
L 304.426288 278.361181 
L 300.237098 280.139839 
L 297.884687 280.970754 
L 293.953312 281.972409 
L 289.764121 282.742802 
L 279.291145 284.317755 
L 275.101955 285.27131 
L 270.912764 286.55931 
L 266.723574 288.10922 
L 258.594719 291.672732 
L 252.061407 294.753349 
L 247.675884 297.023721 
L 243.683026 299.31613 
L 238.930644 302.374711 
L 224.831668 311.744949 
L 220.642478 314.272479 
L 216.453287 316.630054 
L 201.79112 324.546653 
L 197.60193 327.257103 
L 193.412739 330.30104 
L 189.223549 333.721055 
L 185.034358 337.572227 
L 180.845168 341.912528 
L 177.983828 345.182625 
L 173.770942 350.533614 
L 161.99381 366.78266 
L 157.725822 371.937571 
L 145.237048 385.995567 
L 143.142453 388.249625 
L 140.610038 390.666033 
L 138.953263 392.04782 
L 136.858667 393.354954 
L 134.764072 394.003588 
L 132.669477 393.945107 
L 130.574882 393.178356 
L 126.385691 390.528146 
L 124.291096 389.535003 
L 122.196501 389.139064 
L 120.101905 389.405105 
L 118.00731 390.330057 
L 115.912715 391.97465 
L 113.818119 394.395633 
L 111.723524 397.805228 
L 111.290075 398.692517 
L 109.628929 402.60907 
L 108.292735 406.719001 
L 106.840257 412.06999 
L 103.345143 425.772779 
L 99.723043 438.824936 
L 97.820569 446.85142 
L 96.371564 454.877904 
L 95.62655 460.228893 
L 94.80257 468.255377 
L 94.200989 476.281861 
L 92.848108 500.361312 
L 92.455465 505.712302 
L 92.315095 511.063291 
L 92.291124 521.765269 
L 91.821647 532.467248 
L 91.946692 535.142742 
L 92.317099 537.818237 
L 93.005192 540.493732 
L 93.979399 543.169226 
L 95.166429 545.844721 
L 96.048809 548.520215 
L 96.379191 551.19571 
L 96.192666 553.871205 
L 94.966762 560.465399 
L 94.655537 561.897688 
L 94.228258 564.573183 
L 94.035036 567.248678 
L 94.154117 569.924172 
L 94.724675 572.599667 
L 94.966762 573.196193 
L 95.984315 575.275162 
L 97.061357 576.592013 
L 99.155953 578.184898 
L 99.155953 578.184898 
" style="fill:none;stroke:#ffa500;stroke-width:1.5;"/>
   </g>
   <g id="LineCollection_2">
    <path clip-path="url(#p87e1bd9e03)" d="M 107.534334 567.387162 
L 109.628929 567.956846 
L 111.723524 567.934774 
L 114.546642 567.248678 
L 115.912715 566.768769 
L 118.00731 565.806552 
L 120.216117 564.573183 
L 124.291096 561.865784 
L 130.574882 557.157022 
L 131.76325 556.546699 
L 132.669477 555.820103 
L 134.764072 555.449585 
L 135.556944 556.546699 
L 136.858667 558.667527 
L 137.045483 559.222194 
L 138.953263 562.098978 
L 141.047858 563.615054 
L 143.142453 564.346727 
L 145.237048 564.489329 
L 147.331644 564.241042 
L 149.426239 563.732388 
L 151.520834 563.037746 
L 154.291906 561.897688 
L 157.80462 560.041787 
L 159.899215 558.786481 
L 163.202824 556.546699 
L 166.248188 553.871205 
L 168.576052 551.19571 
L 172.466787 545.145741 
L 174.561382 543.150076 
L 176.655977 542.275479 
L 178.750573 541.808737 
L 180.845168 541.628744 
L 182.939763 541.654872 
L 185.034358 541.83651 
L 189.223549 542.540882 
L 192.031293 543.169226 
L 195.507335 544.688747 
L 197.60193 545.423534 
L 201.79112 546.377749 
L 203.885716 546.457712 
L 208.074906 546.181249 
L 214.358692 545.448209 
L 216.453287 545.002563 
L 218.547883 544.326348 
L 229.020859 539.788316 
L 235.304645 537.265656 
L 243.683026 534.476279 
L 254.156002 531.209118 
L 262.534383 528.333308 
L 268.818169 525.924483 
L 273.007359 524.082469 
L 277.521624 521.765269 
L 281.38574 519.390287 
L 283.480336 517.910193 
L 285.574931 516.286938 
L 288.466634 513.738785 
L 291.121548 511.063291 
L 293.50708 508.387796 
L 295.70555 505.712302 
L 297.760122 503.036807 
L 299.685102 500.361312 
L 301.479163 497.685818 
L 303.136173 495.010323 
L 304.651986 492.334828 
L 307.296822 486.983839 
L 314.445519 470.930872 
L 321.521474 457.553398 
L 327.072046 446.85142 
L 332.262819 436.149441 
L 334.658998 430.798452 
L 336.826208 425.447463 
L 338.717226 420.096474 
L 344.795191 401.368011 
L 346.962218 396.017022 
L 350.582092 387.990538 
L 353.034071 382.639549 
L 355.265845 377.28856 
L 357.113801 371.937571 
L 357.871845 369.262076 
L 359.034549 363.911087 
L 359.791791 358.560098 
L 360.017786 355.884603 
L 360.131041 353.209108 
L 360.110386 350.533614 
L 359.930716 347.858119 
L 359.577549 345.182625 
L 357.100668 331.805151 
L 356.583297 326.454162 
L 355.332477 310.401195 
L 354.696575 306.2186 
L 354.430653 305.050205 
L 353.361432 302.374711 
L 352.601979 301.251273 
L 351.113905 299.699216 
L 350.507384 299.259294 
L 348.412789 298.182366 
L 346.318194 297.501456 
L 343.828186 297.023721 
L 342.129003 296.810806 
L 337.939812 296.627668 
L 333.750622 296.848462 
L 329.561431 297.440307 
L 325.372241 298.39645 
L 321.141364 299.699216 
L 314.899265 301.737863 
L 308.615479 303.777061 
L 300.237098 306.596553 
L 291.858717 309.826125 
L 283.792506 313.076689 
L 276.645993 315.752184 
L 273.007359 317.098531 
L 268.818169 318.862024 
L 266.723574 319.847736 
L 262.534383 322.15519 
L 258.345193 324.904215 
L 252.061407 329.665173 
L 239.181568 339.831635 
L 231.115454 346.006865 
L 221.682164 353.209108 
L 214.320017 358.560098 
L 202.914267 366.586581 
L 199.504528 369.262076 
L 195.507335 372.717733 
L 189.223549 378.766012 
L 185.034358 382.876924 
L 178.750573 388.730243 
L 170.372192 396.238322 
L 161.688573 404.043506 
L 157.80462 407.701511 
L 153.550256 412.06999 
L 151.197192 414.745485 
L 147.331644 419.636321 
L 145.052629 422.771968 
L 141.047858 428.4007 
L 138.953263 430.956269 
L 136.858667 432.883827 
L 134.764072 433.936299 
L 132.669477 434.165866 
L 130.574882 433.786079 
L 126.385691 432.497459 
L 124.291096 432.088403 
L 122.196501 432.074542 
L 120.101905 432.573389 
L 118.00731 433.681991 
L 115.912715 435.489158 
L 113.818119 438.111077 
L 111.723524 441.724567 
L 109.628929 446.680086 
L 108.698068 449.526915 
L 107.249254 454.877904 
L 106.156923 460.228893 
L 105.330696 465.579882 
L 104.738035 470.930872 
L 103.031242 489.659334 
L 102.023516 497.685818 
L 101.642259 503.036807 
L 101.626869 508.387796 
L 101.658924 513.738785 
L 101.348108 519.089775 
L 100.894899 524.440764 
L 100.836564 527.116258 
L 101.041595 529.791753 
L 101.674607 532.467248 
L 103.345143 535.671707 
L 105.439738 537.925774 
L 108.281647 540.493732 
L 109.426437 543.169226 
L 109.095302 545.844721 
L 108.199666 548.520215 
L 107.142537 551.19571 
L 106.131717 553.871205 
L 105.279922 556.546699 
L 104.707568 559.222194 
L 104.551846 561.897688 
L 105.06246 564.573183 
L 105.439738 565.281857 
L 107.534334 567.387162 
L 107.534334 567.387162 
" style="fill:none;stroke:#ffa500;stroke-width:1.5;"/>
   </g>
   <g id="LineCollection_3">
    <path clip-path="url(#p87e1bd9e03)" d="M 115.912715 557.131767 
L 118.00731 556.638485 
L 118.143992 556.546699 
L 120.101905 554.644178 
L 120.754754 553.871205 
L 121.899009 551.19571 
L 120.101905 548.745545 
L 118.00731 549.680039 
L 116.258408 551.19571 
L 115.912715 551.660652 
L 114.76492 553.871205 
L 114.815063 556.546699 
L 115.912715 557.131767 
" style="fill:none;stroke:#ffa500;stroke-width:1.5;"/>
    <path clip-path="url(#p87e1bd9e03)" d="M 109.628929 530.494896 
L 111.723524 531.321785 
L 113.818119 531.45494 
L 115.912715 531.08875 
L 118.00731 530.264866 
L 120.101905 529.064903 
L 122.682145 527.116258 
L 125.686157 524.440764 
L 130.574882 519.619864 
L 131.247424 519.089775 
L 132.669477 517.794852 
L 134.764072 516.498709 
L 136.858667 516.066155 
L 137.803175 516.41428 
L 138.953263 516.988841 
L 141.047858 519.889796 
L 142.112071 521.765269 
L 143.142453 523.097193 
L 144.6863 524.440764 
L 145.237048 524.760103 
L 147.331644 525.437249 
L 149.426239 525.693117 
L 151.520834 525.707602 
L 155.710025 525.401706 
L 161.99381 524.833074 
L 168.277596 524.517898 
L 172.466787 524.510481 
L 174.561382 524.625759 
L 176.655977 524.852686 
L 178.750573 525.202498 
L 182.939763 526.210026 
L 187.128954 527.326404 
L 191.318144 528.154702 
L 195.507335 528.587867 
L 199.696525 528.684085 
L 208.074906 528.442133 
L 220.642478 528.098714 
L 224.831668 527.663081 
L 229.020859 526.945492 
L 233.210049 526.009719 
L 239.493835 524.389729 
L 245.777621 522.513271 
L 249.966811 521.018925 
L 254.451682 519.089775 
L 259.449864 516.41428 
L 263.724966 513.738785 
L 268.818169 510.206276 
L 275.101955 505.432838 
L 279.291145 501.955095 
L 281.38574 500.047162 
L 283.785919 497.685818 
L 286.217957 495.010323 
L 288.346932 492.334828 
L 290.21255 489.659334 
L 293.425032 484.308345 
L 299.58223 473.606366 
L 303.085958 468.255377 
L 312.804669 454.109935 
L 315.621349 449.526915 
L 318.5747 444.175925 
L 321.18305 438.824936 
L 323.515802 433.473947 
L 325.606013 428.122958 
L 327.512542 422.771968 
L 330.2026 414.745485 
L 334.652874 401.368011 
L 337.593517 393.341528 
L 340.034408 387.102408 
L 342.129003 381.716059 
L 343.727262 377.28856 
L 345.324884 371.937571 
L 346.318194 367.306197 
L 346.457116 366.586581 
L 346.840567 363.911087 
L 347.090285 361.235592 
L 347.210001 358.560098 
L 347.121529 353.209108 
L 345.922444 331.805151 
L 345.617336 329.129657 
L 345.199055 326.454162 
L 344.223598 322.040114 
L 343.963928 321.103173 
L 343.047539 318.427678 
L 341.75007 315.752184 
L 340.034408 313.564569 
L 339.46219 313.076689 
L 337.939812 312.07392 
L 335.845217 311.283658 
L 333.750622 310.929512 
L 331.656027 310.876656 
L 329.561431 311.037693 
L 327.466836 311.354377 
L 323.277646 312.30191 
L 312.804669 315.1065 
L 308.615479 316.067647 
L 302.331693 317.433445 
L 298.142503 318.569383 
L 293.953312 319.937384 
L 289.764121 321.625626 
L 285.090425 323.778668 
L 281.38574 325.560458 
L 268.818169 332.164347 
L 264.628978 334.62006 
L 260.439788 337.254144 
L 256.250597 340.058755 
L 252.061407 343.015187 
L 245.627255 347.858119 
L 241.58843 351.036071 
L 233.210049 357.969401 
L 214.358692 373.794269 
L 185.034358 399.400097 
L 178.750573 405.539661 
L 174.561382 410.022808 
L 170.372192 414.84432 
L 166.099143 420.096474 
L 161.99381 425.527592 
L 158.346515 430.798452 
L 155.12765 436.149441 
L 152.36577 441.500431 
L 149.99726 446.85142 
L 147.921315 452.202409 
L 142.200328 468.255377 
L 141.047858 471.102314 
L 138.953263 475.146207 
L 136.858667 477.800985 
L 134.764072 478.733113 
L 132.669477 478.072146 
L 130.567153 476.281861 
L 128.391191 473.606366 
L 126.385691 470.044611 
L 125.554779 468.255377 
L 124.291096 464.891553 
L 122.196501 460.517576 
L 121.890265 460.228893 
L 120.101905 458.867725 
L 118.00731 459.465054 
L 115.912715 462.378686 
L 115.707552 462.904388 
L 113.818119 468.71877 
L 111.187863 481.63285 
L 108.762308 492.334828 
L 108.297546 495.010323 
L 107.958875 497.685818 
L 107.778415 500.361312 
L 107.829521 505.712302 
L 107.878378 508.387796 
L 107.792885 511.063291 
L 107.196007 516.41428 
L 106.593972 521.765269 
L 106.607474 524.440764 
L 107.105969 527.116258 
L 107.534334 528.078969 
L 108.787356 529.791753 
L 109.628929 530.494896 
L 109.628929 530.494896 
" style="fill:none;stroke:#ffa500;stroke-width:1.5;"/>
   </g>
   <g id="LineCollection_4">
    <path clip-path="url(#p87e1bd9e03)" d="M 115.912715 521.873646 
L 116.485603 521.765269 
L 118.00731 521.384743 
L 120.101905 519.876685 
L 120.90551 519.089775 
L 122.196501 517.346582 
L 122.810346 516.41428 
L 123.829293 513.738785 
L 123.914141 511.063291 
L 122.46251 508.387796 
L 122.196501 508.074045 
L 120.101905 507.139345 
L 118.00731 508.214367 
L 117.914346 508.387796 
L 116.169286 511.063291 
L 115.912715 511.457443 
L 115.040964 513.738785 
L 114.201026 516.41428 
L 113.889341 519.089775 
L 115.659442 521.765269 
L 115.912715 521.873646 
" style="fill:none;stroke:#ffa500;stroke-width:1.5;"/>
    <path clip-path="url(#p87e1bd9e03)" d="M 193.412739 516.633667 
L 195.507335 517.397469 
L 197.60193 517.94477 
L 199.696525 518.279114 
L 201.79112 518.427995 
L 205.980311 518.326915 
L 212.264097 517.735269 
L 224.432023 516.41428 
L 226.926264 515.90395 
L 229.020859 515.341147 
L 233.210049 513.871558 
L 235.304645 512.973776 
L 241.58843 509.949473 
L 247.872216 506.966153 
L 260.439788 501.326297 
L 264.628978 499.061814 
L 268.818169 496.390023 
L 270.912764 494.856803 
L 273.933946 492.334828 
L 276.700697 489.659334 
L 277.19655 489.142788 
L 279.291145 486.77118 
L 281.38574 484.145683 
L 285.574931 478.335718 
L 290.763339 470.930872 
L 296.047907 463.943565 
L 305.107695 452.202409 
L 306.971185 449.526915 
L 310.325818 444.175925 
L 312.804669 439.593991 
L 314.480163 436.149441 
L 316.99386 430.314469 
L 319.088455 424.922536 
L 321.781528 417.420979 
L 324.437812 409.394495 
L 328.495575 396.017022 
L 335.445024 371.937571 
L 336.633689 366.586581 
L 337.458865 361.235592 
L 337.906915 355.884603 
L 338.069928 350.533614 
L 337.939812 344.161196 
L 337.608315 339.831635 
L 337.223935 337.156141 
L 336.65409 334.480646 
L 335.845217 331.789343 
L 334.656031 329.129657 
L 333.750622 327.595035 
L 332.873816 326.454162 
L 331.656027 325.208871 
L 329.471432 323.778668 
L 327.466836 323.093822 
L 325.372241 322.765294 
L 323.277646 322.703835 
L 321.18305 322.821396 
L 316.99386 323.361921 
L 302.331693 325.841331 
L 298.142503 326.754426 
L 293.953312 327.943991 
L 289.764121 329.506237 
L 285.574931 331.367112 
L 277.19655 335.682859 
L 266.723574 341.646566 
L 260.439788 345.587248 
L 256.250597 348.449837 
L 252.061407 351.57048 
L 246.858477 355.884603 
L 243.683026 358.776183 
L 238.409311 363.911087 
L 230.428109 371.937571 
L 226.926264 375.250979 
L 222.737073 378.935095 
L 218.24227 382.639549 
L 195.507335 400.492166 
L 191.318144 404.219805 
L 187.128954 408.292848 
L 183.606963 412.06999 
L 180.845168 415.309731 
L 177.114462 420.096474 
L 173.356176 425.447463 
L 169.909617 430.798452 
L 165.127558 438.824936 
L 161.99381 444.657159 
L 159.649712 449.526915 
L 157.440307 454.877904 
L 155.566839 460.228893 
L 153.164527 468.255377 
L 150.069823 478.957355 
L 147.331644 488.008828 
L 146.897386 489.659334 
L 146.392948 492.334828 
L 146.212145 495.010323 
L 146.570863 497.685818 
L 147.722055 500.361312 
L 149.635717 503.036807 
L 151.891206 505.712302 
L 153.615429 507.534339 
L 155.710025 508.89957 
L 157.80462 509.452109 
L 159.899215 509.517226 
L 164.088406 509.079348 
L 168.277596 508.684139 
L 170.372192 508.66947 
L 172.466787 508.815747 
L 174.561382 509.119118 
L 178.750573 510.105736 
L 182.939763 511.511526 
L 187.128954 513.41943 
L 193.412739 516.633667 
L 193.412739 516.633667 
" style="fill:none;stroke:#ffa500;stroke-width:1.5;"/>
   </g>
   <g id="LineCollection_5">
    <path clip-path="url(#p87e1bd9e03)" d="M 199.696525 503.349184 
L 201.79112 504.032762 
L 203.885716 504.517379 
L 205.980311 504.797244 
L 208.074906 504.888302 
L 210.169502 504.819793 
L 214.358692 504.336614 
L 218.547883 503.570174 
L 224.831668 502.1361 
L 229.020859 500.928637 
L 233.210049 499.431125 
L 237.39924 497.621724 
L 242.759572 495.010323 
L 264.628978 483.854917 
L 267.924383 481.63285 
L 268.818169 480.991656 
L 271.289322 478.957355 
L 274.17767 476.281861 
L 275.101955 475.401852 
L 279.291145 470.930872 
L 291.858717 456.871804 
L 296.047907 451.983668 
L 300.045028 446.85142 
L 302.331693 443.538572 
L 304.426288 440.162104 
L 306.644548 436.149441 
L 309.237602 430.798452 
L 311.550579 425.447463 
L 314.690194 417.420979 
L 316.99386 410.833394 
L 318.302052 406.719001 
L 320.485076 398.692517 
L 325.372241 378.515002 
L 327.466836 370.527238 
L 328.378868 366.586581 
L 328.871484 363.911087 
L 329.250213 361.235592 
L 329.561431 357.234881 
L 329.622219 355.884603 
L 329.561431 352.775116 
L 329.394902 350.533614 
L 329.006658 347.858119 
L 328.390553 345.182625 
L 327.466836 342.442042 
L 326.136169 339.831635 
L 325.372241 338.690019 
L 324.063187 337.156141 
L 323.277646 336.424216 
L 321.18305 334.998922 
L 319.088455 334.111039 
L 316.99386 333.594062 
L 314.899265 333.312814 
L 312.804669 333.197214 
L 308.615479 333.28049 
L 304.426288 333.626593 
L 300.237098 334.197608 
L 296.047907 335.046882 
L 291.858717 336.247729 
L 287.669526 337.829242 
L 283.300553 339.831635 
L 278.144708 342.50713 
L 273.007359 345.377501 
L 266.723574 349.110037 
L 262.534383 351.802593 
L 258.345193 354.749509 
L 254.156002 358.053377 
L 250.564531 361.235592 
L 247.817003 363.911087 
L 242.791547 369.262076 
L 233.16864 379.964055 
L 229.020859 384.16869 
L 224.831668 388.089662 
L 220.642478 391.718635 
L 214.358692 396.787897 
L 201.558605 406.719001 
L 195.507335 411.948304 
L 193.412739 413.995304 
L 191.318144 416.174892 
L 189.223549 418.523391 
L 187.128954 421.078707 
L 185.034358 423.872504 
L 182.154695 428.122958 
L 178.750573 433.755347 
L 175.986428 438.824936 
L 173.316708 444.175925 
L 172.096228 446.85142 
L 169.99047 452.202409 
L 168.371977 457.553398 
L 167.76519 460.228893 
L 166.888082 465.579882 
L 166.379367 470.930872 
L 166.212415 476.281861 
L 166.336142 478.957355 
L 166.730599 481.63285 
L 167.593533 484.308345 
L 168.277596 485.507108 
L 169.292178 486.983839 
L 170.372192 487.999151 
L 172.527941 489.659334 
L 193.412739 500.61414 
L 197.60193 502.524067 
L 199.696525 503.349184 
L 199.696525 503.349184 
" style="fill:none;stroke:#ffa500;stroke-width:1.5;"/>
   </g>
   <g id="LineCollection_6">
    <path clip-path="url(#p87e1bd9e03)" d="M 205.980311 492.710035 
L 208.074906 493.108747 
L 210.169502 493.305126 
L 212.264097 493.312714 
L 214.358692 493.154277 
L 218.547883 492.448131 
L 222.737073 491.365142 
L 228.106014 489.659334 
L 231.115454 488.57558 
L 235.304645 486.89444 
L 239.493835 485.009169 
L 246.136591 481.63285 
L 252.061407 478.394321 
L 258.345193 474.786779 
L 266.723574 469.539176 
L 273.007359 464.962825 
L 277.19655 461.555122 
L 283.480336 455.907113 
L 287.669526 451.746766 
L 291.858717 447.115873 
L 294.228834 444.175925 
L 296.19117 441.500431 
L 298.142503 438.565636 
L 301.124156 433.473947 
L 303.85844 428.122958 
L 306.520884 422.359525 
L 308.615479 417.420979 
L 310.710074 411.908442 
L 312.399828 406.719001 
L 313.841378 401.368011 
L 315.604528 393.341528 
L 317.311689 385.315044 
L 321.18305 368.700079 
L 321.549682 366.586581 
L 321.869958 363.911087 
L 322.012642 361.235592 
L 321.93784 358.560098 
L 321.602419 355.884603 
L 320.946311 353.209108 
L 319.876031 350.533614 
L 319.088455 349.094573 
L 318.272873 347.858119 
L 316.99386 346.321007 
L 314.899265 344.484995 
L 312.804669 343.249143 
L 310.710074 342.411465 
L 308.615479 341.902991 
L 306.520884 341.6065 
L 304.426288 341.476439 
L 302.331693 341.482024 
L 298.142503 341.835441 
L 293.953312 342.614811 
L 289.764121 343.827427 
L 285.574931 345.429089 
L 281.38574 347.362074 
L 275.386676 350.533614 
L 270.762895 353.209108 
L 266.476603 355.884603 
L 262.534383 358.57449 
L 258.345193 361.787995 
L 254.156002 365.473442 
L 250.37481 369.262076 
L 247.872216 371.997356 
L 241.58843 379.360758 
L 231.871359 390.666033 
L 229.020859 393.865994 
L 219.843559 404.043506 
L 213.225673 412.06999 
L 203.601506 425.447463 
L 199.696525 430.892663 
L 193.412739 439.45862 
L 191.318144 442.553368 
L 189.223549 446.022135 
L 188.755749 446.85142 
L 187.128954 450.309581 
L 186.375806 452.202409 
L 185.579769 454.877904 
L 185.034358 457.950231 
L 184.823246 460.228893 
L 184.829818 462.904388 
L 185.061712 465.579882 
L 185.473078 468.255377 
L 186.068081 470.930872 
L 187.128954 474.305347 
L 187.862171 476.281861 
L 189.223549 479.1177 
L 191.318144 482.507497 
L 192.64933 484.308345 
L 195.203279 486.983839 
L 195.507335 487.241454 
L 198.787971 489.659334 
L 199.696525 490.189781 
L 201.79112 491.243175 
L 204.663741 492.334828 
L 205.980311 492.710035 
L 205.980311 492.710035 
" style="fill:none;stroke:#ffa500;stroke-width:1.5;"/>
   </g>
   <g id="LineCollection_7">
    <path clip-path="url(#p87e1bd9e03)" d="M 210.169502 477.24778 
L 212.264097 478.159838 
L 214.358692 478.651905 
L 216.453287 478.818533 
L 218.547883 478.744912 
L 220.642478 478.501613 
L 224.831668 477.707901 
L 231.115454 476.140597 
L 237.39924 474.309792 
L 243.683026 472.082787 
L 247.872216 470.305546 
L 252.119969 468.255377 
L 256.250597 466.072898 
L 262.534383 462.3639 
L 266.723574 459.653012 
L 270.912764 456.735473 
L 275.101955 453.567929 
L 279.291145 450.076893 
L 282.756746 446.85142 
L 285.574931 443.923864 
L 287.68386 441.500431 
L 289.789987 438.824936 
L 291.858717 435.911608 
L 295.062299 430.798452 
L 298.142503 425.258896 
L 300.724663 420.096474 
L 303.111166 414.745485 
L 305.132223 409.394495 
L 306.764499 404.043506 
L 308.06832 398.692517 
L 309.739327 390.666033 
L 312.949427 374.613065 
L 313.346752 371.937571 
L 313.617794 369.262076 
L 313.701166 366.586581 
L 313.522877 363.911087 
L 312.804669 360.651618 
L 311.969865 358.560098 
L 310.280234 355.884603 
L 308.615479 354.166578 
L 306.520884 352.65645 
L 304.426288 351.677243 
L 302.331693 351.045036 
L 300.237098 350.693229 
L 298.142503 350.570486 
L 296.047907 350.638736 
L 293.953312 350.87066 
L 291.858717 351.246536 
L 289.764121 351.75098 
L 285.574931 353.09144 
L 281.38574 354.854722 
L 277.19655 356.919626 
L 273.007359 359.238135 
L 268.818169 361.812149 
L 264.628978 364.70465 
L 262.162563 366.586581 
L 258.345193 369.866035 
L 256.163622 371.937571 
L 252.061407 376.296482 
L 248.906511 379.964055 
L 243.683026 386.430852 
L 236.219877 396.017022 
L 230.300193 404.043506 
L 226.647645 409.394495 
L 221.539521 417.420979 
L 208.074906 439.550028 
L 205.980311 443.496654 
L 205.619657 444.175925 
L 203.885716 448.267878 
L 203.387209 449.526915 
L 202.594872 452.202409 
L 202.061801 454.877904 
L 201.804897 457.553398 
L 201.838451 460.228893 
L 202.158898 462.904388 
L 202.741913 465.579882 
L 203.885716 469.091065 
L 204.677926 470.930872 
L 206.211867 473.606366 
L 208.074906 475.736669 
L 208.71085 476.281861 
L 210.169502 477.24778 
L 210.169502 477.24778 
" style="fill:none;stroke:#ffa500;stroke-width:1.5;"/>
   </g>
   <g id="LineCollection_8">
    <path clip-path="url(#p87e1bd9e03)" d="M 231.115454 462.911603 
L 233.210049 463.123221 
L 235.304645 463.178373 
L 237.39924 463.096587 
L 239.493835 462.888363 
L 243.683026 462.087698 
L 247.872216 460.859632 
L 252.061407 459.201315 
L 256.250597 457.162003 
L 260.439788 454.756062 
L 264.628978 451.988098 
L 268.818169 448.845204 
L 273.007359 445.288754 
L 275.101955 443.327186 
L 277.19655 441.227245 
L 279.39952 438.824936 
L 281.632659 436.149441 
L 283.679132 433.473947 
L 287.338549 428.122958 
L 289.764121 424.17525 
L 292.082797 420.096474 
L 294.778486 414.745485 
L 296.047907 411.928875 
L 298.142503 406.431742 
L 299.686941 401.368011 
L 300.397552 398.692517 
L 301.576353 393.341528 
L 302.544348 387.990538 
L 303.257478 382.639549 
L 303.69665 377.28856 
L 303.720751 374.613065 
L 303.511584 371.937571 
L 302.944694 369.262076 
L 302.331693 367.702071 
L 301.762488 366.586581 
L 300.237098 364.69482 
L 299.324966 363.911087 
L 298.142503 363.166666 
L 296.047907 362.333656 
L 293.953312 361.91466 
L 291.858717 361.814749 
L 289.764121 361.965207 
L 287.669526 362.316735 
L 285.574931 362.833639 
L 282.352701 363.911087 
L 279.291145 365.225369 
L 276.550097 366.586581 
L 273.007359 368.634232 
L 270.912764 369.982376 
L 266.723574 373.013 
L 264.628978 374.684225 
L 260.439788 378.51183 
L 258.345193 380.618522 
L 254.084381 385.315044 
L 249.683364 390.666033 
L 245.577029 396.017022 
L 241.58843 401.591397 
L 237.39924 407.917523 
L 231.115454 417.899151 
L 222.737073 431.437564 
L 220.223401 436.149441 
L 219.038447 438.824936 
L 218.084168 441.500431 
L 217.438141 444.175925 
L 217.160804 446.85142 
L 217.349656 449.526915 
L 218.065794 452.202409 
L 218.547883 453.307721 
L 219.355427 454.877904 
L 221.245166 457.553398 
L 222.737073 459.099853 
L 224.831668 460.704118 
L 226.926264 461.759287 
L 229.020859 462.469401 
L 231.115454 462.911603 
L 231.115454 462.911603 
" style="fill:none;stroke:#ffa500;stroke-width:1.5;"/>
   </g>
   <g id="LineCollection_9">
    <path clip-path="url(#p87e1bd9e03)" d="M 241.58843 449.906012 
L 243.683026 450.369604 
L 245.777621 450.522588 
L 247.872216 450.407595 
L 249.966811 450.064197 
L 252.061407 449.526915 
L 254.156002 448.711032 
L 256.250597 447.752997 
L 257.982266 446.85142 
L 258.345193 446.646119 
L 260.439788 445.294933 
L 262.061865 444.175925 
L 262.534383 443.820912 
L 264.628978 442.121441 
L 265.354131 441.500431 
L 266.723574 440.222817 
L 268.165923 438.824936 
L 268.818169 438.137532 
L 270.642421 436.149441 
L 270.912764 435.83086 
L 272.85652 433.473947 
L 273.007359 433.277736 
L 274.86937 430.798452 
L 275.101955 430.46901 
L 276.728456 428.122958 
L 277.19655 427.409895 
L 278.467608 425.447463 
L 279.291145 424.111412 
L 280.108655 422.771968 
L 281.38574 420.578953 
L 281.664361 420.096474 
L 283.122971 417.420979 
L 283.480336 416.724895 
L 284.48563 414.745485 
L 285.574931 412.481255 
L 285.76953 412.06999 
L 286.924321 409.394495 
L 287.669526 407.528292 
L 287.983485 406.719001 
L 288.891974 404.043506 
L 289.695554 401.368011 
L 289.764121 401.075151 
L 290.294634 398.692517 
L 290.734801 396.017022 
L 291.00627 393.341528 
L 291.099875 390.666033 
L 291.015898 387.990538 
L 290.745707 385.315044 
L 290.231435 382.639549 
L 289.764121 381.218776 
L 289.180878 379.964055 
L 287.669526 378.142322 
L 286.238064 377.28856 
L 285.574931 377.038745 
L 283.480336 376.828929 
L 281.38574 377.072396 
L 280.627939 377.28856 
L 279.291145 377.700395 
L 277.19655 378.614927 
L 275.101955 379.700794 
L 274.673853 379.964055 
L 273.007359 381.045399 
L 270.912764 382.508273 
L 270.742724 382.639549 
L 268.818169 384.185499 
L 267.476227 385.315044 
L 266.723574 385.967844 
L 264.628978 387.872237 
L 264.505955 387.990538 
L 262.534383 389.932088 
L 261.816129 390.666033 
L 260.439788 392.10623 
L 259.301973 393.341528 
L 258.345193 394.410532 
L 256.958564 396.017022 
L 256.250597 396.868437 
L 254.784914 398.692517 
L 254.156002 399.513049 
L 252.776475 401.368011 
L 252.061407 402.384155 
L 250.921242 404.043506 
L 249.966811 405.515736 
L 249.198953 406.719001 
L 247.872216 408.911541 
L 247.581952 409.394495 
L 246.050866 412.06999 
L 245.777621 412.567007 
L 244.570775 414.745485 
L 243.683026 416.3615 
L 243.091814 417.420979 
L 241.588917 420.096474 
L 241.58843 420.097365 
L 240.085819 422.771968 
L 239.493835 423.836245 
L 238.573085 425.447463 
L 237.39924 427.58297 
L 237.09604 428.122958 
L 235.756559 430.798452 
L 235.304645 431.904408 
L 234.653649 433.473947 
L 233.895951 436.149441 
L 233.605436 438.824936 
L 233.9044 441.500431 
L 234.877836 444.175925 
L 235.304645 444.862563 
L 236.754997 446.85142 
L 237.39924 447.451588 
L 239.493835 448.978094 
L 240.570697 449.526915 
L 241.58843 449.906012 
" style="fill:none;stroke:#ffa500;stroke-width:1.5;"/>
   </g>
   <g id="LineCollection_10"/>
   <g id="patch_3">
    <path d="M 78.21 655.54 
L 78.21 123.116571 
" style="fill:none;stroke:#ffffff;stroke-linecap:square;stroke-linejoin:miter;stroke-width:1.25;"/>
   </g>
   <g id="patch_4">
    <path d="M 78.21 655.54 
L 495.034457 655.54 
" style="fill:none;stroke:#ffffff;stroke-linecap:square;stroke-linejoin:miter;stroke-width:1.25;"/>
   </g>
  </g>
  <g id="axes_2">
   <g id="patch_5">
    <path d="M 78.21 104.757143 
L 599.240571 104.757143 
L 599.240571 12.96 
L 78.21 12.96 
z
" style="fill:#eaeaf2;"/>
   </g>
   <g id="matplotlib.axis_3">
    <g id="xtick_3">
     <g id="line2d_9">
      <path clip-path="url(#pfcca62807e)" d="M 126.650294 104.757143 
L 126.650294 12.96 
" style="fill:none;stroke:#ffffff;stroke-linecap:round;"/>
     </g>
    </g>
    <g id="xtick_4">
     <g id="line2d_10">
      <path clip-path="url(#pfcca62807e)" d="M 380.810469 104.757143 
L 380.810469 12.96 
" style="fill:none;stroke:#ffffff;stroke-linecap:round;"/>
     </g>
    </g>
   </g>
   <g id="matplotlib.axis_4">
    <g id="ytick_7"/>
    <g id="ytick_8"/>
   </g>
   <g id="line2d_11">
    <path clip-path="url(#pfcca62807e)" d="M 91.316483 104.347208 
L 93.803004 104.001882 
L 96.289524 103.426313 
L 98.776045 102.514335 
L 101.262566 101.142169 
L 103.749086 99.184485 
L 106.235607 96.541069 
L 108.722127 93.171702 
L 111.208648 89.13251 
L 118.66821 75.415472 
L 121.154731 71.634738 
L 123.641251 68.982343 
L 126.127772 67.772396 
L 128.614292 68.130468 
L 131.100813 69.958014 
L 133.587334 72.942162 
L 141.046896 83.784575 
L 143.533416 86.30634 
L 146.019937 87.676497 
L 148.506458 87.788373 
L 150.992978 86.721516 
L 153.479499 84.715896 
L 155.966019 82.123701 
L 158.45254 79.34487 
L 160.939061 76.755441 
L 163.425581 74.641297 
L 165.912102 73.151626 
L 168.398623 72.283985 
L 170.885143 71.905529 
L 178.344705 71.580273 
L 180.831226 71.183581 
L 183.317746 70.557604 
L 188.290788 68.866952 
L 200.723391 64.183938 
L 205.696432 61.847191 
L 213.155994 57.805758 
L 218.129035 55.181784 
L 223.102076 52.825323 
L 230.561638 49.649316 
L 240.507721 45.398388 
L 250.453803 40.874683 
L 262.886406 35.240607 
L 280.292051 27.758359 
L 295.211175 20.773318 
L 297.697695 19.838337 
L 300.184216 19.042742 
L 302.670737 18.399203 
L 305.157257 17.910984 
L 307.643778 17.57446 
L 310.130298 17.383069 
L 312.616819 17.331265 
L 315.10334 17.416949 
L 317.58986 17.641432 
L 320.076381 18.006999 
L 322.562902 18.513134 
L 325.049422 19.153075 
L 330.022464 20.769589 
L 334.995505 22.686298 
L 339.968546 24.779162 
L 344.941587 27.106663 
L 347.428108 28.430694 
L 349.914629 29.912172 
L 352.401149 31.584824 
L 354.88767 33.470639 
L 357.37419 35.574696 
L 359.860711 37.882777 
L 364.833752 42.966315 
L 374.779835 53.550283 
L 379.752876 58.375295 
L 384.725917 62.745755 
L 389.698959 66.757211 
L 397.158521 72.418508 
L 404.618082 77.878923 
L 409.591124 81.337701 
L 414.564165 84.517314 
L 419.537206 87.318782 
L 424.510247 89.707429 
L 429.483289 91.723929 
L 434.45633 93.46227 
L 441.915892 95.759877 
L 449.375454 97.817022 
L 456.835016 99.591045 
L 461.808057 100.56748 
L 466.781098 101.356567 
L 471.754139 101.961586 
L 479.213701 102.602623 
L 496.619346 103.708376 
L 506.565428 104.196645 
L 516.511511 104.470998 
L 531.430635 104.634147 
L 586.134088 104.756567 
L 586.134088 104.756567 
" style="fill:none;stroke:#ffa500;stroke-linecap:round;stroke-width:1.5;"/>
   </g>
   <g id="patch_6">
    <path d="M 78.21 104.757143 
L 599.240571 104.757143 
" style="fill:none;stroke:#ffffff;stroke-linecap:square;stroke-linejoin:miter;stroke-width:1.25;"/>
   </g>
  </g>
  <g id="axes_3">
   <g id="patch_7">
    <path d="M 617.207143 655.54 
L 707.04 655.54 
L 707.04 123.116571 
L 617.207143 123.116571 
z
" style="fill:#eaeaf2;"/>
   </g>
   <g id="matplotlib.axis_5">
    <g id="xtick_5"/>
    <g id="xtick_6"/>
   </g>
   <g id="matplotlib.axis_6">
    <g id="ytick_9">
     <g id="line2d_12">
      <path clip-path="url(#p814f823878)" d="M 617.207143 613.428856 
L 707.04 613.428856 
" style="fill:none;stroke:#ffffff;stroke-linecap:round;"/>
     </g>
    </g>
    <g id="ytick_10">
     <g id="line2d_13">
      <path clip-path="url(#p814f823878)" d="M 617.207143 515.664661 
L 707.04 515.664661 
" style="fill:none;stroke:#ffffff;stroke-linecap:round;"/>
     </g>
    </g>
    <g id="ytick_11">
     <g id="line2d_14">
      <path clip-path="url(#p814f823878)" d="M 617.207143 417.900465 
L 707.04 417.900465 
" style="fill:none;stroke:#ffffff;stroke-linecap:round;"/>
     </g>
    </g>
    <g id="ytick_12">
     <g id="line2d_15">
      <path clip-path="url(#p814f823878)" d="M 617.207143 320.13627 
L 707.04 320.13627 
" style="fill:none;stroke:#ffffff;stroke-linecap:round;"/>
     </g>
    </g>
    <g id="ytick_13">
     <g id="line2d_16">
      <path clip-path="url(#p814f823878)" d="M 617.207143 222.372075 
L 707.04 222.372075 
" style="fill:none;stroke:#ffffff;stroke-linecap:round;"/>
     </g>
    </g>
    <g id="ytick_14">
     <g id="line2d_17">
      <path clip-path="url(#p814f823878)" d="M 617.207143 124.60788 
L 707.04 124.60788 
" style="fill:none;stroke:#ffffff;stroke-linecap:round;"/>
     </g>
    </g>
   </g>
   <g id="line2d_18">
    <path clip-path="url(#p814f823878)" d="M 617.297523 644.145994 
L 617.564816 639.02403 
L 617.85494 636.463048 
L 618.309247 633.902066 
L 618.968457 631.341084 
L 619.851267 628.780102 
L 620.935844 626.21912 
L 623.353265 621.097156 
L 624.391188 618.536174 
L 625.095156 615.975192 
L 625.342881 613.41421 
L 625.089521 610.853228 
L 624.380942 608.292246 
L 623.340185 605.731264 
L 620.923591 600.6093 
L 619.843114 598.048318 
L 618.968557 595.487336 
L 618.326392 592.926354 
L 617.908756 590.365372 
L 617.696981 587.80439 
L 617.685249 585.243408 
L 617.899676 582.682426 
L 618.409394 580.121444 
L 619.325789 577.560462 
L 620.78506 574.99948 
L 622.910591 572.438498 
L 625.757458 569.877516 
L 629.251625 567.316534 
L 637.025627 562.19457 
L 640.361686 559.633588 
L 642.63816 557.072606 
L 643.490838 554.511624 
L 642.828336 551.950642 
L 640.885686 549.38966 
L 635.459706 544.267696 
L 633.441042 541.706714 
L 632.770241 539.145732 
L 633.839366 536.58475 
L 636.712075 534.023768 
L 641.09131 531.462786 
L 651.673166 526.340822 
L 656.199429 523.77984 
L 659.30163 521.218858 
L 660.757657 518.657876 
L 660.839106 516.096894 
L 660.232326 513.535912 
L 659.807987 510.97493 
L 660.316376 508.413948 
L 662.12464 505.852966 
L 665.102154 503.291984 
L 672.200139 498.17002 
L 674.994078 495.609038 
L 676.818373 493.048056 
L 677.799378 490.487074 
L 678.864891 485.36511 
L 679.690659 482.804128 
L 680.870446 480.243146 
L 689.334662 464.877255 
L 691.016817 462.316273 
L 698.383763 452.072345 
L 699.889033 449.511363 
L 701.094051 446.950381 
L 701.964555 444.389399 
L 702.503831 441.828417 
L 702.749526 439.267435 
L 702.762269 436.706453 
L 702.357282 431.584489 
L 701.068208 421.340561 
L 700.298435 416.218597 
L 699.793685 413.657615 
L 699.161922 411.096633 
L 698.378138 408.535651 
L 697.431315 405.974669 
L 696.324318 403.413687 
L 695.07067 400.852705 
L 692.211267 395.730741 
L 686.064356 385.486813 
L 684.698506 382.925831 
L 682.329843 377.803867 
L 680.152789 372.681903 
L 678.933299 370.120921 
L 677.516326 367.559939 
L 675.851867 364.998957 
L 673.929886 362.437975 
L 671.779527 359.876993 
L 667.036962 354.755029 
L 659.748211 347.072083 
L 655.138284 341.950119 
L 650.757215 336.828155 
L 646.64287 331.706191 
L 642.922519 326.584227 
L 639.69487 321.462263 
L 636.911113 316.340299 
L 634.428068 311.218335 
L 632.163192 306.096371 
L 630.131056 300.974407 
L 628.338558 295.852443 
L 625.982276 288.169497 
L 624.61269 283.047533 
L 623.491601 277.925569 
L 622.678321 272.803605 
L 622.114561 267.681641 
L 620.835876 254.876731 
L 619.387979 242.071821 
L 618.808103 234.388875 
L 618.349258 224.144947 
L 617.518474 198.535127 
L 617.318378 183.169235 
L 617.209122 139.632541 
L 617.20764 134.510577 
L 617.20764 134.510577 
" style="fill:none;stroke:#ffa500;stroke-linecap:round;stroke-width:1.5;"/>
   </g>
   <g id="patch_8">
    <path d="M 617.207143 655.54 
L 617.207143 123.116571 
" style="fill:none;stroke:#ffffff;stroke-linecap:square;stroke-linejoin:miter;stroke-width:1.25;"/>
   </g>
  </g>
  <g id="axes_4">
   <g id="patch_9">
    <path clip-path="url(#pa30268dee7)" d="M 521.085986 655.54 
L 521.085986 596.381841 
L 521.085986 182.27473 
L 521.085986 123.116571 
L 547.707157 123.116571 
L 547.707157 182.27473 
L 547.707157 596.381841 
L 547.707157 655.54 
z
" style="fill:#eaeaf2;stroke:#eaeaf2;stroke-linejoin:miter;stroke-width:0.01;"/>
   </g>
   <g id="matplotlib.axis_7"/>
   <g id="matplotlib.axis_8">
    <g id="ytick_15">
     <g id="line2d_19">
      <path clip-path="url(#pa30268dee7)" d="M 521.085986 655.54 
L 547.707157 655.54 
" style="fill:none;stroke:#ffffff;stroke-linecap:round;"/>
     </g>
     <g id="line2d_20">
      <defs>
       <path d="M 0 0 
L 6 0 
" id="mc166a6701c" style="stroke:#262626;stroke-width:1.25;"/>
      </defs>
      <g>
       <use style="fill:#262626;stroke:#262626;stroke-width:1.25;" x="547.707157" xlink:href="#mc166a6701c" y="655.54"/>
      </g>
     </g>
     <g id="text_11">
      <!-- 0.0479 -->
      <g style="fill:#262626;" transform="translate(557.207157 666.276719)scale(0.3 -0.3)">
       <defs>
        <path d="M 32.328125 0 
L 32.328125 17.140625 
L 1.265625 17.140625 
L 1.265625 25.203125 
L 33.9375 71.578125 
L 41.109375 71.578125 
L 41.109375 25.203125 
L 50.78125 25.203125 
L 50.78125 17.140625 
L 41.109375 17.140625 
L 41.109375 0 
z
M 32.328125 25.203125 
L 32.328125 57.46875 
L 9.90625 25.203125 
z
" id="ArialMT-52"/>
        <path d="M 4.734375 62.203125 
L 4.734375 70.65625 
L 51.078125 70.65625 
L 51.078125 63.8125 
Q 44.234375 56.546875 37.515625 44.484375 
Q 30.8125 32.421875 27.15625 19.671875 
Q 24.515625 10.6875 23.78125 0 
L 14.75 0 
Q 14.890625 8.453125 18.0625 20.40625 
Q 21.234375 32.375 27.171875 43.484375 
Q 33.109375 54.59375 39.796875 62.203125 
z
" id="ArialMT-55"/>
        <path d="M 5.46875 16.546875 
L 13.921875 17.328125 
Q 14.984375 11.375 18.015625 8.6875 
Q 21.046875 6 25.78125 6 
Q 29.828125 6 32.875 7.859375 
Q 35.9375 9.71875 37.890625 12.8125 
Q 39.84375 15.921875 41.15625 21.1875 
Q 42.484375 26.46875 42.484375 31.9375 
Q 42.484375 32.515625 42.4375 33.6875 
Q 39.796875 29.5 35.234375 26.875 
Q 30.671875 24.265625 25.34375 24.265625 
Q 16.453125 24.265625 10.296875 30.703125 
Q 4.15625 37.15625 4.15625 47.703125 
Q 4.15625 58.59375 10.578125 65.234375 
Q 17 71.875 26.65625 71.875 
Q 33.640625 71.875 39.421875 68.109375 
Q 45.21875 64.359375 48.21875 57.390625 
Q 51.21875 50.4375 51.21875 37.25 
Q 51.21875 23.53125 48.234375 15.40625 
Q 45.265625 7.28125 39.375 3.03125 
Q 33.5 -1.21875 25.59375 -1.21875 
Q 17.1875 -1.21875 11.859375 3.4375 
Q 6.546875 8.109375 5.46875 16.546875 
z
M 41.453125 48.140625 
Q 41.453125 55.71875 37.421875 60.15625 
Q 33.40625 64.59375 27.734375 64.59375 
Q 21.875 64.59375 17.53125 59.8125 
Q 13.1875 55.03125 13.1875 47.40625 
Q 13.1875 40.578125 17.3125 36.296875 
Q 21.4375 32.03125 27.484375 32.03125 
Q 33.59375 32.03125 37.515625 36.296875 
Q 41.453125 40.578125 41.453125 48.140625 
z
" id="ArialMT-57"/>
       </defs>
       <use xlink:href="#ArialMT-48"/>
       <use x="55.615234" xlink:href="#ArialMT-46"/>
       <use x="83.398438" xlink:href="#ArialMT-48"/>
       <use x="139.013672" xlink:href="#ArialMT-52"/>
       <use x="194.628906" xlink:href="#ArialMT-55"/>
       <use x="250.244141" xlink:href="#ArialMT-57"/>
      </g>
     </g>
    </g>
    <g id="ytick_16">
     <g id="line2d_21">
      <path clip-path="url(#pa30268dee7)" d="M 521.085986 596.381841 
L 547.707157 596.381841 
" style="fill:none;stroke:#ffffff;stroke-linecap:round;"/>
     </g>
     <g id="line2d_22">
      <g>
       <use style="fill:#262626;stroke:#262626;stroke-width:1.25;" x="547.707157" xlink:href="#mc166a6701c" y="596.381841"/>
      </g>
     </g>
     <g id="text_12">
      <!-- 0.1452 -->
      <g style="fill:#262626;" transform="translate(557.207157 607.11856)scale(0.3 -0.3)">
       <use xlink:href="#ArialMT-48"/>
       <use x="55.615234" xlink:href="#ArialMT-46"/>
       <use x="83.398438" xlink:href="#ArialMT-49"/>
       <use x="139.013672" xlink:href="#ArialMT-52"/>
       <use x="194.628906" xlink:href="#ArialMT-53"/>
       <use x="250.244141" xlink:href="#ArialMT-50"/>
      </g>
     </g>
    </g>
    <g id="ytick_17">
     <g id="line2d_23">
      <path clip-path="url(#pa30268dee7)" d="M 521.085986 537.223683 
L 547.707157 537.223683 
" style="fill:none;stroke:#ffffff;stroke-linecap:round;"/>
     </g>
     <g id="line2d_24">
      <g>
       <use style="fill:#262626;stroke:#262626;stroke-width:1.25;" x="547.707157" xlink:href="#mc166a6701c" y="537.223683"/>
      </g>
     </g>
     <g id="text_13">
      <!-- 0.2293 -->
      <g style="fill:#262626;" transform="translate(557.207157 547.960401)scale(0.3 -0.3)">
       <defs>
        <path d="M 4.203125 18.890625 
L 12.984375 20.0625 
Q 14.5 12.59375 18.140625 9.296875 
Q 21.78125 6 27 6 
Q 33.203125 6 37.46875 10.296875 
Q 41.75 14.59375 41.75 20.953125 
Q 41.75 27 37.796875 30.921875 
Q 33.84375 34.859375 27.734375 34.859375 
Q 25.25 34.859375 21.53125 33.890625 
L 22.515625 41.609375 
Q 23.390625 41.5 23.921875 41.5 
Q 29.546875 41.5 34.03125 44.421875 
Q 38.53125 47.359375 38.53125 53.46875 
Q 38.53125 58.296875 35.25 61.46875 
Q 31.984375 64.65625 26.8125 64.65625 
Q 21.6875 64.65625 18.265625 61.421875 
Q 14.84375 58.203125 13.875 51.765625 
L 5.078125 53.328125 
Q 6.6875 62.15625 12.390625 67.015625 
Q 18.109375 71.875 26.609375 71.875 
Q 32.46875 71.875 37.390625 69.359375 
Q 42.328125 66.84375 44.9375 62.5 
Q 47.5625 58.15625 47.5625 53.265625 
Q 47.5625 48.640625 45.0625 44.828125 
Q 42.578125 41.015625 37.703125 38.765625 
Q 44.046875 37.3125 47.5625 32.6875 
Q 51.078125 28.078125 51.078125 21.140625 
Q 51.078125 11.765625 44.234375 5.25 
Q 37.40625 -1.265625 26.953125 -1.265625 
Q 17.53125 -1.265625 11.296875 4.34375 
Q 5.078125 9.96875 4.203125 18.890625 
z
" id="ArialMT-51"/>
       </defs>
       <use xlink:href="#ArialMT-48"/>
       <use x="55.615234" xlink:href="#ArialMT-46"/>
       <use x="83.398438" xlink:href="#ArialMT-50"/>
       <use x="139.013672" xlink:href="#ArialMT-50"/>
       <use x="194.628906" xlink:href="#ArialMT-57"/>
       <use x="250.244141" xlink:href="#ArialMT-51"/>
      </g>
     </g>
    </g>
    <g id="ytick_18">
     <g id="line2d_25">
      <path clip-path="url(#pa30268dee7)" d="M 521.085986 478.065524 
L 547.707157 478.065524 
" style="fill:none;stroke:#ffffff;stroke-linecap:round;"/>
     </g>
     <g id="line2d_26">
      <g>
       <use style="fill:#262626;stroke:#262626;stroke-width:1.25;" x="547.707157" xlink:href="#mc166a6701c" y="478.065524"/>
      </g>
     </g>
     <g id="text_14">
      <!-- 0.3140 -->
      <g style="fill:#262626;" transform="translate(557.207157 488.802243)scale(0.3 -0.3)">
       <use xlink:href="#ArialMT-48"/>
       <use x="55.615234" xlink:href="#ArialMT-46"/>
       <use x="83.398438" xlink:href="#ArialMT-51"/>
       <use x="139.013672" xlink:href="#ArialMT-49"/>
       <use x="194.628906" xlink:href="#ArialMT-52"/>
       <use x="250.244141" xlink:href="#ArialMT-48"/>
      </g>
     </g>
    </g>
    <g id="ytick_19">
     <g id="line2d_27">
      <path clip-path="url(#pa30268dee7)" d="M 521.085986 418.907365 
L 547.707157 418.907365 
" style="fill:none;stroke:#ffffff;stroke-linecap:round;"/>
     </g>
     <g id="line2d_28">
      <g>
       <use style="fill:#262626;stroke:#262626;stroke-width:1.25;" x="547.707157" xlink:href="#mc166a6701c" y="418.907365"/>
      </g>
     </g>
     <g id="text_15">
      <!-- 0.4119 -->
      <g style="fill:#262626;" transform="translate(557.207157 429.644084)scale(0.3 -0.3)">
       <use xlink:href="#ArialMT-48"/>
       <use x="55.615234" xlink:href="#ArialMT-46"/>
       <use x="83.398438" xlink:href="#ArialMT-52"/>
       <use x="139.013672" xlink:href="#ArialMT-49"/>
       <use x="187.253906" xlink:href="#ArialMT-49"/>
       <use x="242.869141" xlink:href="#ArialMT-57"/>
      </g>
     </g>
    </g>
    <g id="ytick_20">
     <g id="line2d_29">
      <path clip-path="url(#pa30268dee7)" d="M 521.085986 359.749206 
L 547.707157 359.749206 
" style="fill:none;stroke:#ffffff;stroke-linecap:round;"/>
     </g>
     <g id="line2d_30">
      <g>
       <use style="fill:#262626;stroke:#262626;stroke-width:1.25;" x="547.707157" xlink:href="#mc166a6701c" y="359.749206"/>
      </g>
     </g>
     <g id="text_16">
      <!-- 0.5074 -->
      <g style="fill:#262626;" transform="translate(557.207157 370.485925)scale(0.3 -0.3)">
       <use xlink:href="#ArialMT-48"/>
       <use x="55.615234" xlink:href="#ArialMT-46"/>
       <use x="83.398438" xlink:href="#ArialMT-53"/>
       <use x="139.013672" xlink:href="#ArialMT-48"/>
       <use x="194.628906" xlink:href="#ArialMT-55"/>
       <use x="250.244141" xlink:href="#ArialMT-52"/>
      </g>
     </g>
    </g>
    <g id="ytick_21">
     <g id="line2d_31">
      <path clip-path="url(#pa30268dee7)" d="M 521.085986 300.591048 
L 547.707157 300.591048 
" style="fill:none;stroke:#ffffff;stroke-linecap:round;"/>
     </g>
     <g id="line2d_32">
      <g>
       <use style="fill:#262626;stroke:#262626;stroke-width:1.25;" x="547.707157" xlink:href="#mc166a6701c" y="300.591048"/>
      </g>
     </g>
     <g id="text_17">
      <!-- 0.6128 -->
      <g style="fill:#262626;" transform="translate(557.207157 311.327766)scale(0.3 -0.3)">
       <defs>
        <path d="M 49.75 54.046875 
L 41.015625 53.375 
Q 39.84375 58.546875 37.703125 60.890625 
Q 34.125 64.65625 28.90625 64.65625 
Q 24.703125 64.65625 21.53125 62.3125 
Q 17.390625 59.28125 14.984375 53.46875 
Q 12.59375 47.65625 12.5 36.921875 
Q 15.671875 41.75 20.265625 44.09375 
Q 24.859375 46.4375 29.890625 46.4375 
Q 38.671875 46.4375 44.84375 39.96875 
Q 51.03125 33.5 51.03125 23.25 
Q 51.03125 16.5 48.125 10.71875 
Q 45.21875 4.9375 40.140625 1.859375 
Q 35.0625 -1.21875 28.609375 -1.21875 
Q 17.625 -1.21875 10.6875 6.859375 
Q 3.765625 14.9375 3.765625 33.5 
Q 3.765625 54.25 11.421875 63.671875 
Q 18.109375 71.875 29.4375 71.875 
Q 37.890625 71.875 43.28125 67.140625 
Q 48.6875 62.40625 49.75 54.046875 
z
M 13.875 23.1875 
Q 13.875 18.65625 15.796875 14.5 
Q 17.71875 10.359375 21.1875 8.171875 
Q 24.65625 6 28.46875 6 
Q 34.03125 6 38.03125 10.484375 
Q 42.046875 14.984375 42.046875 22.703125 
Q 42.046875 30.125 38.078125 34.390625 
Q 34.125 38.671875 28.125 38.671875 
Q 22.171875 38.671875 18.015625 34.390625 
Q 13.875 30.125 13.875 23.1875 
z
" id="ArialMT-54"/>
        <path d="M 17.671875 38.8125 
Q 12.203125 40.828125 9.5625 44.53125 
Q 6.9375 48.25 6.9375 53.421875 
Q 6.9375 61.234375 12.546875 66.546875 
Q 18.171875 71.875 27.484375 71.875 
Q 36.859375 71.875 42.578125 66.421875 
Q 48.296875 60.984375 48.296875 53.171875 
Q 48.296875 48.1875 45.671875 44.5 
Q 43.0625 40.828125 37.75 38.8125 
Q 44.34375 36.671875 47.78125 31.875 
Q 51.21875 27.09375 51.21875 20.453125 
Q 51.21875 11.28125 44.71875 5.03125 
Q 38.234375 -1.21875 27.640625 -1.21875 
Q 17.046875 -1.21875 10.546875 5.046875 
Q 4.046875 11.328125 4.046875 20.703125 
Q 4.046875 27.6875 7.59375 32.390625 
Q 11.140625 37.109375 17.671875 38.8125 
z
M 15.921875 53.71875 
Q 15.921875 48.640625 19.1875 45.40625 
Q 22.46875 42.1875 27.6875 42.1875 
Q 32.765625 42.1875 36.015625 45.375 
Q 39.265625 48.578125 39.265625 53.21875 
Q 39.265625 58.0625 35.90625 61.359375 
Q 32.5625 64.65625 27.59375 64.65625 
Q 22.5625 64.65625 19.234375 61.421875 
Q 15.921875 58.203125 15.921875 53.71875 
z
M 13.09375 20.65625 
Q 13.09375 16.890625 14.875 13.375 
Q 16.65625 9.859375 20.171875 7.921875 
Q 23.6875 6 27.734375 6 
Q 34.03125 6 38.125 10.046875 
Q 42.234375 14.109375 42.234375 20.359375 
Q 42.234375 26.703125 38.015625 30.859375 
Q 33.796875 35.015625 27.4375 35.015625 
Q 21.234375 35.015625 17.15625 30.90625 
Q 13.09375 26.8125 13.09375 20.65625 
z
" id="ArialMT-56"/>
       </defs>
       <use xlink:href="#ArialMT-48"/>
       <use x="55.615234" xlink:href="#ArialMT-46"/>
       <use x="83.398438" xlink:href="#ArialMT-54"/>
       <use x="139.013672" xlink:href="#ArialMT-49"/>
       <use x="194.628906" xlink:href="#ArialMT-50"/>
       <use x="250.244141" xlink:href="#ArialMT-56"/>
      </g>
     </g>
    </g>
    <g id="ytick_22">
     <g id="line2d_33">
      <path clip-path="url(#pa30268dee7)" d="M 521.085986 241.432889 
L 547.707157 241.432889 
" style="fill:none;stroke:#ffffff;stroke-linecap:round;"/>
     </g>
     <g id="line2d_34">
      <g>
       <use style="fill:#262626;stroke:#262626;stroke-width:1.25;" x="547.707157" xlink:href="#mc166a6701c" y="241.432889"/>
      </g>
     </g>
     <g id="text_18">
      <!-- 0.7270 -->
      <g style="fill:#262626;" transform="translate(557.207157 252.169608)scale(0.3 -0.3)">
       <use xlink:href="#ArialMT-48"/>
       <use x="55.615234" xlink:href="#ArialMT-46"/>
       <use x="83.398438" xlink:href="#ArialMT-55"/>
       <use x="139.013672" xlink:href="#ArialMT-50"/>
       <use x="194.628906" xlink:href="#ArialMT-55"/>
       <use x="250.244141" xlink:href="#ArialMT-48"/>
      </g>
     </g>
    </g>
    <g id="ytick_23">
     <g id="line2d_35">
      <path clip-path="url(#pa30268dee7)" d="M 521.085986 182.27473 
L 547.707157 182.27473 
" style="fill:none;stroke:#ffffff;stroke-linecap:round;"/>
     </g>
     <g id="line2d_36">
      <g>
       <use style="fill:#262626;stroke:#262626;stroke-width:1.25;" x="547.707157" xlink:href="#mc166a6701c" y="182.27473"/>
      </g>
     </g>
     <g id="text_19">
      <!-- 0.8333 -->
      <g style="fill:#262626;" transform="translate(557.207157 193.011449)scale(0.3 -0.3)">
       <use xlink:href="#ArialMT-48"/>
       <use x="55.615234" xlink:href="#ArialMT-46"/>
       <use x="83.398438" xlink:href="#ArialMT-56"/>
       <use x="139.013672" xlink:href="#ArialMT-51"/>
       <use x="194.628906" xlink:href="#ArialMT-51"/>
       <use x="250.244141" xlink:href="#ArialMT-51"/>
      </g>
     </g>
    </g>
    <g id="ytick_24">
     <g id="line2d_37">
      <path clip-path="url(#pa30268dee7)" d="M 521.085986 123.116571 
L 547.707157 123.116571 
" style="fill:none;stroke:#ffffff;stroke-linecap:round;"/>
     </g>
     <g id="line2d_38">
      <g>
       <use style="fill:#262626;stroke:#262626;stroke-width:1.25;" x="547.707157" xlink:href="#mc166a6701c" y="123.116571"/>
      </g>
     </g>
     <g id="text_20">
      <!-- 0.9329 -->
      <g style="fill:#262626;" transform="translate(557.207157 133.85329)scale(0.3 -0.3)">
       <use xlink:href="#ArialMT-48"/>
       <use x="55.615234" xlink:href="#ArialMT-46"/>
       <use x="83.398438" xlink:href="#ArialMT-57"/>
       <use x="139.013672" xlink:href="#ArialMT-51"/>
       <use x="194.628906" xlink:href="#ArialMT-50"/>
       <use x="250.244141" xlink:href="#ArialMT-57"/>
      </g>
     </g>
    </g>
   </g>
   <g id="LineCollection_11">
    <path clip-path="url(#pa30268dee7)" d="M 521.085986 655.54 
L 547.707157 655.54 
" style="fill:none;stroke:#ffa500;stroke-width:1.5;"/>
    <path clip-path="url(#pa30268dee7)" d="M 521.085986 596.381841 
L 547.707157 596.381841 
" style="fill:none;stroke:#ffa500;stroke-width:1.5;"/>
    <path clip-path="url(#pa30268dee7)" d="M 521.085986 537.223683 
L 547.707157 537.223683 
" style="fill:none;stroke:#ffa500;stroke-width:1.5;"/>
    <path clip-path="url(#pa30268dee7)" d="M 521.085986 478.065524 
L 547.707157 478.065524 
" style="fill:none;stroke:#ffa500;stroke-width:1.5;"/>
    <path clip-path="url(#pa30268dee7)" d="M 521.085986 418.907365 
L 547.707157 418.907365 
" style="fill:none;stroke:#ffa500;stroke-width:1.5;"/>
    <path clip-path="url(#pa30268dee7)" d="M 521.085986 359.749206 
L 547.707157 359.749206 
" style="fill:none;stroke:#ffa500;stroke-width:1.5;"/>
    <path clip-path="url(#pa30268dee7)" d="M 521.085986 300.591048 
L 547.707157 300.591048 
" style="fill:none;stroke:#ffa500;stroke-width:1.5;"/>
    <path clip-path="url(#pa30268dee7)" d="M 521.085986 241.432889 
L 547.707157 241.432889 
" style="fill:none;stroke:#ffa500;stroke-width:1.5;"/>
    <path clip-path="url(#pa30268dee7)" d="M 521.085986 182.27473 
L 547.707157 182.27473 
" style="fill:none;stroke:#ffa500;stroke-width:1.5;"/>
    <path clip-path="url(#pa30268dee7)" d="M 521.085986 123.116571 
L 547.707157 123.116571 
" style="fill:none;stroke:#ffa500;stroke-width:1.5;"/>
   </g>
   <g id="patch_10">
    <path d="M 521.085986 655.54 
L 521.085986 596.381841 
L 521.085986 182.27473 
L 521.085986 123.116571 
L 547.707157 123.116571 
L 547.707157 182.27473 
L 547.707157 596.381841 
L 547.707157 655.54 
z
" style="fill:none;stroke:#ffffff;stroke-linejoin:miter;stroke-width:1.25;"/>
   </g>
  </g>
 </g>
 <defs>
  <clipPath id="p87e1bd9e03">
   <rect height="532.423429" width="416.824457" x="78.21" y="123.116571"/>
  </clipPath>
  <clipPath id="pfcca62807e">
   <rect height="91.797143" width="521.030571" x="78.21" y="12.96"/>
  </clipPath>
  <clipPath id="p814f823878">
   <rect height="532.423429" width="89.832857" x="617.207143" y="123.116571"/>
  </clipPath>
  <clipPath id="pa30268dee7">
   <rect height="532.423429" width="26.621171" x="521.085986" y="123.116571"/>
  </clipPath>
 </defs>
</svg>
