<?xml version="1.0" encoding="utf-8" standalone="no"?>
<!DOCTYPE svg PUBLIC "-//W3C//DTD SVG 1.1//EN"
  "http://www.w3.org/Graphics/SVG/1.1/DTD/svg11.dtd">
<!-- Created with matplotlib (https://matplotlib.org/) -->
<svg height="1440pt" version="1.1" viewBox="0 0 2160 1440" width="2160pt" xmlns="http://www.w3.org/2000/svg" xmlns:xlink="http://www.w3.org/1999/xlink">
 <metadata>
  <rdf:RDF xmlns:cc="http://creativecommons.org/ns#" xmlns:dc="http://purl.org/dc/elements/1.1/" xmlns:rdf="http://www.w3.org/1999/02/22-rdf-syntax-ns#">
   <cc:Work>
    <dc:type rdf:resource="http://purl.org/dc/dcmitype/StillImage"/>
    <dc:date>2021-06-05T11:05:19.158187</dc:date>
    <dc:format>image/svg+xml</dc:format>
    <dc:creator>
     <cc:Agent>
      <dc:title>Matplotlib v3.3.4, https://matplotlib.org/</dc:title>
     </cc:Agent>
    </dc:creator>
   </cc:Work>
  </rdf:RDF>
 </metadata>
 <defs>
  <style type="text/css">*{stroke-linecap:butt;stroke-linejoin:round;}</style>
 </defs>
 <g id="figure_1">
  <g id="patch_1">
   <path d="M 0 1440 
L 2160 1440 
L 2160 0 
L 0 0 
z
" style="fill:none;"/>
  </g>
  <g id="axes_1">
   <g id="patch_2">
    <path d="M 270 1260 
L 1944 1260 
L 1944 172.8 
L 270 172.8 
z
" style="fill:#ffffff;"/>
   </g>
   <g id="PolyCollection_1">
    <defs>
     <path d="M 487.339584 -229.418182 
L 471.160416 -229.418182 
L 462.922735 -239.401653 
L 450.359648 -249.385124 
L 434.388435 -259.368595 
L 418.029076 -269.352066 
L 405.667722 -279.335537 
L 401.08475 -289.319008 
L 405.42213 -299.302479 
L 416.577698 -309.28595 
L 430.474294 -319.269421 
L 443.204118 -329.252893 
L 452.57402 -339.236364 
L 458.339629 -349.219835 
L 461.470382 -359.203306 
L 463.218448 -369.186777 
L 464.519206 -379.170248 
L 465.820328 -389.153719 
L 467.187638 -399.13719 
L 468.501633 -409.120661 
L 469.622478 -419.104132 
L 470.475948 -429.087603 
L 471.066691 -439.071074 
L 471.450755 -449.054545 
L 471.699359 -459.038017 
L 471.872201 -469.021488 
L 472.005165 -479.004959 
L 472.110154 -488.98843 
L 472.18239 -498.971901 
L 472.209449 -508.955372 
L 472.176765 -518.938843 
L 472.068315 -528.922314 
L 471.867738 -538.905785 
L 471.567597 -548.889256 
L 471.187007 -558.872727 
L 470.784214 -568.856198 
L 470.446199 -578.839669 
L 470.252285 -588.82314 
L 470.233106 -598.806612 
L 470.355129 -608.790083 
L 470.54243 -618.773554 
L 470.718482 -628.757025 
L 470.838782 -638.740496 
L 470.897879 -648.723967 
L 470.915322 -658.707438 
L 470.915657 -668.690909 
L 470.914311 -678.67438 
L 470.91252 -688.657851 
L 470.898082 -698.641322 
L 470.846874 -708.624793 
L 470.721843 -718.608264 
L 470.47018 -728.591736 
L 470.024284 -738.575207 
L 469.314671 -748.558678 
L 468.299166 -758.542149 
L 467.000786 -768.52562 
L 465.532938 -778.509091 
L 464.088425 -788.492562 
L 462.887027 -798.476033 
L 462.104519 -808.459504 
L 461.819694 -818.442975 
L 462.002024 -828.426446 
L 462.535394 -838.409917 
L 463.257862 -848.393388 
L 464.002196 -858.37686 
L 464.632249 -868.360331 
L 465.070739 -878.343802 
L 465.307731 -888.327273 
L 465.381787 -898.310744 
L 465.342132 -908.294215 
L 465.215407 -918.277686 
L 464.997367 -928.261157 
L 464.669887 -938.244628 
L 464.225243 -948.228099 
L 463.677704 -958.21157 
L 463.054796 -968.195041 
L 462.374984 -978.178512 
L 461.626162 -988.161983 
L 460.759257 -998.145455 
L 459.704324 -1008.128926 
L 458.402719 -1018.112397 
L 456.833406 -1028.095868 
L 455.006865 -1038.079339 
L 452.91401 -1048.06281 
L 450.439502 -1058.046281 
L 447.257751 -1068.029752 
L 442.722842 -1078.013223 
L 435.774623 -1087.996694 
L 424.95929 -1097.980165 
L 408.785649 -1107.963636 
L 386.641999 -1117.947107 
L 360.140644 -1127.930579 
L 334.061999 -1137.91405 
L 315.663166 -1147.897521 
L 311.85 -1157.880992 
L 325.502161 -1167.864463 
L 353.505722 -1177.847934 
L 388.153575 -1187.831405 
L 421.001128 -1197.814876 
L 446.458432 -1207.798347 
L 463.026077 -1217.781818 
L 495.473923 -1217.781818 
L 495.473923 -1217.781818 
L 512.041568 -1207.798347 
L 537.498872 -1197.814876 
L 570.346425 -1187.831405 
L 604.994278 -1177.847934 
L 632.997839 -1167.864463 
L 646.65 -1157.880992 
L 642.836834 -1147.897521 
L 624.438001 -1137.91405 
L 598.359356 -1127.930579 
L 571.858001 -1117.947107 
L 549.714351 -1107.963636 
L 533.54071 -1097.980165 
L 522.725377 -1087.996694 
L 515.777158 -1078.013223 
L 511.242249 -1068.029752 
L 508.060498 -1058.046281 
L 505.58599 -1048.06281 
L 503.493135 -1038.079339 
L 501.666594 -1028.095868 
L 500.097281 -1018.112397 
L 498.795676 -1008.128926 
L 497.740743 -998.145455 
L 496.873838 -988.161983 
L 496.125016 -978.178512 
L 495.445204 -968.195041 
L 494.822296 -958.21157 
L 494.274757 -948.228099 
L 493.830113 -938.244628 
L 493.502633 -928.261157 
L 493.284593 -918.277686 
L 493.157868 -908.294215 
L 493.118213 -898.310744 
L 493.192269 -888.327273 
L 493.429261 -878.343802 
L 493.867751 -868.360331 
L 494.497804 -858.37686 
L 495.242138 -848.393388 
L 495.964606 -838.409917 
L 496.497976 -828.426446 
L 496.680306 -818.442975 
L 496.395481 -808.459504 
L 495.612973 -798.476033 
L 494.411575 -788.492562 
L 492.967062 -778.509091 
L 491.499214 -768.52562 
L 490.200834 -758.542149 
L 489.185329 -748.558678 
L 488.475716 -738.575207 
L 488.02982 -728.591736 
L 487.778157 -718.608264 
L 487.653126 -708.624793 
L 487.601918 -698.641322 
L 487.58748 -688.657851 
L 487.585689 -678.67438 
L 487.584343 -668.690909 
L 487.584678 -658.707438 
L 487.602121 -648.723967 
L 487.661218 -638.740496 
L 487.781518 -628.757025 
L 487.95757 -618.773554 
L 488.144871 -608.790083 
L 488.266894 -598.806612 
L 488.247715 -588.82314 
L 488.053801 -578.839669 
L 487.715786 -568.856198 
L 487.312993 -558.872727 
L 486.932403 -548.889256 
L 486.632262 -538.905785 
L 486.431685 -528.922314 
L 486.323235 -518.938843 
L 486.290551 -508.955372 
L 486.31761 -498.971901 
L 486.389846 -488.98843 
L 486.494835 -479.004959 
L 486.627799 -469.021488 
L 486.800641 -459.038017 
L 487.049245 -449.054545 
L 487.433309 -439.071074 
L 488.024052 -429.087603 
L 488.877522 -419.104132 
L 489.998367 -409.120661 
L 491.312362 -399.13719 
L 492.679672 -389.153719 
L 493.980794 -379.170248 
L 495.281552 -369.186777 
L 497.029618 -359.203306 
L 500.160371 -349.219835 
L 505.92598 -339.236364 
L 515.295882 -329.252893 
L 528.025706 -319.269421 
L 541.922302 -309.28595 
L 553.07787 -299.302479 
L 557.41525 -289.319008 
L 552.832278 -279.335537 
L 540.470924 -269.352066 
L 524.111565 -259.368595 
L 508.140352 -249.385124 
L 495.577265 -239.401653 
L 487.339584 -229.418182 
z
" id="mc248f62b27" style="stroke:#3d3d3d;stroke-width:1.5;"/>
    </defs>
    <g clip-path="url(#p8c6938dc25)">
     <use style="fill:#3274a1;stroke:#3d3d3d;stroke-width:1.5;" x="0" xlink:href="#mc248f62b27" y="1440"/>
    </g>
   </g>
   <g id="PolyCollection_2">
    <defs>
     <path d="M 898.367992 -260.932892 
L 897.132008 -260.932892 
L 894.648091 -270.216583 
L 893.314195 -279.500273 
L 895.939206 -288.783964 
L 897.523916 -298.067654 
L 897.722889 -307.351345 
L 897.735015 -316.635035 
L 897.693239 -325.918726 
L 897.602129 -335.202416 
L 897.619512 -344.486107 
L 897.713175 -353.769798 
L 897.745269 -363.053488 
L 897.749307 -372.337179 
L 897.746406 -381.620869 
L 897.721868 -390.90456 
L 897.686131 -400.18825 
L 897.706071 -409.471941 
L 897.736729 -418.755631 
L 897.745428 -428.039322 
L 897.743186 -437.323012 
L 897.73893 -446.606703 
L 897.742456 -455.890394 
L 897.743656 -465.174084 
L 897.738114 -474.457775 
L 897.734253 -483.741465 
L 897.738277 -493.025156 
L 897.741442 -502.308846 
L 897.744961 -511.592537 
L 897.745703 -520.876227 
L 897.745134 -530.159918 
L 897.74571 -539.443608 
L 897.747932 -548.727299 
L 897.749587 -558.01099 
L 897.74997 -567.29468 
L 897.749949 -576.578371 
L 897.749607 -585.862061 
L 897.749123 -595.145752 
L 897.749442 -604.429442 
L 897.749899 -613.713133 
L 897.749995 -622.996823 
L 897.75 -632.280514 
L 897.75 -641.564205 
L 897.75 -650.847895 
L 897.75 -660.131586 
L 897.74993 -669.415276 
L 897.738767 -678.698967 
L 897.235475 -687.982657 
L 891.036001 -697.266348 
L 872.785649 -706.550038 
L 871.105277 -715.833729 
L 887.447453 -725.117419 
L 889.778284 -734.40111 
L 891.154904 -743.684801 
L 895.1027 -752.968491 
L 893.086532 -762.252182 
L 889.556761 -771.535872 
L 892.41849 -780.819563 
L 895.692697 -790.103253 
L 895.72606 -799.386944 
L 895.667016 -808.670634 
L 879.798388 -817.954325 
L 796.664964 -827.238015 
L 730.35 -836.521706 
L 816.273268 -845.805397 
L 882.981638 -855.089087 
L 894.050235 -864.372778 
L 893.548107 -873.656468 
L 893.064284 -882.940159 
L 893.904113 -892.223849 
L 889.193359 -901.50754 
L 871.575185 -910.79123 
L 859.91521 -920.074921 
L 872.980157 -929.358612 
L 887.069109 -938.642302 
L 890.897476 -947.925993 
L 892.842394 -957.209683 
L 893.818306 -966.493374 
L 894.194693 -975.777064 
L 895.227645 -985.060755 
L 894.728211 -994.344445 
L 892.409159 -1003.628136 
L 892.36518 -1012.911826 
L 893.887603 -1022.195517 
L 894.270136 -1031.479208 
L 893.921946 -1040.762898 
L 893.519754 -1050.046589 
L 893.022883 -1059.330279 
L 893.124917 -1068.61397 
L 894.741766 -1077.89766 
L 896.647865 -1087.181351 
L 897.251532 -1096.465041 
L 897.208032 -1105.748732 
L 896.994015 -1115.032423 
L 896.752315 -1124.316113 
L 896.772003 -1133.599804 
L 897.148022 -1142.883494 
L 897.404667 -1152.167185 
L 897.553317 -1161.450875 
L 897.694097 -1170.734566 
L 897.743314 -1180.018256 
L 897.756686 -1180.018256 
L 897.756686 -1180.018256 
L 897.805903 -1170.734566 
L 897.946683 -1161.450875 
L 898.095333 -1152.167185 
L 898.351978 -1142.883494 
L 898.727997 -1133.599804 
L 898.747685 -1124.316113 
L 898.505985 -1115.032423 
L 898.291968 -1105.748732 
L 898.248468 -1096.465041 
L 898.852135 -1087.181351 
L 900.758234 -1077.89766 
L 902.375083 -1068.61397 
L 902.477117 -1059.330279 
L 901.980246 -1050.046589 
L 901.578054 -1040.762898 
L 901.229864 -1031.479208 
L 901.612397 -1022.195517 
L 903.13482 -1012.911826 
L 903.090841 -1003.628136 
L 900.771789 -994.344445 
L 900.272355 -985.060755 
L 901.305307 -975.777064 
L 901.681694 -966.493374 
L 902.657606 -957.209683 
L 904.602524 -947.925993 
L 908.430891 -938.642302 
L 922.519843 -929.358612 
L 935.58479 -920.074921 
L 923.924815 -910.79123 
L 906.306641 -901.50754 
L 901.595887 -892.223849 
L 902.435716 -882.940159 
L 901.951893 -873.656468 
L 901.449765 -864.372778 
L 912.518362 -855.089087 
L 979.226732 -845.805397 
L 1065.15 -836.521706 
L 998.835036 -827.238015 
L 915.701612 -817.954325 
L 899.832984 -808.670634 
L 899.77394 -799.386944 
L 899.807303 -790.103253 
L 903.08151 -780.819563 
L 905.943239 -771.535872 
L 902.413468 -762.252182 
L 900.3973 -752.968491 
L 904.345096 -743.684801 
L 905.721716 -734.40111 
L 908.052547 -725.117419 
L 924.394723 -715.833729 
L 922.714351 -706.550038 
L 904.463999 -697.266348 
L 898.264525 -687.982657 
L 897.761233 -678.698967 
L 897.75007 -669.415276 
L 897.75 -660.131586 
L 897.75 -650.847895 
L 897.75 -641.564205 
L 897.75 -632.280514 
L 897.750005 -622.996823 
L 897.750101 -613.713133 
L 897.750558 -604.429442 
L 897.750877 -595.145752 
L 897.750393 -585.862061 
L 897.750051 -576.578371 
L 897.75003 -567.29468 
L 897.750413 -558.01099 
L 897.752068 -548.727299 
L 897.75429 -539.443608 
L 897.754866 -530.159918 
L 897.754297 -520.876227 
L 897.755039 -511.592537 
L 897.758558 -502.308846 
L 897.761723 -493.025156 
L 897.765747 -483.741465 
L 897.761886 -474.457775 
L 897.756344 -465.174084 
L 897.757544 -455.890394 
L 897.76107 -446.606703 
L 897.756814 -437.323012 
L 897.754572 -428.039322 
L 897.763271 -418.755631 
L 897.793929 -409.471941 
L 897.813869 -400.18825 
L 897.778132 -390.90456 
L 897.753594 -381.620869 
L 897.750693 -372.337179 
L 897.754731 -363.053488 
L 897.786825 -353.769798 
L 897.880488 -344.486107 
L 897.897871 -335.202416 
L 897.806761 -325.918726 
L 897.764985 -316.635035 
L 897.777111 -307.351345 
L 897.976084 -298.067654 
L 899.560794 -288.783964 
L 902.185805 -279.500273 
L 900.851909 -270.216583 
L 898.367992 -260.932892 
z
" id="me5f79494e8" style="stroke:#3d3d3d;stroke-width:1.5;"/>
    </defs>
    <g clip-path="url(#p8c6938dc25)">
     <use style="fill:#e1812c;stroke:#3d3d3d;stroke-width:1.5;" x="0" xlink:href="#me5f79494e8" y="1440"/>
    </g>
   </g>
   <g id="PolyCollection_3">
    <defs>
     <path d="M 1338.794509 -397.347407 
L 1293.705491 -397.347407 
L 1274.687438 -405.584498 
L 1247.697905 -413.821589 
L 1215.087253 -422.05868 
L 1182.660204 -430.295771 
L 1158.312395 -438.532862 
L 1148.85 -446.769953 
L 1156.551891 -455.007044 
L 1177.592569 -463.244135 
L 1203.41097 -471.481226 
L 1224.269762 -479.718317 
L 1233.109708 -487.955408 
L 1228.031011 -496.1925 
L 1212.680814 -504.429591 
L 1194.600155 -512.666682 
L 1182.0751 -520.903773 
L 1180.589368 -529.140864 
L 1190.43933 -537.377955 
L 1206.788405 -545.615046 
L 1222.212196 -553.852137 
L 1230.387066 -562.089228 
L 1229.006445 -570.326319 
L 1220.540099 -578.56341 
L 1210.591473 -586.800501 
L 1204.750998 -595.037593 
L 1205.581835 -603.274684 
L 1211.374871 -611.511775 
L 1217.403237 -619.748866 
L 1218.958559 -627.985957 
L 1214.342216 -636.223048 
L 1205.985801 -644.460139 
L 1199.03428 -652.69723 
L 1198.32262 -660.934321 
L 1205.679098 -669.171412 
L 1219.2 -677.408503 
L 1234.737348 -685.645594 
L 1248.354874 -693.882686 
L 1258.050031 -702.119777 
L 1263.86158 -710.356868 
L 1266.791344 -718.593959 
L 1267.691474 -726.83105 
L 1266.961625 -735.068141 
L 1265.002198 -743.305232 
L 1262.711079 -751.542323 
L 1261.398897 -759.779414 
L 1262.143225 -768.016505 
L 1265.153835 -776.253596 
L 1269.685143 -784.490687 
L 1274.51635 -792.727778 
L 1278.571716 -800.96487 
L 1281.268021 -809.201961 
L 1282.524025 -817.439052 
L 1282.624317 -825.676143 
L 1282.087249 -833.913234 
L 1281.519189 -842.150325 
L 1281.404514 -850.387416 
L 1281.897475 -858.624507 
L 1282.759074 -866.861598 
L 1283.505873 -875.098689 
L 1283.691325 -883.33578 
L 1283.160764 -891.572871 
L 1282.146155 -899.809963 
L 1281.152747 -908.047054 
L 1280.695787 -916.284145 
L 1281.033636 -924.521236 
L 1282.05417 -932.758327 
L 1283.373298 -940.995418 
L 1284.560499 -949.232509 
L 1285.333385 -957.4696 
L 1285.616685 -965.706691 
L 1285.48084 -973.943782 
L 1285.052005 -982.180873 
L 1284.464912 -990.417964 
L 1283.856291 -998.655056 
L 1283.353698 -1006.892147 
L 1283.038538 -1015.129238 
L 1282.910544 -1023.366329 
L 1282.892034 -1031.60342 
L 1282.874514 -1039.840511 
L 1282.771933 -1048.077602 
L 1282.542858 -1056.314693 
L 1282.171997 -1064.551784 
L 1281.627668 -1072.788875 
L 1280.816565 -1081.025966 
L 1279.547254 -1089.263057 
L 1277.509428 -1097.500149 
L 1274.291909 -1105.73724 
L 1269.489898 -1113.974331 
L 1262.949062 -1122.211422 
L 1255.111394 -1130.448513 
L 1247.277383 -1138.685604 
L 1241.503622 -1146.922695 
L 1239.977636 -1155.159786 
L 1244.065561 -1163.396877 
L 1253.563434 -1171.633968 
L 1266.662514 -1179.871059 
L 1280.697818 -1188.10815 
L 1293.226491 -1196.345241 
L 1302.814385 -1204.582333 
L 1309.196618 -1212.819424 
L 1323.303382 -1212.819424 
L 1323.303382 -1212.819424 
L 1329.685615 -1204.582333 
L 1339.273509 -1196.345241 
L 1351.802182 -1188.10815 
L 1365.837486 -1179.871059 
L 1378.936566 -1171.633968 
L 1388.434439 -1163.396877 
L 1392.522364 -1155.159786 
L 1390.996378 -1146.922695 
L 1385.222617 -1138.685604 
L 1377.388606 -1130.448513 
L 1369.550938 -1122.211422 
L 1363.010102 -1113.974331 
L 1358.208091 -1105.73724 
L 1354.990572 -1097.500149 
L 1352.952746 -1089.263057 
L 1351.683435 -1081.025966 
L 1350.872332 -1072.788875 
L 1350.328003 -1064.551784 
L 1349.957142 -1056.314693 
L 1349.728067 -1048.077602 
L 1349.625486 -1039.840511 
L 1349.607966 -1031.60342 
L 1349.589456 -1023.366329 
L 1349.461462 -1015.129238 
L 1349.146302 -1006.892147 
L 1348.643709 -998.655056 
L 1348.035088 -990.417964 
L 1347.447995 -982.180873 
L 1347.01916 -973.943782 
L 1346.883315 -965.706691 
L 1347.166615 -957.4696 
L 1347.939501 -949.232509 
L 1349.126702 -940.995418 
L 1350.44583 -932.758327 
L 1351.466364 -924.521236 
L 1351.804213 -916.284145 
L 1351.347253 -908.047054 
L 1350.353845 -899.809963 
L 1349.339236 -891.572871 
L 1348.808675 -883.33578 
L 1348.994127 -875.098689 
L 1349.740926 -866.861598 
L 1350.602525 -858.624507 
L 1351.095486 -850.387416 
L 1350.980811 -842.150325 
L 1350.412751 -833.913234 
L 1349.875683 -825.676143 
L 1349.975975 -817.439052 
L 1351.231979 -809.201961 
L 1353.928284 -800.96487 
L 1357.98365 -792.727778 
L 1362.814857 -784.490687 
L 1367.346165 -776.253596 
L 1370.356775 -768.016505 
L 1371.101103 -759.779414 
L 1369.788921 -751.542323 
L 1367.497802 -743.305232 
L 1365.538375 -735.068141 
L 1364.808526 -726.83105 
L 1365.708656 -718.593959 
L 1368.63842 -710.356868 
L 1374.449969 -702.119777 
L 1384.145126 -693.882686 
L 1397.762652 -685.645594 
L 1413.3 -677.408503 
L 1426.820902 -669.171412 
L 1434.17738 -660.934321 
L 1433.46572 -652.69723 
L 1426.514199 -644.460139 
L 1418.157784 -636.223048 
L 1413.541441 -627.985957 
L 1415.096763 -619.748866 
L 1421.125129 -611.511775 
L 1426.918165 -603.274684 
L 1427.749002 -595.037593 
L 1421.908527 -586.800501 
L 1411.959901 -578.56341 
L 1403.493555 -570.326319 
L 1402.112934 -562.089228 
L 1410.287804 -553.852137 
L 1425.711595 -545.615046 
L 1442.06067 -537.377955 
L 1451.910632 -529.140864 
L 1450.4249 -520.903773 
L 1437.899845 -512.666682 
L 1419.819186 -504.429591 
L 1404.468989 -496.1925 
L 1399.390292 -487.955408 
L 1408.230238 -479.718317 
L 1429.08903 -471.481226 
L 1454.907431 -463.244135 
L 1475.948109 -455.007044 
L 1483.65 -446.769953 
L 1474.187605 -438.532862 
L 1449.839796 -430.295771 
L 1417.412747 -422.05868 
L 1384.802095 -413.821589 
L 1357.812562 -405.584498 
L 1338.794509 -397.347407 
z
" id="mf67a84080a" style="stroke:#3d3d3d;stroke-width:1.5;"/>
    </defs>
    <g clip-path="url(#p8c6938dc25)">
     <use style="fill:#3a923a;stroke:#3d3d3d;stroke-width:1.5;" x="0" xlink:href="#mf67a84080a" y="1440"/>
    </g>
   </g>
   <g id="PolyCollection_4">
    <defs>
     <path d="M 1734.763551 -603.975713 
L 1734.736449 -603.975713 
L 1734.670893 -609.784793 
L 1734.468586 -615.593873 
L 1734.121666 -621.402953 
L 1733.803668 -627.212033 
L 1733.648491 -633.021113 
L 1733.620131 -638.830192 
L 1733.742768 -644.639272 
L 1734.019625 -650.448352 
L 1734.255377 -656.257432 
L 1734.310427 -662.066512 
L 1734.28403 -667.875591 
L 1734.296941 -673.684671 
L 1734.292362 -679.493751 
L 1734.217556 -685.302831 
L 1734.140148 -691.111911 
L 1734.10529 -696.92099 
L 1734.166477 -702.73007 
L 1734.359482 -708.53915 
L 1734.569443 -714.34823 
L 1734.683754 -720.15731 
L 1734.699693 -725.96639 
L 1734.616419 -731.775469 
L 1734.421993 -737.584549 
L 1734.232701 -743.393629 
L 1734.224349 -749.202709 
L 1734.326832 -755.011789 
L 1734.307424 -760.820868 
L 1734.074195 -766.629948 
L 1733.711661 -772.439028 
L 1733.449028 -778.248108 
L 1733.465216 -784.057188 
L 1733.663196 -789.866267 
L 1733.797002 -795.675347 
L 1733.72526 -801.484427 
L 1733.525031 -807.293507 
L 1733.136774 -813.102587 
L 1732.088753 -818.911667 
L 1730.439483 -824.720746 
L 1729.402166 -830.529826 
L 1729.832925 -836.338906 
L 1731.0872 -842.147986 
L 1731.917253 -847.957066 
L 1731.536157 -853.766145 
L 1729.948884 -859.575225 
L 1728.051487 -865.384305 
L 1727.220442 -871.193385 
L 1728.08622 -877.002465 
L 1729.759974 -882.811544 
L 1730.628648 -888.620624 
L 1730.19091 -894.429704 
L 1729.561639 -900.238784 
L 1729.968991 -906.047864 
L 1731.205044 -911.856944 
L 1732.161747 -917.666023 
L 1732.350999 -923.475103 
L 1732.155925 -929.284183 
L 1732.090943 -935.093263 
L 1732.236615 -940.902343 
L 1732.417442 -946.711422 
L 1732.535571 -952.520502 
L 1732.675046 -958.329582 
L 1732.976989 -964.138662 
L 1733.284 -969.947742 
L 1733.279335 -975.756821 
L 1732.861166 -981.565901 
L 1731.943881 -987.374981 
L 1730.639573 -993.184061 
L 1729.669569 -998.993141 
L 1729.476423 -1004.802221 
L 1729.75586 -1010.6113 
L 1730.360421 -1016.42038 
L 1731.217713 -1022.22946 
L 1731.784885 -1028.03854 
L 1731.821318 -1033.84762 
L 1731.606421 -1039.656699 
L 1731.163984 -1045.465779 
L 1730.581945 -1051.274859 
L 1729.639911 -1057.083939 
L 1723.481173 -1062.893019 
L 1698.239204 -1068.702098 
L 1644.286679 -1074.511178 
L 1586.176222 -1080.320258 
L 1567.35 -1086.129338 
L 1592.717702 -1091.938418 
L 1629.265801 -1097.747498 
L 1654.166246 -1103.556577 
L 1670.913947 -1109.365657 
L 1687.446098 -1115.174737 
L 1701.830116 -1120.983817 
L 1709.505271 -1126.792897 
L 1709.114442 -1132.601976 
L 1702.572955 -1138.411056 
L 1694.405755 -1144.220136 
L 1687.36433 -1150.029216 
L 1682.843183 -1155.838296 
L 1687.647371 -1161.647375 
L 1704.60933 -1167.456455 
L 1722.435661 -1173.265535 
L 1731.6794 -1179.074615 
L 1737.8206 -1179.074615 
L 1737.8206 -1179.074615 
L 1747.064339 -1173.265535 
L 1764.89067 -1167.456455 
L 1781.852629 -1161.647375 
L 1786.656817 -1155.838296 
L 1782.13567 -1150.029216 
L 1775.094245 -1144.220136 
L 1766.927045 -1138.411056 
L 1760.385558 -1132.601976 
L 1759.994729 -1126.792897 
L 1767.669884 -1120.983817 
L 1782.053902 -1115.174737 
L 1798.586053 -1109.365657 
L 1815.333754 -1103.556577 
L 1840.234199 -1097.747498 
L 1876.782298 -1091.938418 
L 1902.15 -1086.129338 
L 1883.323778 -1080.320258 
L 1825.213321 -1074.511178 
L 1771.260796 -1068.702098 
L 1746.018827 -1062.893019 
L 1739.860089 -1057.083939 
L 1738.918055 -1051.274859 
L 1738.336016 -1045.465779 
L 1737.893579 -1039.656699 
L 1737.678682 -1033.84762 
L 1737.715115 -1028.03854 
L 1738.282287 -1022.22946 
L 1739.139579 -1016.42038 
L 1739.74414 -1010.6113 
L 1740.023577 -1004.802221 
L 1739.830431 -998.993141 
L 1738.860427 -993.184061 
L 1737.556119 -987.374981 
L 1736.638834 -981.565901 
L 1736.220665 -975.756821 
L 1736.216 -969.947742 
L 1736.523011 -964.138662 
L 1736.824954 -958.329582 
L 1736.964429 -952.520502 
L 1737.082558 -946.711422 
L 1737.263385 -940.902343 
L 1737.409057 -935.093263 
L 1737.344075 -929.284183 
L 1737.149001 -923.475103 
L 1737.338253 -917.666023 
L 1738.294956 -911.856944 
L 1739.531009 -906.047864 
L 1739.938361 -900.238784 
L 1739.30909 -894.429704 
L 1738.871352 -888.620624 
L 1739.740026 -882.811544 
L 1741.41378 -877.002465 
L 1742.279558 -871.193385 
L 1741.448513 -865.384305 
L 1739.551116 -859.575225 
L 1737.963843 -853.766145 
L 1737.582747 -847.957066 
L 1738.4128 -842.147986 
L 1739.667075 -836.338906 
L 1740.097834 -830.529826 
L 1739.060517 -824.720746 
L 1737.411247 -818.911667 
L 1736.363226 -813.102587 
L 1735.974969 -807.293507 
L 1735.77474 -801.484427 
L 1735.702998 -795.675347 
L 1735.836804 -789.866267 
L 1736.034784 -784.057188 
L 1736.050972 -778.248108 
L 1735.788339 -772.439028 
L 1735.425805 -766.629948 
L 1735.192576 -760.820868 
L 1735.173168 -755.011789 
L 1735.275651 -749.202709 
L 1735.267299 -743.393629 
L 1735.078007 -737.584549 
L 1734.883581 -731.775469 
L 1734.800307 -725.96639 
L 1734.816246 -720.15731 
L 1734.930557 -714.34823 
L 1735.140518 -708.53915 
L 1735.333523 -702.73007 
L 1735.39471 -696.92099 
L 1735.359852 -691.111911 
L 1735.282444 -685.302831 
L 1735.207638 -679.493751 
L 1735.203059 -673.684671 
L 1735.21597 -667.875591 
L 1735.189573 -662.066512 
L 1735.244623 -656.257432 
L 1735.480375 -650.448352 
L 1735.757232 -644.639272 
L 1735.879869 -638.830192 
L 1735.851509 -633.021113 
L 1735.696332 -627.212033 
L 1735.378334 -621.402953 
L 1735.031414 -615.593873 
L 1734.829107 -609.784793 
L 1734.763551 -603.975713 
z
" id="m9e792be285" style="stroke:#3d3d3d;stroke-width:1.5;"/>
    </defs>
    <g clip-path="url(#p8c6938dc25)">
     <use style="fill:#c03d3e;stroke:#3d3d3d;stroke-width:1.5;" x="0" xlink:href="#m9e792be285" y="1440"/>
    </g>
   </g>
   <g id="matplotlib.axis_1">
    <g id="xtick_1">
     <g id="line2d_1">
      <defs>
       <path d="M 0 0 
L 0 3.5 
" id="mfedfb07e25" style="stroke:#000000;stroke-width:0.8;"/>
      </defs>
      <g>
       <use style="stroke:#000000;stroke-width:0.8;" x="479.25" xlink:href="#mfedfb07e25" y="1260"/>
      </g>
     </g>
     <g id="text_1">
      <!-- ConsensusPath -->
      <g transform="translate(490.2875 1610.66875)rotate(-90)scale(0.4 -0.4)">
       <defs>
        <path d="M 67 4 
Q 61.8125 1.3125 56.203125 -0.046875 
Q 50.59375 -1.421875 44.484375 -1.421875 
Q 26.265625 -1.421875 15.625 8.765625 
Q 4.984375 18.953125 4.984375 36.375 
Q 4.984375 53.859375 15.625 64.03125 
Q 26.265625 74.21875 44.484375 74.21875 
Q 50.59375 74.21875 56.203125 72.84375 
Q 61.8125 71.484375 67 68.796875 
L 67 53.71875 
Q 61.765625 57.28125 56.6875 58.9375 
Q 51.609375 60.59375 46 60.59375 
Q 35.9375 60.59375 30.171875 54.140625 
Q 24.421875 47.703125 24.421875 36.375 
Q 24.421875 25.09375 30.171875 18.640625 
Q 35.9375 12.203125 46 12.203125 
Q 51.609375 12.203125 56.6875 13.859375 
Q 61.765625 15.53125 67 19.09375 
z
" id="DejaVuSans-Bold-67"/>
        <path d="M 34.421875 43.5 
Q 28.609375 43.5 25.5625 39.328125 
Q 22.515625 35.15625 22.515625 27.296875 
Q 22.515625 19.4375 25.5625 15.25 
Q 28.609375 11.078125 34.421875 11.078125 
Q 40.140625 11.078125 43.15625 15.25 
Q 46.1875 19.4375 46.1875 27.296875 
Q 46.1875 35.15625 43.15625 39.328125 
Q 40.140625 43.5 34.421875 43.5 
z
M 34.421875 56 
Q 48.53125 56 56.46875 48.375 
Q 64.40625 40.765625 64.40625 27.296875 
Q 64.40625 13.8125 56.46875 6.1875 
Q 48.53125 -1.421875 34.421875 -1.421875 
Q 20.265625 -1.421875 12.28125 6.1875 
Q 4.296875 13.8125 4.296875 27.296875 
Q 4.296875 40.765625 12.28125 48.375 
Q 20.265625 56 34.421875 56 
z
" id="DejaVuSans-Bold-111"/>
        <path d="M 63.375 33.296875 
L 63.375 0 
L 45.796875 0 
L 45.796875 5.421875 
L 45.796875 25.484375 
Q 45.796875 32.5625 45.484375 35.25 
Q 45.171875 37.9375 44.390625 39.203125 
Q 43.359375 40.921875 41.59375 41.875 
Q 39.84375 42.828125 37.59375 42.828125 
Q 32.125 42.828125 29 38.59375 
Q 25.875 34.375 25.875 26.90625 
L 25.875 0 
L 8.40625 0 
L 8.40625 54.6875 
L 25.875 54.6875 
L 25.875 46.6875 
Q 29.828125 51.46875 34.265625 53.734375 
Q 38.71875 56 44.09375 56 
Q 53.5625 56 58.46875 50.1875 
Q 63.375 44.390625 63.375 33.296875 
z
" id="DejaVuSans-Bold-110"/>
        <path d="M 51.125 52.984375 
L 51.125 39.703125 
Q 45.515625 42.046875 40.28125 43.21875 
Q 35.0625 44.390625 30.421875 44.390625 
Q 25.4375 44.390625 23.015625 43.140625 
Q 20.609375 41.890625 20.609375 39.3125 
Q 20.609375 37.203125 22.4375 36.078125 
Q 24.265625 34.96875 29 34.421875 
L 32.078125 33.984375 
Q 45.515625 32.28125 50.140625 28.375 
Q 54.78125 24.46875 54.78125 16.109375 
Q 54.78125 7.375 48.328125 2.96875 
Q 41.890625 -1.421875 29.109375 -1.421875 
Q 23.6875 -1.421875 17.890625 -0.5625 
Q 12.109375 0.296875 6 2 
L 6 15.28125 
Q 11.234375 12.75 16.71875 11.46875 
Q 22.21875 10.203125 27.875 10.203125 
Q 33.015625 10.203125 35.59375 11.609375 
Q 38.1875 13.03125 38.1875 15.828125 
Q 38.1875 18.171875 36.40625 19.3125 
Q 34.625 20.453125 29.296875 21.09375 
L 26.21875 21.484375 
Q 14.546875 22.953125 9.859375 26.90625 
Q 5.171875 30.859375 5.171875 38.921875 
Q 5.171875 47.609375 11.125 51.796875 
Q 17.09375 56 29.390625 56 
Q 34.234375 56 39.546875 55.265625 
Q 44.875 54.546875 51.125 52.984375 
z
" id="DejaVuSans-Bold-115"/>
        <path d="M 62.984375 27.484375 
L 62.984375 22.515625 
L 22.125 22.515625 
Q 22.75 16.359375 26.5625 13.28125 
Q 30.375 10.203125 37.203125 10.203125 
Q 42.71875 10.203125 48.5 11.84375 
Q 54.296875 13.484375 60.40625 16.796875 
L 60.40625 3.328125 
Q 54.203125 0.984375 48 -0.21875 
Q 41.796875 -1.421875 35.59375 -1.421875 
Q 20.75 -1.421875 12.515625 6.125 
Q 4.296875 13.671875 4.296875 27.296875 
Q 4.296875 40.671875 12.375 48.328125 
Q 20.453125 56 34.625 56 
Q 47.515625 56 55.25 48.234375 
Q 62.984375 40.484375 62.984375 27.484375 
z
M 45.015625 33.296875 
Q 45.015625 38.28125 42.109375 41.328125 
Q 39.203125 44.390625 34.515625 44.390625 
Q 29.4375 44.390625 26.265625 41.53125 
Q 23.09375 38.671875 22.3125 33.296875 
z
" id="DejaVuSans-Bold-101"/>
        <path d="M 7.8125 21.296875 
L 7.8125 54.6875 
L 25.390625 54.6875 
L 25.390625 49.21875 
Q 25.390625 44.78125 25.34375 38.0625 
Q 25.296875 31.34375 25.296875 29.109375 
Q 25.296875 22.515625 25.640625 19.609375 
Q 25.984375 16.703125 26.8125 15.375 
Q 27.875 13.671875 29.609375 12.734375 
Q 31.34375 11.8125 33.59375 11.8125 
Q 39.0625 11.8125 42.1875 16.015625 
Q 45.3125 20.21875 45.3125 27.6875 
L 45.3125 54.6875 
L 62.796875 54.6875 
L 62.796875 0 
L 45.3125 0 
L 45.3125 7.90625 
Q 41.359375 3.125 36.9375 0.84375 
Q 32.515625 -1.421875 27.203125 -1.421875 
Q 17.71875 -1.421875 12.765625 4.390625 
Q 7.8125 10.203125 7.8125 21.296875 
z
" id="DejaVuSans-Bold-117"/>
        <path d="M 9.1875 72.90625 
L 40.375 72.90625 
Q 54.296875 72.90625 61.734375 66.71875 
Q 69.1875 60.546875 69.1875 49.125 
Q 69.1875 37.640625 61.734375 31.46875 
Q 54.296875 25.296875 40.375 25.296875 
L 27.984375 25.296875 
L 27.984375 0 
L 9.1875 0 
z
M 27.984375 59.28125 
L 27.984375 38.921875 
L 38.375 38.921875 
Q 43.84375 38.921875 46.828125 41.578125 
Q 49.8125 44.234375 49.8125 49.125 
Q 49.8125 54 46.828125 56.640625 
Q 43.84375 59.28125 38.375 59.28125 
z
" id="DejaVuSans-Bold-80"/>
        <path d="M 32.90625 24.609375 
Q 27.4375 24.609375 24.671875 22.75 
Q 21.921875 20.90625 21.921875 17.28125 
Q 21.921875 13.96875 24.140625 12.078125 
Q 26.375 10.203125 30.328125 10.203125 
Q 35.25 10.203125 38.625 13.734375 
Q 42 17.28125 42 22.609375 
L 42 24.609375 
z
M 59.625 31.203125 
L 59.625 0 
L 42 0 
L 42 8.109375 
Q 38.484375 3.125 34.078125 0.84375 
Q 29.6875 -1.421875 23.390625 -1.421875 
Q 14.890625 -1.421875 9.59375 3.53125 
Q 4.296875 8.5 4.296875 16.40625 
Q 4.296875 26.03125 10.90625 30.515625 
Q 17.53125 35.015625 31.6875 35.015625 
L 42 35.015625 
L 42 36.375 
Q 42 40.53125 38.71875 42.453125 
Q 35.453125 44.390625 28.515625 44.390625 
Q 22.90625 44.390625 18.0625 43.265625 
Q 13.234375 42.140625 9.078125 39.890625 
L 9.078125 53.21875 
Q 14.703125 54.59375 20.359375 55.296875 
Q 26.03125 56 31.6875 56 
Q 46.484375 56 53.046875 50.171875 
Q 59.625 44.34375 59.625 31.203125 
z
" id="DejaVuSans-Bold-97"/>
        <path d="M 27.484375 70.21875 
L 27.484375 54.6875 
L 45.515625 54.6875 
L 45.515625 42.1875 
L 27.484375 42.1875 
L 27.484375 19 
Q 27.484375 15.1875 29 13.84375 
Q 30.515625 12.5 35.015625 12.5 
L 44 12.5 
L 44 0 
L 29 0 
Q 18.65625 0 14.328125 4.3125 
Q 10.015625 8.640625 10.015625 19 
L 10.015625 42.1875 
L 1.3125 42.1875 
L 1.3125 54.6875 
L 10.015625 54.6875 
L 10.015625 70.21875 
z
" id="DejaVuSans-Bold-116"/>
        <path d="M 63.375 33.296875 
L 63.375 0 
L 45.796875 0 
L 45.796875 5.421875 
L 45.796875 25.390625 
Q 45.796875 32.5625 45.484375 35.25 
Q 45.171875 37.9375 44.390625 39.203125 
Q 43.359375 40.921875 41.59375 41.875 
Q 39.84375 42.828125 37.59375 42.828125 
Q 32.125 42.828125 29 38.59375 
Q 25.875 34.375 25.875 26.90625 
L 25.875 0 
L 8.40625 0 
L 8.40625 75.984375 
L 25.875 75.984375 
L 25.875 46.6875 
Q 29.828125 51.46875 34.265625 53.734375 
Q 38.71875 56 44.09375 56 
Q 53.5625 56 58.46875 50.1875 
Q 63.375 44.390625 63.375 33.296875 
z
" id="DejaVuSans-Bold-104"/>
       </defs>
       <use xlink:href="#DejaVuSans-Bold-67"/>
       <use x="73.388672" xlink:href="#DejaVuSans-Bold-111"/>
       <use x="142.089844" xlink:href="#DejaVuSans-Bold-110"/>
       <use x="213.28125" xlink:href="#DejaVuSans-Bold-115"/>
       <use x="272.802734" xlink:href="#DejaVuSans-Bold-101"/>
       <use x="340.625" xlink:href="#DejaVuSans-Bold-110"/>
       <use x="411.816406" xlink:href="#DejaVuSans-Bold-115"/>
       <use x="471.337891" xlink:href="#DejaVuSans-Bold-117"/>
       <use x="542.529297" xlink:href="#DejaVuSans-Bold-115"/>
       <use x="602.050781" xlink:href="#DejaVuSans-Bold-80"/>
       <use x="672.716797" xlink:href="#DejaVuSans-Bold-97"/>
       <use x="740.197266" xlink:href="#DejaVuSans-Bold-116"/>
       <use x="788" xlink:href="#DejaVuSans-Bold-104"/>
      </g>
     </g>
    </g>
    <g id="xtick_2">
     <g id="line2d_2">
      <g>
       <use style="stroke:#000000;stroke-width:0.8;" x="897.75" xlink:href="#mfedfb07e25" y="1260"/>
      </g>
     </g>
     <g id="text_2">
      <!-- HIPPIE -->
      <g transform="translate(908.7875 1416.2)rotate(-90)scale(0.4 -0.4)">
       <defs>
        <path d="M 9.1875 72.90625 
L 27.984375 72.90625 
L 27.984375 45.125 
L 55.71875 45.125 
L 55.71875 72.90625 
L 74.515625 72.90625 
L 74.515625 0 
L 55.71875 0 
L 55.71875 30.90625 
L 27.984375 30.90625 
L 27.984375 0 
L 9.1875 0 
z
" id="DejaVuSans-Bold-72"/>
        <path d="M 9.1875 72.90625 
L 27.984375 72.90625 
L 27.984375 0 
L 9.1875 0 
z
" id="DejaVuSans-Bold-73"/>
        <path d="M 9.1875 72.90625 
L 59.90625 72.90625 
L 59.90625 58.6875 
L 27.984375 58.6875 
L 27.984375 45.125 
L 58.015625 45.125 
L 58.015625 30.90625 
L 27.984375 30.90625 
L 27.984375 14.203125 
L 60.984375 14.203125 
L 60.984375 0 
L 9.1875 0 
z
" id="DejaVuSans-Bold-69"/>
       </defs>
       <use xlink:href="#DejaVuSans-Bold-72"/>
       <use x="83.691406" xlink:href="#DejaVuSans-Bold-73"/>
       <use x="120.898438" xlink:href="#DejaVuSans-Bold-80"/>
       <use x="194.189453" xlink:href="#DejaVuSans-Bold-80"/>
       <use x="267.480469" xlink:href="#DejaVuSans-Bold-73"/>
       <use x="304.6875" xlink:href="#DejaVuSans-Bold-69"/>
      </g>
     </g>
    </g>
    <g id="xtick_3">
     <g id="line2d_3">
      <g>
       <use style="stroke:#000000;stroke-width:0.8;" x="1316.25" xlink:href="#mfedfb07e25" y="1260"/>
      </g>
     </g>
     <g id="text_3">
      <!-- iREF -->
      <g transform="translate(1327.2875 1366.1625)rotate(-90)scale(0.4 -0.4)">
       <defs>
        <path d="M 8.40625 54.6875 
L 25.875 54.6875 
L 25.875 0 
L 8.40625 0 
z
M 8.40625 75.984375 
L 25.875 75.984375 
L 25.875 61.71875 
L 8.40625 61.71875 
z
" id="DejaVuSans-Bold-105"/>
        <path d="M 35.890625 40.578125 
Q 41.796875 40.578125 44.359375 42.765625 
Q 46.921875 44.96875 46.921875 50 
Q 46.921875 54.984375 44.359375 57.125 
Q 41.796875 59.28125 35.890625 59.28125 
L 27.984375 59.28125 
L 27.984375 40.578125 
z
M 27.984375 27.59375 
L 27.984375 0 
L 9.1875 0 
L 9.1875 72.90625 
L 37.890625 72.90625 
Q 52.296875 72.90625 59 68.0625 
Q 65.71875 63.234375 65.71875 52.78125 
Q 65.71875 45.5625 62.21875 40.921875 
Q 58.734375 36.28125 51.703125 34.078125 
Q 55.5625 33.203125 58.609375 30.09375 
Q 61.671875 27 64.796875 20.703125 
L 75 0 
L 54.984375 0 
L 46.09375 18.109375 
Q 43.40625 23.578125 40.640625 25.578125 
Q 37.890625 27.59375 33.296875 27.59375 
z
" id="DejaVuSans-Bold-82"/>
        <path d="M 9.1875 72.90625 
L 59.90625 72.90625 
L 59.90625 58.6875 
L 27.984375 58.6875 
L 27.984375 45.125 
L 58.015625 45.125 
L 58.015625 30.90625 
L 27.984375 30.90625 
L 27.984375 0 
L 9.1875 0 
z
" id="DejaVuSans-Bold-70"/>
       </defs>
       <use xlink:href="#DejaVuSans-Bold-105"/>
       <use x="34.277344" xlink:href="#DejaVuSans-Bold-82"/>
       <use x="111.279297" xlink:href="#DejaVuSans-Bold-69"/>
       <use x="179.589844" xlink:href="#DejaVuSans-Bold-70"/>
      </g>
     </g>
    </g>
    <g id="xtick_4">
     <g id="line2d_4">
      <g>
       <use style="stroke:#000000;stroke-width:0.8;" x="1734.75" xlink:href="#mfedfb07e25" y="1260"/>
      </g>
     </g>
     <g id="text_4">
      <!-- STRING -->
      <g transform="translate(1745.7875 1435.08125)rotate(-90)scale(0.4 -0.4)">
       <defs>
        <path d="M 59.90625 70.609375 
L 59.90625 55.171875 
Q 53.90625 57.859375 48.1875 59.21875 
Q 42.484375 60.59375 37.40625 60.59375 
Q 30.671875 60.59375 27.4375 58.734375 
Q 24.21875 56.890625 24.21875 52.984375 
Q 24.21875 50.046875 26.390625 48.40625 
Q 28.5625 46.78125 34.28125 45.609375 
L 42.28125 44 
Q 54.4375 41.546875 59.5625 36.5625 
Q 64.703125 31.59375 64.703125 22.40625 
Q 64.703125 10.359375 57.546875 4.46875 
Q 50.390625 -1.421875 35.6875 -1.421875 
Q 28.765625 -1.421875 21.78125 -0.09375 
Q 14.796875 1.21875 7.8125 3.8125 
L 7.8125 19.671875 
Q 14.796875 15.96875 21.3125 14.078125 
Q 27.828125 12.203125 33.890625 12.203125 
Q 40.046875 12.203125 43.3125 14.25 
Q 46.578125 16.3125 46.578125 20.125 
Q 46.578125 23.53125 44.359375 25.390625 
Q 42.140625 27.25 35.5 28.71875 
L 28.21875 30.328125 
Q 17.28125 32.671875 12.21875 37.796875 
Q 7.171875 42.921875 7.171875 51.609375 
Q 7.171875 62.5 14.203125 68.359375 
Q 21.234375 74.21875 34.421875 74.21875 
Q 40.4375 74.21875 46.78125 73.3125 
Q 53.125 72.40625 59.90625 70.609375 
z
" id="DejaVuSans-Bold-83"/>
        <path d="M 0.484375 72.90625 
L 67.671875 72.90625 
L 67.671875 58.6875 
L 43.5 58.6875 
L 43.5 0 
L 24.703125 0 
L 24.703125 58.6875 
L 0.484375 58.6875 
z
" id="DejaVuSans-Bold-84"/>
        <path d="M 9.1875 72.90625 
L 30.171875 72.90625 
L 56.6875 22.90625 
L 56.6875 72.90625 
L 74.515625 72.90625 
L 74.515625 0 
L 53.515625 0 
L 27 50 
L 27 0 
L 9.1875 0 
z
" id="DejaVuSans-Bold-78"/>
        <path d="M 74.703125 5.421875 
Q 67.671875 2 60.109375 0.28125 
Q 52.546875 -1.421875 44.484375 -1.421875 
Q 26.265625 -1.421875 15.625 8.765625 
Q 4.984375 18.953125 4.984375 36.375 
Q 4.984375 54 15.8125 64.109375 
Q 26.65625 74.21875 45.515625 74.21875 
Q 52.78125 74.21875 59.4375 72.84375 
Q 66.109375 71.484375 72.015625 68.796875 
L 72.015625 53.71875 
Q 65.921875 57.171875 59.890625 58.875 
Q 53.859375 60.59375 47.796875 60.59375 
Q 36.578125 60.59375 30.5 54.3125 
Q 24.421875 48.046875 24.421875 36.375 
Q 24.421875 24.8125 30.28125 18.5 
Q 36.140625 12.203125 46.921875 12.203125 
Q 49.859375 12.203125 52.375 12.5625 
Q 54.890625 12.9375 56.890625 13.71875 
L 56.890625 27.875 
L 45.40625 27.875 
L 45.40625 40.484375 
L 74.703125 40.484375 
z
" id="DejaVuSans-Bold-71"/>
       </defs>
       <use xlink:href="#DejaVuSans-Bold-83"/>
       <use x="72.021484" xlink:href="#DejaVuSans-Bold-84"/>
       <use x="140.234375" xlink:href="#DejaVuSans-Bold-82"/>
       <use x="217.236328" xlink:href="#DejaVuSans-Bold-73"/>
       <use x="254.443359" xlink:href="#DejaVuSans-Bold-78"/>
       <use x="338.134766" xlink:href="#DejaVuSans-Bold-71"/>
      </g>
     </g>
    </g>
   </g>
   <g id="matplotlib.axis_2">
    <g id="ytick_1">
     <g id="line2d_5">
      <defs>
       <path d="M 0 0 
L -3.5 0 
" id="m07f5da05f9" style="stroke:#000000;stroke-width:0.8;"/>
      </defs>
      <g>
       <use style="stroke:#000000;stroke-width:0.8;" x="270" xlink:href="#m07f5da05f9" y="1162.497415"/>
      </g>
     </g>
     <g id="text_5">
      <!-- 0.0 -->
      <g transform="translate(215.290625 1173.895071)scale(0.3 -0.3)">
       <defs>
        <path d="M 31.78125 66.40625 
Q 24.171875 66.40625 20.328125 58.90625 
Q 16.5 51.421875 16.5 36.375 
Q 16.5 21.390625 20.328125 13.890625 
Q 24.171875 6.390625 31.78125 6.390625 
Q 39.453125 6.390625 43.28125 13.890625 
Q 47.125 21.390625 47.125 36.375 
Q 47.125 51.421875 43.28125 58.90625 
Q 39.453125 66.40625 31.78125 66.40625 
z
M 31.78125 74.21875 
Q 44.046875 74.21875 50.515625 64.515625 
Q 56.984375 54.828125 56.984375 36.375 
Q 56.984375 17.96875 50.515625 8.265625 
Q 44.046875 -1.421875 31.78125 -1.421875 
Q 19.53125 -1.421875 13.0625 8.265625 
Q 6.59375 17.96875 6.59375 36.375 
Q 6.59375 54.828125 13.0625 64.515625 
Q 19.53125 74.21875 31.78125 74.21875 
z
" id="DejaVuSans-48"/>
        <path d="M 10.6875 12.40625 
L 21 12.40625 
L 21 0 
L 10.6875 0 
z
" id="DejaVuSans-46"/>
       </defs>
       <use xlink:href="#DejaVuSans-48"/>
       <use x="63.623047" xlink:href="#DejaVuSans-46"/>
       <use x="95.410156" xlink:href="#DejaVuSans-48"/>
      </g>
     </g>
    </g>
    <g id="ytick_2">
     <g id="line2d_6">
      <g>
       <use style="stroke:#000000;stroke-width:0.8;" x="270" xlink:href="#m07f5da05f9" y="985.308219"/>
      </g>
     </g>
     <g id="text_6">
      <!-- 0.2 -->
      <g transform="translate(215.290625 996.705876)scale(0.3 -0.3)">
       <defs>
        <path d="M 19.1875 8.296875 
L 53.609375 8.296875 
L 53.609375 0 
L 7.328125 0 
L 7.328125 8.296875 
Q 12.9375 14.109375 22.625 23.890625 
Q 32.328125 33.6875 34.8125 36.53125 
Q 39.546875 41.84375 41.421875 45.53125 
Q 43.3125 49.21875 43.3125 52.78125 
Q 43.3125 58.59375 39.234375 62.25 
Q 35.15625 65.921875 28.609375 65.921875 
Q 23.96875 65.921875 18.8125 64.3125 
Q 13.671875 62.703125 7.8125 59.421875 
L 7.8125 69.390625 
Q 13.765625 71.78125 18.9375 73 
Q 24.125 74.21875 28.421875 74.21875 
Q 39.75 74.21875 46.484375 68.546875 
Q 53.21875 62.890625 53.21875 53.421875 
Q 53.21875 48.921875 51.53125 44.890625 
Q 49.859375 40.875 45.40625 35.40625 
Q 44.1875 33.984375 37.640625 27.21875 
Q 31.109375 20.453125 19.1875 8.296875 
z
" id="DejaVuSans-50"/>
       </defs>
       <use xlink:href="#DejaVuSans-48"/>
       <use x="63.623047" xlink:href="#DejaVuSans-46"/>
       <use x="95.410156" xlink:href="#DejaVuSans-50"/>
      </g>
     </g>
    </g>
    <g id="ytick_3">
     <g id="line2d_7">
      <g>
       <use style="stroke:#000000;stroke-width:0.8;" x="270" xlink:href="#m07f5da05f9" y="808.119024"/>
      </g>
     </g>
     <g id="text_7">
      <!-- 0.4 -->
      <g transform="translate(215.290625 819.51668)scale(0.3 -0.3)">
       <defs>
        <path d="M 37.796875 64.3125 
L 12.890625 25.390625 
L 37.796875 25.390625 
z
M 35.203125 72.90625 
L 47.609375 72.90625 
L 47.609375 25.390625 
L 58.015625 25.390625 
L 58.015625 17.1875 
L 47.609375 17.1875 
L 47.609375 0 
L 37.796875 0 
L 37.796875 17.1875 
L 4.890625 17.1875 
L 4.890625 26.703125 
z
" id="DejaVuSans-52"/>
       </defs>
       <use xlink:href="#DejaVuSans-48"/>
       <use x="63.623047" xlink:href="#DejaVuSans-46"/>
       <use x="95.410156" xlink:href="#DejaVuSans-52"/>
      </g>
     </g>
    </g>
    <g id="ytick_4">
     <g id="line2d_8">
      <g>
       <use style="stroke:#000000;stroke-width:0.8;" x="270" xlink:href="#m07f5da05f9" y="630.929828"/>
      </g>
     </g>
     <g id="text_8">
      <!-- 0.6 -->
      <g transform="translate(215.290625 642.327484)scale(0.3 -0.3)">
       <defs>
        <path d="M 33.015625 40.375 
Q 26.375 40.375 22.484375 35.828125 
Q 18.609375 31.296875 18.609375 23.390625 
Q 18.609375 15.53125 22.484375 10.953125 
Q 26.375 6.390625 33.015625 6.390625 
Q 39.65625 6.390625 43.53125 10.953125 
Q 47.40625 15.53125 47.40625 23.390625 
Q 47.40625 31.296875 43.53125 35.828125 
Q 39.65625 40.375 33.015625 40.375 
z
M 52.59375 71.296875 
L 52.59375 62.3125 
Q 48.875 64.0625 45.09375 64.984375 
Q 41.3125 65.921875 37.59375 65.921875 
Q 27.828125 65.921875 22.671875 59.328125 
Q 17.53125 52.734375 16.796875 39.40625 
Q 19.671875 43.65625 24.015625 45.921875 
Q 28.375 48.1875 33.59375 48.1875 
Q 44.578125 48.1875 50.953125 41.515625 
Q 57.328125 34.859375 57.328125 23.390625 
Q 57.328125 12.15625 50.6875 5.359375 
Q 44.046875 -1.421875 33.015625 -1.421875 
Q 20.359375 -1.421875 13.671875 8.265625 
Q 6.984375 17.96875 6.984375 36.375 
Q 6.984375 53.65625 15.1875 63.9375 
Q 23.390625 74.21875 37.203125 74.21875 
Q 40.921875 74.21875 44.703125 73.484375 
Q 48.484375 72.75 52.59375 71.296875 
z
" id="DejaVuSans-54"/>
       </defs>
       <use xlink:href="#DejaVuSans-48"/>
       <use x="63.623047" xlink:href="#DejaVuSans-46"/>
       <use x="95.410156" xlink:href="#DejaVuSans-54"/>
      </g>
     </g>
    </g>
    <g id="ytick_5">
     <g id="line2d_9">
      <g>
       <use style="stroke:#000000;stroke-width:0.8;" x="270" xlink:href="#m07f5da05f9" y="453.740632"/>
      </g>
     </g>
     <g id="text_9">
      <!-- 0.8 -->
      <g transform="translate(215.290625 465.138289)scale(0.3 -0.3)">
       <defs>
        <path d="M 31.78125 34.625 
Q 24.75 34.625 20.71875 30.859375 
Q 16.703125 27.09375 16.703125 20.515625 
Q 16.703125 13.921875 20.71875 10.15625 
Q 24.75 6.390625 31.78125 6.390625 
Q 38.8125 6.390625 42.859375 10.171875 
Q 46.921875 13.96875 46.921875 20.515625 
Q 46.921875 27.09375 42.890625 30.859375 
Q 38.875 34.625 31.78125 34.625 
z
M 21.921875 38.8125 
Q 15.578125 40.375 12.03125 44.71875 
Q 8.5 49.078125 8.5 55.328125 
Q 8.5 64.0625 14.71875 69.140625 
Q 20.953125 74.21875 31.78125 74.21875 
Q 42.671875 74.21875 48.875 69.140625 
Q 55.078125 64.0625 55.078125 55.328125 
Q 55.078125 49.078125 51.53125 44.71875 
Q 48 40.375 41.703125 38.8125 
Q 48.828125 37.15625 52.796875 32.3125 
Q 56.78125 27.484375 56.78125 20.515625 
Q 56.78125 9.90625 50.3125 4.234375 
Q 43.84375 -1.421875 31.78125 -1.421875 
Q 19.734375 -1.421875 13.25 4.234375 
Q 6.78125 9.90625 6.78125 20.515625 
Q 6.78125 27.484375 10.78125 32.3125 
Q 14.796875 37.15625 21.921875 38.8125 
z
M 18.3125 54.390625 
Q 18.3125 48.734375 21.84375 45.5625 
Q 25.390625 42.390625 31.78125 42.390625 
Q 38.140625 42.390625 41.71875 45.5625 
Q 45.3125 48.734375 45.3125 54.390625 
Q 45.3125 60.0625 41.71875 63.234375 
Q 38.140625 66.40625 31.78125 66.40625 
Q 25.390625 66.40625 21.84375 63.234375 
Q 18.3125 60.0625 18.3125 54.390625 
z
" id="DejaVuSans-56"/>
       </defs>
       <use xlink:href="#DejaVuSans-48"/>
       <use x="63.623047" xlink:href="#DejaVuSans-46"/>
       <use x="95.410156" xlink:href="#DejaVuSans-56"/>
      </g>
     </g>
    </g>
    <g id="ytick_6">
     <g id="line2d_10">
      <g>
       <use style="stroke:#000000;stroke-width:0.8;" x="270" xlink:href="#m07f5da05f9" y="276.551437"/>
      </g>
     </g>
     <g id="text_10">
      <!-- 1.0 -->
      <g transform="translate(215.290625 287.949093)scale(0.3 -0.3)">
       <defs>
        <path d="M 12.40625 8.296875 
L 28.515625 8.296875 
L 28.515625 63.921875 
L 10.984375 60.40625 
L 10.984375 69.390625 
L 28.421875 72.90625 
L 38.28125 72.90625 
L 38.28125 8.296875 
L 54.390625 8.296875 
L 54.390625 0 
L 12.40625 0 
z
" id="DejaVuSans-49"/>
       </defs>
       <use xlink:href="#DejaVuSans-49"/>
       <use x="63.623047" xlink:href="#DejaVuSans-46"/>
       <use x="95.410156" xlink:href="#DejaVuSans-48"/>
      </g>
     </g>
    </g>
    <g id="text_11">
     <!-- Score -->
     <g transform="translate(205.051562 758.407031)rotate(-90)scale(0.3 -0.3)">
      <defs>
       <path d="M 53.515625 70.515625 
L 53.515625 60.890625 
Q 47.90625 63.578125 42.921875 64.890625 
Q 37.9375 66.21875 33.296875 66.21875 
Q 25.25 66.21875 20.875 63.09375 
Q 16.5 59.96875 16.5 54.203125 
Q 16.5 49.359375 19.40625 46.890625 
Q 22.3125 44.4375 30.421875 42.921875 
L 36.375 41.703125 
Q 47.40625 39.59375 52.65625 34.296875 
Q 57.90625 29 57.90625 20.125 
Q 57.90625 9.515625 50.796875 4.046875 
Q 43.703125 -1.421875 29.984375 -1.421875 
Q 24.8125 -1.421875 18.96875 -0.25 
Q 13.140625 0.921875 6.890625 3.21875 
L 6.890625 13.375 
Q 12.890625 10.015625 18.65625 8.296875 
Q 24.421875 6.59375 29.984375 6.59375 
Q 38.421875 6.59375 43.015625 9.90625 
Q 47.609375 13.234375 47.609375 19.390625 
Q 47.609375 24.75 44.3125 27.78125 
Q 41.015625 30.8125 33.5 32.328125 
L 27.484375 33.5 
Q 16.453125 35.6875 11.515625 40.375 
Q 6.59375 45.0625 6.59375 53.421875 
Q 6.59375 63.09375 13.40625 68.65625 
Q 20.21875 74.21875 32.171875 74.21875 
Q 37.3125 74.21875 42.625 73.28125 
Q 47.953125 72.359375 53.515625 70.515625 
z
" id="DejaVuSans-83"/>
       <path d="M 48.78125 52.59375 
L 48.78125 44.1875 
Q 44.96875 46.296875 41.140625 47.34375 
Q 37.3125 48.390625 33.40625 48.390625 
Q 24.65625 48.390625 19.8125 42.84375 
Q 14.984375 37.3125 14.984375 27.296875 
Q 14.984375 17.28125 19.8125 11.734375 
Q 24.65625 6.203125 33.40625 6.203125 
Q 37.3125 6.203125 41.140625 7.25 
Q 44.96875 8.296875 48.78125 10.40625 
L 48.78125 2.09375 
Q 45.015625 0.34375 40.984375 -0.53125 
Q 36.96875 -1.421875 32.421875 -1.421875 
Q 20.0625 -1.421875 12.78125 6.34375 
Q 5.515625 14.109375 5.515625 27.296875 
Q 5.515625 40.671875 12.859375 48.328125 
Q 20.21875 56 33.015625 56 
Q 37.15625 56 41.109375 55.140625 
Q 45.0625 54.296875 48.78125 52.59375 
z
" id="DejaVuSans-99"/>
       <path d="M 30.609375 48.390625 
Q 23.390625 48.390625 19.1875 42.75 
Q 14.984375 37.109375 14.984375 27.296875 
Q 14.984375 17.484375 19.15625 11.84375 
Q 23.34375 6.203125 30.609375 6.203125 
Q 37.796875 6.203125 41.984375 11.859375 
Q 46.1875 17.53125 46.1875 27.296875 
Q 46.1875 37.015625 41.984375 42.703125 
Q 37.796875 48.390625 30.609375 48.390625 
z
M 30.609375 56 
Q 42.328125 56 49.015625 48.375 
Q 55.71875 40.765625 55.71875 27.296875 
Q 55.71875 13.875 49.015625 6.21875 
Q 42.328125 -1.421875 30.609375 -1.421875 
Q 18.84375 -1.421875 12.171875 6.21875 
Q 5.515625 13.875 5.515625 27.296875 
Q 5.515625 40.765625 12.171875 48.375 
Q 18.84375 56 30.609375 56 
z
" id="DejaVuSans-111"/>
       <path d="M 41.109375 46.296875 
Q 39.59375 47.171875 37.8125 47.578125 
Q 36.03125 48 33.890625 48 
Q 26.265625 48 22.1875 43.046875 
Q 18.109375 38.09375 18.109375 28.8125 
L 18.109375 0 
L 9.078125 0 
L 9.078125 54.6875 
L 18.109375 54.6875 
L 18.109375 46.1875 
Q 20.953125 51.171875 25.484375 53.578125 
Q 30.03125 56 36.53125 56 
Q 37.453125 56 38.578125 55.875 
Q 39.703125 55.765625 41.0625 55.515625 
z
" id="DejaVuSans-114"/>
       <path d="M 56.203125 29.59375 
L 56.203125 25.203125 
L 14.890625 25.203125 
Q 15.484375 15.921875 20.484375 11.0625 
Q 25.484375 6.203125 34.421875 6.203125 
Q 39.59375 6.203125 44.453125 7.46875 
Q 49.3125 8.734375 54.109375 11.28125 
L 54.109375 2.78125 
Q 49.265625 0.734375 44.1875 -0.34375 
Q 39.109375 -1.421875 33.890625 -1.421875 
Q 20.796875 -1.421875 13.15625 6.1875 
Q 5.515625 13.8125 5.515625 26.8125 
Q 5.515625 40.234375 12.765625 48.109375 
Q 20.015625 56 32.328125 56 
Q 43.359375 56 49.78125 48.890625 
Q 56.203125 41.796875 56.203125 29.59375 
z
M 47.21875 32.234375 
Q 47.125 39.59375 43.09375 43.984375 
Q 39.0625 48.390625 32.421875 48.390625 
Q 24.90625 48.390625 20.390625 44.140625 
Q 15.875 39.890625 15.1875 32.171875 
z
" id="DejaVuSans-101"/>
      </defs>
      <use xlink:href="#DejaVuSans-83"/>
      <use x="63.476562" xlink:href="#DejaVuSans-99"/>
      <use x="118.457031" xlink:href="#DejaVuSans-111"/>
      <use x="179.638672" xlink:href="#DejaVuSans-114"/>
      <use x="218.501953" xlink:href="#DejaVuSans-101"/>
     </g>
    </g>
   </g>
   <g id="line2d_11">
    <path clip-path="url(#p8c6938dc25)" d="M 472.077613 963.672533 
L 486.422387 963.672533 
" style="fill:none;stroke:#3d3d3d;stroke-dasharray:3.375,3.375;stroke-dashoffset:0;stroke-width:1.5;"/>
   </g>
   <g id="line2d_12">
    <path clip-path="url(#p8c6938dc25)" d="M 450.727607 384.86985 
L 507.772393 384.86985 
" style="fill:none;stroke:#3d3d3d;stroke-dasharray:6.75,6.75;stroke-dashoffset:0;stroke-width:1.5;"/>
   </g>
   <g id="line2d_13">
    <path clip-path="url(#p8c6938dc25)" d="M 313.524 280.95636 
L 644.976 280.95636 
" style="fill:none;stroke:#3d3d3d;stroke-dasharray:3.375,3.375;stroke-dashoffset:0;stroke-width:1.5;"/>
   </g>
   <g id="line2d_14">
    <path clip-path="url(#p8c6938dc25)" d="M 732.024 604.351449 
L 1063.476 604.351449 
" style="fill:none;stroke:#3d3d3d;stroke-dasharray:3.375,3.375;stroke-dashoffset:0;stroke-width:1.5;"/>
   </g>
   <g id="line2d_15">
    <path clip-path="url(#p8c6938dc25)" d="M 732.024 604.351449 
L 1063.476 604.351449 
" style="fill:none;stroke:#3d3d3d;stroke-dasharray:6.75,6.75;stroke-dashoffset:0;stroke-width:1.5;"/>
   </g>
   <g id="line2d_16">
    <path clip-path="url(#p8c6938dc25)" d="M 871.836933 524.616311 
L 923.663067 524.616311 
" style="fill:none;stroke:#3d3d3d;stroke-dasharray:3.375,3.375;stroke-dashoffset:0;stroke-width:1.5;"/>
   </g>
   <g id="line2d_17">
    <path clip-path="url(#p8c6938dc25)" d="M 1181.945975 914.432541 
L 1450.554025 914.432541 
" style="fill:none;stroke:#3d3d3d;stroke-dasharray:3.375,3.375;stroke-dashoffset:0;stroke-width:1.5;"/>
   </g>
   <g id="line2d_18">
    <path clip-path="url(#p8c6938dc25)" d="M 1199.501893 780.654698 
L 1432.998107 780.654698 
" style="fill:none;stroke:#3d3d3d;stroke-dasharray:6.75,6.75;stroke-dashoffset:0;stroke-width:1.5;"/>
   </g>
   <g id="line2d_19">
    <path clip-path="url(#p8c6938dc25)" d="M 1283.833314 563.597934 
L 1348.666686 563.597934 
" style="fill:none;stroke:#3d3d3d;stroke-dasharray:3.375,3.375;stroke-dashoffset:0;stroke-width:1.5;"/>
   </g>
   <g id="line2d_20">
    <path clip-path="url(#p8c6938dc25)" d="M 1587.66196 359.47598 
L 1881.83804 359.47598 
" style="fill:none;stroke:#3d3d3d;stroke-dasharray:3.375,3.375;stroke-dashoffset:0;stroke-width:1.5;"/>
   </g>
   <g id="line2d_21">
    <path clip-path="url(#p8c6938dc25)" d="M 1594.138025 349.64198 
L 1875.361975 349.64198 
" style="fill:none;stroke:#3d3d3d;stroke-dasharray:6.75,6.75;stroke-dashoffset:0;stroke-width:1.5;"/>
   </g>
   <g id="line2d_22">
    <path clip-path="url(#p8c6938dc25)" d="M 1687.919137 324.924087 
L 1781.580863 324.924087 
" style="fill:none;stroke:#3d3d3d;stroke-dasharray:3.375,3.375;stroke-dashoffset:0;stroke-width:1.5;"/>
   </g>
   <g id="patch_3">
    <path d="M 270 1260 
L 270 172.8 
" style="fill:none;stroke:#000000;stroke-linecap:square;stroke-linejoin:miter;stroke-width:0.8;"/>
   </g>
   <g id="patch_4">
    <path d="M 1944 1260 
L 1944 172.8 
" style="fill:none;stroke:#000000;stroke-linecap:square;stroke-linejoin:miter;stroke-width:0.8;"/>
   </g>
   <g id="patch_5">
    <path d="M 270 1260 
L 1944 1260 
" style="fill:none;stroke:#000000;stroke-linecap:square;stroke-linejoin:miter;stroke-width:0.8;"/>
   </g>
   <g id="patch_6">
    <path d="M 270 172.8 
L 1944 172.8 
" style="fill:none;stroke:#000000;stroke-linecap:square;stroke-linejoin:miter;stroke-width:0.8;"/>
   </g>
  </g>
 </g>
 <defs>
  <clipPath id="p8c6938dc25">
   <rect height="1087.2" width="1674" x="270" y="172.8"/>
  </clipPath>
 </defs>
</svg>
