<?xml version="1.0" encoding="utf-8" standalone="no"?>
<!DOCTYPE svg PUBLIC "-//W3C//DTD SVG 1.1//EN"
  "http://www.w3.org/Graphics/SVG/1.1/DTD/svg11.dtd">
<!-- Created with matplotlib (https://matplotlib.org/) -->
<svg height="720pt" version="1.1" viewBox="0 0 720 720" width="720pt" xmlns="http://www.w3.org/2000/svg" xmlns:xlink="http://www.w3.org/1999/xlink">
 <metadata>
  <rdf:RDF xmlns:cc="http://creativecommons.org/ns#" xmlns:dc="http://purl.org/dc/elements/1.1/" xmlns:rdf="http://www.w3.org/1999/02/22-rdf-syntax-ns#">
   <cc:Work>
    <dc:type rdf:resource="http://purl.org/dc/dcmitype/StillImage"/>
    <dc:date>2021-06-05T11:00:21.506087</dc:date>
    <dc:format>image/svg+xml</dc:format>
    <dc:creator>
     <cc:Agent>
      <dc:title>Matplotlib v3.3.4, https://matplotlib.org/</dc:title>
     </cc:Agent>
    </dc:creator>
   </cc:Work>
  </rdf:RDF>
 </metadata>
 <defs>
  <style type="text/css">*{stroke-linecap:butt;stroke-linejoin:round;}</style>
 </defs>
 <g id="figure_1">
  <g id="patch_1">
   <path d="M 0 720 
L 720 720 
L 720 0 
L 0 0 
z
" style="fill:#ffffff;"/>
  </g>
  <g id="axes_1">
   <g id="patch_2">
    <path d="M 78.21 655.54 
L 495.034457 655.54 
L 495.034457 123.116571 
L 78.21 123.116571 
z
" style="fill:#eaeaf2;"/>
   </g>
   <g id="matplotlib.axis_1">
    <g id="xtick_1">
     <g id="line2d_1">
      <path clip-path="url(#pd72897ec2b)" d="M 117.667764 655.54 
L 117.667764 123.116571 
" style="fill:none;stroke:#ffffff;stroke-linecap:round;"/>
     </g>
     <g id="text_1">
      <!-- 0 -->
      <g style="fill:#262626;" transform="translate(109.326358 686.513438)scale(0.3 -0.3)">
       <defs>
        <path d="M 4.15625 35.296875 
Q 4.15625 48 6.765625 55.734375 
Q 9.375 63.484375 14.515625 67.671875 
Q 19.671875 71.875 27.484375 71.875 
Q 33.25 71.875 37.59375 69.546875 
Q 41.9375 67.234375 44.765625 62.859375 
Q 47.609375 58.5 49.21875 52.21875 
Q 50.828125 45.953125 50.828125 35.296875 
Q 50.828125 22.703125 48.234375 14.96875 
Q 45.65625 7.234375 40.5 3 
Q 35.359375 -1.21875 27.484375 -1.21875 
Q 17.140625 -1.21875 11.234375 6.203125 
Q 4.15625 15.140625 4.15625 35.296875 
z
M 13.1875 35.296875 
Q 13.1875 17.671875 17.3125 11.828125 
Q 21.4375 6 27.484375 6 
Q 33.546875 6 37.671875 11.859375 
Q 41.796875 17.71875 41.796875 35.296875 
Q 41.796875 52.984375 37.671875 58.78125 
Q 33.546875 64.59375 27.390625 64.59375 
Q 21.34375 64.59375 17.71875 59.46875 
Q 13.1875 52.9375 13.1875 35.296875 
z
" id="ArialMT-48"/>
       </defs>
       <use xlink:href="#ArialMT-48"/>
      </g>
     </g>
    </g>
    <g id="xtick_2">
     <g id="line2d_2">
      <path clip-path="url(#pd72897ec2b)" d="M 317.526595 655.54 
L 317.526595 123.116571 
" style="fill:none;stroke:#ffffff;stroke-linecap:round;"/>
     </g>
     <g id="text_2">
      <!-- 2 -->
      <g style="fill:#262626;" transform="translate(309.185189 686.513438)scale(0.3 -0.3)">
       <defs>
        <path d="M 50.34375 8.453125 
L 50.34375 0 
L 3.03125 0 
Q 2.9375 3.171875 4.046875 6.109375 
Q 5.859375 10.9375 9.828125 15.625 
Q 13.8125 20.3125 21.34375 26.46875 
Q 33.015625 36.03125 37.109375 41.625 
Q 41.21875 47.21875 41.21875 52.203125 
Q 41.21875 57.421875 37.46875 61 
Q 33.734375 64.59375 27.734375 64.59375 
Q 21.390625 64.59375 17.578125 60.78125 
Q 13.765625 56.984375 13.71875 50.25 
L 4.6875 51.171875 
Q 5.609375 61.28125 11.65625 66.578125 
Q 17.71875 71.875 27.9375 71.875 
Q 38.234375 71.875 44.234375 66.15625 
Q 50.25 60.453125 50.25 52 
Q 50.25 47.703125 48.484375 43.546875 
Q 46.734375 39.40625 42.65625 34.8125 
Q 38.578125 30.21875 29.109375 22.21875 
Q 21.1875 15.578125 18.9375 13.203125 
Q 16.703125 10.84375 15.234375 8.453125 
z
" id="ArialMT-50"/>
       </defs>
       <use xlink:href="#ArialMT-50"/>
      </g>
     </g>
    </g>
    <g id="text_3">
     <!-- HIPPIE log(Degree) -->
     <g style="fill:#262626;" transform="translate(109.890979 725.594687)scale(0.4 -0.4)">
      <defs>
       <path d="M 8.015625 0 
L 8.015625 71.578125 
L 17.484375 71.578125 
L 17.484375 42.1875 
L 54.6875 42.1875 
L 54.6875 71.578125 
L 64.15625 71.578125 
L 64.15625 0 
L 54.6875 0 
L 54.6875 33.734375 
L 17.484375 33.734375 
L 17.484375 0 
z
" id="ArialMT-72"/>
       <path d="M 9.328125 0 
L 9.328125 71.578125 
L 18.796875 71.578125 
L 18.796875 0 
z
" id="ArialMT-73"/>
       <path d="M 7.71875 0 
L 7.71875 71.578125 
L 34.71875 71.578125 
Q 41.84375 71.578125 45.609375 70.90625 
Q 50.875 70.015625 54.4375 67.546875 
Q 58.015625 65.09375 60.1875 60.640625 
Q 62.359375 56.203125 62.359375 50.875 
Q 62.359375 41.75 56.546875 35.421875 
Q 50.734375 29.109375 35.546875 29.109375 
L 17.1875 29.109375 
L 17.1875 0 
z
M 17.1875 37.546875 
L 35.6875 37.546875 
Q 44.875 37.546875 48.734375 40.96875 
Q 52.59375 44.390625 52.59375 50.59375 
Q 52.59375 55.078125 50.3125 58.265625 
Q 48.046875 61.46875 44.34375 62.5 
Q 41.9375 63.140625 35.5 63.140625 
L 17.1875 63.140625 
z
" id="ArialMT-80"/>
       <path d="M 7.90625 0 
L 7.90625 71.578125 
L 59.671875 71.578125 
L 59.671875 63.140625 
L 17.390625 63.140625 
L 17.390625 41.21875 
L 56.984375 41.21875 
L 56.984375 32.8125 
L 17.390625 32.8125 
L 17.390625 8.453125 
L 61.328125 8.453125 
L 61.328125 0 
z
" id="ArialMT-69"/>
       <path id="ArialMT-32"/>
       <path d="M 6.390625 0 
L 6.390625 71.578125 
L 15.1875 71.578125 
L 15.1875 0 
z
" id="ArialMT-108"/>
       <path d="M 3.328125 25.921875 
Q 3.328125 40.328125 11.328125 47.265625 
Q 18.015625 53.03125 27.640625 53.03125 
Q 38.328125 53.03125 45.109375 46.015625 
Q 51.90625 39.015625 51.90625 26.65625 
Q 51.90625 16.65625 48.90625 10.90625 
Q 45.90625 5.171875 40.15625 2 
Q 34.421875 -1.171875 27.640625 -1.171875 
Q 16.75 -1.171875 10.03125 5.8125 
Q 3.328125 12.796875 3.328125 25.921875 
z
M 12.359375 25.921875 
Q 12.359375 15.96875 16.703125 11.015625 
Q 21.046875 6.0625 27.640625 6.0625 
Q 34.1875 6.0625 38.53125 11.03125 
Q 42.875 16.015625 42.875 26.21875 
Q 42.875 35.84375 38.5 40.796875 
Q 34.125 45.75 27.640625 45.75 
Q 21.046875 45.75 16.703125 40.8125 
Q 12.359375 35.890625 12.359375 25.921875 
z
" id="ArialMT-111"/>
       <path d="M 4.984375 -4.296875 
L 13.53125 -5.5625 
Q 14.0625 -9.515625 16.5 -11.328125 
Q 19.78125 -13.765625 25.4375 -13.765625 
Q 31.546875 -13.765625 34.859375 -11.328125 
Q 38.1875 -8.890625 39.359375 -4.5 
Q 40.046875 -1.8125 39.984375 6.78125 
Q 34.234375 0 25.640625 0 
Q 14.9375 0 9.078125 7.71875 
Q 3.21875 15.4375 3.21875 26.21875 
Q 3.21875 33.640625 5.90625 39.90625 
Q 8.59375 46.1875 13.6875 49.609375 
Q 18.796875 53.03125 25.6875 53.03125 
Q 34.859375 53.03125 40.828125 45.609375 
L 40.828125 51.859375 
L 48.921875 51.859375 
L 48.921875 7.03125 
Q 48.921875 -5.078125 46.453125 -10.125 
Q 44 -15.1875 38.640625 -18.109375 
Q 33.296875 -21.046875 25.484375 -21.046875 
Q 16.21875 -21.046875 10.5 -16.875 
Q 4.78125 -12.703125 4.984375 -4.296875 
z
M 12.25 26.859375 
Q 12.25 16.65625 16.296875 11.96875 
Q 20.359375 7.28125 26.46875 7.28125 
Q 32.515625 7.28125 36.609375 11.9375 
Q 40.71875 16.609375 40.71875 26.5625 
Q 40.71875 36.078125 36.5 40.90625 
Q 32.28125 45.75 26.3125 45.75 
Q 20.453125 45.75 16.34375 40.984375 
Q 12.25 36.234375 12.25 26.859375 
z
" id="ArialMT-103"/>
       <path d="M 23.390625 -21.046875 
Q 16.109375 -11.859375 11.078125 0.4375 
Q 6.0625 12.75 6.0625 25.921875 
Q 6.0625 37.546875 9.8125 48.1875 
Q 14.203125 60.546875 23.390625 72.796875 
L 29.6875 72.796875 
Q 23.78125 62.640625 21.875 58.296875 
Q 18.890625 51.5625 17.1875 44.234375 
Q 15.09375 35.109375 15.09375 25.875 
Q 15.09375 2.390625 29.6875 -21.046875 
z
" id="ArialMT-40"/>
       <path d="M 7.71875 0 
L 7.71875 71.578125 
L 32.375 71.578125 
Q 40.71875 71.578125 45.125 70.5625 
Q 51.265625 69.140625 55.609375 65.4375 
Q 61.28125 60.640625 64.078125 53.1875 
Q 66.890625 45.75 66.890625 36.1875 
Q 66.890625 28.03125 64.984375 21.734375 
Q 63.09375 15.4375 60.109375 11.296875 
Q 57.125 7.171875 53.578125 4.796875 
Q 50.046875 2.4375 45.046875 1.21875 
Q 40.046875 0 33.546875 0 
z
M 17.1875 8.453125 
L 32.46875 8.453125 
Q 39.546875 8.453125 43.578125 9.765625 
Q 47.609375 11.078125 50 13.484375 
Q 53.375 16.84375 55.25 22.53125 
Q 57.125 28.21875 57.125 36.328125 
Q 57.125 47.5625 53.4375 53.59375 
Q 49.75 59.625 44.484375 61.671875 
Q 40.671875 63.140625 32.234375 63.140625 
L 17.1875 63.140625 
z
" id="ArialMT-68"/>
       <path d="M 42.09375 16.703125 
L 51.171875 15.578125 
Q 49.03125 7.625 43.21875 3.21875 
Q 37.40625 -1.171875 28.375 -1.171875 
Q 17 -1.171875 10.328125 5.828125 
Q 3.65625 12.84375 3.65625 25.484375 
Q 3.65625 38.578125 10.390625 45.796875 
Q 17.140625 53.03125 27.875 53.03125 
Q 38.28125 53.03125 44.875 45.953125 
Q 51.46875 38.875 51.46875 26.03125 
Q 51.46875 25.25 51.421875 23.6875 
L 12.75 23.6875 
Q 13.234375 15.140625 17.578125 10.59375 
Q 21.921875 6.0625 28.421875 6.0625 
Q 33.25 6.0625 36.671875 8.59375 
Q 40.09375 11.140625 42.09375 16.703125 
z
M 13.234375 30.90625 
L 42.1875 30.90625 
Q 41.609375 37.453125 38.875 40.71875 
Q 34.671875 45.796875 27.984375 45.796875 
Q 21.921875 45.796875 17.796875 41.75 
Q 13.671875 37.703125 13.234375 30.90625 
z
" id="ArialMT-101"/>
       <path d="M 6.5 0 
L 6.5 51.859375 
L 14.40625 51.859375 
L 14.40625 44 
Q 17.4375 49.515625 20 51.265625 
Q 22.5625 53.03125 25.640625 53.03125 
Q 30.078125 53.03125 34.671875 50.203125 
L 31.640625 42.046875 
Q 28.421875 43.953125 25.203125 43.953125 
Q 22.3125 43.953125 20.015625 42.21875 
Q 17.71875 40.484375 16.75 37.40625 
Q 15.28125 32.71875 15.28125 27.15625 
L 15.28125 0 
z
" id="ArialMT-114"/>
       <path d="M 12.359375 -21.046875 
L 6.0625 -21.046875 
Q 20.65625 2.390625 20.65625 25.875 
Q 20.65625 35.0625 18.5625 44.09375 
Q 16.890625 51.421875 13.921875 58.15625 
Q 12.015625 62.546875 6.0625 72.796875 
L 12.359375 72.796875 
Q 21.53125 60.546875 25.921875 48.1875 
Q 29.6875 37.546875 29.6875 25.921875 
Q 29.6875 12.75 24.625 0.4375 
Q 19.578125 -11.859375 12.359375 -21.046875 
z
" id="ArialMT-41"/>
      </defs>
      <use xlink:href="#ArialMT-72"/>
      <use x="72.216797" xlink:href="#ArialMT-73"/>
      <use x="100" xlink:href="#ArialMT-80"/>
      <use x="166.699219" xlink:href="#ArialMT-80"/>
      <use x="233.398438" xlink:href="#ArialMT-73"/>
      <use x="261.181641" xlink:href="#ArialMT-69"/>
      <use x="327.880859" xlink:href="#ArialMT-32"/>
      <use x="355.664062" xlink:href="#ArialMT-108"/>
      <use x="377.880859" xlink:href="#ArialMT-111"/>
      <use x="433.496094" xlink:href="#ArialMT-103"/>
      <use x="489.111328" xlink:href="#ArialMT-40"/>
      <use x="522.412109" xlink:href="#ArialMT-68"/>
      <use x="594.628906" xlink:href="#ArialMT-101"/>
      <use x="650.244141" xlink:href="#ArialMT-103"/>
      <use x="705.859375" xlink:href="#ArialMT-114"/>
      <use x="739.160156" xlink:href="#ArialMT-101"/>
      <use x="794.775391" xlink:href="#ArialMT-101"/>
      <use x="850.390625" xlink:href="#ArialMT-41"/>
     </g>
    </g>
   </g>
   <g id="matplotlib.axis_2">
    <g id="ytick_1">
     <g id="line2d_3">
      <path clip-path="url(#pd72897ec2b)" d="M 78.21 613.735029 
L 495.034457 613.735029 
" style="fill:none;stroke:#ffffff;stroke-linecap:round;"/>
     </g>
     <g id="text_4">
      <!-- 0.0 -->
      <g style="fill:#262626;" transform="translate(27.01 624.471748)scale(0.3 -0.3)">
       <defs>
        <path d="M 9.078125 0 
L 9.078125 10.015625 
L 19.09375 10.015625 
L 19.09375 0 
z
" id="ArialMT-46"/>
       </defs>
       <use xlink:href="#ArialMT-48"/>
       <use x="55.615234" xlink:href="#ArialMT-46"/>
       <use x="83.398438" xlink:href="#ArialMT-48"/>
      </g>
     </g>
    </g>
    <g id="ytick_2">
     <g id="line2d_4">
      <path clip-path="url(#pd72897ec2b)" d="M 78.21 515.837265 
L 495.034457 515.837265 
" style="fill:none;stroke:#ffffff;stroke-linecap:round;"/>
     </g>
     <g id="text_5">
      <!-- 0.5 -->
      <g style="fill:#262626;" transform="translate(27.01 526.573984)scale(0.3 -0.3)">
       <defs>
        <path d="M 4.15625 18.75 
L 13.375 19.53125 
Q 14.40625 12.796875 18.140625 9.390625 
Q 21.875 6 27.15625 6 
Q 33.5 6 37.890625 10.78125 
Q 42.28125 15.578125 42.28125 23.484375 
Q 42.28125 31 38.0625 35.34375 
Q 33.84375 39.703125 27 39.703125 
Q 22.75 39.703125 19.328125 37.765625 
Q 15.921875 35.84375 13.96875 32.765625 
L 5.71875 33.84375 
L 12.640625 70.609375 
L 48.25 70.609375 
L 48.25 62.203125 
L 19.671875 62.203125 
L 15.828125 42.96875 
Q 22.265625 47.46875 29.34375 47.46875 
Q 38.71875 47.46875 45.15625 40.96875 
Q 51.609375 34.46875 51.609375 24.265625 
Q 51.609375 14.546875 45.953125 7.46875 
Q 39.0625 -1.21875 27.15625 -1.21875 
Q 17.390625 -1.21875 11.203125 4.25 
Q 5.03125 9.71875 4.15625 18.75 
z
" id="ArialMT-53"/>
       </defs>
       <use xlink:href="#ArialMT-48"/>
       <use x="55.615234" xlink:href="#ArialMT-46"/>
       <use x="83.398438" xlink:href="#ArialMT-53"/>
      </g>
     </g>
    </g>
    <g id="ytick_3">
     <g id="line2d_5">
      <path clip-path="url(#pd72897ec2b)" d="M 78.21 417.939502 
L 495.034457 417.939502 
" style="fill:none;stroke:#ffffff;stroke-linecap:round;"/>
     </g>
     <g id="text_6">
      <!-- 1.0 -->
      <g style="fill:#262626;" transform="translate(27.01 428.67622)scale(0.3 -0.3)">
       <defs>
        <path d="M 37.25 0 
L 28.46875 0 
L 28.46875 56 
Q 25.296875 52.984375 20.140625 49.953125 
Q 14.984375 46.921875 10.890625 45.40625 
L 10.890625 53.90625 
Q 18.265625 57.375 23.78125 62.296875 
Q 29.296875 67.234375 31.59375 71.875 
L 37.25 71.875 
z
" id="ArialMT-49"/>
       </defs>
       <use xlink:href="#ArialMT-49"/>
       <use x="55.615234" xlink:href="#ArialMT-46"/>
       <use x="83.398438" xlink:href="#ArialMT-48"/>
      </g>
     </g>
    </g>
    <g id="ytick_4">
     <g id="line2d_6">
      <path clip-path="url(#pd72897ec2b)" d="M 78.21 320.041738 
L 495.034457 320.041738 
" style="fill:none;stroke:#ffffff;stroke-linecap:round;"/>
     </g>
     <g id="text_7">
      <!-- 1.5 -->
      <g style="fill:#262626;" transform="translate(27.01 330.778456)scale(0.3 -0.3)">
       <use xlink:href="#ArialMT-49"/>
       <use x="55.615234" xlink:href="#ArialMT-46"/>
       <use x="83.398438" xlink:href="#ArialMT-53"/>
      </g>
     </g>
    </g>
    <g id="ytick_5">
     <g id="line2d_7">
      <path clip-path="url(#pd72897ec2b)" d="M 78.21 222.143974 
L 495.034457 222.143974 
" style="fill:none;stroke:#ffffff;stroke-linecap:round;"/>
     </g>
     <g id="text_8">
      <!-- 2.0 -->
      <g style="fill:#262626;" transform="translate(27.01 232.880693)scale(0.3 -0.3)">
       <use xlink:href="#ArialMT-50"/>
       <use x="55.615234" xlink:href="#ArialMT-46"/>
       <use x="83.398438" xlink:href="#ArialMT-48"/>
      </g>
     </g>
    </g>
    <g id="ytick_6">
     <g id="line2d_8">
      <path clip-path="url(#pd72897ec2b)" d="M 78.21 124.24621 
L 495.034457 124.24621 
" style="fill:none;stroke:#ffffff;stroke-linecap:round;"/>
     </g>
     <g id="text_9">
      <!-- 2.5 -->
      <g style="fill:#262626;" transform="translate(27.01 134.982929)scale(0.3 -0.3)">
       <use xlink:href="#ArialMT-50"/>
       <use x="55.615234" xlink:href="#ArialMT-46"/>
       <use x="83.398438" xlink:href="#ArialMT-53"/>
      </g>
     </g>
    </g>
    <g id="text_10">
     <!-- log(Publication_count) -->
     <g style="fill:#262626;" transform="translate(14.59125 587.215786)rotate(-90)scale(0.4 -0.4)">
      <defs>
       <path d="M 40.578125 0 
L 40.578125 7.625 
Q 34.515625 -1.171875 24.125 -1.171875 
Q 19.53125 -1.171875 15.546875 0.578125 
Q 11.578125 2.34375 9.640625 5 
Q 7.71875 7.671875 6.9375 11.53125 
Q 6.390625 14.109375 6.390625 19.734375 
L 6.390625 51.859375 
L 15.1875 51.859375 
L 15.1875 23.09375 
Q 15.1875 16.21875 15.71875 13.8125 
Q 16.546875 10.359375 19.234375 8.375 
Q 21.921875 6.390625 25.875 6.390625 
Q 29.828125 6.390625 33.296875 8.421875 
Q 36.765625 10.453125 38.203125 13.9375 
Q 39.65625 17.4375 39.65625 24.078125 
L 39.65625 51.859375 
L 48.4375 51.859375 
L 48.4375 0 
z
" id="ArialMT-117"/>
       <path d="M 14.703125 0 
L 6.546875 0 
L 6.546875 71.578125 
L 15.328125 71.578125 
L 15.328125 46.046875 
Q 20.90625 53.03125 29.546875 53.03125 
Q 34.328125 53.03125 38.59375 51.09375 
Q 42.875 49.171875 45.625 45.671875 
Q 48.390625 42.1875 49.953125 37.25 
Q 51.515625 32.328125 51.515625 26.703125 
Q 51.515625 13.375 44.921875 6.09375 
Q 38.328125 -1.171875 29.109375 -1.171875 
Q 19.921875 -1.171875 14.703125 6.5 
z
M 14.59375 26.3125 
Q 14.59375 17 17.140625 12.84375 
Q 21.296875 6.0625 28.375 6.0625 
Q 34.125 6.0625 38.328125 11.0625 
Q 42.53125 16.0625 42.53125 25.984375 
Q 42.53125 36.140625 38.5 40.96875 
Q 34.46875 45.796875 28.765625 45.796875 
Q 23 45.796875 18.796875 40.796875 
Q 14.59375 35.796875 14.59375 26.3125 
z
" id="ArialMT-98"/>
       <path d="M 6.640625 61.46875 
L 6.640625 71.578125 
L 15.4375 71.578125 
L 15.4375 61.46875 
z
M 6.640625 0 
L 6.640625 51.859375 
L 15.4375 51.859375 
L 15.4375 0 
z
" id="ArialMT-105"/>
       <path d="M 40.4375 19 
L 49.078125 17.875 
Q 47.65625 8.9375 41.8125 3.875 
Q 35.984375 -1.171875 27.484375 -1.171875 
Q 16.84375 -1.171875 10.375 5.78125 
Q 3.90625 12.75 3.90625 25.734375 
Q 3.90625 34.125 6.6875 40.421875 
Q 9.46875 46.734375 15.15625 49.875 
Q 20.84375 53.03125 27.546875 53.03125 
Q 35.984375 53.03125 41.359375 48.75 
Q 46.734375 44.484375 48.25 36.625 
L 39.703125 35.296875 
Q 38.484375 40.53125 35.375 43.15625 
Q 32.28125 45.796875 27.875 45.796875 
Q 21.234375 45.796875 17.078125 41.03125 
Q 12.9375 36.28125 12.9375 25.984375 
Q 12.9375 15.53125 16.9375 10.796875 
Q 20.953125 6.0625 27.390625 6.0625 
Q 32.5625 6.0625 36.03125 9.234375 
Q 39.5 12.40625 40.4375 19 
z
" id="ArialMT-99"/>
       <path d="M 40.4375 6.390625 
Q 35.546875 2.25 31.03125 0.53125 
Q 26.515625 -1.171875 21.34375 -1.171875 
Q 12.796875 -1.171875 8.203125 3 
Q 3.609375 7.171875 3.609375 13.671875 
Q 3.609375 17.484375 5.34375 20.625 
Q 7.078125 23.78125 9.890625 25.6875 
Q 12.703125 27.59375 16.21875 28.5625 
Q 18.796875 29.25 24.03125 29.890625 
Q 34.671875 31.15625 39.703125 32.90625 
Q 39.75 34.71875 39.75 35.203125 
Q 39.75 40.578125 37.25 42.78125 
Q 33.890625 45.75 27.25 45.75 
Q 21.046875 45.75 18.09375 43.578125 
Q 15.140625 41.40625 13.71875 35.890625 
L 5.125 37.0625 
Q 6.296875 42.578125 8.984375 45.96875 
Q 11.671875 49.359375 16.75 51.1875 
Q 21.828125 53.03125 28.515625 53.03125 
Q 35.15625 53.03125 39.296875 51.46875 
Q 43.453125 49.90625 45.40625 47.53125 
Q 47.359375 45.171875 48.140625 41.546875 
Q 48.578125 39.3125 48.578125 33.453125 
L 48.578125 21.734375 
Q 48.578125 9.46875 49.140625 6.21875 
Q 49.703125 2.984375 51.375 0 
L 42.1875 0 
Q 40.828125 2.734375 40.4375 6.390625 
z
M 39.703125 26.03125 
Q 34.90625 24.078125 25.34375 22.703125 
Q 19.921875 21.921875 17.671875 20.9375 
Q 15.4375 19.96875 14.203125 18.09375 
Q 12.984375 16.21875 12.984375 13.921875 
Q 12.984375 10.40625 15.640625 8.0625 
Q 18.3125 5.71875 23.4375 5.71875 
Q 28.515625 5.71875 32.46875 7.9375 
Q 36.421875 10.15625 38.28125 14.015625 
Q 39.703125 17 39.703125 22.796875 
z
" id="ArialMT-97"/>
       <path d="M 25.78125 7.859375 
L 27.046875 0.09375 
Q 23.34375 -0.6875 20.40625 -0.6875 
Q 15.625 -0.6875 12.984375 0.828125 
Q 10.359375 2.34375 9.28125 4.8125 
Q 8.203125 7.28125 8.203125 15.1875 
L 8.203125 45.015625 
L 1.765625 45.015625 
L 1.765625 51.859375 
L 8.203125 51.859375 
L 8.203125 64.703125 
L 16.9375 69.96875 
L 16.9375 51.859375 
L 25.78125 51.859375 
L 25.78125 45.015625 
L 16.9375 45.015625 
L 16.9375 14.703125 
Q 16.9375 10.9375 17.40625 9.859375 
Q 17.875 8.796875 18.921875 8.15625 
Q 19.96875 7.515625 21.921875 7.515625 
Q 23.390625 7.515625 25.78125 7.859375 
z
" id="ArialMT-116"/>
       <path d="M 6.59375 0 
L 6.59375 51.859375 
L 14.5 51.859375 
L 14.5 44.484375 
Q 20.21875 53.03125 31 53.03125 
Q 35.6875 53.03125 39.625 51.34375 
Q 43.5625 49.65625 45.515625 46.921875 
Q 47.46875 44.1875 48.25 40.4375 
Q 48.734375 37.984375 48.734375 31.890625 
L 48.734375 0 
L 39.9375 0 
L 39.9375 31.546875 
Q 39.9375 36.921875 38.90625 39.578125 
Q 37.890625 42.234375 35.28125 43.8125 
Q 32.671875 45.40625 29.15625 45.40625 
Q 23.53125 45.40625 19.453125 41.84375 
Q 15.375 38.28125 15.375 28.328125 
L 15.375 0 
z
" id="ArialMT-110"/>
       <path d="M -1.515625 -19.875 
L -1.515625 -13.53125 
L 56.734375 -13.53125 
L 56.734375 -19.875 
z
" id="ArialMT-95"/>
      </defs>
      <use xlink:href="#ArialMT-108"/>
      <use x="22.216797" xlink:href="#ArialMT-111"/>
      <use x="77.832031" xlink:href="#ArialMT-103"/>
      <use x="133.447266" xlink:href="#ArialMT-40"/>
      <use x="166.748047" xlink:href="#ArialMT-80"/>
      <use x="233.447266" xlink:href="#ArialMT-117"/>
      <use x="289.0625" xlink:href="#ArialMT-98"/>
      <use x="344.677734" xlink:href="#ArialMT-108"/>
      <use x="366.894531" xlink:href="#ArialMT-105"/>
      <use x="389.111328" xlink:href="#ArialMT-99"/>
      <use x="439.111328" xlink:href="#ArialMT-97"/>
      <use x="494.726562" xlink:href="#ArialMT-116"/>
      <use x="522.509766" xlink:href="#ArialMT-105"/>
      <use x="544.726562" xlink:href="#ArialMT-111"/>
      <use x="600.341797" xlink:href="#ArialMT-110"/>
      <use x="655.957031" xlink:href="#ArialMT-95"/>
      <use x="711.572266" xlink:href="#ArialMT-99"/>
      <use x="761.572266" xlink:href="#ArialMT-111"/>
      <use x="817.1875" xlink:href="#ArialMT-117"/>
      <use x="872.802734" xlink:href="#ArialMT-110"/>
      <use x="928.417969" xlink:href="#ArialMT-116"/>
      <use x="956.201172" xlink:href="#ArialMT-41"/>
     </g>
    </g>
   </g>
   <g id="LineCollection_1">
    <path clip-path="url(#pd72897ec2b)" d="M 107.534334 629.325627 
L 109.628929 629.405544 
L 111.723524 629.067214 
L 112.602964 628.785054 
L 113.818119 628.421518 
L 115.912715 627.560725 
L 118.00731 626.481679 
L 118.633415 626.109559 
L 120.101905 625.243382 
L 122.196501 623.8491 
L 122.793178 623.434065 
L 124.291096 622.321283 
L 126.254029 620.75857 
L 126.385691 620.637929 
L 128.480286 618.814052 
L 129.354773 618.083075 
L 130.574882 616.715617 
L 131.83776 615.407581 
L 132.669477 613.986388 
L 133.510357 612.732086 
L 134.284305 610.056592 
L 134.469507 607.381097 
L 134.241714 604.705602 
L 133.479047 602.030108 
L 132.669477 600.626278 
L 131.647399 599.354613 
L 130.574882 598.540009 
L 128.480286 597.786553 
L 126.385691 597.703132 
L 124.291096 598.07056 
L 122.196501 598.790809 
L 121.079262 599.354613 
L 120.101905 599.803784 
L 118.00731 601.036996 
L 116.640991 602.030108 
L 115.912715 602.544378 
L 113.818119 604.274553 
L 113.358818 604.705602 
L 111.723524 606.283402 
L 110.699007 607.381097 
L 109.628929 608.627733 
L 108.477474 610.056592 
L 107.534334 611.405074 
L 106.625894 612.732086 
L 105.439738 614.856977 
L 105.126115 615.407581 
L 103.974177 618.083075 
L 103.345143 620.319637 
L 103.210775 620.75857 
L 102.940123 623.434065 
L 103.345143 625.848252 
L 103.407129 626.109559 
L 105.439738 628.574065 
L 105.871579 628.785054 
L 107.534334 629.325627 
" style="fill:none;stroke:#008000;stroke-width:1.5;"/>
    <path clip-path="url(#pd72897ec2b)" d="M 143.142453 619.803467 
L 145.237048 620.393203 
L 147.331644 620.12691 
L 149.426239 619.406281 
L 151.520834 618.394964 
L 152.034348 618.083075 
L 153.615429 616.789213 
L 155.154747 615.407581 
L 155.710025 614.566306 
L 156.866804 612.732086 
L 157.265704 610.056592 
L 155.710025 607.66619 
L 155.182775 607.381097 
L 153.615429 607.02318 
L 151.520834 607.159397 
L 150.729859 607.381097 
L 149.426239 607.839453 
L 147.331644 608.894541 
L 145.389401 610.056592 
L 145.237048 610.188815 
L 143.142453 612.152383 
L 142.528279 612.732086 
L 141.196546 615.407581 
L 141.378371 618.083075 
L 143.142453 619.803467 
" style="fill:none;stroke:#008000;stroke-width:1.5;"/>
    <path clip-path="url(#pd72897ec2b)" d="M 99.155953 578.563339 
L 101.250548 579.259219 
L 103.345143 579.497924 
L 105.439738 579.423824 
L 107.534334 579.11078 
L 109.628929 578.590542 
L 115.912715 576.433733 
L 118.779017 575.275162 
L 120.101905 574.843576 
L 122.196501 574.299814 
L 124.291096 574.010585 
L 126.385691 574.139637 
L 128.480286 574.707244 
L 132.669477 576.283626 
L 134.764072 576.768977 
L 136.858667 576.975024 
L 138.953263 576.952481 
L 141.047858 576.755058 
L 145.237048 576.004119 
L 151.520834 574.642216 
L 157.80462 573.506674 
L 164.088406 572.660223 
L 168.277596 572.366532 
L 172.466787 572.320584 
L 177.545315 572.599667 
L 187.128954 573.344017 
L 191.318144 573.416203 
L 197.60193 573.218967 
L 203.885716 572.751509 
L 210.169502 572.060654 
L 216.453287 571.079959 
L 229.020859 568.838728 
L 237.39924 567.686376 
L 243.683026 566.749959 
L 247.872216 565.906437 
L 252.061407 564.811869 
L 254.156002 564.138976 
L 258.345193 562.553497 
L 260.439788 561.617174 
L 264.850527 559.222194 
L 268.467936 556.546699 
L 271.021598 553.871205 
L 272.737331 551.19571 
L 273.852386 548.520215 
L 275.494712 543.169226 
L 276.73874 540.493732 
L 278.649778 537.818237 
L 281.38574 535.047791 
L 293.953312 524.331681 
L 296.459585 521.765269 
L 298.733347 519.089775 
L 300.693228 516.41428 
L 302.396699 513.738785 
L 308.615479 502.988402 
L 310.710074 499.925586 
L 314.436795 495.010323 
L 319.088455 489.091419 
L 321.18305 486.219791 
L 323.277646 483.031247 
L 324.130048 481.63285 
L 325.562447 478.957355 
L 327.466836 474.711443 
L 327.918073 473.606366 
L 329.72312 468.255377 
L 332.309589 460.228893 
L 334.392436 454.877904 
L 335.845217 451.620245 
L 338.199328 446.85142 
L 342.129003 439.696875 
L 345.858843 433.473947 
L 348.412789 429.495455 
L 353.043798 422.771968 
L 360.538132 412.06999 
L 363.757182 406.719001 
L 365.169551 403.906356 
L 366.286675 401.368011 
L 367.264146 398.653424 
L 368.065582 396.017022 
L 370.124396 387.990538 
L 371.453337 383.920745 
L 371.918585 382.639549 
L 373.547932 378.840136 
L 375.642527 374.460691 
L 382.463381 361.235592 
L 384.872556 355.884603 
L 386.853626 350.533614 
L 387.629616 347.858119 
L 388.222447 345.182625 
L 388.585201 342.50713 
L 388.682184 339.831635 
L 388.502872 337.156141 
L 387.625217 331.805151 
L 386.821775 326.454162 
L 386.39509 321.103173 
L 385.003774 291.672732 
L 384.420028 286.321743 
L 383.446082 280.970754 
L 382.733386 278.295259 
L 381.80084 275.619765 
L 379.831718 271.527587 
L 377.737122 268.34997 
L 374.706716 264.917786 
L 373.547932 263.735978 
L 371.453337 262.176656 
L 369.358741 260.965861 
L 365.169551 259.218116 
L 360.98036 257.439713 
L 358.885765 256.56938 
L 356.79117 255.921764 
L 354.696575 255.507687 
L 352.601979 255.350388 
L 350.507384 255.425988 
L 348.412789 255.69321 
L 346.318194 256.114825 
L 343.532427 256.891302 
L 340.034408 258.124903 
L 335.845217 259.948402 
L 331.450842 262.242291 
L 327.005099 264.917786 
L 322.969178 267.593281 
L 312.804669 274.454061 
L 310.710074 275.743282 
L 306.520884 277.91581 
L 304.426288 278.797849 
L 302.331693 279.53387 
L 300.237098 280.144044 
L 298.142503 280.616523 
L 293.953312 281.222153 
L 287.669526 281.940147 
L 283.480336 282.635489 
L 279.060394 283.646248 
L 273.007359 285.282295 
L 262.534383 288.421504 
L 258.345193 289.955119 
L 254.663737 291.672732 
L 254.156002 291.93129 
L 252.061407 293.143363 
L 249.966811 294.507975 
L 246.665562 297.023721 
L 243.598371 299.699216 
L 232.257549 310.401195 
L 229.020859 312.84853 
L 226.926264 314.172077 
L 224.119409 315.752184 
L 220.642478 317.405879 
L 205.980311 324.174344 
L 201.996782 326.454162 
L 199.696525 327.829884 
L 193.412739 332.222628 
L 189.223549 335.569244 
L 184.590411 339.831635 
L 181.984221 342.50713 
L 179.616044 345.182625 
L 177.469405 347.858119 
L 175.52354 350.533614 
L 173.754295 353.209108 
L 170.372192 359.002674 
L 166.148364 366.586581 
L 164.088406 369.890097 
L 161.99381 372.86531 
L 159.899215 375.495709 
L 157.80462 377.868992 
L 153.158129 382.639549 
L 143.142453 392.470736 
L 141.047858 394.161665 
L 138.953263 395.44081 
L 136.858667 396.159622 
L 134.764072 396.279134 
L 132.669477 395.894931 
L 126.385691 393.952151 
L 124.291096 393.69289 
L 122.196501 393.867952 
L 120.101905 394.591757 
L 117.973867 396.017022 
L 115.912715 398.066045 
L 113.5811 401.368011 
L 111.723524 404.741832 
L 109.730371 409.394495 
L 108.802036 412.06999 
L 107.285367 417.420979 
L 104.09298 430.798452 
L 102.552903 436.149441 
L 100.288135 444.175925 
L 99.079136 449.526915 
L 98.066026 454.877904 
L 96.948959 462.904388 
L 95.53929 473.606366 
L 93.7911 489.659334 
L 92.725853 500.361312 
L 92.14584 505.712302 
L 91.874584 511.063291 
L 92.025091 516.41428 
L 92.29236 521.765269 
L 92.28458 524.440764 
L 91.816842 535.142742 
L 92.013056 537.818237 
L 92.560565 540.493732 
L 93.563216 543.169226 
L 97.061357 549.332457 
L 97.570574 551.19571 
L 97.506756 553.871205 
L 97.004711 556.546699 
L 95.518774 561.897688 
L 94.944089 564.573183 
L 94.493153 567.248678 
L 94.367543 569.924172 
L 94.680596 572.599667 
L 94.966762 573.485494 
L 95.663452 575.275162 
L 97.061357 577.091582 
L 98.14018 577.950656 
L 99.155953 578.563339 
L 99.155953 578.563339 
" style="fill:none;stroke:#008000;stroke-width:1.5;"/>
   </g>
   <g id="LineCollection_2">
    <path clip-path="url(#pd72897ec2b)" d="M 107.534334 567.674977 
L 109.628929 568.208498 
L 111.723524 568.118318 
L 113.818119 567.623025 
L 115.912715 566.814017 
L 118.00731 565.786796 
L 120.101905 564.546259 
L 123.885133 561.897688 
L 127.169257 559.222194 
L 130.574882 555.899006 
L 132.669477 553.594601 
L 134.764072 550.965172 
L 138.953263 545.483263 
L 141.047858 543.66278 
L 141.884621 543.169226 
L 143.142453 542.645754 
L 145.237048 542.735595 
L 145.754594 543.169226 
L 145.232413 545.844721 
L 142.30722 551.19571 
L 141.422876 553.871205 
L 141.143861 556.546699 
L 141.858956 559.222194 
L 143.142453 560.522507 
L 145.237048 561.407542 
L 147.331644 561.436888 
L 149.426239 561.00658 
L 151.520834 560.308171 
L 154.041508 559.222194 
L 158.324409 556.546699 
L 161.324873 553.871205 
L 163.346456 551.19571 
L 164.623096 548.520215 
L 166.183001 544.016923 
L 166.546494 543.169226 
L 168.496822 540.493732 
L 170.372192 539.21258 
L 173.302661 537.818237 
L 174.561382 537.495597 
L 176.655977 537.161625 
L 178.750573 537.01289 
L 182.939763 537.11859 
L 193.412739 538.045289 
L 199.696525 538.518988 
L 203.885716 538.589989 
L 205.980311 538.487986 
L 208.074906 538.264366 
L 214.358692 537.096014 
L 218.547883 535.967018 
L 222.737073 534.720099 
L 231.24863 532.467248 
L 237.39924 531.088306 
L 242.006751 529.791753 
L 245.777621 528.532744 
L 249.966811 526.773989 
L 254.156002 524.688365 
L 258.345193 522.260923 
L 260.439788 520.91499 
L 264.628978 517.957506 
L 268.818169 514.626444 
L 273.007359 510.917171 
L 277.19655 506.88908 
L 281.38574 502.460397 
L 285.574931 497.524203 
L 287.669526 494.78875 
L 291.216647 489.659334 
L 298.142503 478.629998 
L 301.642404 473.606366 
L 316.99386 453.168872 
L 321.228428 446.85142 
L 324.515261 441.500431 
L 327.466836 436.071651 
L 329.950054 430.798452 
L 332.072005 425.447463 
L 337.939812 409.256538 
L 340.344411 404.043506 
L 343.123958 398.692517 
L 346.318194 392.90745 
L 350.594506 385.315044 
L 353.399359 379.964055 
L 355.788753 374.613065 
L 356.79117 371.827233 
L 357.578644 369.262076 
L 358.209983 366.586581 
L 358.885765 361.995045 
L 359.206871 358.560098 
L 359.491106 353.209108 
L 359.575316 347.858119 
L 359.486905 345.182625 
L 359.276831 342.50713 
L 357.638273 329.129657 
L 357.264382 321.103173 
L 356.79117 312.916456 
L 356.558466 310.401195 
L 356.188251 307.7257 
L 355.570489 305.050205 
L 354.440947 302.374711 
L 352.601979 300.17835 
L 352.002369 299.699216 
L 350.507384 298.8275 
L 348.412789 298.033073 
L 346.318194 297.550973 
L 344.223598 297.281727 
L 342.129003 297.165789 
L 337.939812 297.260008 
L 333.750622 297.671994 
L 329.561431 298.335918 
L 325.372241 299.220435 
L 310.710074 302.92642 
L 306.520884 304.083427 
L 300.237098 306.125851 
L 296.047907 307.793746 
L 291.858717 309.623336 
L 273.007359 318.848415 
L 268.818169 321.103173 
L 266.723574 322.255989 
L 260.439788 326.263234 
L 248.487909 334.480646 
L 222.737073 351.201356 
L 214.358692 356.81731 
L 210.169502 359.875955 
L 205.197057 363.911087 
L 201.79112 366.962752 
L 187.738532 379.964055 
L 185.034358 382.378415 
L 181.871647 385.315044 
L 178.750573 388.263123 
L 172.466787 394.569978 
L 158.584511 409.394495 
L 153.615429 414.798672 
L 147.331644 421.914974 
L 139.500835 430.798452 
L 138.953263 431.399973 
L 136.661061 433.473947 
L 134.764072 434.872132 
L 132.669477 435.929845 
L 130.574882 436.48971 
L 128.480286 436.650014 
L 124.291096 436.653839 
L 122.196501 437.022694 
L 120.101905 437.909777 
L 118.00731 439.46623 
L 115.912715 441.855291 
L 113.818119 445.32781 
L 111.98632 449.526915 
L 111.723524 450.182477 
L 109.628929 456.626515 
L 107.534334 464.533195 
L 106.103094 470.930872 
L 104.605488 478.957355 
L 101.209585 500.361312 
L 100.948812 503.036807 
L 100.846188 505.712302 
L 100.91644 508.387796 
L 101.495032 516.41428 
L 101.445954 519.089775 
L 100.778584 529.791753 
L 101.250548 532.74185 
L 102.267608 535.142742 
L 103.345143 536.544137 
L 105.439738 538.199155 
L 107.534334 539.267398 
L 110.575831 540.493732 
L 111.723524 542.195908 
L 112.066146 543.169226 
L 111.723524 544.153519 
L 111.291019 545.844721 
L 108.650893 551.19571 
L 107.3643 553.871205 
L 106.254181 556.546699 
L 105.412127 559.222194 
L 104.974816 561.897688 
L 105.162135 564.573183 
L 105.439738 565.259242 
L 106.884857 567.248678 
L 107.534334 567.674977 
L 107.534334 567.674977 
" style="fill:none;stroke:#008000;stroke-width:1.5;"/>
   </g>
   <g id="LineCollection_3">
    <path clip-path="url(#pd72897ec2b)" d="M 109.628929 530.391625 
L 111.723524 531.091792 
L 113.818119 531.091677 
L 115.912715 530.632641 
L 118.00731 529.781381 
L 120.101905 528.688714 
L 122.45175 527.116258 
L 125.910568 524.440764 
L 130.574882 520.523354 
L 132.669477 518.948933 
L 134.764072 517.85282 
L 136.858667 517.573681 
L 138.953263 519.187401 
L 141.047858 524.654969 
L 143.142453 526.624311 
L 145.237048 527.148058 
L 147.331644 527.064383 
L 149.426239 526.696841 
L 153.615429 525.621551 
L 159.899215 523.821551 
L 164.088406 522.875556 
L 168.277596 522.176319 
L 174.561382 521.397045 
L 178.750573 521.08504 
L 180.845168 521.051199 
L 182.939763 521.132151 
L 185.034358 521.346944 
L 189.223549 522.166423 
L 195.507335 523.693292 
L 197.60193 524.061532 
L 199.696525 524.307216 
L 201.79112 524.429749 
L 205.980311 524.356194 
L 210.169502 523.95401 
L 214.358692 523.283447 
L 218.547883 522.344007 
L 222.737073 521.104234 
L 228.292866 519.089775 
L 237.39924 515.547178 
L 247.872216 511.831002 
L 252.061407 509.849609 
L 256.250597 507.356908 
L 260.439788 504.412887 
L 265.439357 500.361312 
L 268.818169 497.280456 
L 271.06306 495.010323 
L 273.472105 492.334828 
L 275.653688 489.659334 
L 279.578969 484.308345 
L 285.335953 476.281861 
L 289.764121 470.693061 
L 294.14578 465.579882 
L 301.165079 457.553398 
L 305.503261 452.202409 
L 308.615479 447.935086 
L 311.112192 444.175925 
L 314.224705 438.824936 
L 316.99386 433.24308 
L 319.291923 428.122958 
L 325.372241 414.510611 
L 332.84738 398.692517 
L 337.509046 387.990538 
L 340.514664 379.964055 
L 342.159029 374.613065 
L 343.501207 369.262076 
L 344.503416 363.911087 
L 345.164615 358.560098 
L 345.332257 355.884603 
L 345.323864 350.533614 
L 344.223598 331.174143 
L 343.999987 329.129657 
L 343.530246 326.454162 
L 342.817858 323.778668 
L 341.771464 321.103173 
L 340.034408 318.208207 
L 337.939812 316.111913 
L 337.410355 315.752184 
L 335.845217 314.882087 
L 333.750622 314.169678 
L 331.656027 313.793342 
L 329.561431 313.644767 
L 325.372241 313.752437 
L 321.18305 314.133488 
L 314.899265 314.923558 
L 308.615479 315.930968 
L 304.426288 316.770985 
L 300.237098 317.897497 
L 296.047907 319.347238 
L 291.858717 321.18498 
L 287.669526 323.298439 
L 277.19655 329.311498 
L 270.912764 333.02249 
L 262.534383 338.261883 
L 252.061407 345.442919 
L 243.683026 351.444956 
L 230.46808 361.235592 
L 224.831668 365.744032 
L 220.642478 369.401799 
L 216.453287 373.383365 
L 205.980311 383.824408 
L 201.79112 387.605468 
L 198.035023 390.666033 
L 194.463377 393.341528 
L 183.549288 401.368011 
L 180.378526 404.043506 
L 176.655977 407.528821 
L 172.246327 412.06999 
L 161.99381 423.074093 
L 155.710025 429.714116 
L 152.481413 433.473947 
L 150.417871 436.149441 
L 148.554623 438.824936 
L 146.876049 441.500431 
L 145.237048 444.449734 
L 143.142453 448.820584 
L 142.803773 449.526915 
L 140.669491 454.877904 
L 138.638978 460.228893 
L 136.858667 463.816926 
L 134.764072 465.991729 
L 132.669477 466.556655 
L 130.574882 466.128266 
L 128.480286 465.253989 
L 126.385691 464.45129 
L 124.291096 464.059946 
L 122.196501 464.300417 
L 119.859462 465.579882 
L 118.00731 467.3964 
L 115.785091 470.930872 
L 113.509766 476.281861 
L 111.708437 481.63285 
L 108.630429 492.334828 
L 108.015396 495.010323 
L 107.53409 497.685818 
L 107.27395 500.361312 
L 107.261162 503.036807 
L 107.534334 505.962747 
L 108.230786 511.063291 
L 108.252536 513.738785 
L 107.999523 516.41428 
L 107.234975 521.765269 
L 107.073417 524.440764 
L 107.355238 527.116258 
L 107.534334 527.60846 
L 108.881097 529.791753 
L 109.628929 530.391625 
L 109.628929 530.391625 
" style="fill:none;stroke:#008000;stroke-width:1.5;"/>
   </g>
   <g id="LineCollection_4">
    <path clip-path="url(#pd72897ec2b)" d="M 115.912715 523.008611 
L 118.00731 522.717817 
L 119.989886 521.765269 
L 120.101905 521.695995 
L 122.196501 519.842434 
L 122.96763 519.089775 
L 124.291096 517.386005 
L 125.044011 516.41428 
L 126.385691 513.926056 
L 126.496091 513.738785 
L 127.13116 511.063291 
L 126.606701 508.387796 
L 126.385691 508.030847 
L 124.291096 505.851437 
L 124.064378 505.712302 
L 122.548192 503.036807 
L 123.108802 500.361312 
L 124.118552 497.685818 
L 124.291096 497.264741 
L 125.037911 495.010323 
L 125.696249 492.334828 
L 125.859597 489.659334 
L 124.946268 486.983839 
L 124.291096 486.27664 
L 122.196501 485.484424 
L 120.101905 485.982791 
L 118.828382 486.983839 
L 118.00731 487.682573 
L 116.633269 489.659334 
L 115.912715 490.879898 
L 115.302567 492.334828 
L 114.53401 495.010323 
L 114.282752 497.685818 
L 114.825729 500.361312 
L 115.912715 502.770716 
L 116.18971 503.036807 
L 117.688127 505.712302 
L 117.392427 508.387796 
L 116.375878 511.063291 
L 115.912715 511.973829 
L 115.330061 513.738785 
L 114.440523 516.41428 
L 113.818119 519.019597 
L 113.804785 519.089775 
L 113.818119 519.340843 
L 114.119286 521.765269 
L 115.912715 523.008611 
" style="fill:none;stroke:#008000;stroke-width:1.5;"/>
    <path clip-path="url(#pd72897ec2b)" d="M 153.615429 512.095911 
L 155.710025 512.979455 
L 157.80462 512.881074 
L 161.99381 511.900543 
L 166.183001 510.874302 
L 170.372192 510.165841 
L 174.561382 509.774629 
L 180.845168 509.43109 
L 185.034358 509.325702 
L 189.223549 509.455873 
L 193.412739 509.951124 
L 198.848101 511.063291 
L 201.79112 511.718374 
L 203.885716 512.061047 
L 205.980311 512.261247 
L 208.074906 512.307229 
L 210.169502 512.204638 
L 212.264097 511.967704 
L 216.453287 511.148611 
L 220.642478 509.978745 
L 225.021054 508.387796 
L 229.020859 506.757923 
L 239.493835 502.1106 
L 245.777621 499.575503 
L 252.061407 497.054476 
L 254.156002 496.073456 
L 256.250597 494.962419 
L 258.345193 493.676054 
L 260.439788 492.216736 
L 263.521471 489.659334 
L 266.302275 486.983839 
L 266.723574 486.557058 
L 270.912764 481.835049 
L 279.291145 471.744304 
L 282.318399 468.255377 
L 296.047907 453.028983 
L 298.860516 449.526915 
L 302.331693 444.705896 
L 304.426288 441.471401 
L 307.573055 436.149441 
L 312.804669 426.443329 
L 320.25966 412.06999 
L 323.277646 405.518317 
L 325.007013 401.368011 
L 327.466836 394.29277 
L 328.580726 390.666033 
L 333.777525 371.937571 
L 335.047251 366.586581 
L 335.845217 361.640799 
L 335.903775 361.235592 
L 336.161439 358.560098 
L 336.313593 353.209108 
L 336.135975 347.858119 
L 335.781541 342.50713 
L 335.502473 339.831635 
L 335.077286 337.156141 
L 334.414297 334.480646 
L 333.369366 331.805151 
L 331.656027 329.078222 
L 329.561431 327.042872 
L 328.727088 326.454162 
L 327.466836 325.720191 
L 325.372241 324.847273 
L 323.277646 324.26438 
L 320.153234 323.778668 
L 316.99386 323.56758 
L 312.804669 323.630444 
L 308.615479 323.998309 
L 304.426288 324.656983 
L 300.237098 325.654934 
L 296.047907 327.022621 
L 291.858717 328.760378 
L 285.828876 331.805151 
L 283.480336 333.079119 
L 268.818169 341.587719 
L 262.534383 345.496927 
L 258.345193 348.311397 
L 254.156002 351.344531 
L 248.419082 355.884603 
L 243.683026 359.969365 
L 239.388016 363.911087 
L 231.115454 371.895876 
L 216.889995 385.315044 
L 201.695871 398.692517 
L 192.484465 406.719001 
L 187.128954 411.858562 
L 185.034358 414.060686 
L 182.939763 416.398603 
L 179.840943 420.096474 
L 173.684127 428.122958 
L 169.540744 433.473947 
L 165.150654 438.824936 
L 160.821981 444.175925 
L 158.891062 446.85142 
L 157.193475 449.526915 
L 155.710025 452.230514 
L 153.615429 456.783875 
L 151.520834 462.229255 
L 149.426239 468.37552 
L 147.871545 473.606366 
L 146.611868 478.957355 
L 144.584026 489.659334 
L 144.141312 492.334828 
L 143.89323 495.010323 
L 144.127233 497.685818 
L 145.442272 500.361312 
L 149.426239 504.643964 
L 150.217909 505.712302 
L 152.804472 511.063291 
L 153.615429 512.095911 
L 153.615429 512.095911 
" style="fill:none;stroke:#008000;stroke-width:1.5;"/>
   </g>
   <g id="LineCollection_5">
    <path clip-path="url(#pd72897ec2b)" d="M 178.750573 497.921539 
L 182.939763 498.310183 
L 187.128954 498.447996 
L 197.60193 498.643356 
L 203.885716 499.109445 
L 208.074906 499.400299 
L 212.264097 499.442163 
L 216.453287 499.121341 
L 220.642478 498.429911 
L 224.831668 497.394964 
L 229.020859 496.046684 
L 233.210049 494.413571 
L 237.812229 492.334828 
L 243.079545 489.659334 
L 245.777621 488.18537 
L 249.966811 485.720227 
L 254.156002 482.986921 
L 258.345193 479.894539 
L 262.652401 476.281861 
L 266.723574 472.633386 
L 285.574931 454.569532 
L 290.283837 449.526915 
L 293.953312 445.130147 
L 296.676943 441.500431 
L 300.315864 436.149441 
L 305.334794 428.122958 
L 310.042997 420.096474 
L 312.926327 414.745485 
L 315.466741 409.394495 
L 316.99386 405.507988 
L 317.535598 404.043506 
L 318.379435 401.368011 
L 319.741978 396.017022 
L 322.13394 385.315044 
L 323.561968 379.964055 
L 325.810961 371.937571 
L 327.030261 366.586581 
L 327.466836 363.911087 
L 327.783356 361.235592 
L 327.95491 358.560098 
L 327.985729 355.884603 
L 327.882597 353.209108 
L 327.466836 349.224691 
L 327.267356 347.858119 
L 326.69635 345.182625 
L 325.856933 342.50713 
L 324.590449 339.831635 
L 322.620434 337.156141 
L 321.18305 335.827696 
L 319.088455 334.388915 
L 316.99386 333.431611 
L 314.899265 332.769118 
L 312.804669 332.345806 
L 310.710074 332.120942 
L 308.615479 332.064297 
L 306.520884 332.153728 
L 304.426288 332.373696 
L 302.331693 332.714084 
L 298.142503 333.735394 
L 293.953312 335.175926 
L 289.764121 336.983477 
L 283.480336 340.187996 
L 277.19655 343.708946 
L 268.818169 348.623674 
L 264.628978 351.23548 
L 260.439788 354.063462 
L 256.250597 357.199079 
L 252.061407 360.70616 
L 248.587857 363.911087 
L 245.777621 366.692303 
L 239.493835 373.2874 
L 230.625902 382.639549 
L 224.831668 388.368189 
L 218.547883 394.218392 
L 205.980311 405.817224 
L 201.79112 410.005829 
L 197.419048 414.745485 
L 193.008923 420.096474 
L 189.093595 425.447463 
L 178.750573 440.320198 
L 170.372192 451.762661 
L 170.064702 452.202409 
L 168.277596 455.00425 
L 166.183001 458.781015 
L 165.442009 460.228893 
L 164.088406 463.442038 
L 163.318991 465.579882 
L 162.549852 468.255377 
L 161.951561 470.930872 
L 161.534116 473.606366 
L 161.26368 476.281861 
L 161.165206 478.957355 
L 161.333975 481.63285 
L 161.99381 484.397375 
L 163.254307 486.983839 
L 166.183001 491.262229 
L 166.959672 492.334828 
L 168.277596 493.694282 
L 169.788621 495.010323 
L 170.372192 495.362395 
L 172.466787 496.361685 
L 174.561382 497.073691 
L 177.209209 497.685818 
L 178.750573 497.921539 
L 178.750573 497.921539 
" style="fill:none;stroke:#008000;stroke-width:1.5;"/>
   </g>
   <g id="LineCollection_6">
    <path clip-path="url(#pd72897ec2b)" d="M 189.223549 484.426119 
L 191.318144 485.129236 
L 193.412739 485.543387 
L 195.507335 485.76359 
L 199.696525 485.877974 
L 220.642478 485.632147 
L 224.831668 485.148263 
L 229.020859 484.308345 
L 233.210049 483.099117 
L 237.39924 481.513243 
L 241.58843 479.584924 
L 245.777621 477.332339 
L 249.966811 474.785815 
L 256.250597 470.499215 
L 262.534383 465.825966 
L 276.049635 454.877904 
L 279.291145 451.980559 
L 283.480336 447.934524 
L 286.984761 444.175925 
L 289.764121 440.913164 
L 293.450797 436.149441 
L 296.047907 432.519625 
L 300.237098 426.228474 
L 302.392446 422.771968 
L 305.452094 417.420979 
L 306.822985 414.745485 
L 308.615479 410.679589 
L 309.140794 409.394495 
L 310.069003 406.719001 
L 310.850926 404.043506 
L 312.080432 398.692517 
L 313.746968 390.666033 
L 315.058297 385.315044 
L 318.636438 371.937571 
L 319.647846 366.586581 
L 319.949066 363.911087 
L 320.082516 361.235592 
L 320.027793 358.560098 
L 319.761138 355.884603 
L 319.088455 352.644021 
L 318.412679 350.533614 
L 316.99386 347.588587 
L 314.899265 344.858321 
L 312.804669 343.111439 
L 310.710074 341.954051 
L 308.615479 341.231041 
L 306.520884 340.825394 
L 304.426288 340.681131 
L 302.331693 340.753836 
L 300.237098 341.00887 
L 298.142503 341.419844 
L 294.360932 342.50713 
L 291.858717 343.412687 
L 287.669526 345.230524 
L 282.493811 347.858119 
L 277.19655 350.819796 
L 270.912764 354.607214 
L 266.723574 357.321849 
L 262.534383 360.2711 
L 258.345193 363.550575 
L 254.859916 366.586581 
L 252.021737 369.262076 
L 246.774834 374.613065 
L 239.314821 382.639549 
L 229.020859 393.625482 
L 220.642478 402.156682 
L 212.264097 410.595594 
L 208.074906 415.093517 
L 203.814719 420.096474 
L 199.696525 425.504061 
L 195.507335 431.623417 
L 191.318144 438.216245 
L 189.223549 441.636612 
L 186.178069 446.85142 
L 183.480827 452.202409 
L 182.418646 454.877904 
L 181.638978 457.553398 
L 181.204101 460.228893 
L 181.160179 462.904388 
L 181.474039 465.579882 
L 183.706686 476.281861 
L 184.475564 478.957355 
L 185.034358 480.190879 
L 185.844908 481.63285 
L 187.128954 482.997542 
L 189.223549 484.426119 
L 189.223549 484.426119 
" style="fill:none;stroke:#008000;stroke-width:1.5;"/>
   </g>
   <g id="LineCollection_7">
    <path clip-path="url(#pd72897ec2b)" d="M 216.453287 471.173042 
L 220.642478 471.727057 
L 224.831668 472.081695 
L 229.020859 472.112384 
L 231.115454 471.965635 
L 233.210049 471.696981 
L 236.772999 470.930872 
L 237.39924 470.781366 
L 239.493835 470.151842 
L 243.683026 468.543702 
L 247.872216 466.561579 
L 252.061407 464.264157 
L 258.345193 460.379701 
L 266.723574 454.57519 
L 270.912764 451.352998 
L 275.101955 447.829261 
L 279.020208 444.175925 
L 281.628215 441.500431 
L 285.574931 437.008384 
L 288.389496 433.473947 
L 292.264753 428.122958 
L 295.729946 422.771968 
L 298.142503 418.505018 
L 298.720749 417.420979 
L 300.237098 414.20115 
L 301.12294 412.06999 
L 302.331693 408.631841 
L 303.630929 404.043506 
L 311.415452 371.937571 
L 311.821046 369.262076 
L 312.0646 366.586581 
L 312.095454 363.911087 
L 311.852007 361.235592 
L 311.255502 358.560098 
L 310.14571 355.884603 
L 308.201851 353.209108 
L 306.520884 351.816048 
L 303.903478 350.533614 
L 302.331693 350.112563 
L 300.237098 349.886741 
L 298.142503 349.935747 
L 296.047907 350.204638 
L 293.953312 350.655468 
L 291.858717 351.262544 
L 287.669526 352.817526 
L 283.480336 354.747805 
L 279.291145 356.967514 
L 275.101955 359.437799 
L 270.912764 362.151768 
L 266.723574 365.135158 
L 262.534383 368.436446 
L 258.345193 372.098512 
L 254.156002 376.120602 
L 249.966811 380.439023 
L 243.683026 387.305458 
L 238.376118 393.341528 
L 229.020859 404.165703 
L 221.860493 412.06999 
L 212.139123 422.771968 
L 208.074906 427.871979 
L 205.980311 430.802277 
L 203.885716 434.128806 
L 201.79112 437.963426 
L 201.346221 438.824936 
L 200.208873 441.500431 
L 199.333111 444.175925 
L 198.812493 446.85142 
L 198.698303 449.526915 
L 199.051255 452.202409 
L 199.811473 454.877904 
L 202.83522 462.904388 
L 204.223989 465.579882 
L 205.980311 467.521345 
L 206.886512 468.255377 
L 208.074906 468.906447 
L 210.169502 469.751602 
L 212.264097 470.359998 
L 216.453287 471.173042 
L 216.453287 471.173042 
" style="fill:none;stroke:#008000;stroke-width:1.5;"/>
   </g>
   <g id="LineCollection_8">
    <path clip-path="url(#pd72897ec2b)" d="M 231.115454 460.553822 
L 233.210049 460.863425 
L 235.304645 460.963733 
L 237.39924 460.871317 
L 239.493835 460.602266 
L 241.58843 460.169606 
L 243.683026 459.571757 
L 247.872216 458.025399 
L 252.061407 456.05401 
L 256.250597 453.758606 
L 260.439788 451.172226 
L 264.628978 448.280202 
L 266.723574 446.725101 
L 270.912764 443.234243 
L 273.007359 441.335494 
L 275.529221 438.824936 
L 279.291145 434.596195 
L 281.38574 431.987362 
L 283.480336 429.165255 
L 286.012256 425.447463 
L 287.669526 422.771968 
L 290.529758 417.420979 
L 291.858717 414.544074 
L 293.953312 409.158376 
L 296.047907 402.62073 
L 298.142503 395.150578 
L 300.623968 385.315044 
L 302.427039 377.28856 
L 302.873999 374.613065 
L 303.174905 371.937571 
L 303.241347 369.262076 
L 302.944901 366.586581 
L 302.044783 363.911087 
L 300.237098 361.601948 
L 299.766334 361.235592 
L 298.142503 360.371168 
L 296.047907 359.832086 
L 293.953312 359.718693 
L 291.858717 359.908013 
L 289.764121 360.31971 
L 286.727334 361.235592 
L 285.574931 361.649129 
L 281.38574 363.496852 
L 277.19655 365.773413 
L 273.007359 368.437154 
L 268.818169 371.490512 
L 265.017552 374.613065 
L 262.042464 377.28856 
L 258.345193 380.890564 
L 254.132016 385.315044 
L 249.421691 390.666033 
L 245.045667 396.017022 
L 238.966523 404.043506 
L 225.587979 422.771968 
L 222.298383 428.122958 
L 221.007892 430.798452 
L 220.08471 433.473947 
L 219.586231 436.149441 
L 219.498734 438.824936 
L 219.685231 441.500431 
L 220.337739 446.85142 
L 220.761375 449.526915 
L 221.391733 452.202409 
L 222.737073 455.21383 
L 224.831668 457.687955 
L 226.926264 459.040229 
L 229.813429 460.228893 
L 231.115454 460.553822 
L 231.115454 460.553822 
" style="fill:none;stroke:#008000;stroke-width:1.5;"/>
   </g>
   <g id="LineCollection_9">
    <path clip-path="url(#pd72897ec2b)" d="M 239.493835 446.966596 
L 241.58843 447.842686 
L 243.683026 448.14249 
L 245.777621 448.044288 
L 247.872216 447.664185 
L 249.966811 447.079154 
L 250.577501 446.85142 
L 252.061407 446.243388 
L 254.156002 445.251198 
L 256.250597 444.175925 
L 258.345193 442.833217 
L 260.370564 441.500431 
L 260.439788 441.449738 
L 262.534383 439.79444 
L 263.729562 438.824936 
L 264.628978 438.011187 
L 266.635744 436.149441 
L 266.723574 436.058309 
L 268.818169 433.803434 
L 269.117692 433.473947 
L 270.912764 431.281892 
L 271.301896 430.798452 
L 273.007359 428.462828 
L 273.251627 428.122958 
L 275.007791 425.447463 
L 275.101955 425.291351 
L 276.588035 422.771968 
L 277.19655 421.676513 
L 278.053506 420.096474 
L 279.291145 417.702793 
L 279.43291 417.420979 
L 280.695107 414.745485 
L 281.38574 413.234856 
L 281.897412 412.06999 
L 283.025905 409.394495 
L 283.480336 408.27292 
L 284.078761 406.719001 
L 285.064887 404.043506 
L 285.574931 402.586496 
L 285.977225 401.368011 
L 286.8055 398.692517 
L 287.595656 396.017022 
L 287.669526 395.748 
L 288.28898 393.341528 
L 288.950033 390.666033 
L 289.586637 387.990538 
L 289.764121 387.176353 
L 290.146824 385.315044 
L 290.614618 382.639549 
L 290.926085 379.964055 
L 290.915724 377.28856 
L 290.206318 374.613065 
L 289.764121 373.989309 
L 287.669526 372.536684 
L 285.574931 372.214937 
L 283.480336 372.472588 
L 281.38574 373.05927 
L 279.291145 373.8565 
L 277.662388 374.613065 
L 277.19655 374.845774 
L 275.101955 376.081236 
L 273.179551 377.28856 
L 273.007359 377.403825 
L 270.912764 378.961269 
L 269.62083 379.964055 
L 268.818169 380.62197 
L 266.723574 382.411584 
L 266.471013 382.639549 
L 264.628978 384.381405 
L 263.664064 385.315044 
L 262.534383 386.459979 
L 261.052449 387.990538 
L 260.439788 388.653909 
L 258.610502 390.666033 
L 258.345193 390.97273 
L 256.32305 393.341528 
L 256.250597 393.431091 
L 254.181193 396.017022 
L 254.156002 396.050416 
L 252.178166 398.692517 
L 252.061407 398.858934 
L 250.306716 401.368011 
L 249.966811 401.889442 
L 248.55858 404.043506 
L 247.872216 405.175068 
L 246.925664 406.719001 
L 245.777621 408.744753 
L 245.402029 409.394495 
L 244.003115 412.06999 
L 243.683026 412.754823 
L 242.727912 414.745485 
L 241.58843 417.348036 
L 241.555359 417.420979 
L 240.534055 420.096474 
L 239.618104 422.771968 
L 239.493835 423.20386 
L 238.839211 425.447463 
L 238.16795 428.122958 
L 237.588311 430.798452 
L 237.39924 431.850898 
L 237.112347 433.473947 
L 236.759699 436.149441 
L 236.578761 438.824936 
L 236.686671 441.500431 
L 237.313429 444.175925 
L 237.39924 444.343385 
L 239.330941 446.85142 
L 239.493835 446.966596 
" style="fill:none;stroke:#008000;stroke-width:1.5;"/>
   </g>
   <g id="LineCollection_10"/>
   <g id="patch_3">
    <path d="M 78.21 655.54 
L 78.21 123.116571 
" style="fill:none;stroke:#ffffff;stroke-linecap:square;stroke-linejoin:miter;stroke-width:1.25;"/>
   </g>
   <g id="patch_4">
    <path d="M 78.21 655.54 
L 495.034457 655.54 
" style="fill:none;stroke:#ffffff;stroke-linecap:square;stroke-linejoin:miter;stroke-width:1.25;"/>
   </g>
  </g>
  <g id="axes_2">
   <g id="patch_5">
    <path d="M 78.21 104.757143 
L 599.240571 104.757143 
L 599.240571 12.96 
L 78.21 12.96 
z
" style="fill:#eaeaf2;"/>
   </g>
   <g id="matplotlib.axis_3">
    <g id="xtick_3">
     <g id="line2d_9">
      <path clip-path="url(#pccad770790)" d="M 127.532205 104.757143 
L 127.532205 12.96 
" style="fill:none;stroke:#ffffff;stroke-linecap:round;"/>
     </g>
    </g>
    <g id="xtick_4">
     <g id="line2d_10">
      <path clip-path="url(#pccad770790)" d="M 377.355744 104.757143 
L 377.355744 12.96 
" style="fill:none;stroke:#ffffff;stroke-linecap:round;"/>
     </g>
    </g>
   </g>
   <g id="matplotlib.axis_4">
    <g id="ytick_7"/>
    <g id="ytick_8"/>
   </g>
   <g id="line2d_11">
    <path clip-path="url(#pccad770790)" d="M 91.460909 104.343766 
L 93.945978 104.004914 
L 96.431047 103.445539 
L 98.916116 102.565832 
L 101.401185 101.249183 
L 103.886254 99.376244 
L 106.371323 96.848428 
L 108.856392 93.619075 
L 111.341462 89.726734 
L 113.826531 85.321608 
L 118.796669 76.16052 
L 121.281738 72.211758 
L 123.766807 69.24897 
L 126.251876 67.601335 
L 128.736945 67.436012 
L 131.222014 68.714995 
L 133.707084 71.191433 
L 136.192153 74.447166 
L 138.677222 77.962684 
L 141.162291 81.203507 
L 143.64736 83.704939 
L 146.132429 85.139877 
L 148.617498 85.359905 
L 151.102567 84.405621 
L 153.587637 82.4869 
L 156.072706 79.937229 
L 161.042844 74.503052 
L 163.527913 72.297381 
L 166.012982 70.702937 
L 168.498051 69.743571 
L 170.98312 69.312459 
L 173.468189 69.216843 
L 178.438328 69.186027 
L 180.923397 68.941393 
L 183.408466 68.462371 
L 185.893535 67.772913 
L 190.863673 66.008189 
L 200.80395 62.053405 
L 205.774088 59.888516 
L 213.229295 56.333089 
L 220.684503 52.521414 
L 235.594917 44.760027 
L 240.565056 42.508094 
L 245.535194 40.510203 
L 252.990401 37.814735 
L 260.445609 35.104508 
L 265.415747 33.091462 
L 270.385885 30.850324 
L 277.841092 27.174421 
L 285.2963 23.487409 
L 290.266438 21.264659 
L 295.236576 19.416094 
L 297.721645 18.682848 
L 300.206714 18.099638 
L 302.691784 17.6776 
L 305.176853 17.421799 
L 307.661922 17.331265 
L 310.146991 17.400045 
L 312.63206 17.618906 
L 315.117129 17.977146 
L 317.602198 18.464067 
L 322.572336 19.785736 
L 327.542475 21.517585 
L 332.512613 23.603996 
L 337.482751 25.998935 
L 342.452889 28.686896 
L 347.423028 31.717692 
L 352.393166 35.207956 
L 354.878235 37.163187 
L 359.848373 41.514697 
L 364.818511 46.357069 
L 377.243857 58.863841 
L 382.213995 63.357711 
L 387.184133 67.407388 
L 392.154272 71.080034 
L 397.12441 74.497101 
L 404.579617 79.335463 
L 409.549756 82.366979 
L 414.519894 85.151373 
L 419.490032 87.601025 
L 424.46017 89.689083 
L 429.430308 91.471497 
L 436.885516 93.796662 
L 446.825792 96.591062 
L 454.281 98.462775 
L 459.251138 99.550476 
L 464.221276 100.475751 
L 469.191414 101.224118 
L 476.646622 102.046282 
L 486.586898 102.801114 
L 503.982382 103.830035 
L 513.922658 104.213648 
L 526.348004 104.438632 
L 568.594179 104.737421 
L 585.989663 104.756556 
L 585.989663 104.756556 
" style="fill:none;stroke:#008000;stroke-linecap:round;stroke-width:1.5;"/>
   </g>
   <g id="patch_6">
    <path d="M 78.21 104.757143 
L 599.240571 104.757143 
" style="fill:none;stroke:#ffffff;stroke-linecap:square;stroke-linejoin:miter;stroke-width:1.25;"/>
   </g>
  </g>
  <g id="axes_3">
   <g id="patch_7">
    <path d="M 617.207143 655.54 
L 707.04 655.54 
L 707.04 123.116571 
L 617.207143 123.116571 
z
" style="fill:#eaeaf2;"/>
   </g>
   <g id="matplotlib.axis_5">
    <g id="xtick_5"/>
    <g id="xtick_6"/>
   </g>
   <g id="matplotlib.axis_6">
    <g id="ytick_9">
     <g id="line2d_12">
      <path clip-path="url(#p61ae4f6b14)" d="M 617.207143 613.735029 
L 707.04 613.735029 
" style="fill:none;stroke:#ffffff;stroke-linecap:round;"/>
     </g>
    </g>
    <g id="ytick_10">
     <g id="line2d_13">
      <path clip-path="url(#p61ae4f6b14)" d="M 617.207143 515.837265 
L 707.04 515.837265 
" style="fill:none;stroke:#ffffff;stroke-linecap:round;"/>
     </g>
    </g>
    <g id="ytick_11">
     <g id="line2d_14">
      <path clip-path="url(#p61ae4f6b14)" d="M 617.207143 417.939502 
L 707.04 417.939502 
" style="fill:none;stroke:#ffffff;stroke-linecap:round;"/>
     </g>
    </g>
    <g id="ytick_12">
     <g id="line2d_15">
      <path clip-path="url(#p61ae4f6b14)" d="M 617.207143 320.041738 
L 707.04 320.041738 
" style="fill:none;stroke:#ffffff;stroke-linecap:round;"/>
     </g>
    </g>
    <g id="ytick_13">
     <g id="line2d_16">
      <path clip-path="url(#p61ae4f6b14)" d="M 617.207143 222.143974 
L 707.04 222.143974 
" style="fill:none;stroke:#ffffff;stroke-linecap:round;"/>
     </g>
    </g>
    <g id="ytick_14">
     <g id="line2d_17">
      <path clip-path="url(#p61ae4f6b14)" d="M 617.207143 124.24621 
L 707.04 124.24621 
" style="fill:none;stroke:#ffffff;stroke-linecap:round;"/>
     </g>
    </g>
   </g>
   <g id="line2d_18">
    <path clip-path="url(#p61ae4f6b14)" d="M 617.273733 644.308672 
L 617.47243 639.183438 
L 617.688737 636.620822 
L 618.027846 634.058205 
L 618.52004 631.495588 
L 619.178729 628.932971 
L 620.885091 623.807737 
L 621.776032 621.24512 
L 622.535039 618.682503 
L 623.039457 616.119886 
L 623.200444 613.557269 
L 622.988525 610.994652 
L 622.442403 608.432035 
L 620.758542 603.306801 
L 619.080198 598.181567 
L 618.449067 595.61895 
L 617.991377 593.056333 
L 617.69987 590.493716 
L 617.561645 587.931099 
L 617.576386 585.368483 
L 617.771144 582.805866 
L 618.20901 580.243249 
L 618.988241 577.680632 
L 620.227407 575.118015 
L 622.033184 572.555398 
L 624.452638 569.992781 
L 627.420928 567.430164 
L 634.003163 562.30493 
L 636.80489 559.742313 
L 638.689687 557.179696 
L 639.353267 554.617079 
L 638.729551 552.054462 
L 637.034255 549.491845 
L 632.448806 544.366611 
L 630.827935 541.803994 
L 630.414725 539.241377 
L 631.540174 536.67876 
L 634.248126 534.116143 
L 638.266212 531.553527 
L 647.821537 526.428293 
L 651.875236 523.865676 
L 654.654651 521.303059 
L 655.995103 518.740442 
L 656.1817 516.177825 
L 655.869152 513.615208 
L 655.861898 511.052591 
L 656.828348 508.489974 
L 659.059342 505.927357 
L 662.370631 503.36474 
L 666.192735 500.802123 
L 669.811299 498.239506 
L 672.653426 495.676889 
L 674.494083 493.114272 
L 675.495709 490.551655 
L 676.687534 485.426421 
L 677.615307 482.863804 
L 678.905189 480.301187 
L 684.88173 470.05072 
L 686.338855 467.488103 
L 687.926347 464.925486 
L 689.687066 462.362869 
L 697.321481 452.112401 
L 698.929354 449.549784 
L 700.269521 446.987167 
L 701.307787 444.42455 
L 702.041061 441.861933 
L 702.495627 439.299316 
L 702.717995 436.736699 
L 702.76227 434.174082 
L 702.511181 429.048848 
L 701.734683 421.360998 
L 701.011572 416.235764 
L 699.950983 411.11053 
L 699.234344 408.547913 
L 698.375299 405.985296 
L 697.372544 403.422679 
L 696.233018 400.860062 
L 693.603081 395.734828 
L 686.443688 382.921743 
L 684.079103 377.796509 
L 681.847976 372.671276 
L 680.593194 370.108659 
L 679.140891 367.546042 
L 677.441668 364.983425 
L 675.483232 362.420808 
L 673.29111 359.858191 
L 668.440848 354.732957 
L 660.975123 347.045106 
L 656.293136 341.919872 
L 651.869133 336.794638 
L 647.691697 331.669404 
L 643.860152 326.54417 
L 640.489472 321.418936 
L 637.562717 316.293703 
L 634.956193 311.168469 
L 632.59839 306.043235 
L 630.513499 300.918001 
L 628.702816 295.792767 
L 626.318333 288.104916 
L 624.893626 282.979682 
L 623.699636 277.854448 
L 622.826379 272.729214 
L 622.23347 267.603981 
L 620.950187 254.790896 
L 619.468361 241.977811 
L 618.878869 234.28996 
L 618.417968 224.039492 
L 617.48765 195.850706 
L 617.312149 180.475004 
L 617.207675 134.347899 
L 617.207675 134.347899 
" style="fill:none;stroke:#008000;stroke-linecap:round;stroke-width:1.5;"/>
   </g>
   <g id="patch_8">
    <path d="M 617.207143 655.54 
L 617.207143 123.116571 
" style="fill:none;stroke:#ffffff;stroke-linecap:square;stroke-linejoin:miter;stroke-width:1.25;"/>
   </g>
  </g>
  <g id="axes_4">
   <g id="patch_9">
    <path clip-path="url(#p44cf1ebebf)" d="M 521.085986 655.54 
L 521.085986 596.381841 
L 521.085986 182.27473 
L 521.085986 123.116571 
L 547.707157 123.116571 
L 547.707157 182.27473 
L 547.707157 596.381841 
L 547.707157 655.54 
z
" style="fill:#eaeaf2;stroke:#eaeaf2;stroke-linejoin:miter;stroke-width:0.01;"/>
   </g>
   <g id="matplotlib.axis_7"/>
   <g id="matplotlib.axis_8">
    <g id="ytick_15">
     <g id="line2d_19">
      <path clip-path="url(#p44cf1ebebf)" d="M 521.085986 655.54 
L 547.707157 655.54 
" style="fill:none;stroke:#ffffff;stroke-linecap:round;"/>
     </g>
     <g id="line2d_20">
      <defs>
       <path d="M 0 0 
L 6 0 
" id="m7b15f79b86" style="stroke:#262626;stroke-width:1.25;"/>
      </defs>
      <g>
       <use style="fill:#262626;stroke:#262626;stroke-width:1.25;" x="547.707157" xlink:href="#m7b15f79b86" y="655.54"/>
      </g>
     </g>
     <g id="text_11">
      <!-- 0.0492 -->
      <g style="fill:#262626;" transform="translate(557.207157 666.276719)scale(0.3 -0.3)">
       <defs>
        <path d="M 32.328125 0 
L 32.328125 17.140625 
L 1.265625 17.140625 
L 1.265625 25.203125 
L 33.9375 71.578125 
L 41.109375 71.578125 
L 41.109375 25.203125 
L 50.78125 25.203125 
L 50.78125 17.140625 
L 41.109375 17.140625 
L 41.109375 0 
z
M 32.328125 25.203125 
L 32.328125 57.46875 
L 9.90625 25.203125 
z
" id="ArialMT-52"/>
        <path d="M 5.46875 16.546875 
L 13.921875 17.328125 
Q 14.984375 11.375 18.015625 8.6875 
Q 21.046875 6 25.78125 6 
Q 29.828125 6 32.875 7.859375 
Q 35.9375 9.71875 37.890625 12.8125 
Q 39.84375 15.921875 41.15625 21.1875 
Q 42.484375 26.46875 42.484375 31.9375 
Q 42.484375 32.515625 42.4375 33.6875 
Q 39.796875 29.5 35.234375 26.875 
Q 30.671875 24.265625 25.34375 24.265625 
Q 16.453125 24.265625 10.296875 30.703125 
Q 4.15625 37.15625 4.15625 47.703125 
Q 4.15625 58.59375 10.578125 65.234375 
Q 17 71.875 26.65625 71.875 
Q 33.640625 71.875 39.421875 68.109375 
Q 45.21875 64.359375 48.21875 57.390625 
Q 51.21875 50.4375 51.21875 37.25 
Q 51.21875 23.53125 48.234375 15.40625 
Q 45.265625 7.28125 39.375 3.03125 
Q 33.5 -1.21875 25.59375 -1.21875 
Q 17.1875 -1.21875 11.859375 3.4375 
Q 6.546875 8.109375 5.46875 16.546875 
z
M 41.453125 48.140625 
Q 41.453125 55.71875 37.421875 60.15625 
Q 33.40625 64.59375 27.734375 64.59375 
Q 21.875 64.59375 17.53125 59.8125 
Q 13.1875 55.03125 13.1875 47.40625 
Q 13.1875 40.578125 17.3125 36.296875 
Q 21.4375 32.03125 27.484375 32.03125 
Q 33.59375 32.03125 37.515625 36.296875 
Q 41.453125 40.578125 41.453125 48.140625 
z
" id="ArialMT-57"/>
       </defs>
       <use xlink:href="#ArialMT-48"/>
       <use x="55.615234" xlink:href="#ArialMT-46"/>
       <use x="83.398438" xlink:href="#ArialMT-48"/>
       <use x="139.013672" xlink:href="#ArialMT-52"/>
       <use x="194.628906" xlink:href="#ArialMT-57"/>
       <use x="250.244141" xlink:href="#ArialMT-50"/>
      </g>
     </g>
    </g>
    <g id="ytick_16">
     <g id="line2d_21">
      <path clip-path="url(#p44cf1ebebf)" d="M 521.085986 596.381841 
L 547.707157 596.381841 
" style="fill:none;stroke:#ffffff;stroke-linecap:round;"/>
     </g>
     <g id="line2d_22">
      <g>
       <use style="fill:#262626;stroke:#262626;stroke-width:1.25;" x="547.707157" xlink:href="#m7b15f79b86" y="596.381841"/>
      </g>
     </g>
     <g id="text_12">
      <!-- 0.1478 -->
      <g style="fill:#262626;" transform="translate(557.207157 607.11856)scale(0.3 -0.3)">
       <defs>
        <path d="M 4.734375 62.203125 
L 4.734375 70.65625 
L 51.078125 70.65625 
L 51.078125 63.8125 
Q 44.234375 56.546875 37.515625 44.484375 
Q 30.8125 32.421875 27.15625 19.671875 
Q 24.515625 10.6875 23.78125 0 
L 14.75 0 
Q 14.890625 8.453125 18.0625 20.40625 
Q 21.234375 32.375 27.171875 43.484375 
Q 33.109375 54.59375 39.796875 62.203125 
z
" id="ArialMT-55"/>
        <path d="M 17.671875 38.8125 
Q 12.203125 40.828125 9.5625 44.53125 
Q 6.9375 48.25 6.9375 53.421875 
Q 6.9375 61.234375 12.546875 66.546875 
Q 18.171875 71.875 27.484375 71.875 
Q 36.859375 71.875 42.578125 66.421875 
Q 48.296875 60.984375 48.296875 53.171875 
Q 48.296875 48.1875 45.671875 44.5 
Q 43.0625 40.828125 37.75 38.8125 
Q 44.34375 36.671875 47.78125 31.875 
Q 51.21875 27.09375 51.21875 20.453125 
Q 51.21875 11.28125 44.71875 5.03125 
Q 38.234375 -1.21875 27.640625 -1.21875 
Q 17.046875 -1.21875 10.546875 5.046875 
Q 4.046875 11.328125 4.046875 20.703125 
Q 4.046875 27.6875 7.59375 32.390625 
Q 11.140625 37.109375 17.671875 38.8125 
z
M 15.921875 53.71875 
Q 15.921875 48.640625 19.1875 45.40625 
Q 22.46875 42.1875 27.6875 42.1875 
Q 32.765625 42.1875 36.015625 45.375 
Q 39.265625 48.578125 39.265625 53.21875 
Q 39.265625 58.0625 35.90625 61.359375 
Q 32.5625 64.65625 27.59375 64.65625 
Q 22.5625 64.65625 19.234375 61.421875 
Q 15.921875 58.203125 15.921875 53.71875 
z
M 13.09375 20.65625 
Q 13.09375 16.890625 14.875 13.375 
Q 16.65625 9.859375 20.171875 7.921875 
Q 23.6875 6 27.734375 6 
Q 34.03125 6 38.125 10.046875 
Q 42.234375 14.109375 42.234375 20.359375 
Q 42.234375 26.703125 38.015625 30.859375 
Q 33.796875 35.015625 27.4375 35.015625 
Q 21.234375 35.015625 17.15625 30.90625 
Q 13.09375 26.8125 13.09375 20.65625 
z
" id="ArialMT-56"/>
       </defs>
       <use xlink:href="#ArialMT-48"/>
       <use x="55.615234" xlink:href="#ArialMT-46"/>
       <use x="83.398438" xlink:href="#ArialMT-49"/>
       <use x="139.013672" xlink:href="#ArialMT-52"/>
       <use x="194.628906" xlink:href="#ArialMT-55"/>
       <use x="250.244141" xlink:href="#ArialMT-56"/>
      </g>
     </g>
    </g>
    <g id="ytick_17">
     <g id="line2d_23">
      <path clip-path="url(#p44cf1ebebf)" d="M 521.085986 537.223683 
L 547.707157 537.223683 
" style="fill:none;stroke:#ffffff;stroke-linecap:round;"/>
     </g>
     <g id="line2d_24">
      <g>
       <use style="fill:#262626;stroke:#262626;stroke-width:1.25;" x="547.707157" xlink:href="#m7b15f79b86" y="537.223683"/>
      </g>
     </g>
     <g id="text_13">
      <!-- 0.2453 -->
      <g style="fill:#262626;" transform="translate(557.207157 547.960401)scale(0.3 -0.3)">
       <defs>
        <path d="M 4.203125 18.890625 
L 12.984375 20.0625 
Q 14.5 12.59375 18.140625 9.296875 
Q 21.78125 6 27 6 
Q 33.203125 6 37.46875 10.296875 
Q 41.75 14.59375 41.75 20.953125 
Q 41.75 27 37.796875 30.921875 
Q 33.84375 34.859375 27.734375 34.859375 
Q 25.25 34.859375 21.53125 33.890625 
L 22.515625 41.609375 
Q 23.390625 41.5 23.921875 41.5 
Q 29.546875 41.5 34.03125 44.421875 
Q 38.53125 47.359375 38.53125 53.46875 
Q 38.53125 58.296875 35.25 61.46875 
Q 31.984375 64.65625 26.8125 64.65625 
Q 21.6875 64.65625 18.265625 61.421875 
Q 14.84375 58.203125 13.875 51.765625 
L 5.078125 53.328125 
Q 6.6875 62.15625 12.390625 67.015625 
Q 18.109375 71.875 26.609375 71.875 
Q 32.46875 71.875 37.390625 69.359375 
Q 42.328125 66.84375 44.9375 62.5 
Q 47.5625 58.15625 47.5625 53.265625 
Q 47.5625 48.640625 45.0625 44.828125 
Q 42.578125 41.015625 37.703125 38.765625 
Q 44.046875 37.3125 47.5625 32.6875 
Q 51.078125 28.078125 51.078125 21.140625 
Q 51.078125 11.765625 44.234375 5.25 
Q 37.40625 -1.265625 26.953125 -1.265625 
Q 17.53125 -1.265625 11.296875 4.34375 
Q 5.078125 9.96875 4.203125 18.890625 
z
" id="ArialMT-51"/>
       </defs>
       <use xlink:href="#ArialMT-48"/>
       <use x="55.615234" xlink:href="#ArialMT-46"/>
       <use x="83.398438" xlink:href="#ArialMT-50"/>
       <use x="139.013672" xlink:href="#ArialMT-52"/>
       <use x="194.628906" xlink:href="#ArialMT-53"/>
       <use x="250.244141" xlink:href="#ArialMT-51"/>
      </g>
     </g>
    </g>
    <g id="ytick_18">
     <g id="line2d_25">
      <path clip-path="url(#p44cf1ebebf)" d="M 521.085986 478.065524 
L 547.707157 478.065524 
" style="fill:none;stroke:#ffffff;stroke-linecap:round;"/>
     </g>
     <g id="line2d_26">
      <g>
       <use style="fill:#262626;stroke:#262626;stroke-width:1.25;" x="547.707157" xlink:href="#m7b15f79b86" y="478.065524"/>
      </g>
     </g>
     <g id="text_14">
      <!-- 0.3305 -->
      <g style="fill:#262626;" transform="translate(557.207157 488.802243)scale(0.3 -0.3)">
       <use xlink:href="#ArialMT-48"/>
       <use x="55.615234" xlink:href="#ArialMT-46"/>
       <use x="83.398438" xlink:href="#ArialMT-51"/>
       <use x="139.013672" xlink:href="#ArialMT-51"/>
       <use x="194.628906" xlink:href="#ArialMT-48"/>
       <use x="250.244141" xlink:href="#ArialMT-53"/>
      </g>
     </g>
    </g>
    <g id="ytick_19">
     <g id="line2d_27">
      <path clip-path="url(#p44cf1ebebf)" d="M 521.085986 418.907365 
L 547.707157 418.907365 
" style="fill:none;stroke:#ffffff;stroke-linecap:round;"/>
     </g>
     <g id="line2d_28">
      <g>
       <use style="fill:#262626;stroke:#262626;stroke-width:1.25;" x="547.707157" xlink:href="#m7b15f79b86" y="418.907365"/>
      </g>
     </g>
     <g id="text_15">
      <!-- 0.4266 -->
      <g style="fill:#262626;" transform="translate(557.207157 429.644084)scale(0.3 -0.3)">
       <defs>
        <path d="M 49.75 54.046875 
L 41.015625 53.375 
Q 39.84375 58.546875 37.703125 60.890625 
Q 34.125 64.65625 28.90625 64.65625 
Q 24.703125 64.65625 21.53125 62.3125 
Q 17.390625 59.28125 14.984375 53.46875 
Q 12.59375 47.65625 12.5 36.921875 
Q 15.671875 41.75 20.265625 44.09375 
Q 24.859375 46.4375 29.890625 46.4375 
Q 38.671875 46.4375 44.84375 39.96875 
Q 51.03125 33.5 51.03125 23.25 
Q 51.03125 16.5 48.125 10.71875 
Q 45.21875 4.9375 40.140625 1.859375 
Q 35.0625 -1.21875 28.609375 -1.21875 
Q 17.625 -1.21875 10.6875 6.859375 
Q 3.765625 14.9375 3.765625 33.5 
Q 3.765625 54.25 11.421875 63.671875 
Q 18.109375 71.875 29.4375 71.875 
Q 37.890625 71.875 43.28125 67.140625 
Q 48.6875 62.40625 49.75 54.046875 
z
M 13.875 23.1875 
Q 13.875 18.65625 15.796875 14.5 
Q 17.71875 10.359375 21.1875 8.171875 
Q 24.65625 6 28.46875 6 
Q 34.03125 6 38.03125 10.484375 
Q 42.046875 14.984375 42.046875 22.703125 
Q 42.046875 30.125 38.078125 34.390625 
Q 34.125 38.671875 28.125 38.671875 
Q 22.171875 38.671875 18.015625 34.390625 
Q 13.875 30.125 13.875 23.1875 
z
" id="ArialMT-54"/>
       </defs>
       <use xlink:href="#ArialMT-48"/>
       <use x="55.615234" xlink:href="#ArialMT-46"/>
       <use x="83.398438" xlink:href="#ArialMT-52"/>
       <use x="139.013672" xlink:href="#ArialMT-50"/>
       <use x="194.628906" xlink:href="#ArialMT-54"/>
       <use x="250.244141" xlink:href="#ArialMT-54"/>
      </g>
     </g>
    </g>
    <g id="ytick_20">
     <g id="line2d_29">
      <path clip-path="url(#p44cf1ebebf)" d="M 521.085986 359.749206 
L 547.707157 359.749206 
" style="fill:none;stroke:#ffffff;stroke-linecap:round;"/>
     </g>
     <g id="line2d_30">
      <g>
       <use style="fill:#262626;stroke:#262626;stroke-width:1.25;" x="547.707157" xlink:href="#m7b15f79b86" y="359.749206"/>
      </g>
     </g>
     <g id="text_16">
      <!-- 0.5316 -->
      <g style="fill:#262626;" transform="translate(557.207157 370.485925)scale(0.3 -0.3)">
       <use xlink:href="#ArialMT-48"/>
       <use x="55.615234" xlink:href="#ArialMT-46"/>
       <use x="83.398438" xlink:href="#ArialMT-53"/>
       <use x="139.013672" xlink:href="#ArialMT-51"/>
       <use x="194.628906" xlink:href="#ArialMT-49"/>
       <use x="250.244141" xlink:href="#ArialMT-54"/>
      </g>
     </g>
    </g>
    <g id="ytick_21">
     <g id="line2d_31">
      <path clip-path="url(#p44cf1ebebf)" d="M 521.085986 300.591048 
L 547.707157 300.591048 
" style="fill:none;stroke:#ffffff;stroke-linecap:round;"/>
     </g>
     <g id="line2d_32">
      <g>
       <use style="fill:#262626;stroke:#262626;stroke-width:1.25;" x="547.707157" xlink:href="#m7b15f79b86" y="300.591048"/>
      </g>
     </g>
     <g id="text_17">
      <!-- 0.6430 -->
      <g style="fill:#262626;" transform="translate(557.207157 311.327766)scale(0.3 -0.3)">
       <use xlink:href="#ArialMT-48"/>
       <use x="55.615234" xlink:href="#ArialMT-46"/>
       <use x="83.398438" xlink:href="#ArialMT-54"/>
       <use x="139.013672" xlink:href="#ArialMT-52"/>
       <use x="194.628906" xlink:href="#ArialMT-51"/>
       <use x="250.244141" xlink:href="#ArialMT-48"/>
      </g>
     </g>
    </g>
    <g id="ytick_22">
     <g id="line2d_33">
      <path clip-path="url(#p44cf1ebebf)" d="M 521.085986 241.432889 
L 547.707157 241.432889 
" style="fill:none;stroke:#ffffff;stroke-linecap:round;"/>
     </g>
     <g id="line2d_34">
      <g>
       <use style="fill:#262626;stroke:#262626;stroke-width:1.25;" x="547.707157" xlink:href="#m7b15f79b86" y="241.432889"/>
      </g>
     </g>
     <g id="text_18">
      <!-- 0.7552 -->
      <g style="fill:#262626;" transform="translate(557.207157 252.169608)scale(0.3 -0.3)">
       <use xlink:href="#ArialMT-48"/>
       <use x="55.615234" xlink:href="#ArialMT-46"/>
       <use x="83.398438" xlink:href="#ArialMT-55"/>
       <use x="139.013672" xlink:href="#ArialMT-53"/>
       <use x="194.628906" xlink:href="#ArialMT-53"/>
       <use x="250.244141" xlink:href="#ArialMT-50"/>
      </g>
     </g>
    </g>
    <g id="ytick_23">
     <g id="line2d_35">
      <path clip-path="url(#p44cf1ebebf)" d="M 521.085986 182.27473 
L 547.707157 182.27473 
" style="fill:none;stroke:#ffffff;stroke-linecap:round;"/>
     </g>
     <g id="line2d_36">
      <g>
       <use style="fill:#262626;stroke:#262626;stroke-width:1.25;" x="547.707157" xlink:href="#m7b15f79b86" y="182.27473"/>
      </g>
     </g>
     <g id="text_19">
      <!-- 0.8685 -->
      <g style="fill:#262626;" transform="translate(557.207157 193.011449)scale(0.3 -0.3)">
       <use xlink:href="#ArialMT-48"/>
       <use x="55.615234" xlink:href="#ArialMT-46"/>
       <use x="83.398438" xlink:href="#ArialMT-56"/>
       <use x="139.013672" xlink:href="#ArialMT-54"/>
       <use x="194.628906" xlink:href="#ArialMT-56"/>
       <use x="250.244141" xlink:href="#ArialMT-53"/>
      </g>
     </g>
    </g>
    <g id="ytick_24">
     <g id="line2d_37">
      <path clip-path="url(#p44cf1ebebf)" d="M 521.085986 123.116571 
L 547.707157 123.116571 
" style="fill:none;stroke:#ffffff;stroke-linecap:round;"/>
     </g>
     <g id="line2d_38">
      <g>
       <use style="fill:#262626;stroke:#262626;stroke-width:1.25;" x="547.707157" xlink:href="#m7b15f79b86" y="123.116571"/>
      </g>
     </g>
     <g id="text_20">
      <!-- 0.9654 -->
      <g style="fill:#262626;" transform="translate(557.207157 133.85329)scale(0.3 -0.3)">
       <use xlink:href="#ArialMT-48"/>
       <use x="55.615234" xlink:href="#ArialMT-46"/>
       <use x="83.398438" xlink:href="#ArialMT-57"/>
       <use x="139.013672" xlink:href="#ArialMT-54"/>
       <use x="194.628906" xlink:href="#ArialMT-53"/>
       <use x="250.244141" xlink:href="#ArialMT-52"/>
      </g>
     </g>
    </g>
   </g>
   <g id="LineCollection_11">
    <path clip-path="url(#p44cf1ebebf)" d="M 521.085986 655.54 
L 547.707157 655.54 
" style="fill:none;stroke:#008000;stroke-width:1.5;"/>
    <path clip-path="url(#p44cf1ebebf)" d="M 521.085986 596.381841 
L 547.707157 596.381841 
" style="fill:none;stroke:#008000;stroke-width:1.5;"/>
    <path clip-path="url(#p44cf1ebebf)" d="M 521.085986 537.223683 
L 547.707157 537.223683 
" style="fill:none;stroke:#008000;stroke-width:1.5;"/>
    <path clip-path="url(#p44cf1ebebf)" d="M 521.085986 478.065524 
L 547.707157 478.065524 
" style="fill:none;stroke:#008000;stroke-width:1.5;"/>
    <path clip-path="url(#p44cf1ebebf)" d="M 521.085986 418.907365 
L 547.707157 418.907365 
" style="fill:none;stroke:#008000;stroke-width:1.5;"/>
    <path clip-path="url(#p44cf1ebebf)" d="M 521.085986 359.749206 
L 547.707157 359.749206 
" style="fill:none;stroke:#008000;stroke-width:1.5;"/>
    <path clip-path="url(#p44cf1ebebf)" d="M 521.085986 300.591048 
L 547.707157 300.591048 
" style="fill:none;stroke:#008000;stroke-width:1.5;"/>
    <path clip-path="url(#p44cf1ebebf)" d="M 521.085986 241.432889 
L 547.707157 241.432889 
" style="fill:none;stroke:#008000;stroke-width:1.5;"/>
    <path clip-path="url(#p44cf1ebebf)" d="M 521.085986 182.27473 
L 547.707157 182.27473 
" style="fill:none;stroke:#008000;stroke-width:1.5;"/>
    <path clip-path="url(#p44cf1ebebf)" d="M 521.085986 123.116571 
L 547.707157 123.116571 
" style="fill:none;stroke:#008000;stroke-width:1.5;"/>
   </g>
   <g id="patch_10">
    <path d="M 521.085986 655.54 
L 521.085986 596.381841 
L 521.085986 182.27473 
L 521.085986 123.116571 
L 547.707157 123.116571 
L 547.707157 182.27473 
L 547.707157 596.381841 
L 547.707157 655.54 
z
" style="fill:none;stroke:#ffffff;stroke-linejoin:miter;stroke-width:1.25;"/>
   </g>
  </g>
 </g>
 <defs>
  <clipPath id="pd72897ec2b">
   <rect height="532.423429" width="416.824457" x="78.21" y="123.116571"/>
  </clipPath>
  <clipPath id="pccad770790">
   <rect height="91.797143" width="521.030571" x="78.21" y="12.96"/>
  </clipPath>
  <clipPath id="p61ae4f6b14">
   <rect height="532.423429" width="89.832857" x="617.207143" y="123.116571"/>
  </clipPath>
  <clipPath id="p44cf1ebebf">
   <rect height="532.423429" width="26.621171" x="521.085986" y="123.116571"/>
  </clipPath>
 </defs>
</svg>
