<?xml version="1.0" encoding="utf-8" standalone="no"?>
<!DOCTYPE svg PUBLIC "-//W3C//DTD SVG 1.1//EN"
  "http://www.w3.org/Graphics/SVG/1.1/DTD/svg11.dtd">
<!-- Created with matplotlib (https://matplotlib.org/) -->
<svg height="720pt" version="1.1" viewBox="0 0 720 720" width="720pt" xmlns="http://www.w3.org/2000/svg" xmlns:xlink="http://www.w3.org/1999/xlink">
 <metadata>
  <rdf:RDF xmlns:cc="http://creativecommons.org/ns#" xmlns:dc="http://purl.org/dc/elements/1.1/" xmlns:rdf="http://www.w3.org/1999/02/22-rdf-syntax-ns#">
   <cc:Work>
    <dc:type rdf:resource="http://purl.org/dc/dcmitype/StillImage"/>
    <dc:date>2021-06-05T11:00:14.976730</dc:date>
    <dc:format>image/svg+xml</dc:format>
    <dc:creator>
     <cc:Agent>
      <dc:title>Matplotlib v3.3.4, https://matplotlib.org/</dc:title>
     </cc:Agent>
    </dc:creator>
   </cc:Work>
  </rdf:RDF>
 </metadata>
 <defs>
  <style type="text/css">*{stroke-linecap:butt;stroke-linejoin:round;}</style>
 </defs>
 <g id="figure_1">
  <g id="patch_1">
   <path d="M 0 720 
L 720 720 
L 720 0 
L 0 0 
z
" style="fill:#ffffff;"/>
  </g>
  <g id="axes_1">
   <g id="patch_2">
    <path d="M 78.21 655.54 
L 495.034457 655.54 
L 495.034457 123.116571 
L 78.21 123.116571 
z
" style="fill:#eaeaf2;"/>
   </g>
   <g id="matplotlib.axis_1">
    <g id="xtick_1">
     <g id="line2d_1">
      <path clip-path="url(#p573d2efb1b)" d="M 122.10125 655.54 
L 122.10125 123.116571 
" style="fill:none;stroke:#ffffff;stroke-linecap:round;"/>
     </g>
     <g id="text_1">
      <!-- 0 -->
      <g style="fill:#262626;" transform="translate(113.759844 686.513438)scale(0.3 -0.3)">
       <defs>
        <path d="M 4.15625 35.296875 
Q 4.15625 48 6.765625 55.734375 
Q 9.375 63.484375 14.515625 67.671875 
Q 19.671875 71.875 27.484375 71.875 
Q 33.25 71.875 37.59375 69.546875 
Q 41.9375 67.234375 44.765625 62.859375 
Q 47.609375 58.5 49.21875 52.21875 
Q 50.828125 45.953125 50.828125 35.296875 
Q 50.828125 22.703125 48.234375 14.96875 
Q 45.65625 7.234375 40.5 3 
Q 35.359375 -1.21875 27.484375 -1.21875 
Q 17.140625 -1.21875 11.234375 6.203125 
Q 4.15625 15.140625 4.15625 35.296875 
z
M 13.1875 35.296875 
Q 13.1875 17.671875 17.3125 11.828125 
Q 21.4375 6 27.484375 6 
Q 33.546875 6 37.671875 11.859375 
Q 41.796875 17.71875 41.796875 35.296875 
Q 41.796875 52.984375 37.671875 58.78125 
Q 33.546875 64.59375 27.390625 64.59375 
Q 21.34375 64.59375 17.71875 59.46875 
Q 13.1875 52.9375 13.1875 35.296875 
z
" id="ArialMT-48"/>
       </defs>
       <use xlink:href="#ArialMT-48"/>
      </g>
     </g>
    </g>
    <g id="xtick_2">
     <g id="line2d_2">
      <path clip-path="url(#p573d2efb1b)" d="M 240.979187 655.54 
L 240.979187 123.116571 
" style="fill:none;stroke:#ffffff;stroke-linecap:round;"/>
     </g>
     <g id="text_2">
      <!-- 1 -->
      <g style="fill:#262626;" transform="translate(232.63778 686.513438)scale(0.3 -0.3)">
       <defs>
        <path d="M 37.25 0 
L 28.46875 0 
L 28.46875 56 
Q 25.296875 52.984375 20.140625 49.953125 
Q 14.984375 46.921875 10.890625 45.40625 
L 10.890625 53.90625 
Q 18.265625 57.375 23.78125 62.296875 
Q 29.296875 67.234375 31.59375 71.875 
L 37.25 71.875 
z
" id="ArialMT-49"/>
       </defs>
       <use xlink:href="#ArialMT-49"/>
      </g>
     </g>
    </g>
    <g id="xtick_3">
     <g id="line2d_3">
      <path clip-path="url(#p573d2efb1b)" d="M 359.857123 655.54 
L 359.857123 123.116571 
" style="fill:none;stroke:#ffffff;stroke-linecap:round;"/>
     </g>
     <g id="text_3">
      <!-- 2 -->
      <g style="fill:#262626;" transform="translate(351.515717 686.513438)scale(0.3 -0.3)">
       <defs>
        <path d="M 50.34375 8.453125 
L 50.34375 0 
L 3.03125 0 
Q 2.9375 3.171875 4.046875 6.109375 
Q 5.859375 10.9375 9.828125 15.625 
Q 13.8125 20.3125 21.34375 26.46875 
Q 33.015625 36.03125 37.109375 41.625 
Q 41.21875 47.21875 41.21875 52.203125 
Q 41.21875 57.421875 37.46875 61 
Q 33.734375 64.59375 27.734375 64.59375 
Q 21.390625 64.59375 17.578125 60.78125 
Q 13.765625 56.984375 13.71875 50.25 
L 4.6875 51.171875 
Q 5.609375 61.28125 11.65625 66.578125 
Q 17.71875 71.875 27.9375 71.875 
Q 38.234375 71.875 44.234375 66.15625 
Q 50.25 60.453125 50.25 52 
Q 50.25 47.703125 48.484375 43.546875 
Q 46.734375 39.40625 42.65625 34.8125 
Q 38.578125 30.21875 29.109375 22.21875 
Q 21.1875 15.578125 18.9375 13.203125 
Q 16.703125 10.84375 15.234375 8.453125 
z
" id="ArialMT-50"/>
       </defs>
       <use xlink:href="#ArialMT-50"/>
      </g>
     </g>
    </g>
    <g id="xtick_4">
     <g id="line2d_4">
      <path clip-path="url(#p573d2efb1b)" d="M 478.73506 655.54 
L 478.73506 123.116571 
" style="fill:none;stroke:#ffffff;stroke-linecap:round;"/>
     </g>
     <g id="text_4">
      <!-- 3 -->
      <g style="fill:#262626;" transform="translate(470.393653 686.513438)scale(0.3 -0.3)">
       <defs>
        <path d="M 4.203125 18.890625 
L 12.984375 20.0625 
Q 14.5 12.59375 18.140625 9.296875 
Q 21.78125 6 27 6 
Q 33.203125 6 37.46875 10.296875 
Q 41.75 14.59375 41.75 20.953125 
Q 41.75 27 37.796875 30.921875 
Q 33.84375 34.859375 27.734375 34.859375 
Q 25.25 34.859375 21.53125 33.890625 
L 22.515625 41.609375 
Q 23.390625 41.5 23.921875 41.5 
Q 29.546875 41.5 34.03125 44.421875 
Q 38.53125 47.359375 38.53125 53.46875 
Q 38.53125 58.296875 35.25 61.46875 
Q 31.984375 64.65625 26.8125 64.65625 
Q 21.6875 64.65625 18.265625 61.421875 
Q 14.84375 58.203125 13.875 51.765625 
L 5.078125 53.328125 
Q 6.6875 62.15625 12.390625 67.015625 
Q 18.109375 71.875 26.609375 71.875 
Q 32.46875 71.875 37.390625 69.359375 
Q 42.328125 66.84375 44.9375 62.5 
Q 47.5625 58.15625 47.5625 53.265625 
Q 47.5625 48.640625 45.0625 44.828125 
Q 42.578125 41.015625 37.703125 38.765625 
Q 44.046875 37.3125 47.5625 32.6875 
Q 51.078125 28.078125 51.078125 21.140625 
Q 51.078125 11.765625 44.234375 5.25 
Q 37.40625 -1.265625 26.953125 -1.265625 
Q 17.53125 -1.265625 11.296875 4.34375 
Q 5.078125 9.96875 4.203125 18.890625 
z
" id="ArialMT-51"/>
       </defs>
       <use xlink:href="#ArialMT-51"/>
      </g>
     </g>
    </g>
    <g id="text_5">
     <!-- iREF log(Degree) -->
     <g style="fill:#262626;" transform="translate(131.025354 725.594687)scale(0.4 -0.4)">
      <defs>
       <path d="M 6.640625 61.46875 
L 6.640625 71.578125 
L 15.4375 71.578125 
L 15.4375 61.46875 
z
M 6.640625 0 
L 6.640625 51.859375 
L 15.4375 51.859375 
L 15.4375 0 
z
" id="ArialMT-105"/>
       <path d="M 7.859375 0 
L 7.859375 71.578125 
L 39.59375 71.578125 
Q 49.171875 71.578125 54.140625 69.640625 
Q 59.125 67.71875 62.109375 62.828125 
Q 65.09375 57.953125 65.09375 52.046875 
Q 65.09375 44.4375 60.15625 39.203125 
Q 55.21875 33.984375 44.921875 32.5625 
Q 48.6875 30.765625 50.640625 29 
Q 54.78125 25.203125 58.5 19.484375 
L 70.953125 0 
L 59.03125 0 
L 49.5625 14.890625 
Q 45.40625 21.34375 42.71875 24.75 
Q 40.046875 28.171875 37.921875 29.53125 
Q 35.796875 30.90625 33.59375 31.453125 
Q 31.984375 31.78125 28.328125 31.78125 
L 17.328125 31.78125 
L 17.328125 0 
z
M 17.328125 39.984375 
L 37.703125 39.984375 
Q 44.1875 39.984375 47.84375 41.328125 
Q 51.515625 42.671875 53.421875 45.625 
Q 55.328125 48.578125 55.328125 52.046875 
Q 55.328125 57.125 51.640625 60.390625 
Q 47.953125 63.671875 39.984375 63.671875 
L 17.328125 63.671875 
z
" id="ArialMT-82"/>
       <path d="M 7.90625 0 
L 7.90625 71.578125 
L 59.671875 71.578125 
L 59.671875 63.140625 
L 17.390625 63.140625 
L 17.390625 41.21875 
L 56.984375 41.21875 
L 56.984375 32.8125 
L 17.390625 32.8125 
L 17.390625 8.453125 
L 61.328125 8.453125 
L 61.328125 0 
z
" id="ArialMT-69"/>
       <path d="M 8.203125 0 
L 8.203125 71.578125 
L 56.5 71.578125 
L 56.5 63.140625 
L 17.671875 63.140625 
L 17.671875 40.96875 
L 51.265625 40.96875 
L 51.265625 32.515625 
L 17.671875 32.515625 
L 17.671875 0 
z
" id="ArialMT-70"/>
       <path id="ArialMT-32"/>
       <path d="M 6.390625 0 
L 6.390625 71.578125 
L 15.1875 71.578125 
L 15.1875 0 
z
" id="ArialMT-108"/>
       <path d="M 3.328125 25.921875 
Q 3.328125 40.328125 11.328125 47.265625 
Q 18.015625 53.03125 27.640625 53.03125 
Q 38.328125 53.03125 45.109375 46.015625 
Q 51.90625 39.015625 51.90625 26.65625 
Q 51.90625 16.65625 48.90625 10.90625 
Q 45.90625 5.171875 40.15625 2 
Q 34.421875 -1.171875 27.640625 -1.171875 
Q 16.75 -1.171875 10.03125 5.8125 
Q 3.328125 12.796875 3.328125 25.921875 
z
M 12.359375 25.921875 
Q 12.359375 15.96875 16.703125 11.015625 
Q 21.046875 6.0625 27.640625 6.0625 
Q 34.1875 6.0625 38.53125 11.03125 
Q 42.875 16.015625 42.875 26.21875 
Q 42.875 35.84375 38.5 40.796875 
Q 34.125 45.75 27.640625 45.75 
Q 21.046875 45.75 16.703125 40.8125 
Q 12.359375 35.890625 12.359375 25.921875 
z
" id="ArialMT-111"/>
       <path d="M 4.984375 -4.296875 
L 13.53125 -5.5625 
Q 14.0625 -9.515625 16.5 -11.328125 
Q 19.78125 -13.765625 25.4375 -13.765625 
Q 31.546875 -13.765625 34.859375 -11.328125 
Q 38.1875 -8.890625 39.359375 -4.5 
Q 40.046875 -1.8125 39.984375 6.78125 
Q 34.234375 0 25.640625 0 
Q 14.9375 0 9.078125 7.71875 
Q 3.21875 15.4375 3.21875 26.21875 
Q 3.21875 33.640625 5.90625 39.90625 
Q 8.59375 46.1875 13.6875 49.609375 
Q 18.796875 53.03125 25.6875 53.03125 
Q 34.859375 53.03125 40.828125 45.609375 
L 40.828125 51.859375 
L 48.921875 51.859375 
L 48.921875 7.03125 
Q 48.921875 -5.078125 46.453125 -10.125 
Q 44 -15.1875 38.640625 -18.109375 
Q 33.296875 -21.046875 25.484375 -21.046875 
Q 16.21875 -21.046875 10.5 -16.875 
Q 4.78125 -12.703125 4.984375 -4.296875 
z
M 12.25 26.859375 
Q 12.25 16.65625 16.296875 11.96875 
Q 20.359375 7.28125 26.46875 7.28125 
Q 32.515625 7.28125 36.609375 11.9375 
Q 40.71875 16.609375 40.71875 26.5625 
Q 40.71875 36.078125 36.5 40.90625 
Q 32.28125 45.75 26.3125 45.75 
Q 20.453125 45.75 16.34375 40.984375 
Q 12.25 36.234375 12.25 26.859375 
z
" id="ArialMT-103"/>
       <path d="M 23.390625 -21.046875 
Q 16.109375 -11.859375 11.078125 0.4375 
Q 6.0625 12.75 6.0625 25.921875 
Q 6.0625 37.546875 9.8125 48.1875 
Q 14.203125 60.546875 23.390625 72.796875 
L 29.6875 72.796875 
Q 23.78125 62.640625 21.875 58.296875 
Q 18.890625 51.5625 17.1875 44.234375 
Q 15.09375 35.109375 15.09375 25.875 
Q 15.09375 2.390625 29.6875 -21.046875 
z
" id="ArialMT-40"/>
       <path d="M 7.71875 0 
L 7.71875 71.578125 
L 32.375 71.578125 
Q 40.71875 71.578125 45.125 70.5625 
Q 51.265625 69.140625 55.609375 65.4375 
Q 61.28125 60.640625 64.078125 53.1875 
Q 66.890625 45.75 66.890625 36.1875 
Q 66.890625 28.03125 64.984375 21.734375 
Q 63.09375 15.4375 60.109375 11.296875 
Q 57.125 7.171875 53.578125 4.796875 
Q 50.046875 2.4375 45.046875 1.21875 
Q 40.046875 0 33.546875 0 
z
M 17.1875 8.453125 
L 32.46875 8.453125 
Q 39.546875 8.453125 43.578125 9.765625 
Q 47.609375 11.078125 50 13.484375 
Q 53.375 16.84375 55.25 22.53125 
Q 57.125 28.21875 57.125 36.328125 
Q 57.125 47.5625 53.4375 53.59375 
Q 49.75 59.625 44.484375 61.671875 
Q 40.671875 63.140625 32.234375 63.140625 
L 17.1875 63.140625 
z
" id="ArialMT-68"/>
       <path d="M 42.09375 16.703125 
L 51.171875 15.578125 
Q 49.03125 7.625 43.21875 3.21875 
Q 37.40625 -1.171875 28.375 -1.171875 
Q 17 -1.171875 10.328125 5.828125 
Q 3.65625 12.84375 3.65625 25.484375 
Q 3.65625 38.578125 10.390625 45.796875 
Q 17.140625 53.03125 27.875 53.03125 
Q 38.28125 53.03125 44.875 45.953125 
Q 51.46875 38.875 51.46875 26.03125 
Q 51.46875 25.25 51.421875 23.6875 
L 12.75 23.6875 
Q 13.234375 15.140625 17.578125 10.59375 
Q 21.921875 6.0625 28.421875 6.0625 
Q 33.25 6.0625 36.671875 8.59375 
Q 40.09375 11.140625 42.09375 16.703125 
z
M 13.234375 30.90625 
L 42.1875 30.90625 
Q 41.609375 37.453125 38.875 40.71875 
Q 34.671875 45.796875 27.984375 45.796875 
Q 21.921875 45.796875 17.796875 41.75 
Q 13.671875 37.703125 13.234375 30.90625 
z
" id="ArialMT-101"/>
       <path d="M 6.5 0 
L 6.5 51.859375 
L 14.40625 51.859375 
L 14.40625 44 
Q 17.4375 49.515625 20 51.265625 
Q 22.5625 53.03125 25.640625 53.03125 
Q 30.078125 53.03125 34.671875 50.203125 
L 31.640625 42.046875 
Q 28.421875 43.953125 25.203125 43.953125 
Q 22.3125 43.953125 20.015625 42.21875 
Q 17.71875 40.484375 16.75 37.40625 
Q 15.28125 32.71875 15.28125 27.15625 
L 15.28125 0 
z
" id="ArialMT-114"/>
       <path d="M 12.359375 -21.046875 
L 6.0625 -21.046875 
Q 20.65625 2.390625 20.65625 25.875 
Q 20.65625 35.0625 18.5625 44.09375 
Q 16.890625 51.421875 13.921875 58.15625 
Q 12.015625 62.546875 6.0625 72.796875 
L 12.359375 72.796875 
Q 21.53125 60.546875 25.921875 48.1875 
Q 29.6875 37.546875 29.6875 25.921875 
Q 29.6875 12.75 24.625 0.4375 
Q 19.578125 -11.859375 12.359375 -21.046875 
z
" id="ArialMT-41"/>
      </defs>
      <use xlink:href="#ArialMT-105"/>
      <use x="22.216797" xlink:href="#ArialMT-82"/>
      <use x="94.433594" xlink:href="#ArialMT-69"/>
      <use x="161.132812" xlink:href="#ArialMT-70"/>
      <use x="222.216797" xlink:href="#ArialMT-32"/>
      <use x="250" xlink:href="#ArialMT-108"/>
      <use x="272.216797" xlink:href="#ArialMT-111"/>
      <use x="327.832031" xlink:href="#ArialMT-103"/>
      <use x="383.447266" xlink:href="#ArialMT-40"/>
      <use x="416.748047" xlink:href="#ArialMT-68"/>
      <use x="488.964844" xlink:href="#ArialMT-101"/>
      <use x="544.580078" xlink:href="#ArialMT-103"/>
      <use x="600.195312" xlink:href="#ArialMT-114"/>
      <use x="633.496094" xlink:href="#ArialMT-101"/>
      <use x="689.111328" xlink:href="#ArialMT-101"/>
      <use x="744.726562" xlink:href="#ArialMT-41"/>
     </g>
    </g>
   </g>
   <g id="matplotlib.axis_2">
    <g id="ytick_1">
     <g id="line2d_5">
      <path clip-path="url(#p573d2efb1b)" d="M 78.21 614.520443 
L 495.034457 614.520443 
" style="fill:none;stroke:#ffffff;stroke-linecap:round;"/>
     </g>
     <g id="text_6">
      <!-- 0.0 -->
      <g style="fill:#262626;" transform="translate(27.01 625.257162)scale(0.3 -0.3)">
       <defs>
        <path d="M 9.078125 0 
L 9.078125 10.015625 
L 19.09375 10.015625 
L 19.09375 0 
z
" id="ArialMT-46"/>
       </defs>
       <use xlink:href="#ArialMT-48"/>
       <use x="55.615234" xlink:href="#ArialMT-46"/>
       <use x="83.398438" xlink:href="#ArialMT-48"/>
      </g>
     </g>
    </g>
    <g id="ytick_2">
     <g id="line2d_6">
      <path clip-path="url(#p573d2efb1b)" d="M 78.21 516.280041 
L 495.034457 516.280041 
" style="fill:none;stroke:#ffffff;stroke-linecap:round;"/>
     </g>
     <g id="text_7">
      <!-- 0.5 -->
      <g style="fill:#262626;" transform="translate(27.01 527.01676)scale(0.3 -0.3)">
       <defs>
        <path d="M 4.15625 18.75 
L 13.375 19.53125 
Q 14.40625 12.796875 18.140625 9.390625 
Q 21.875 6 27.15625 6 
Q 33.5 6 37.890625 10.78125 
Q 42.28125 15.578125 42.28125 23.484375 
Q 42.28125 31 38.0625 35.34375 
Q 33.84375 39.703125 27 39.703125 
Q 22.75 39.703125 19.328125 37.765625 
Q 15.921875 35.84375 13.96875 32.765625 
L 5.71875 33.84375 
L 12.640625 70.609375 
L 48.25 70.609375 
L 48.25 62.203125 
L 19.671875 62.203125 
L 15.828125 42.96875 
Q 22.265625 47.46875 29.34375 47.46875 
Q 38.71875 47.46875 45.15625 40.96875 
Q 51.609375 34.46875 51.609375 24.265625 
Q 51.609375 14.546875 45.953125 7.46875 
Q 39.0625 -1.21875 27.15625 -1.21875 
Q 17.390625 -1.21875 11.203125 4.25 
Q 5.03125 9.71875 4.15625 18.75 
z
" id="ArialMT-53"/>
       </defs>
       <use xlink:href="#ArialMT-48"/>
       <use x="55.615234" xlink:href="#ArialMT-46"/>
       <use x="83.398438" xlink:href="#ArialMT-53"/>
      </g>
     </g>
    </g>
    <g id="ytick_3">
     <g id="line2d_7">
      <path clip-path="url(#p573d2efb1b)" d="M 78.21 418.03964 
L 495.034457 418.03964 
" style="fill:none;stroke:#ffffff;stroke-linecap:round;"/>
     </g>
     <g id="text_8">
      <!-- 1.0 -->
      <g style="fill:#262626;" transform="translate(27.01 428.776358)scale(0.3 -0.3)">
       <use xlink:href="#ArialMT-49"/>
       <use x="55.615234" xlink:href="#ArialMT-46"/>
       <use x="83.398438" xlink:href="#ArialMT-48"/>
      </g>
     </g>
    </g>
    <g id="ytick_4">
     <g id="line2d_8">
      <path clip-path="url(#p573d2efb1b)" d="M 78.21 319.799238 
L 495.034457 319.799238 
" style="fill:none;stroke:#ffffff;stroke-linecap:round;"/>
     </g>
     <g id="text_9">
      <!-- 1.5 -->
      <g style="fill:#262626;" transform="translate(27.01 330.535957)scale(0.3 -0.3)">
       <use xlink:href="#ArialMT-49"/>
       <use x="55.615234" xlink:href="#ArialMT-46"/>
       <use x="83.398438" xlink:href="#ArialMT-53"/>
      </g>
     </g>
    </g>
    <g id="ytick_5">
     <g id="line2d_9">
      <path clip-path="url(#p573d2efb1b)" d="M 78.21 221.558836 
L 495.034457 221.558836 
" style="fill:none;stroke:#ffffff;stroke-linecap:round;"/>
     </g>
     <g id="text_10">
      <!-- 2.0 -->
      <g style="fill:#262626;" transform="translate(27.01 232.295555)scale(0.3 -0.3)">
       <use xlink:href="#ArialMT-50"/>
       <use x="55.615234" xlink:href="#ArialMT-46"/>
       <use x="83.398438" xlink:href="#ArialMT-48"/>
      </g>
     </g>
    </g>
    <g id="ytick_6">
     <g id="line2d_10">
      <path clip-path="url(#p573d2efb1b)" d="M 78.21 123.318434 
L 495.034457 123.318434 
" style="fill:none;stroke:#ffffff;stroke-linecap:round;"/>
     </g>
     <g id="text_11">
      <!-- 2.5 -->
      <g style="fill:#262626;" transform="translate(27.01 134.055153)scale(0.3 -0.3)">
       <use xlink:href="#ArialMT-50"/>
       <use x="55.615234" xlink:href="#ArialMT-46"/>
       <use x="83.398438" xlink:href="#ArialMT-53"/>
      </g>
     </g>
    </g>
    <g id="text_12">
     <!-- log(Publication_count) -->
     <g style="fill:#262626;" transform="translate(14.59125 587.215786)rotate(-90)scale(0.4 -0.4)">
      <defs>
       <path d="M 7.71875 0 
L 7.71875 71.578125 
L 34.71875 71.578125 
Q 41.84375 71.578125 45.609375 70.90625 
Q 50.875 70.015625 54.4375 67.546875 
Q 58.015625 65.09375 60.1875 60.640625 
Q 62.359375 56.203125 62.359375 50.875 
Q 62.359375 41.75 56.546875 35.421875 
Q 50.734375 29.109375 35.546875 29.109375 
L 17.1875 29.109375 
L 17.1875 0 
z
M 17.1875 37.546875 
L 35.6875 37.546875 
Q 44.875 37.546875 48.734375 40.96875 
Q 52.59375 44.390625 52.59375 50.59375 
Q 52.59375 55.078125 50.3125 58.265625 
Q 48.046875 61.46875 44.34375 62.5 
Q 41.9375 63.140625 35.5 63.140625 
L 17.1875 63.140625 
z
" id="ArialMT-80"/>
       <path d="M 40.578125 0 
L 40.578125 7.625 
Q 34.515625 -1.171875 24.125 -1.171875 
Q 19.53125 -1.171875 15.546875 0.578125 
Q 11.578125 2.34375 9.640625 5 
Q 7.71875 7.671875 6.9375 11.53125 
Q 6.390625 14.109375 6.390625 19.734375 
L 6.390625 51.859375 
L 15.1875 51.859375 
L 15.1875 23.09375 
Q 15.1875 16.21875 15.71875 13.8125 
Q 16.546875 10.359375 19.234375 8.375 
Q 21.921875 6.390625 25.875 6.390625 
Q 29.828125 6.390625 33.296875 8.421875 
Q 36.765625 10.453125 38.203125 13.9375 
Q 39.65625 17.4375 39.65625 24.078125 
L 39.65625 51.859375 
L 48.4375 51.859375 
L 48.4375 0 
z
" id="ArialMT-117"/>
       <path d="M 14.703125 0 
L 6.546875 0 
L 6.546875 71.578125 
L 15.328125 71.578125 
L 15.328125 46.046875 
Q 20.90625 53.03125 29.546875 53.03125 
Q 34.328125 53.03125 38.59375 51.09375 
Q 42.875 49.171875 45.625 45.671875 
Q 48.390625 42.1875 49.953125 37.25 
Q 51.515625 32.328125 51.515625 26.703125 
Q 51.515625 13.375 44.921875 6.09375 
Q 38.328125 -1.171875 29.109375 -1.171875 
Q 19.921875 -1.171875 14.703125 6.5 
z
M 14.59375 26.3125 
Q 14.59375 17 17.140625 12.84375 
Q 21.296875 6.0625 28.375 6.0625 
Q 34.125 6.0625 38.328125 11.0625 
Q 42.53125 16.0625 42.53125 25.984375 
Q 42.53125 36.140625 38.5 40.96875 
Q 34.46875 45.796875 28.765625 45.796875 
Q 23 45.796875 18.796875 40.796875 
Q 14.59375 35.796875 14.59375 26.3125 
z
" id="ArialMT-98"/>
       <path d="M 40.4375 19 
L 49.078125 17.875 
Q 47.65625 8.9375 41.8125 3.875 
Q 35.984375 -1.171875 27.484375 -1.171875 
Q 16.84375 -1.171875 10.375 5.78125 
Q 3.90625 12.75 3.90625 25.734375 
Q 3.90625 34.125 6.6875 40.421875 
Q 9.46875 46.734375 15.15625 49.875 
Q 20.84375 53.03125 27.546875 53.03125 
Q 35.984375 53.03125 41.359375 48.75 
Q 46.734375 44.484375 48.25 36.625 
L 39.703125 35.296875 
Q 38.484375 40.53125 35.375 43.15625 
Q 32.28125 45.796875 27.875 45.796875 
Q 21.234375 45.796875 17.078125 41.03125 
Q 12.9375 36.28125 12.9375 25.984375 
Q 12.9375 15.53125 16.9375 10.796875 
Q 20.953125 6.0625 27.390625 6.0625 
Q 32.5625 6.0625 36.03125 9.234375 
Q 39.5 12.40625 40.4375 19 
z
" id="ArialMT-99"/>
       <path d="M 40.4375 6.390625 
Q 35.546875 2.25 31.03125 0.53125 
Q 26.515625 -1.171875 21.34375 -1.171875 
Q 12.796875 -1.171875 8.203125 3 
Q 3.609375 7.171875 3.609375 13.671875 
Q 3.609375 17.484375 5.34375 20.625 
Q 7.078125 23.78125 9.890625 25.6875 
Q 12.703125 27.59375 16.21875 28.5625 
Q 18.796875 29.25 24.03125 29.890625 
Q 34.671875 31.15625 39.703125 32.90625 
Q 39.75 34.71875 39.75 35.203125 
Q 39.75 40.578125 37.25 42.78125 
Q 33.890625 45.75 27.25 45.75 
Q 21.046875 45.75 18.09375 43.578125 
Q 15.140625 41.40625 13.71875 35.890625 
L 5.125 37.0625 
Q 6.296875 42.578125 8.984375 45.96875 
Q 11.671875 49.359375 16.75 51.1875 
Q 21.828125 53.03125 28.515625 53.03125 
Q 35.15625 53.03125 39.296875 51.46875 
Q 43.453125 49.90625 45.40625 47.53125 
Q 47.359375 45.171875 48.140625 41.546875 
Q 48.578125 39.3125 48.578125 33.453125 
L 48.578125 21.734375 
Q 48.578125 9.46875 49.140625 6.21875 
Q 49.703125 2.984375 51.375 0 
L 42.1875 0 
Q 40.828125 2.734375 40.4375 6.390625 
z
M 39.703125 26.03125 
Q 34.90625 24.078125 25.34375 22.703125 
Q 19.921875 21.921875 17.671875 20.9375 
Q 15.4375 19.96875 14.203125 18.09375 
Q 12.984375 16.21875 12.984375 13.921875 
Q 12.984375 10.40625 15.640625 8.0625 
Q 18.3125 5.71875 23.4375 5.71875 
Q 28.515625 5.71875 32.46875 7.9375 
Q 36.421875 10.15625 38.28125 14.015625 
Q 39.703125 17 39.703125 22.796875 
z
" id="ArialMT-97"/>
       <path d="M 25.78125 7.859375 
L 27.046875 0.09375 
Q 23.34375 -0.6875 20.40625 -0.6875 
Q 15.625 -0.6875 12.984375 0.828125 
Q 10.359375 2.34375 9.28125 4.8125 
Q 8.203125 7.28125 8.203125 15.1875 
L 8.203125 45.015625 
L 1.765625 45.015625 
L 1.765625 51.859375 
L 8.203125 51.859375 
L 8.203125 64.703125 
L 16.9375 69.96875 
L 16.9375 51.859375 
L 25.78125 51.859375 
L 25.78125 45.015625 
L 16.9375 45.015625 
L 16.9375 14.703125 
Q 16.9375 10.9375 17.40625 9.859375 
Q 17.875 8.796875 18.921875 8.15625 
Q 19.96875 7.515625 21.921875 7.515625 
Q 23.390625 7.515625 25.78125 7.859375 
z
" id="ArialMT-116"/>
       <path d="M 6.59375 0 
L 6.59375 51.859375 
L 14.5 51.859375 
L 14.5 44.484375 
Q 20.21875 53.03125 31 53.03125 
Q 35.6875 53.03125 39.625 51.34375 
Q 43.5625 49.65625 45.515625 46.921875 
Q 47.46875 44.1875 48.25 40.4375 
Q 48.734375 37.984375 48.734375 31.890625 
L 48.734375 0 
L 39.9375 0 
L 39.9375 31.546875 
Q 39.9375 36.921875 38.90625 39.578125 
Q 37.890625 42.234375 35.28125 43.8125 
Q 32.671875 45.40625 29.15625 45.40625 
Q 23.53125 45.40625 19.453125 41.84375 
Q 15.375 38.28125 15.375 28.328125 
L 15.375 0 
z
" id="ArialMT-110"/>
       <path d="M -1.515625 -19.875 
L -1.515625 -13.53125 
L 56.734375 -13.53125 
L 56.734375 -19.875 
z
" id="ArialMT-95"/>
      </defs>
      <use xlink:href="#ArialMT-108"/>
      <use x="22.216797" xlink:href="#ArialMT-111"/>
      <use x="77.832031" xlink:href="#ArialMT-103"/>
      <use x="133.447266" xlink:href="#ArialMT-40"/>
      <use x="166.748047" xlink:href="#ArialMT-80"/>
      <use x="233.447266" xlink:href="#ArialMT-117"/>
      <use x="289.0625" xlink:href="#ArialMT-98"/>
      <use x="344.677734" xlink:href="#ArialMT-108"/>
      <use x="366.894531" xlink:href="#ArialMT-105"/>
      <use x="389.111328" xlink:href="#ArialMT-99"/>
      <use x="439.111328" xlink:href="#ArialMT-97"/>
      <use x="494.726562" xlink:href="#ArialMT-116"/>
      <use x="522.509766" xlink:href="#ArialMT-105"/>
      <use x="544.726562" xlink:href="#ArialMT-111"/>
      <use x="600.341797" xlink:href="#ArialMT-110"/>
      <use x="655.957031" xlink:href="#ArialMT-95"/>
      <use x="711.572266" xlink:href="#ArialMT-99"/>
      <use x="761.572266" xlink:href="#ArialMT-111"/>
      <use x="817.1875" xlink:href="#ArialMT-117"/>
      <use x="872.802734" xlink:href="#ArialMT-110"/>
      <use x="928.417969" xlink:href="#ArialMT-116"/>
      <use x="956.201172" xlink:href="#ArialMT-41"/>
     </g>
    </g>
   </g>
   <g id="LineCollection_1">
    <path clip-path="url(#p573d2efb1b)" d="M 105.439738 573.448537 
L 107.534334 574.379858 
L 109.628929 574.845472 
L 111.723524 574.986801 
L 113.818119 574.888477 
L 115.912715 574.599121 
L 118.00731 574.14351 
L 120.101905 573.53013 
L 124.291096 571.953876 
L 128.803165 569.924172 
L 134.764072 567.364368 
L 136.858667 566.733194 
L 138.953263 566.372764 
L 141.047858 566.375762 
L 143.142453 566.750897 
L 147.331644 567.886897 
L 149.426239 568.266513 
L 151.520834 568.43627 
L 153.615429 568.40005 
L 155.710025 568.181069 
L 157.80462 567.804383 
L 161.99381 566.670641 
L 166.183001 565.194872 
L 170.372192 563.487257 
L 180.845168 558.964016 
L 187.128954 555.928158 
L 190.404888 553.871205 
L 193.006616 551.19571 
L 196.662744 545.844721 
L 199.696525 543.114473 
L 204.051535 540.493732 
L 208.074906 538.694998 
L 210.169502 537.723282 
L 224.831668 532.257674 
L 237.39924 528.00603 
L 241.58843 526.396766 
L 245.954807 524.440764 
L 249.966811 522.297573 
L 252.061407 521.034002 
L 256.250597 518.256142 
L 262.534383 513.699558 
L 270.912764 507.678019 
L 287.669526 496.018685 
L 289.764121 494.277513 
L 291.895325 492.334828 
L 294.297678 489.659334 
L 296.238774 486.983839 
L 297.746183 484.308345 
L 298.871333 481.63285 
L 299.664017 478.957355 
L 300.237098 475.656431 
L 300.667489 470.930872 
L 301.143692 468.255377 
L 302.331693 465.14965 
L 303.482512 462.904388 
L 307.350085 457.553398 
L 316.99386 446.388492 
L 323.277646 438.798888 
L 327.466836 433.397247 
L 331.656027 427.587908 
L 334.817042 422.771968 
L 337.939812 417.335564 
L 340.576934 412.06999 
L 348.412789 395.131659 
L 359.177018 374.613065 
L 361.686034 369.262076 
L 365.169551 361.191565 
L 366.272231 358.560098 
L 369.171962 350.533614 
L 371.631844 342.50713 
L 373.852099 334.480646 
L 375.218539 329.129657 
L 376.289249 323.778668 
L 376.609324 321.103173 
L 376.733513 318.427678 
L 376.65733 315.752184 
L 376.086199 310.401195 
L 375.120548 302.374711 
L 374.413118 297.023721 
L 373.547932 293.089375 
L 373.168106 291.672732 
L 372.216118 288.997238 
L 370.988402 286.321743 
L 369.358741 283.484433 
L 367.264146 280.582269 
L 365.131163 278.295259 
L 363.074956 276.556332 
L 360.98036 275.178019 
L 358.885765 274.031426 
L 350.774477 270.268775 
L 350.507384 270.106344 
L 346.952956 267.593281 
L 346.318194 267.00869 
L 340.034408 260.800542 
L 337.939812 259.290623 
L 335.845217 258.232914 
L 333.750622 257.444037 
L 331.570866 256.891302 
L 329.561431 256.617569 
L 327.466836 256.500319 
L 325.372241 256.530215 
L 321.18305 256.950471 
L 316.99386 257.731937 
L 312.804669 258.725409 
L 306.520884 260.448185 
L 300.237098 262.341753 
L 296.047907 263.712674 
L 291.858717 265.255169 
L 287.669526 266.984865 
L 281.38574 269.943431 
L 270.912764 275.1371 
L 266.723574 277.074184 
L 262.534383 278.937268 
L 256.250597 281.532547 
L 249.966811 283.763007 
L 245.777621 284.747332 
L 243.683026 285.072999 
L 241.58843 285.259119 
L 239.493835 285.306804 
L 235.304645 285.108909 
L 231.115454 284.840178 
L 226.926264 284.798261 
L 222.737073 285.073655 
L 218.547883 285.631044 
L 212.264097 286.8326 
L 185.034358 292.695727 
L 180.845168 293.896979 
L 176.655977 295.311012 
L 172.430629 297.023721 
L 168.277596 298.970573 
L 164.088406 301.330671 
L 159.899215 304.148069 
L 155.346663 307.7257 
L 147.331644 314.1858 
L 144.92713 315.752184 
L 143.142453 316.665132 
L 141.047858 317.496257 
L 138.953263 318.101424 
L 136.858667 318.497068 
L 132.669477 318.846534 
L 128.480286 319.213324 
L 126.385691 319.628469 
L 124.291096 320.372973 
L 122.196501 321.491047 
L 120.101905 322.95075 
L 119.257811 323.778668 
L 118.00731 324.822801 
L 113.818119 329.6058 
L 110.286636 334.480646 
L 108.549036 337.156141 
L 106.963847 339.831635 
L 104.20074 345.182625 
L 101.972662 350.533614 
L 100.190355 355.884603 
L 98.762898 361.235592 
L 97.520251 366.586581 
L 93.346041 387.990538 
L 90.857158 404.043506 
L 89.365428 417.420979 
L 88.806797 425.447463 
L 87.526378 449.526915 
L 87.355546 457.553398 
L 87.376979 465.579882 
L 87.644182 476.281861 
L 88.238482 489.659334 
L 89.56681 511.063291 
L 90.318119 516.41428 
L 91.147073 521.765269 
L 91.69764 527.116258 
L 92.163451 532.467248 
L 92.563792 535.142742 
L 93.18255 537.818237 
L 94.141329 540.493732 
L 95.590938 543.169226 
L 97.517235 545.844721 
L 99.547361 548.520215 
L 100.954865 551.19571 
L 101.490879 553.871205 
L 101.451898 556.546699 
L 100.908417 561.897688 
L 100.843655 564.573183 
L 101.250548 567.532824 
L 102.098663 569.924172 
L 103.345143 571.695349 
L 104.2489 572.599667 
L 105.439738 573.448537 
L 105.439738 573.448537 
" style="fill:none;stroke:#ff0000;stroke-width:1.5;"/>
   </g>
   <g id="LineCollection_2">
    <path clip-path="url(#p573d2efb1b)" d="M 109.628929 538.774117 
L 111.723524 539.546437 
L 113.818119 540.025404 
L 115.912715 540.278154 
L 118.00731 540.335453 
L 120.101905 540.192348 
L 122.196501 539.798457 
L 124.291096 539.032751 
L 126.385691 537.725804 
L 128.480286 536.48297 
L 130.574882 534.833404 
L 138.953263 528.721951 
L 141.047858 527.513898 
L 143.142453 526.650234 
L 145.237048 526.181137 
L 147.331644 526.105714 
L 149.426239 526.363611 
L 153.615429 527.174867 
L 155.710025 527.419965 
L 157.80462 527.514678 
L 159.899215 527.471219 
L 164.088406 527.049621 
L 168.277596 526.29298 
L 172.466787 525.305297 
L 176.655977 524.078347 
L 180.845168 522.549666 
L 182.939763 521.695043 
L 188.262828 519.089775 
L 193.412739 516.164112 
L 203.885716 509.987748 
L 220.707893 500.361312 
L 224.831668 497.611356 
L 229.020859 494.384856 
L 231.37275 492.334828 
L 235.304645 488.519145 
L 241.971142 481.63285 
L 247.872216 476.047239 
L 258.345193 466.855733 
L 277.680504 449.526915 
L 283.480336 443.859168 
L 289.764121 437.309906 
L 298.186617 428.122958 
L 305.392023 420.096474 
L 308.615479 416.254493 
L 311.855522 412.06999 
L 314.899265 407.696548 
L 317.22695 404.043506 
L 321.942715 396.017022 
L 327.997699 385.315044 
L 331.656027 378.313291 
L 333.750622 373.91836 
L 335.845217 369.219697 
L 339.188832 361.235592 
L 341.224796 355.884603 
L 342.891695 350.533614 
L 343.512501 347.858119 
L 343.960365 345.182625 
L 344.225837 342.50713 
L 344.309721 339.831635 
L 344.223598 337.156141 
L 343.98785 334.480646 
L 343.624424 331.805151 
L 342.563997 326.454162 
L 341.861129 323.778668 
L 341.023148 321.103173 
L 340.022908 318.427678 
L 338.844447 315.752184 
L 337.436433 313.076689 
L 335.71771 310.401195 
L 333.51172 307.7257 
L 331.656027 305.990777 
L 329.561431 304.407399 
L 327.466836 303.129858 
L 325.372241 302.065095 
L 323.277646 301.167698 
L 319.088455 299.732745 
L 314.899265 298.651969 
L 310.710074 297.907574 
L 306.520884 297.509742 
L 302.331693 297.488928 
L 298.142503 297.868804 
L 293.953312 298.638594 
L 289.764121 299.749776 
L 285.574931 301.087593 
L 273.007359 305.368945 
L 268.818169 306.51053 
L 263.500393 307.7257 
L 247.872216 310.819299 
L 241.58843 312.458467 
L 229.020859 316.271047 
L 220.642478 319.001 
L 214.358692 321.228089 
L 210.169502 322.742414 
L 200.434673 326.454162 
L 182.939763 332.530178 
L 172.466787 335.952144 
L 168.277596 337.609265 
L 166.183001 338.536627 
L 161.99381 340.77318 
L 157.80462 343.419243 
L 153.615429 346.235415 
L 151.030865 347.858119 
L 149.426239 348.712495 
L 147.331644 349.584957 
L 145.237048 350.09947 
L 143.142453 350.149279 
L 141.047858 349.698868 
L 138.953263 348.814566 
L 136.858667 347.636905 
L 134.764072 346.31986 
L 132.669477 345.173855 
L 130.574882 344.326754 
L 128.480286 343.90683 
L 126.385691 343.9405 
L 124.291096 344.437497 
L 122.196501 345.409168 
L 120.101905 346.885789 
L 118.00731 348.91163 
L 115.912715 351.56427 
L 113.818119 354.944203 
L 111.723524 359.150383 
L 109.628929 364.239384 
L 107.534334 370.18025 
L 106.127885 374.613065 
L 103.847139 382.639549 
L 101.845766 390.666033 
L 100.163485 398.692517 
L 98.860881 406.719001 
L 98.132936 412.06999 
L 97.314853 420.096474 
L 96.082719 436.149441 
L 95.514422 446.85142 
L 95.33215 454.877904 
L 95.389809 462.904388 
L 95.758149 473.606366 
L 96.358823 484.308345 
L 97.771611 503.036807 
L 98.507518 508.387796 
L 101.250548 522.321067 
L 101.830978 527.116258 
L 102.345664 529.791753 
L 103.345143 532.67798 
L 104.841594 535.142742 
L 105.439738 535.836961 
L 107.90342 537.818237 
L 109.628929 538.774117 
L 109.628929 538.774117 
" style="fill:none;stroke:#ff0000;stroke-width:1.5;"/>
   </g>
   <g id="LineCollection_3">
    <path clip-path="url(#p573d2efb1b)" d="M 113.818119 530.877284 
L 115.912715 531.385819 
L 118.00731 531.411533 
L 120.101905 531.065513 
L 122.196501 530.398257 
L 124.291096 529.430318 
L 126.385691 528.218041 
L 128.480286 526.73612 
L 131.24579 524.440764 
L 133.997273 521.765269 
L 138.953263 516.095518 
L 141.047858 513.688021 
L 143.736428 511.063291 
L 145.237048 509.835501 
L 147.331644 508.675613 
L 149.426239 507.917891 
L 151.520834 507.457993 
L 161.99381 505.878689 
L 166.183001 504.657286 
L 170.372192 502.923471 
L 174.561382 501.05288 
L 178.750573 499.146102 
L 185.034358 496.412217 
L 195.507335 491.803735 
L 199.696525 489.653222 
L 201.79112 488.511328 
L 205.980311 485.903629 
L 212.264097 481.386918 
L 222.807704 473.606366 
L 229.020859 469.695094 
L 233.210049 467.303796 
L 243.683026 461.412326 
L 247.872216 458.7442 
L 252.061407 455.767715 
L 256.545201 452.202409 
L 260.439788 448.782504 
L 265.198674 444.175925 
L 268.818169 440.2806 
L 272.330838 436.149441 
L 276.375448 430.798452 
L 281.770292 422.771968 
L 285.574931 417.059311 
L 289.764121 411.327888 
L 293.953312 406.098995 
L 304.426288 393.268478 
L 308.615479 387.610499 
L 311.925651 382.639549 
L 313.533258 379.964055 
L 316.356422 374.613065 
L 318.662343 369.262076 
L 320.474082 363.911087 
L 321.18305 361.196852 
L 321.740186 358.560098 
L 322.133671 355.884603 
L 322.343638 353.209108 
L 322.367833 350.533614 
L 322.221482 347.858119 
L 321.557081 342.50713 
L 320.608292 337.156141 
L 319.995755 334.480646 
L 319.088455 331.52493 
L 318.084053 329.129657 
L 316.437414 326.454162 
L 314.899265 324.756691 
L 312.804669 323.131874 
L 310.710074 322.06128 
L 308.615479 321.35097 
L 306.520884 320.907019 
L 304.426288 320.651224 
L 300.237098 320.508698 
L 293.953312 320.706445 
L 279.291145 321.397698 
L 273.007359 321.950216 
L 258.345193 323.623494 
L 249.966811 324.682708 
L 245.777621 325.409066 
L 241.169965 326.454162 
L 237.39924 327.449816 
L 232.106946 329.129657 
L 226.926264 330.928819 
L 208.074906 337.974994 
L 189.223549 344.663668 
L 178.750573 348.732233 
L 168.277596 352.784924 
L 164.088406 354.777108 
L 161.99381 355.975326 
L 158.136541 358.560098 
L 155.710025 360.417755 
L 149.426239 365.333294 
L 147.327671 366.586581 
L 145.237048 367.425301 
L 143.142453 367.765054 
L 141.047858 367.61263 
L 138.953263 367.049268 
L 136.858667 366.193962 
L 131.952041 363.911087 
L 130.574882 363.340263 
L 128.480286 362.77955 
L 126.385691 362.643861 
L 124.291096 363.030115 
L 122.196501 364.023296 
L 120.101905 365.63274 
L 118.00731 367.946565 
L 115.912715 370.985466 
L 113.818119 374.784285 
L 111.469425 379.964055 
L 109.43621 385.315044 
L 107.534334 391.2943 
L 106.255386 396.017022 
L 105.051363 401.368011 
L 104.048665 406.719001 
L 102.873444 414.745485 
L 101.980788 422.771968 
L 100.845507 436.149441 
L 100.323869 444.175925 
L 100.07563 452.202409 
L 100.13444 460.228893 
L 100.446239 468.255377 
L 101.134223 478.957355 
L 102.534975 495.010323 
L 103.118344 500.361312 
L 103.528005 503.036807 
L 104.073699 505.712302 
L 105.439738 510.48245 
L 106.491552 513.738785 
L 107.534334 517.861364 
L 108.845495 524.440764 
L 109.798023 527.116258 
L 111.886023 529.791753 
L 113.818119 530.877284 
L 113.818119 530.877284 
" style="fill:none;stroke:#ff0000;stroke-width:1.5;"/>
   </g>
   <g id="LineCollection_4">
    <path clip-path="url(#p573d2efb1b)" d="M 118.00731 522.235534 
L 120.101905 522.769389 
L 122.196501 522.452395 
L 124.291096 521.511246 
L 126.385691 519.89769 
L 127.246795 519.089775 
L 129.446573 516.41428 
L 131.084423 513.738785 
L 132.669477 510.428474 
L 134.764072 505.658578 
L 136.858667 501.625826 
L 138.953263 498.248692 
L 141.047858 495.49973 
L 143.142453 493.393201 
L 145.237048 491.968767 
L 147.331644 491.28884 
L 149.426239 491.245535 
L 151.520834 491.674331 
L 155.710025 492.949736 
L 157.80462 493.353849 
L 159.899215 493.482775 
L 161.99381 493.340872 
L 164.088406 492.963906 
L 166.356452 492.334828 
L 170.372192 490.815933 
L 176.655977 487.994197 
L 187.128954 483.093612 
L 191.318144 480.973228 
L 195.507335 478.638692 
L 199.696525 476.045652 
L 203.885716 473.203818 
L 212.264097 467.107993 
L 218.547883 462.682772 
L 222.737073 459.988523 
L 229.020859 456.308276 
L 237.39924 451.562716 
L 241.58843 448.965451 
L 245.777621 446.041772 
L 249.966811 442.683843 
L 252.061407 440.818164 
L 254.156002 438.811744 
L 258.345193 434.325089 
L 261.26743 430.798452 
L 264.628978 426.362398 
L 269.007042 420.096474 
L 276.459453 409.394495 
L 281.38574 402.732901 
L 289.764121 392.046857 
L 295.053783 385.315044 
L 298.895691 379.964055 
L 300.601871 377.28856 
L 302.331693 374.193834 
L 303.436254 371.937571 
L 304.537751 369.262076 
L 305.398145 366.586581 
L 306.027531 363.911087 
L 306.420799 361.235592 
L 306.584837 358.560098 
L 306.520884 355.52016 
L 306.34359 353.209108 
L 306.00027 350.533614 
L 305.519327 347.858119 
L 304.855285 345.182625 
L 303.853494 342.50713 
L 302.212834 339.831635 
L 300.237098 338.04294 
L 298.142503 336.853825 
L 296.047907 336.152414 
L 293.953312 335.688383 
L 289.764121 335.152576 
L 280.410932 334.480646 
L 275.101955 334.211908 
L 270.912764 334.138752 
L 264.628978 334.313206 
L 258.345193 334.76236 
L 252.061407 335.417707 
L 245.777621 336.336974 
L 241.58843 337.156141 
L 237.39924 338.150787 
L 231.59769 339.831635 
L 226.926264 341.3653 
L 207.91251 347.858119 
L 193.412739 352.359385 
L 189.223549 353.913947 
L 184.494059 355.884603 
L 178.64455 358.560098 
L 172.466787 361.614243 
L 168.277596 363.938666 
L 166.183001 365.253162 
L 164.088406 366.725772 
L 160.995733 369.262076 
L 158.228695 371.937571 
L 155.710025 374.67732 
L 151.520834 379.355652 
L 149.426239 381.376931 
L 147.331644 382.919777 
L 145.237048 383.774643 
L 143.142453 383.85017 
L 141.047858 383.163011 
L 138.953263 381.90226 
L 134.764072 378.816717 
L 132.326965 377.28856 
L 130.574882 376.42284 
L 128.480286 375.791239 
L 126.385691 375.645395 
L 124.291096 376.052178 
L 121.946272 377.28856 
L 120.101905 378.76953 
L 118.00731 381.189264 
L 115.912715 384.405144 
L 113.818119 388.539758 
L 111.901133 393.341528 
L 111.005404 396.017022 
L 109.491673 401.368011 
L 108.283344 406.719001 
L 107.308248 412.06999 
L 106.509741 417.420979 
L 105.439738 426.606689 
L 104.504404 436.149441 
L 103.953038 444.175925 
L 103.769372 449.526915 
L 103.749553 454.877904 
L 103.995519 462.904388 
L 104.493156 470.930872 
L 105.183294 478.957355 
L 106.380839 489.659334 
L 107.412357 497.685818 
L 107.926672 500.361312 
L 108.643303 503.036807 
L 109.628929 505.772513 
L 113.818119 514.496332 
L 114.623751 516.41428 
L 115.912715 519.792304 
L 117.405385 521.765269 
L 118.00731 522.235534 
L 118.00731 522.235534 
" style="fill:none;stroke:#ff0000;stroke-width:1.5;"/>
   </g>
   <g id="LineCollection_5">
    <path clip-path="url(#p573d2efb1b)" d="M 118.00731 506.979336 
L 120.101905 507.807149 
L 122.196501 507.84459 
L 124.291096 506.998257 
L 126.385691 505.223489 
L 128.480286 502.813196 
L 130.574882 499.984667 
L 133.796542 495.010323 
L 138.34283 486.983839 
L 138.953263 485.783787 
L 141.63238 481.63285 
L 143.142453 479.789596 
L 145.237048 478.298324 
L 147.331644 477.715364 
L 149.426239 477.788257 
L 151.520834 478.264313 
L 159.899215 480.851103 
L 161.99381 481.143944 
L 164.088406 481.194494 
L 166.183001 481.004735 
L 168.277596 480.600921 
L 170.372192 480.026193 
L 174.561382 478.555686 
L 180.845168 475.959511 
L 187.128954 473.040917 
L 191.318144 470.818107 
L 195.566134 468.255377 
L 199.696525 465.466634 
L 206.775673 460.228893 
L 214.358692 454.643076 
L 218.547883 451.804446 
L 224.831668 447.879117 
L 233.210049 442.730217 
L 237.39924 439.889363 
L 241.58843 436.721369 
L 245.777621 433.176368 
L 249.966811 429.257671 
L 254.156002 424.93136 
L 258.399632 420.096474 
L 262.63873 414.745485 
L 266.723574 409.062091 
L 270.912764 402.733017 
L 273.482857 398.692517 
L 287.669526 375.620583 
L 288.225339 374.613065 
L 289.764121 371.263015 
L 290.527412 369.262076 
L 291.276315 366.586581 
L 291.729992 363.911087 
L 291.858717 361.126752 
L 291.656306 358.560098 
L 291.02883 355.884603 
L 289.764121 353.106403 
L 287.512283 350.533614 
L 285.574931 349.25689 
L 282.762574 347.858119 
L 279.291145 346.672161 
L 273.988497 345.182625 
L 270.912764 344.548491 
L 266.723574 343.941467 
L 262.534383 343.654508 
L 258.345193 343.657562 
L 254.156002 343.900802 
L 249.966811 344.3485 
L 244.733157 345.182625 
L 241.58843 345.815253 
L 237.39924 346.836541 
L 233.210049 348.041749 
L 226.926264 350.125448 
L 212.264097 355.133809 
L 205.980311 356.854616 
L 195.507335 359.491248 
L 191.318144 360.784625 
L 187.128954 362.367405 
L 182.939763 364.232339 
L 178.383409 366.586581 
L 173.848407 369.262076 
L 169.891792 371.937571 
L 166.493019 374.613065 
L 164.088406 376.783547 
L 161.020303 379.964055 
L 157.80462 383.712613 
L 151.520834 391.517709 
L 149.426239 393.825667 
L 147.331644 395.688178 
L 145.237048 396.88689 
L 143.142453 397.208122 
L 141.047858 396.559269 
L 138.953263 395.021888 
L 136.858667 392.866915 
L 134.764072 390.506231 
L 132.238193 387.990538 
L 130.574882 386.689085 
L 128.480286 385.622831 
L 126.385691 385.217642 
L 124.291096 385.507155 
L 122.196501 386.529884 
L 120.101905 388.343086 
L 118.00731 391.047914 
L 115.912715 394.819496 
L 114.29833 398.692517 
L 113.36186 401.368011 
L 111.723524 407.170337 
L 110.661469 412.06999 
L 109.628929 417.94717 
L 108.578674 425.447463 
L 107.534334 434.50097 
L 106.923997 441.500431 
L 106.655809 446.85142 
L 106.583791 452.202409 
L 106.699304 457.553398 
L 107.162156 465.579882 
L 107.884619 473.606366 
L 108.864704 481.63285 
L 110.490435 492.334828 
L 110.972175 495.010323 
L 111.723524 498.151463 
L 112.544771 500.361312 
L 113.949293 503.036807 
L 115.912715 505.373071 
L 118.00731 506.979336 
L 118.00731 506.979336 
" style="fill:none;stroke:#ff0000;stroke-width:1.5;"/>
   </g>
   <g id="LineCollection_6">
    <path clip-path="url(#p573d2efb1b)" d="M 118.00731 498.627629 
L 120.101905 499.602988 
L 122.196501 499.530411 
L 124.291096 498.61486 
L 126.385691 496.915453 
L 128.480286 494.466931 
L 130.574882 491.161721 
L 131.378127 489.659334 
L 132.669477 486.880203 
L 134.764072 481.513391 
L 136.858667 476.155446 
L 138.953263 471.787462 
L 141.047858 468.601883 
L 143.142453 466.647019 
L 145.237048 465.864269 
L 147.331644 465.987119 
L 149.426239 466.694836 
L 155.710025 469.724808 
L 157.80462 470.5066 
L 159.899215 471.055667 
L 161.99381 471.364454 
L 164.088406 471.42241 
L 166.183001 471.249965 
L 168.277596 470.879517 
L 170.372192 470.372015 
L 174.561382 469.004244 
L 180.845168 466.469978 
L 185.034358 464.535339 
L 189.223549 462.345002 
L 193.412739 459.853629 
L 197.60193 457.063586 
L 204.276921 452.202409 
L 212.264097 446.386523 
L 218.547883 442.134275 
L 231.115454 433.851546 
L 235.346474 430.798452 
L 239.493835 427.537166 
L 243.683026 423.934696 
L 245.777621 421.993471 
L 247.872216 419.950198 
L 250.262765 417.420979 
L 252.570701 414.745485 
L 254.663885 412.06999 
L 256.551706 409.394495 
L 258.345193 406.535813 
L 260.439788 402.636266 
L 261.081001 401.368011 
L 263.392822 396.017022 
L 267.710201 385.315044 
L 272.497648 374.613065 
L 273.431924 371.937571 
L 274.082489 369.262076 
L 274.335525 366.586581 
L 274.074095 363.911087 
L 273.007359 361.016244 
L 271.362419 358.560098 
L 270.912764 358.118841 
L 268.354296 355.884603 
L 266.723574 354.923684 
L 264.628978 353.906926 
L 262.534383 353.134458 
L 260.439788 352.631836 
L 258.345193 352.293954 
L 256.250597 352.102904 
L 254.156002 352.040812 
L 249.966811 352.242314 
L 245.777621 352.80439 
L 241.58843 353.687396 
L 237.39924 354.849191 
L 233.210049 356.249433 
L 226.926264 358.68974 
L 220.642478 361.240269 
L 216.453287 362.810954 
L 212.264097 364.120854 
L 208.074906 365.201167 
L 201.79112 366.457375 
L 195.507335 367.71379 
L 191.318144 368.787688 
L 189.223549 369.448263 
L 185.034358 371.10353 
L 182.939763 372.068635 
L 178.298082 374.613065 
L 174.152139 377.28856 
L 170.372192 380.080089 
L 167.350472 382.639549 
L 164.52355 385.315044 
L 164.088406 385.744323 
L 161.99381 387.991648 
L 159.726796 390.666033 
L 157.643856 393.341528 
L 153.878872 398.692517 
L 151.520834 402.308628 
L 147.331644 408.12106 
L 145.237048 409.934687 
L 143.142453 410.51477 
L 141.047858 409.715433 
L 138.171579 406.719001 
L 136.191301 404.043506 
L 132.33135 398.692517 
L 130.574882 396.701193 
L 128.480286 395.033721 
L 126.385691 394.214746 
L 124.291096 394.293525 
L 122.196501 395.310649 
L 120.101905 397.358839 
L 118.00731 400.599585 
L 116.459208 404.043506 
L 115.467121 406.719001 
L 113.818119 412.409958 
L 112.746758 417.420979 
L 111.723524 423.034842 
L 110.580196 430.798452 
L 109.652633 438.824936 
L 109.275405 444.175925 
L 109.125775 449.526915 
L 109.203072 454.877904 
L 109.628929 462.204764 
L 110.219014 468.255377 
L 111.268004 476.281861 
L 112.210733 481.63285 
L 113.868572 489.659334 
L 114.590839 492.334828 
L 115.912715 495.956704 
L 117.122303 497.685818 
L 118.00731 498.627629 
L 118.00731 498.627629 
" style="fill:none;stroke:#ff0000;stroke-width:1.5;"/>
   </g>
   <g id="LineCollection_7">
    <path clip-path="url(#p573d2efb1b)" d="M 120.101905 490.629807 
L 122.196501 491.386349 
L 124.291096 490.528344 
L 126.385691 488.285858 
L 128.480286 484.607955 
L 130.574882 479.628935 
L 134.764072 468.694522 
L 139.421547 457.553398 
L 141.047858 454.308167 
L 143.142453 451.991402 
L 145.237048 452.068286 
L 145.354689 452.202409 
L 147.331644 453.810656 
L 148.153079 454.877904 
L 149.426239 456.115615 
L 150.690427 457.553398 
L 153.667145 460.228893 
L 155.710025 461.668463 
L 158.014554 462.904388 
L 159.899215 463.605517 
L 161.99381 464.060897 
L 164.088406 464.214897 
L 166.183001 464.105436 
L 168.277596 463.774787 
L 171.524452 462.904388 
L 174.561382 461.865654 
L 178.750573 460.122614 
L 182.939763 458.129765 
L 187.128954 455.856252 
L 191.318144 453.264218 
L 195.507335 450.359817 
L 200.208035 446.85142 
L 208.074906 440.897091 
L 216.453287 434.897105 
L 222.737073 430.37358 
L 229.084758 425.447463 
L 235.304645 420.006284 
L 239.493835 415.751153 
L 240.435346 414.745485 
L 242.639582 412.06999 
L 244.545876 409.394495 
L 246.165822 406.719001 
L 247.872216 403.245043 
L 249.69908 398.692517 
L 252.697666 390.666033 
L 255.027487 385.315044 
L 258.345193 377.953999 
L 258.625653 377.28856 
L 259.564401 374.613065 
L 260.211456 371.937571 
L 260.417757 369.262076 
L 259.962481 366.586581 
L 258.345193 363.761837 
L 256.250597 362.134996 
L 254.156002 361.126095 
L 252.061407 360.656727 
L 249.966811 360.44945 
L 247.872216 360.456277 
L 245.777621 360.639878 
L 242.489716 361.235592 
L 241.58843 361.459085 
L 237.39924 362.832005 
L 234.652246 363.911087 
L 229.020859 366.630998 
L 224.831668 368.84879 
L 218.547883 371.75113 
L 214.358692 373.153151 
L 210.169502 374.044033 
L 203.885716 374.920416 
L 197.60193 375.791055 
L 193.412739 376.593569 
L 189.223549 377.730591 
L 185.034358 379.295801 
L 182.939763 380.240472 
L 178.441296 382.639549 
L 174.189621 385.315044 
L 170.372192 388.073384 
L 167.312086 390.666033 
L 164.557868 393.341528 
L 164.088406 393.831796 
L 161.99381 396.254725 
L 159.899215 399.054089 
L 157.80462 402.319553 
L 155.710025 406.115013 
L 155.391218 406.719001 
L 152.904577 412.06999 
L 149.426239 420.323162 
L 146.769015 425.447463 
L 145.237048 427.684055 
L 143.131634 428.122958 
L 141.047858 425.974578 
L 140.801473 425.447463 
L 138.953263 422.259035 
L 137.943929 420.096474 
L 136.571254 417.420979 
L 133.861121 412.06999 
L 132.360806 409.394495 
L 130.574882 406.632135 
L 128.480286 404.287095 
L 126.385691 403.016036 
L 124.291096 402.870833 
L 122.080868 404.043506 
L 119.886608 406.719001 
L 118.00731 410.410406 
L 116.52668 414.745485 
L 115.743259 417.420979 
L 113.954582 425.447463 
L 113.466666 428.122958 
L 112.617937 433.473947 
L 111.948001 438.824936 
L 111.540565 444.175925 
L 111.418855 449.526915 
L 111.560651 454.877904 
L 111.954589 460.228893 
L 112.572661 465.579882 
L 113.359323 470.930872 
L 113.818119 473.606366 
L 115.10622 478.957355 
L 115.912715 481.929226 
L 118.00731 487.55767 
L 120.101905 490.629807 
L 120.101905 490.629807 
" style="fill:none;stroke:#ff0000;stroke-width:1.5;"/>
   </g>
   <g id="LineCollection_8">
    <path clip-path="url(#p573d2efb1b)" d="M 120.101905 480.077963 
L 122.196501 481.331791 
L 124.291096 480.653635 
L 125.759641 478.957355 
L 126.385691 478.253891 
L 127.480376 476.281861 
L 128.480286 474.496453 
L 128.872317 473.606366 
L 130.03952 470.930872 
L 130.574882 469.66362 
L 131.110597 468.255377 
L 132.079087 465.579882 
L 132.669477 463.838281 
L 132.985739 462.904388 
L 133.822035 460.228893 
L 134.582066 457.553398 
L 134.764072 456.831249 
L 135.307602 454.877904 
L 135.948633 452.202409 
L 136.474524 449.526915 
L 136.858667 446.971709 
L 136.881088 446.85142 
L 137.219433 444.175925 
L 137.388566 441.500431 
L 137.382266 438.824936 
L 137.192677 436.149441 
L 136.858667 433.813181 
L 136.818407 433.473947 
L 136.334913 430.798452 
L 135.671014 428.122958 
L 134.822458 425.447463 
L 134.764072 425.290599 
L 133.857032 422.771968 
L 132.739899 420.096474 
L 132.669477 419.941639 
L 131.425632 417.420979 
L 130.574882 415.826394 
L 129.851691 414.745485 
L 128.480286 412.818665 
L 127.610026 412.06999 
L 126.385691 411.080761 
L 124.291096 410.728598 
L 122.196501 411.868398 
L 122.041361 412.06999 
L 120.101905 414.730143 
L 120.094893 414.745485 
L 118.934701 417.420979 
L 118.00731 419.684308 
L 117.883156 420.096474 
L 117.108472 422.771968 
L 116.372893 425.447463 
L 115.912715 427.205981 
L 115.718171 428.122958 
L 115.183427 430.798452 
L 114.696641 433.473947 
L 114.268169 436.149441 
L 113.908849 438.824936 
L 113.818119 439.695219 
L 113.653829 441.500431 
L 113.488086 444.175925 
L 113.403025 446.85142 
L 113.398676 449.526915 
L 113.472397 452.202409 
L 113.619564 454.877904 
L 113.818119 457.355564 
L 113.837176 457.553398 
L 114.163137 460.228893 
L 114.554113 462.904388 
L 115.002812 465.579882 
L 115.505546 468.255377 
L 115.912715 470.216324 
L 116.112633 470.930872 
L 116.937403 473.606366 
L 117.864148 476.281861 
L 118.00731 476.667994 
L 119.398274 478.957355 
L 120.101905 480.077963 
" style="fill:none;stroke:#ff0000;stroke-width:1.5;"/>
    <path clip-path="url(#p573d2efb1b)" d="M 159.899215 457.559651 
L 161.99381 458.292198 
L 164.088406 458.632442 
L 166.183001 458.642096 
L 168.277596 458.383122 
L 171.549264 457.553398 
L 172.466787 457.262575 
L 176.655977 455.583241 
L 178.750573 454.6009 
L 183.217358 452.202409 
L 187.440244 449.526915 
L 191.318144 446.699511 
L 197.693229 441.500431 
L 201.79112 438.055225 
L 210.169502 431.468922 
L 214.485704 428.122958 
L 218.547883 424.688197 
L 220.696519 422.771968 
L 224.831668 418.535342 
L 226.926264 416.129758 
L 229.020859 413.469001 
L 230.069896 412.06999 
L 231.828793 409.394495 
L 233.383438 406.719001 
L 235.304645 402.856337 
L 237.39924 398.10085 
L 240.550165 390.666033 
L 244.303587 382.639549 
L 245.436025 379.964055 
L 246.215206 377.28856 
L 246.272873 374.613065 
L 245.777621 373.610945 
L 243.683026 372.003812 
L 241.58843 371.937571 
L 239.493835 372.513036 
L 237.39924 373.403499 
L 235.050177 374.613065 
L 231.115454 377.38417 
L 226.926264 380.616361 
L 223.901063 382.639549 
L 222.737073 383.358291 
L 220.642478 384.42338 
L 218.143654 385.315044 
L 216.453287 385.745527 
L 214.358692 385.966061 
L 212.264097 385.864194 
L 208.074906 384.987141 
L 203.885716 384.102494 
L 201.79112 383.819576 
L 199.696525 383.681701 
L 197.60193 383.691467 
L 195.507335 383.843233 
L 193.412739 384.129911 
L 191.318144 384.545862 
L 188.512927 385.315044 
L 185.034358 386.59119 
L 180.845168 388.523118 
L 176.655977 390.838466 
L 172.466787 393.56383 
L 169.319948 396.017022 
L 168.277596 396.920708 
L 166.183001 398.949346 
L 164.078314 401.368011 
L 161.99381 404.286517 
L 159.899215 407.90645 
L 157.924295 412.06999 
L 156.851264 414.745485 
L 154.952945 420.096474 
L 153.347445 425.447463 
L 152.059411 430.798452 
L 151.236922 436.149441 
L 151.057401 438.824936 
L 151.08882 441.500431 
L 151.520834 444.888766 
L 151.913303 446.85142 
L 152.800665 449.526915 
L 154.165681 452.202409 
L 156.237575 454.877904 
L 157.80462 456.250424 
L 159.899215 457.559651 
L 159.899215 457.559651 
" style="fill:none;stroke:#ff0000;stroke-width:1.5;"/>
   </g>
   <g id="LineCollection_9">
    <path clip-path="url(#p573d2efb1b)" d="M 122.196501 471.344566 
L 123.839844 470.930872 
L 124.291096 470.814757 
L 126.385691 468.389028 
L 126.456801 468.255377 
L 127.807872 465.579882 
L 128.480286 464.170067 
L 128.952224 462.904388 
L 129.878429 460.228893 
L 130.574882 458.032365 
L 130.711033 457.553398 
L 131.392147 454.877904 
L 131.982129 452.202409 
L 132.470119 449.526915 
L 132.669477 448.105923 
L 132.844718 446.85142 
L 133.093949 444.175925 
L 133.207392 441.500431 
L 133.172832 438.824936 
L 132.97651 436.149441 
L 132.669477 433.933996 
L 132.601852 433.473947 
L 132.017407 430.798452 
L 131.223925 428.122958 
L 130.574882 426.360655 
L 130.151818 425.447463 
L 128.710253 422.771968 
L 128.480286 422.384907 
L 126.385691 420.201553 
L 125.979251 420.096474 
L 124.291096 419.67665 
L 123.580666 420.096474 
L 122.196501 420.929308 
L 120.993428 422.771968 
L 120.101905 424.18539 
L 119.61116 425.447463 
L 118.621834 428.122958 
L 118.00731 429.90295 
L 117.780605 430.798452 
L 117.166558 433.473947 
L 116.633716 436.149441 
L 116.195735 438.824936 
L 115.912715 441.121787 
L 115.874896 441.500431 
L 115.706657 444.175925 
L 115.639135 446.85142 
L 115.671992 449.526915 
L 115.801772 452.202409 
L 115.912715 453.559618 
L 116.0543 454.877904 
L 116.448647 457.553398 
L 116.943269 460.228893 
L 117.527453 462.904388 
L 118.00731 464.846024 
L 118.291352 465.579882 
L 119.442854 468.255377 
L 120.101905 469.623389 
L 121.652992 470.930872 
L 122.196501 471.344566 
" style="fill:none;stroke:#ff0000;stroke-width:1.5;"/>
    <path clip-path="url(#p573d2efb1b)" d="M 166.183001 452.450864 
L 168.277596 452.348964 
L 169.046171 452.202409 
L 170.372192 451.917378 
L 172.466787 451.222844 
L 174.561382 450.363991 
L 176.355285 449.526915 
L 176.655977 449.364808 
L 178.750573 448.130253 
L 180.845168 446.85142 
L 182.939763 445.287163 
L 184.426307 444.175925 
L 185.034358 443.641854 
L 187.128954 441.821054 
L 187.500267 441.500431 
L 189.223549 439.790027 
L 190.242712 438.824936 
L 191.318144 437.669802 
L 192.838555 436.149441 
L 193.412739 435.509793 
L 195.422668 433.473947 
L 195.507335 433.37968 
L 197.60193 431.241401 
L 198.081996 430.798452 
L 199.696525 429.185028 
L 200.886951 428.122958 
L 201.79112 427.233769 
L 203.822799 425.447463 
L 203.885716 425.384378 
L 205.980311 423.396997 
L 206.686355 422.771968 
L 208.074906 421.334868 
L 209.344893 420.096474 
L 210.169502 419.105905 
L 211.644018 417.420979 
L 212.264097 416.48629 
L 213.47509 414.745485 
L 214.358692 412.899563 
L 214.777117 412.06999 
L 215.239421 409.394495 
L 214.358692 407.402199 
L 213.506357 406.719001 
L 212.264097 406.338146 
L 210.169502 406.162603 
L 208.074906 406.205555 
L 205.980311 406.31302 
L 203.885716 406.3695 
L 201.79112 406.23447 
L 199.696525 405.668812 
L 197.60193 404.199179 
L 197.470085 404.043506 
L 195.994456 401.368011 
L 195.507335 400.338848 
L 194.7355 398.692517 
L 193.412739 397.083755 
L 191.958402 396.017022 
L 191.318144 395.768376 
L 189.223549 395.466782 
L 187.128954 395.593175 
L 185.034358 396.007998 
L 185.006461 396.017022 
L 182.939763 396.774396 
L 180.845168 397.657652 
L 178.750573 398.620411 
L 178.615332 398.692517 
L 176.655977 399.839164 
L 174.561382 401.102064 
L 174.169229 401.368011 
L 172.466787 402.62232 
L 170.681928 404.043506 
L 170.372192 404.310635 
L 168.277596 406.383637 
L 167.985421 406.719001 
L 166.183001 408.94163 
L 165.869032 409.394495 
L 164.132962 412.06999 
L 164.088406 412.143078 
L 162.759633 414.745485 
L 161.99381 416.31034 
L 161.52987 417.420979 
L 160.481599 420.096474 
L 159.899215 421.670246 
L 159.544108 422.771968 
L 158.758862 425.447463 
L 158.050834 428.122958 
L 157.80462 429.223075 
L 157.488442 430.798452 
L 157.074887 433.473947 
L 156.809295 436.149441 
L 156.728209 438.824936 
L 156.880082 441.500431 
L 157.331775 444.175925 
L 157.80462 445.703557 
L 158.245755 446.85142 
L 159.891598 449.526915 
L 159.899215 449.535702 
L 161.99381 451.230534 
L 164.088406 452.164015 
L 164.317923 452.202409 
L 166.183001 452.450864 
" style="fill:none;stroke:#ff0000;stroke-width:1.5;"/>
   </g>
   <g id="LineCollection_10"/>
   <g id="patch_3">
    <path d="M 78.21 655.54 
L 78.21 123.116571 
" style="fill:none;stroke:#ffffff;stroke-linecap:square;stroke-linejoin:miter;stroke-width:1.25;"/>
   </g>
   <g id="patch_4">
    <path d="M 78.21 655.54 
L 495.034457 655.54 
" style="fill:none;stroke:#ffffff;stroke-linecap:square;stroke-linejoin:miter;stroke-width:1.25;"/>
   </g>
  </g>
  <g id="axes_2">
   <g id="patch_5">
    <path d="M 78.21 104.757143 
L 599.240571 104.757143 
L 599.240571 12.96 
L 78.21 12.96 
z
" style="fill:#eaeaf2;"/>
   </g>
   <g id="matplotlib.axis_3">
    <g id="xtick_5">
     <g id="line2d_11">
      <path clip-path="url(#p598623f322)" d="M 133.074063 104.757143 
L 133.074063 12.96 
" style="fill:none;stroke:#ffffff;stroke-linecap:round;"/>
     </g>
    </g>
    <g id="xtick_6">
     <g id="line2d_12">
      <path clip-path="url(#p598623f322)" d="M 281.671483 104.757143 
L 281.671483 12.96 
" style="fill:none;stroke:#ffffff;stroke-linecap:round;"/>
     </g>
    </g>
    <g id="xtick_7">
     <g id="line2d_13">
      <path clip-path="url(#p598623f322)" d="M 430.268904 104.757143 
L 430.268904 12.96 
" style="fill:none;stroke:#ffffff;stroke-linecap:round;"/>
     </g>
    </g>
    <g id="xtick_8">
     <g id="line2d_14">
      <path clip-path="url(#p598623f322)" d="M 578.866324 104.757143 
L 578.866324 12.96 
" style="fill:none;stroke:#ffffff;stroke-linecap:round;"/>
     </g>
    </g>
   </g>
   <g id="matplotlib.axis_4">
    <g id="ytick_7"/>
    <g id="ytick_8"/>
   </g>
   <g id="line2d_15">
    <path clip-path="url(#p598623f322)" d="M 92.490199 103.785386 
L 94.964923 103.102773 
L 97.439648 102.03335 
L 99.914372 100.420216 
L 102.389097 98.078987 
L 104.863821 94.812307 
L 107.338546 90.435081 
L 109.81327 84.810002 
L 112.287995 77.889865 
L 114.762719 69.759743 
L 117.237444 60.669256 
L 122.186893 41.469254 
L 124.661617 32.636431 
L 127.136342 25.265384 
L 129.611066 20.004423 
L 132.085791 17.331249 
L 134.560515 17.472588 
L 137.03524 20.359637 
L 139.509964 25.628933 
L 141.984689 32.668492 
L 149.408862 56.398658 
L 151.883587 62.581263 
L 154.358311 66.938671 
L 156.833036 69.21125 
L 159.30776 69.3755 
L 161.782485 67.627607 
L 164.257209 64.346353 
L 166.731934 60.039402 
L 171.681383 50.621135 
L 174.156107 46.551716 
L 176.630832 43.4108 
L 179.105556 41.364208 
L 181.580281 40.394684 
L 184.055005 40.326586 
L 186.52973 40.877532 
L 191.479179 42.576787 
L 193.953903 43.217867 
L 196.428628 43.543815 
L 198.903352 43.556712 
L 203.852801 43.020913 
L 206.327526 42.725916 
L 208.80225 42.552723 
L 211.276974 42.552391 
L 213.751699 42.72974 
L 218.701148 43.483278 
L 245.923117 48.755099 
L 253.347291 49.905067 
L 260.771464 50.755836 
L 278.094536 52.342948 
L 283.043985 53.098087 
L 287.993434 54.158646 
L 292.942883 55.556453 
L 297.892332 57.262356 
L 302.841781 59.197654 
L 320.164852 66.320624 
L 325.114301 68.122646 
L 330.06375 69.74088 
L 335.013199 71.178574 
L 342.437372 73.095597 
L 352.33627 75.638711 
L 357.285719 77.091558 
L 362.235168 78.729044 
L 369.659342 81.509675 
L 382.032964 86.38277 
L 386.982413 88.138456 
L 391.931862 89.716376 
L 399.356036 91.818201 
L 411.729658 94.997119 
L 419.153832 96.741069 
L 426.578005 98.211489 
L 431.527454 98.991858 
L 438.951628 99.892692 
L 451.32525 101.039553 
L 466.173597 102.262732 
L 473.59777 102.696431 
L 483.496668 103.047051 
L 505.769189 103.741652 
L 520.617536 104.178576 
L 547.839505 104.518326 
L 567.637301 104.729477 
L 584.960372 104.756226 
L 584.960372 104.756226 
" style="fill:none;stroke:#ff0000;stroke-linecap:round;stroke-width:1.5;"/>
   </g>
   <g id="patch_6">
    <path d="M 78.21 104.757143 
L 599.240571 104.757143 
" style="fill:none;stroke:#ffffff;stroke-linecap:square;stroke-linejoin:miter;stroke-width:1.25;"/>
   </g>
  </g>
  <g id="axes_3">
   <g id="patch_7">
    <path d="M 617.207143 655.54 
L 707.04 655.54 
L 707.04 123.116571 
L 617.207143 123.116571 
z
" style="fill:#eaeaf2;"/>
   </g>
   <g id="matplotlib.axis_5">
    <g id="xtick_9"/>
    <g id="xtick_10"/>
   </g>
   <g id="matplotlib.axis_6">
    <g id="ytick_9">
     <g id="line2d_16">
      <path clip-path="url(#p6aef24e894)" d="M 617.207143 614.520443 
L 707.04 614.520443 
" style="fill:none;stroke:#ffffff;stroke-linecap:round;"/>
     </g>
    </g>
    <g id="ytick_10">
     <g id="line2d_17">
      <path clip-path="url(#p6aef24e894)" d="M 617.207143 516.280041 
L 707.04 516.280041 
" style="fill:none;stroke:#ffffff;stroke-linecap:round;"/>
     </g>
    </g>
    <g id="ytick_11">
     <g id="line2d_18">
      <path clip-path="url(#p6aef24e894)" d="M 617.207143 418.03964 
L 707.04 418.03964 
" style="fill:none;stroke:#ffffff;stroke-linecap:round;"/>
     </g>
    </g>
    <g id="ytick_12">
     <g id="line2d_19">
      <path clip-path="url(#p6aef24e894)" d="M 617.207143 319.799238 
L 707.04 319.799238 
" style="fill:none;stroke:#ffffff;stroke-linecap:round;"/>
     </g>
    </g>
    <g id="ytick_13">
     <g id="line2d_20">
      <path clip-path="url(#p6aef24e894)" d="M 617.207143 221.558836 
L 707.04 221.558836 
" style="fill:none;stroke:#ffffff;stroke-linecap:round;"/>
     </g>
    </g>
    <g id="ytick_14">
     <g id="line2d_21">
      <path clip-path="url(#p6aef24e894)" d="M 617.207143 123.318434 
L 707.04 123.318434 
" style="fill:none;stroke:#ffffff;stroke-linecap:round;"/>
     </g>
    </g>
   </g>
   <g id="line2d_22">
    <path clip-path="url(#p6aef24e894)" d="M 617.227332 644.863295 
L 617.355594 637.158721 
L 617.613799 632.022339 
L 618.067876 626.885957 
L 618.841417 619.181384 
L 619.022487 614.045002 
L 618.765232 608.90862 
L 617.553823 596.067665 
L 617.344546 590.931283 
L 617.331851 585.794901 
L 617.588392 580.658518 
L 617.894132 578.090327 
L 618.380069 575.522136 
L 619.089238 572.953945 
L 620.040204 570.385754 
L 621.206021 567.817563 
L 623.775845 562.681181 
L 624.854111 560.11299 
L 625.562528 557.544799 
L 625.78845 554.976608 
L 625.520166 552.408417 
L 624.864057 549.840226 
L 623.298976 544.703844 
L 622.956287 542.135653 
L 623.248048 539.567462 
L 624.322333 536.999271 
L 626.188723 534.43108 
L 628.695712 531.862889 
L 634.322537 526.726507 
L 636.642612 524.158316 
L 638.222623 521.590124 
L 639.008256 519.021933 
L 639.206795 516.453742 
L 639.233097 513.885551 
L 639.572038 511.31736 
L 640.604327 508.749169 
L 642.464462 506.180978 
L 644.992189 503.612787 
L 647.802176 501.044596 
L 650.445048 498.476405 
L 652.589794 495.908214 
L 654.145508 493.340023 
L 655.268758 490.771832 
L 656.260041 488.203641 
L 657.408798 485.63545 
L 658.869654 483.067259 
L 660.628717 480.499068 
L 666.514214 472.794495 
L 670.61266 467.658113 
L 672.890002 465.089922 
L 677.972048 459.953539 
L 685.906145 452.248966 
L 688.308308 449.680775 
L 690.479872 447.112584 
L 692.385755 444.544393 
L 694.019825 441.976202 
L 695.402938 439.408011 
L 696.573366 436.83982 
L 697.574691 434.271629 
L 699.221118 429.135247 
L 700.560117 423.998865 
L 701.661461 418.862483 
L 702.44363 413.726101 
L 702.668169 411.15791 
L 702.762278 408.589719 
L 702.719142 406.021527 
L 702.535463 403.453336 
L 702.207811 400.885145 
L 701.731991 398.316954 
L 701.10753 395.748763 
L 699.475619 390.612381 
L 695.864243 380.339617 
L 694.207066 375.203235 
L 693.237297 372.635044 
L 692.045046 370.066853 
L 690.551695 367.498662 
L 688.716965 364.930471 
L 686.547065 362.36228 
L 684.089875 359.794089 
L 678.617858 354.657707 
L 664.394695 341.816751 
L 658.94281 336.680369 
L 653.829594 331.543987 
L 651.476214 328.975796 
L 649.292114 326.407605 
L 647.285766 323.839414 
L 645.447461 321.271223 
L 642.163528 316.134841 
L 639.191722 310.998459 
L 636.415183 305.862077 
L 633.879574 300.725695 
L 631.609628 295.589313 
L 628.532224 287.884739 
L 626.670117 282.748357 
L 625.106577 277.611975 
L 623.967024 272.475593 
L 623.209504 267.339211 
L 621.325747 251.930065 
L 619.95533 241.657301 
L 619.231776 233.952728 
L 618.781036 226.248154 
L 617.491008 195.429862 
L 617.330479 182.588907 
L 617.207843 133.793277 
L 617.207843 133.793277 
" style="fill:none;stroke:#ff0000;stroke-linecap:round;stroke-width:1.5;"/>
   </g>
   <g id="patch_8">
    <path d="M 617.207143 655.54 
L 617.207143 123.116571 
" style="fill:none;stroke:#ffffff;stroke-linecap:square;stroke-linejoin:miter;stroke-width:1.25;"/>
   </g>
  </g>
  <g id="axes_4">
   <g id="patch_9">
    <path clip-path="url(#pa05797e17d)" d="M 521.085986 655.54 
L 521.085986 596.381841 
L 521.085986 182.27473 
L 521.085986 123.116571 
L 547.707157 123.116571 
L 547.707157 182.27473 
L 547.707157 596.381841 
L 547.707157 655.54 
z
" style="fill:#eaeaf2;stroke:#eaeaf2;stroke-linejoin:miter;stroke-width:0.01;"/>
   </g>
   <g id="matplotlib.axis_7"/>
   <g id="matplotlib.axis_8">
    <g id="ytick_15">
     <g id="line2d_23">
      <path clip-path="url(#pa05797e17d)" d="M 521.085986 655.54 
L 547.707157 655.54 
" style="fill:none;stroke:#ffffff;stroke-linecap:round;"/>
     </g>
     <g id="line2d_24">
      <defs>
       <path d="M 0 0 
L 6 0 
" id="m353b32da80" style="stroke:#262626;stroke-width:1.25;"/>
      </defs>
      <g>
       <use style="fill:#262626;stroke:#262626;stroke-width:1.25;" x="547.707157" xlink:href="#m353b32da80" y="655.54"/>
      </g>
     </g>
     <g id="text_13">
      <!-- 0.0571 -->
      <g style="fill:#262626;" transform="translate(557.207157 666.276719)scale(0.3 -0.3)">
       <defs>
        <path d="M 4.734375 62.203125 
L 4.734375 70.65625 
L 51.078125 70.65625 
L 51.078125 63.8125 
Q 44.234375 56.546875 37.515625 44.484375 
Q 30.8125 32.421875 27.15625 19.671875 
Q 24.515625 10.6875 23.78125 0 
L 14.75 0 
Q 14.890625 8.453125 18.0625 20.40625 
Q 21.234375 32.375 27.171875 43.484375 
Q 33.109375 54.59375 39.796875 62.203125 
z
" id="ArialMT-55"/>
       </defs>
       <use xlink:href="#ArialMT-48"/>
       <use x="55.615234" xlink:href="#ArialMT-46"/>
       <use x="83.398438" xlink:href="#ArialMT-48"/>
       <use x="139.013672" xlink:href="#ArialMT-53"/>
       <use x="194.628906" xlink:href="#ArialMT-55"/>
       <use x="250.244141" xlink:href="#ArialMT-49"/>
      </g>
     </g>
    </g>
    <g id="ytick_16">
     <g id="line2d_25">
      <path clip-path="url(#pa05797e17d)" d="M 521.085986 596.381841 
L 547.707157 596.381841 
" style="fill:none;stroke:#ffffff;stroke-linecap:round;"/>
     </g>
     <g id="line2d_26">
      <g>
       <use style="fill:#262626;stroke:#262626;stroke-width:1.25;" x="547.707157" xlink:href="#m353b32da80" y="596.381841"/>
      </g>
     </g>
     <g id="text_14">
      <!-- 0.1786 -->
      <g style="fill:#262626;" transform="translate(557.207157 607.11856)scale(0.3 -0.3)">
       <defs>
        <path d="M 17.671875 38.8125 
Q 12.203125 40.828125 9.5625 44.53125 
Q 6.9375 48.25 6.9375 53.421875 
Q 6.9375 61.234375 12.546875 66.546875 
Q 18.171875 71.875 27.484375 71.875 
Q 36.859375 71.875 42.578125 66.421875 
Q 48.296875 60.984375 48.296875 53.171875 
Q 48.296875 48.1875 45.671875 44.5 
Q 43.0625 40.828125 37.75 38.8125 
Q 44.34375 36.671875 47.78125 31.875 
Q 51.21875 27.09375 51.21875 20.453125 
Q 51.21875 11.28125 44.71875 5.03125 
Q 38.234375 -1.21875 27.640625 -1.21875 
Q 17.046875 -1.21875 10.546875 5.046875 
Q 4.046875 11.328125 4.046875 20.703125 
Q 4.046875 27.6875 7.59375 32.390625 
Q 11.140625 37.109375 17.671875 38.8125 
z
M 15.921875 53.71875 
Q 15.921875 48.640625 19.1875 45.40625 
Q 22.46875 42.1875 27.6875 42.1875 
Q 32.765625 42.1875 36.015625 45.375 
Q 39.265625 48.578125 39.265625 53.21875 
Q 39.265625 58.0625 35.90625 61.359375 
Q 32.5625 64.65625 27.59375 64.65625 
Q 22.5625 64.65625 19.234375 61.421875 
Q 15.921875 58.203125 15.921875 53.71875 
z
M 13.09375 20.65625 
Q 13.09375 16.890625 14.875 13.375 
Q 16.65625 9.859375 20.171875 7.921875 
Q 23.6875 6 27.734375 6 
Q 34.03125 6 38.125 10.046875 
Q 42.234375 14.109375 42.234375 20.359375 
Q 42.234375 26.703125 38.015625 30.859375 
Q 33.796875 35.015625 27.4375 35.015625 
Q 21.234375 35.015625 17.15625 30.90625 
Q 13.09375 26.8125 13.09375 20.65625 
z
" id="ArialMT-56"/>
        <path d="M 49.75 54.046875 
L 41.015625 53.375 
Q 39.84375 58.546875 37.703125 60.890625 
Q 34.125 64.65625 28.90625 64.65625 
Q 24.703125 64.65625 21.53125 62.3125 
Q 17.390625 59.28125 14.984375 53.46875 
Q 12.59375 47.65625 12.5 36.921875 
Q 15.671875 41.75 20.265625 44.09375 
Q 24.859375 46.4375 29.890625 46.4375 
Q 38.671875 46.4375 44.84375 39.96875 
Q 51.03125 33.5 51.03125 23.25 
Q 51.03125 16.5 48.125 10.71875 
Q 45.21875 4.9375 40.140625 1.859375 
Q 35.0625 -1.21875 28.609375 -1.21875 
Q 17.625 -1.21875 10.6875 6.859375 
Q 3.765625 14.9375 3.765625 33.5 
Q 3.765625 54.25 11.421875 63.671875 
Q 18.109375 71.875 29.4375 71.875 
Q 37.890625 71.875 43.28125 67.140625 
Q 48.6875 62.40625 49.75 54.046875 
z
M 13.875 23.1875 
Q 13.875 18.65625 15.796875 14.5 
Q 17.71875 10.359375 21.1875 8.171875 
Q 24.65625 6 28.46875 6 
Q 34.03125 6 38.03125 10.484375 
Q 42.046875 14.984375 42.046875 22.703125 
Q 42.046875 30.125 38.078125 34.390625 
Q 34.125 38.671875 28.125 38.671875 
Q 22.171875 38.671875 18.015625 34.390625 
Q 13.875 30.125 13.875 23.1875 
z
" id="ArialMT-54"/>
       </defs>
       <use xlink:href="#ArialMT-48"/>
       <use x="55.615234" xlink:href="#ArialMT-46"/>
       <use x="83.398438" xlink:href="#ArialMT-49"/>
       <use x="139.013672" xlink:href="#ArialMT-55"/>
       <use x="194.628906" xlink:href="#ArialMT-56"/>
       <use x="250.244141" xlink:href="#ArialMT-54"/>
      </g>
     </g>
    </g>
    <g id="ytick_17">
     <g id="line2d_27">
      <path clip-path="url(#pa05797e17d)" d="M 521.085986 537.223683 
L 547.707157 537.223683 
" style="fill:none;stroke:#ffffff;stroke-linecap:round;"/>
     </g>
     <g id="line2d_28">
      <g>
       <use style="fill:#262626;stroke:#262626;stroke-width:1.25;" x="547.707157" xlink:href="#m353b32da80" y="537.223683"/>
      </g>
     </g>
     <g id="text_15">
      <!-- 0.3067 -->
      <g style="fill:#262626;" transform="translate(557.207157 547.960401)scale(0.3 -0.3)">
       <use xlink:href="#ArialMT-48"/>
       <use x="55.615234" xlink:href="#ArialMT-46"/>
       <use x="83.398438" xlink:href="#ArialMT-51"/>
       <use x="139.013672" xlink:href="#ArialMT-48"/>
       <use x="194.628906" xlink:href="#ArialMT-54"/>
       <use x="250.244141" xlink:href="#ArialMT-55"/>
      </g>
     </g>
    </g>
    <g id="ytick_18">
     <g id="line2d_29">
      <path clip-path="url(#pa05797e17d)" d="M 521.085986 478.065524 
L 547.707157 478.065524 
" style="fill:none;stroke:#ffffff;stroke-linecap:round;"/>
     </g>
     <g id="line2d_30">
      <g>
       <use style="fill:#262626;stroke:#262626;stroke-width:1.25;" x="547.707157" xlink:href="#m353b32da80" y="478.065524"/>
      </g>
     </g>
     <g id="text_16">
      <!-- 0.4331 -->
      <g style="fill:#262626;" transform="translate(557.207157 488.802243)scale(0.3 -0.3)">
       <defs>
        <path d="M 32.328125 0 
L 32.328125 17.140625 
L 1.265625 17.140625 
L 1.265625 25.203125 
L 33.9375 71.578125 
L 41.109375 71.578125 
L 41.109375 25.203125 
L 50.78125 25.203125 
L 50.78125 17.140625 
L 41.109375 17.140625 
L 41.109375 0 
z
M 32.328125 25.203125 
L 32.328125 57.46875 
L 9.90625 25.203125 
z
" id="ArialMT-52"/>
       </defs>
       <use xlink:href="#ArialMT-48"/>
       <use x="55.615234" xlink:href="#ArialMT-46"/>
       <use x="83.398438" xlink:href="#ArialMT-52"/>
       <use x="139.013672" xlink:href="#ArialMT-51"/>
       <use x="194.628906" xlink:href="#ArialMT-51"/>
       <use x="250.244141" xlink:href="#ArialMT-49"/>
      </g>
     </g>
    </g>
    <g id="ytick_19">
     <g id="line2d_31">
      <path clip-path="url(#pa05797e17d)" d="M 521.085986 418.907365 
L 547.707157 418.907365 
" style="fill:none;stroke:#ffffff;stroke-linecap:round;"/>
     </g>
     <g id="line2d_32">
      <g>
       <use style="fill:#262626;stroke:#262626;stroke-width:1.25;" x="547.707157" xlink:href="#m353b32da80" y="418.907365"/>
      </g>
     </g>
     <g id="text_17">
      <!-- 0.5427 -->
      <g style="fill:#262626;" transform="translate(557.207157 429.644084)scale(0.3 -0.3)">
       <use xlink:href="#ArialMT-48"/>
       <use x="55.615234" xlink:href="#ArialMT-46"/>
       <use x="83.398438" xlink:href="#ArialMT-53"/>
       <use x="139.013672" xlink:href="#ArialMT-52"/>
       <use x="194.628906" xlink:href="#ArialMT-50"/>
       <use x="250.244141" xlink:href="#ArialMT-55"/>
      </g>
     </g>
    </g>
    <g id="ytick_20">
     <g id="line2d_33">
      <path clip-path="url(#pa05797e17d)" d="M 521.085986 359.749206 
L 547.707157 359.749206 
" style="fill:none;stroke:#ffffff;stroke-linecap:round;"/>
     </g>
     <g id="line2d_34">
      <g>
       <use style="fill:#262626;stroke:#262626;stroke-width:1.25;" x="547.707157" xlink:href="#m353b32da80" y="359.749206"/>
      </g>
     </g>
     <g id="text_18">
      <!-- 0.6432 -->
      <g style="fill:#262626;" transform="translate(557.207157 370.485925)scale(0.3 -0.3)">
       <use xlink:href="#ArialMT-48"/>
       <use x="55.615234" xlink:href="#ArialMT-46"/>
       <use x="83.398438" xlink:href="#ArialMT-54"/>
       <use x="139.013672" xlink:href="#ArialMT-52"/>
       <use x="194.628906" xlink:href="#ArialMT-51"/>
       <use x="250.244141" xlink:href="#ArialMT-50"/>
      </g>
     </g>
    </g>
    <g id="ytick_21">
     <g id="line2d_35">
      <path clip-path="url(#pa05797e17d)" d="M 521.085986 300.591048 
L 547.707157 300.591048 
" style="fill:none;stroke:#ffffff;stroke-linecap:round;"/>
     </g>
     <g id="line2d_36">
      <g>
       <use style="fill:#262626;stroke:#262626;stroke-width:1.25;" x="547.707157" xlink:href="#m353b32da80" y="300.591048"/>
      </g>
     </g>
     <g id="text_19">
      <!-- 0.7314 -->
      <g style="fill:#262626;" transform="translate(557.207157 311.327766)scale(0.3 -0.3)">
       <use xlink:href="#ArialMT-48"/>
       <use x="55.615234" xlink:href="#ArialMT-46"/>
       <use x="83.398438" xlink:href="#ArialMT-55"/>
       <use x="139.013672" xlink:href="#ArialMT-51"/>
       <use x="194.628906" xlink:href="#ArialMT-49"/>
       <use x="250.244141" xlink:href="#ArialMT-52"/>
      </g>
     </g>
    </g>
    <g id="ytick_22">
     <g id="line2d_37">
      <path clip-path="url(#pa05797e17d)" d="M 521.085986 241.432889 
L 547.707157 241.432889 
" style="fill:none;stroke:#ffffff;stroke-linecap:round;"/>
     </g>
     <g id="line2d_38">
      <g>
       <use style="fill:#262626;stroke:#262626;stroke-width:1.25;" x="547.707157" xlink:href="#m353b32da80" y="241.432889"/>
      </g>
     </g>
     <g id="text_20">
      <!-- 0.8012 -->
      <g style="fill:#262626;" transform="translate(557.207157 252.169608)scale(0.3 -0.3)">
       <use xlink:href="#ArialMT-48"/>
       <use x="55.615234" xlink:href="#ArialMT-46"/>
       <use x="83.398438" xlink:href="#ArialMT-56"/>
       <use x="139.013672" xlink:href="#ArialMT-48"/>
       <use x="194.628906" xlink:href="#ArialMT-49"/>
       <use x="250.244141" xlink:href="#ArialMT-50"/>
      </g>
     </g>
    </g>
    <g id="ytick_23">
     <g id="line2d_39">
      <path clip-path="url(#pa05797e17d)" d="M 521.085986 182.27473 
L 547.707157 182.27473 
" style="fill:none;stroke:#ffffff;stroke-linecap:round;"/>
     </g>
     <g id="line2d_40">
      <g>
       <use style="fill:#262626;stroke:#262626;stroke-width:1.25;" x="547.707157" xlink:href="#m353b32da80" y="182.27473"/>
      </g>
     </g>
     <g id="text_21">
      <!-- 0.8708 -->
      <g style="fill:#262626;" transform="translate(557.207157 193.011449)scale(0.3 -0.3)">
       <use xlink:href="#ArialMT-48"/>
       <use x="55.615234" xlink:href="#ArialMT-46"/>
       <use x="83.398438" xlink:href="#ArialMT-56"/>
       <use x="139.013672" xlink:href="#ArialMT-55"/>
       <use x="194.628906" xlink:href="#ArialMT-48"/>
       <use x="250.244141" xlink:href="#ArialMT-56"/>
      </g>
     </g>
    </g>
    <g id="ytick_24">
     <g id="line2d_41">
      <path clip-path="url(#pa05797e17d)" d="M 521.085986 123.116571 
L 547.707157 123.116571 
" style="fill:none;stroke:#ffffff;stroke-linecap:round;"/>
     </g>
     <g id="line2d_42">
      <g>
       <use style="fill:#262626;stroke:#262626;stroke-width:1.25;" x="547.707157" xlink:href="#m353b32da80" y="123.116571"/>
      </g>
     </g>
     <g id="text_22">
      <!-- 0.9856 -->
      <g style="fill:#262626;" transform="translate(557.207157 133.85329)scale(0.3 -0.3)">
       <defs>
        <path d="M 5.46875 16.546875 
L 13.921875 17.328125 
Q 14.984375 11.375 18.015625 8.6875 
Q 21.046875 6 25.78125 6 
Q 29.828125 6 32.875 7.859375 
Q 35.9375 9.71875 37.890625 12.8125 
Q 39.84375 15.921875 41.15625 21.1875 
Q 42.484375 26.46875 42.484375 31.9375 
Q 42.484375 32.515625 42.4375 33.6875 
Q 39.796875 29.5 35.234375 26.875 
Q 30.671875 24.265625 25.34375 24.265625 
Q 16.453125 24.265625 10.296875 30.703125 
Q 4.15625 37.15625 4.15625 47.703125 
Q 4.15625 58.59375 10.578125 65.234375 
Q 17 71.875 26.65625 71.875 
Q 33.640625 71.875 39.421875 68.109375 
Q 45.21875 64.359375 48.21875 57.390625 
Q 51.21875 50.4375 51.21875 37.25 
Q 51.21875 23.53125 48.234375 15.40625 
Q 45.265625 7.28125 39.375 3.03125 
Q 33.5 -1.21875 25.59375 -1.21875 
Q 17.1875 -1.21875 11.859375 3.4375 
Q 6.546875 8.109375 5.46875 16.546875 
z
M 41.453125 48.140625 
Q 41.453125 55.71875 37.421875 60.15625 
Q 33.40625 64.59375 27.734375 64.59375 
Q 21.875 64.59375 17.53125 59.8125 
Q 13.1875 55.03125 13.1875 47.40625 
Q 13.1875 40.578125 17.3125 36.296875 
Q 21.4375 32.03125 27.484375 32.03125 
Q 33.59375 32.03125 37.515625 36.296875 
Q 41.453125 40.578125 41.453125 48.140625 
z
" id="ArialMT-57"/>
       </defs>
       <use xlink:href="#ArialMT-48"/>
       <use x="55.615234" xlink:href="#ArialMT-46"/>
       <use x="83.398438" xlink:href="#ArialMT-57"/>
       <use x="139.013672" xlink:href="#ArialMT-56"/>
       <use x="194.628906" xlink:href="#ArialMT-53"/>
       <use x="250.244141" xlink:href="#ArialMT-54"/>
      </g>
     </g>
    </g>
   </g>
   <g id="LineCollection_11">
    <path clip-path="url(#pa05797e17d)" d="M 521.085986 655.54 
L 547.707157 655.54 
" style="fill:none;stroke:#ff0000;stroke-width:1.5;"/>
    <path clip-path="url(#pa05797e17d)" d="M 521.085986 596.381841 
L 547.707157 596.381841 
" style="fill:none;stroke:#ff0000;stroke-width:1.5;"/>
    <path clip-path="url(#pa05797e17d)" d="M 521.085986 537.223683 
L 547.707157 537.223683 
" style="fill:none;stroke:#ff0000;stroke-width:1.5;"/>
    <path clip-path="url(#pa05797e17d)" d="M 521.085986 478.065524 
L 547.707157 478.065524 
" style="fill:none;stroke:#ff0000;stroke-width:1.5;"/>
    <path clip-path="url(#pa05797e17d)" d="M 521.085986 418.907365 
L 547.707157 418.907365 
" style="fill:none;stroke:#ff0000;stroke-width:1.5;"/>
    <path clip-path="url(#pa05797e17d)" d="M 521.085986 359.749206 
L 547.707157 359.749206 
" style="fill:none;stroke:#ff0000;stroke-width:1.5;"/>
    <path clip-path="url(#pa05797e17d)" d="M 521.085986 300.591048 
L 547.707157 300.591048 
" style="fill:none;stroke:#ff0000;stroke-width:1.5;"/>
    <path clip-path="url(#pa05797e17d)" d="M 521.085986 241.432889 
L 547.707157 241.432889 
" style="fill:none;stroke:#ff0000;stroke-width:1.5;"/>
    <path clip-path="url(#pa05797e17d)" d="M 521.085986 182.27473 
L 547.707157 182.27473 
" style="fill:none;stroke:#ff0000;stroke-width:1.5;"/>
    <path clip-path="url(#pa05797e17d)" d="M 521.085986 123.116571 
L 547.707157 123.116571 
" style="fill:none;stroke:#ff0000;stroke-width:1.5;"/>
   </g>
   <g id="patch_10">
    <path d="M 521.085986 655.54 
L 521.085986 596.381841 
L 521.085986 182.27473 
L 521.085986 123.116571 
L 547.707157 123.116571 
L 547.707157 182.27473 
L 547.707157 596.381841 
L 547.707157 655.54 
z
" style="fill:none;stroke:#ffffff;stroke-linejoin:miter;stroke-width:1.25;"/>
   </g>
  </g>
 </g>
 <defs>
  <clipPath id="p573d2efb1b">
   <rect height="532.423429" width="416.824457" x="78.21" y="123.116571"/>
  </clipPath>
  <clipPath id="p598623f322">
   <rect height="91.797143" width="521.030571" x="78.21" y="12.96"/>
  </clipPath>
  <clipPath id="p6aef24e894">
   <rect height="532.423429" width="89.832857" x="617.207143" y="123.116571"/>
  </clipPath>
  <clipPath id="pa05797e17d">
   <rect height="532.423429" width="26.621171" x="521.085986" y="123.116571"/>
  </clipPath>
 </defs>
</svg>
