<?xml version="1.0" encoding="utf-8" standalone="no"?>
<!DOCTYPE svg PUBLIC "-//W3C//DTD SVG 1.1//EN"
  "http://www.w3.org/Graphics/SVG/1.1/DTD/svg11.dtd">
<!-- Created with matplotlib (https://matplotlib.org/) -->
<svg height="360pt" version="1.1" viewBox="0 0 360 360" width="360pt" xmlns="http://www.w3.org/2000/svg" xmlns:xlink="http://www.w3.org/1999/xlink">
 <metadata>
  <rdf:RDF xmlns:cc="http://creativecommons.org/ns#" xmlns:dc="http://purl.org/dc/elements/1.1/" xmlns:rdf="http://www.w3.org/1999/02/22-rdf-syntax-ns#">
   <cc:Work>
    <dc:type rdf:resource="http://purl.org/dc/dcmitype/StillImage"/>
    <dc:date>2021-06-05T11:05:00.399740</dc:date>
    <dc:format>image/svg+xml</dc:format>
    <dc:creator>
     <cc:Agent>
      <dc:title>Matplotlib v3.3.4, https://matplotlib.org/</dc:title>
     </cc:Agent>
    </dc:creator>
   </cc:Work>
  </rdf:RDF>
 </metadata>
 <defs>
  <style type="text/css">*{stroke-linecap:butt;stroke-linejoin:round;}</style>
 </defs>
 <g id="figure_1">
  <g id="patch_1">
   <path d="M 0 360 
L 360 360 
L 360 0 
L 0 0 
z
" style="fill:none;"/>
  </g>
  <g id="axes_1">
   <g id="patch_2">
    <path d="M 45 315 
L 324 315 
L 324 43.2 
L 45 43.2 
z
" style="fill:#ffffff;"/>
   </g>
   <g id="PathCollection_1">
    <path clip-path="url(#p6408a341c7)" d="M 57.681818 55.554545 
C 57.681818 55.554545 57.681818 55.554545 57.681818 55.554545 
C 57.681818 55.554545 57.681818 55.554545 57.681818 55.554545 
C 57.681818 55.554545 57.681818 55.554545 57.681818 55.554545 
C 57.681818 55.554545 57.681818 55.554545 57.681818 55.554545 
C 57.681818 55.554545 57.681818 55.554545 57.681818 55.554545 
C 57.681818 55.554545 57.681818 55.554545 57.681818 55.554545 
C 57.681818 55.554545 57.681818 55.554545 57.681818 55.554545 
C 57.681818 55.554545 57.681818 55.554545 57.681818 55.554545 
z
" style="fill:#f7fbff;"/>
    <path clip-path="url(#p6408a341c7)" d="M 57.681818 114.972727 
C 60.333849 114.972727 62.877617 113.919064 64.752886 112.043795 
C 66.628155 110.168526 67.681818 107.624758 67.681818 104.972727 
C 67.681818 102.320696 66.628155 99.776929 64.752886 97.901659 
C 62.877617 96.02639 60.333849 94.972727 57.681818 94.972727 
C 55.029787 94.972727 52.486019 96.02639 50.61075 97.901659 
C 48.735481 99.776929 47.681818 102.320696 47.681818 104.972727 
C 47.681818 107.624758 48.735481 110.168526 50.61075 112.043795 
C 52.486019 113.919064 55.029787 114.972727 57.681818 114.972727 
z
" style="fill:#08306b;"/>
    <path clip-path="url(#p6408a341c7)" d="M 57.681818 164.201641 
C 60.283655 164.201641 62.779277 163.167921 64.619053 161.328144 
C 66.45883 159.488368 67.49255 156.992746 67.49255 154.390909 
C 67.49255 151.789073 66.45883 149.29345 64.619053 147.453674 
C 62.779277 145.613898 60.283655 144.580177 57.681818 144.580177 
C 55.079982 144.580177 52.584359 145.613898 50.744583 147.453674 
C 48.904807 149.29345 47.871086 151.789073 47.871086 154.390909 
C 47.871086 156.992746 48.904807 159.488368 50.744583 161.328144 
C 52.584359 163.167921 55.079982 164.201641 57.681818 164.201641 
z
" style="fill:#08306b;"/>
    <path clip-path="url(#p6408a341c7)" d="M 57.681818 213.670113 
C 60.296992 213.670113 62.805407 212.631093 64.654614 210.781886 
C 66.503821 208.932679 67.54284 206.424265 67.54284 203.809091 
C 67.54284 201.193917 66.503821 198.685502 64.654614 196.836295 
C 62.805407 194.987088 60.296992 193.948069 57.681818 193.948069 
C 55.066645 193.948069 52.55823 194.987088 50.709023 196.836295 
C 48.859816 198.685502 47.820796 201.193917 47.820796 203.809091 
C 47.820796 206.424265 48.859816 208.932679 50.709023 210.781886 
C 52.55823 212.631093 55.066645 213.670113 57.681818 213.670113 
z
" style="fill:#08326e;"/>
    <path clip-path="url(#p6408a341c7)" d="M 57.681818 261.928558 
C 59.989426 261.928558 62.202831 261.011736 63.834556 259.38001 
C 65.466281 257.748285 66.383103 255.534881 66.383103 253.227273 
C 66.383103 250.919665 65.466281 248.70626 63.834556 247.074535 
C 62.202831 245.44281 59.989426 244.525988 57.681818 244.525988 
C 55.37421 244.525988 53.160806 245.44281 51.52908 247.074535 
C 49.897355 248.70626 48.980533 250.919665 48.980533 253.227273 
C 48.980533 255.534881 49.897355 257.748285 51.52908 259.38001 
C 53.160806 261.011736 55.37421 261.928558 57.681818 261.928558 
z
" style="fill:#083a7a;"/>
    <path clip-path="url(#p6408a341c7)" d="M 57.681818 310.485839 
C 59.761112 310.485839 61.755524 309.659726 63.225807 308.189443 
C 64.69609 306.71916 65.522202 304.724749 65.522202 302.645455 
C 65.522202 300.56616 64.69609 298.571749 63.225807 297.101466 
C 61.755524 295.631183 59.761112 294.805071 57.681818 294.805071 
C 55.602524 294.805071 53.608112 295.631183 52.137829 297.101466 
C 50.667546 298.571749 49.841434 300.56616 49.841434 302.645455 
C 49.841434 304.724749 50.667546 306.71916 52.137829 308.189443 
C 53.608112 309.659726 55.602524 310.485839 57.681818 310.485839 
z
" style="fill:#135fa7;"/>
    <path clip-path="url(#p6408a341c7)" d="M 108.409091 65.554545 
C 111.061122 65.554545 113.60489 64.500882 115.480159 62.625613 
C 117.355428 60.750344 118.409091 58.206576 118.409091 55.554545 
C 118.409091 52.902514 117.355428 50.358747 115.480159 48.483478 
C 113.60489 46.608209 111.061122 45.554545 108.409091 45.554545 
C 105.75706 45.554545 103.213292 46.608209 101.338023 48.483478 
C 99.462754 50.358747 98.409091 52.902514 98.409091 55.554545 
C 98.409091 58.206576 99.462754 60.750344 101.338023 62.625613 
C 103.213292 64.500882 105.75706 65.554545 108.409091 65.554545 
z
" style="fill:#08306b;"/>
    <path clip-path="url(#p6408a341c7)" d="M 108.409091 104.972727 
C 108.409091 104.972727 108.409091 104.972727 108.409091 104.972727 
C 108.409091 104.972727 108.409091 104.972727 108.409091 104.972727 
C 108.409091 104.972727 108.409091 104.972727 108.409091 104.972727 
C 108.409091 104.972727 108.409091 104.972727 108.409091 104.972727 
C 108.409091 104.972727 108.409091 104.972727 108.409091 104.972727 
C 108.409091 104.972727 108.409091 104.972727 108.409091 104.972727 
C 108.409091 104.972727 108.409091 104.972727 108.409091 104.972727 
C 108.409091 104.972727 108.409091 104.972727 108.409091 104.972727 
z
" style="fill:#f7fbff;"/>
    <path clip-path="url(#p6408a341c7)" d="M 108.409091 163.73709 
C 110.887727 163.73709 113.265178 162.752317 115.017839 160.999657 
C 116.770499 159.246996 117.755271 156.869545 117.755271 154.390909 
C 117.755271 151.912273 116.770499 149.534822 115.017839 147.782161 
C 113.265178 146.029501 110.887727 145.044729 108.409091 145.044729 
C 105.930455 145.044729 103.553004 146.029501 101.800343 147.782161 
C 100.047683 149.534822 99.06291 151.912273 99.06291 154.390909 
C 99.06291 156.869545 100.047683 159.246996 101.800343 160.999657 
C 103.553004 162.752317 105.930455 163.73709 108.409091 163.73709 
z
" style="fill:#08306b;"/>
    <path clip-path="url(#p6408a341c7)" d="M 108.409091 213.715602 
C 111.036328 213.715602 113.556315 212.67179 115.414052 210.814052 
C 117.27179 208.956315 118.315602 206.436328 118.315602 203.809091 
C 118.315602 201.181853 117.27179 198.661867 115.414052 196.80413 
C 113.556315 194.946392 111.036328 193.90258 108.409091 193.90258 
C 105.781853 193.90258 103.261867 194.946392 101.40413 196.80413 
C 99.546392 198.661867 98.50258 201.181853 98.50258 203.809091 
C 98.50258 206.436328 99.546392 208.956315 101.40413 210.814052 
C 103.261867 212.67179 105.781853 213.715602 108.409091 213.715602 
z
" style="fill:#08306b;"/>
    <path clip-path="url(#p6408a341c7)" d="M 108.409091 258.9022 
C 109.914099 258.9022 111.357669 258.304254 112.42187 257.240052 
C 113.486072 256.175851 114.084018 254.732281 114.084018 253.227273 
C 114.084018 251.722264 113.486072 250.278695 112.42187 249.214493 
C 111.357669 248.150292 109.914099 247.552346 108.409091 247.552346 
C 106.904083 247.552346 105.460513 248.150292 104.396312 249.214493 
C 103.33211 250.278695 102.734164 251.722264 102.734164 253.227273 
C 102.734164 254.732281 103.33211 256.175851 104.396312 257.240052 
C 105.460513 258.304254 106.904083 258.9022 108.409091 258.9022 
z
" style="fill:#1460a8;"/>
    <path clip-path="url(#p6408a341c7)" d="M 108.409091 309.100815 
C 110.121073 309.100815 111.763166 308.420638 112.97372 307.210084 
C 114.184274 305.99953 114.864451 304.357436 114.864451 302.645455 
C 114.864451 300.933473 114.184274 299.291379 112.97372 298.080825 
C 111.763166 296.870272 110.121073 296.190094 108.409091 296.190094 
C 106.697109 296.190094 105.055016 296.870272 103.844462 298.080825 
C 102.633908 299.291379 101.95373 300.933473 101.95373 302.645455 
C 101.95373 304.357436 102.633908 305.99953 103.844462 307.210084 
C 105.055016 308.420638 106.697109 309.100815 108.409091 309.100815 
z
" style="fill:#3181bd;"/>
    <path clip-path="url(#p6408a341c7)" d="M 159.136364 65.365278 
C 161.7382 65.365278 164.233823 64.331557 166.073599 62.491781 
C 167.913375 60.652004 168.947096 58.156382 168.947096 55.554545 
C 168.947096 52.952709 167.913375 50.457087 166.073599 48.61731 
C 164.233823 46.777534 161.7382 45.743813 159.136364 45.743813 
C 156.534527 45.743813 154.038905 46.777534 152.199128 48.61731 
C 150.359352 50.457087 149.325631 52.952709 149.325631 55.554545 
C 149.325631 58.156382 150.359352 60.652004 152.199128 62.491781 
C 154.038905 64.331557 156.534527 65.365278 159.136364 65.365278 
z
" style="fill:#08306b;"/>
    <path clip-path="url(#p6408a341c7)" d="M 159.136364 114.318908 
C 161.615 114.318908 163.992451 113.334135 165.745111 111.581475 
C 167.497772 109.828815 168.482544 107.451363 168.482544 104.972727 
C 168.482544 102.494091 167.497772 100.11664 165.745111 98.36398 
C 163.992451 96.611319 161.615 95.626547 159.136364 95.626547 
C 156.657728 95.626547 154.280276 96.611319 152.527616 98.36398 
C 150.774956 100.11664 149.790183 102.494091 149.790183 104.972727 
C 149.790183 107.451363 150.774956 109.828815 152.527616 111.581475 
C 154.280276 113.334135 156.657728 114.318908 159.136364 114.318908 
z
" style="fill:#08306b;"/>
    <path clip-path="url(#p6408a341c7)" d="M 159.136364 154.390909 
C 159.136364 154.390909 159.136364 154.390909 159.136364 154.390909 
C 159.136364 154.390909 159.136364 154.390909 159.136364 154.390909 
C 159.136364 154.390909 159.136364 154.390909 159.136364 154.390909 
C 159.136364 154.390909 159.136364 154.390909 159.136364 154.390909 
C 159.136364 154.390909 159.136364 154.390909 159.136364 154.390909 
C 159.136364 154.390909 159.136364 154.390909 159.136364 154.390909 
C 159.136364 154.390909 159.136364 154.390909 159.136364 154.390909 
C 159.136364 154.390909 159.136364 154.390909 159.136364 154.390909 
z
" style="fill:#f7fbff;"/>
    <path clip-path="url(#p6408a341c7)" d="M 159.136364 213.776975 
C 161.779877 213.776975 164.315476 212.726696 166.184722 210.85745 
C 168.053969 208.988203 169.104248 206.452605 169.104248 203.809091 
C 169.104248 201.165577 168.053969 198.629979 166.184722 196.760732 
C 164.315476 194.891486 161.779877 193.841206 159.136364 193.841206 
C 156.49285 193.841206 153.957252 194.891486 152.088005 196.760732 
C 150.218758 198.629979 149.168479 201.165577 149.168479 203.809091 
C 149.168479 206.452605 150.218758 208.988203 152.088005 210.85745 
C 153.957252 212.726696 156.49285 213.776975 159.136364 213.776975 
z
" style="fill:#083979;"/>
    <path clip-path="url(#p6408a341c7)" d="M 159.136364 258.969472 
C 160.659213 258.969472 162.119895 258.364437 163.196711 257.28762 
C 164.273528 256.210804 164.878563 254.750122 164.878563 253.227273 
C 164.878563 251.704424 164.273528 250.243742 163.196711 249.166925 
C 162.119895 248.090108 160.659213 247.485074 159.136364 247.485074 
C 157.613515 247.485074 156.152833 248.090108 155.076016 249.166925 
C 153.999199 250.243742 153.394165 251.704424 153.394165 253.227273 
C 153.394165 254.750122 153.999199 256.210804 155.076016 257.28762 
C 156.152833 258.364437 157.613515 258.969472 159.136364 258.969472 
z
" style="fill:#1a68ae;"/>
    <path clip-path="url(#p6408a341c7)" d="M 159.136364 309.026606 
C 160.828665 309.026606 162.451881 308.354248 163.648519 307.15761 
C 164.845157 305.960972 165.517515 304.337756 165.517515 302.645455 
C 165.517515 300.953153 164.845157 299.329937 163.648519 298.133299 
C 162.451881 296.936661 160.828665 296.264303 159.136364 296.264303 
C 157.444062 296.264303 155.820846 296.936661 154.624208 298.133299 
C 153.427571 299.329937 152.755212 300.953153 152.755212 302.645455 
C 152.755212 304.337756 153.427571 305.960972 154.624208 307.15761 
C 155.820846 308.354248 157.444062 309.026606 159.136364 309.026606 
z
" style="fill:#3989c1;"/>
    <path clip-path="url(#p6408a341c7)" d="M 209.863636 65.415567 
C 212.47881 65.415567 214.987225 64.376548 216.836432 62.527341 
C 218.685639 60.678134 219.724658 58.169719 219.724658 55.554545 
C 219.724658 52.939372 218.685639 50.430957 216.836432 48.58175 
C 214.987225 46.732543 212.47881 45.693523 209.863636 45.693523 
C 207.248463 45.693523 204.740048 46.732543 202.890841 48.58175 
C 201.041634 50.430957 200.002614 52.939372 200.002614 55.554545 
C 200.002614 58.169719 201.041634 60.678134 202.890841 62.527341 
C 204.740048 64.376548 207.248463 65.415567 209.863636 65.415567 
z
" style="fill:#08326e;"/>
    <path clip-path="url(#p6408a341c7)" d="M 209.863636 114.879239 
C 212.490874 114.879239 215.01086 113.835426 216.868598 111.977689 
C 218.726335 110.119951 219.770148 107.599965 219.770148 104.972727 
C 219.770148 102.34549 218.726335 99.825503 216.868598 97.967766 
C 215.01086 96.110028 212.490874 95.066216 209.863636 95.066216 
C 207.236399 95.066216 204.716412 96.110028 202.858675 97.967766 
C 201.000938 99.825503 199.957125 102.34549 199.957125 104.972727 
C 199.957125 107.599965 201.000938 110.119951 202.858675 111.977689 
C 204.716412 113.835426 207.236399 114.879239 209.863636 114.879239 
z
" style="fill:#08306b;"/>
    <path clip-path="url(#p6408a341c7)" d="M 209.863636 164.358794 
C 212.50715 164.358794 215.042748 163.308514 216.911995 161.439268 
C 218.781242 159.570021 219.831521 157.034423 219.831521 154.390909 
C 219.831521 151.747395 218.781242 149.211797 216.911995 147.34255 
C 215.042748 145.473304 212.50715 144.423025 209.863636 144.423025 
C 207.220123 144.423025 204.684524 145.473304 202.815278 147.34255 
C 200.946031 149.211797 199.895752 151.747395 199.895752 154.390909 
C 199.895752 157.034423 200.946031 159.570021 202.815278 161.439268 
C 204.684524 163.308514 207.220123 164.358794 209.863636 164.358794 
z
" style="fill:#083979;"/>
    <path clip-path="url(#p6408a341c7)" d="M 209.863636 203.809091 
C 209.863636 203.809091 209.863636 203.809091 209.863636 203.809091 
C 209.863636 203.809091 209.863636 203.809091 209.863636 203.809091 
C 209.863636 203.809091 209.863636 203.809091 209.863636 203.809091 
C 209.863636 203.809091 209.863636 203.809091 209.863636 203.809091 
C 209.863636 203.809091 209.863636 203.809091 209.863636 203.809091 
C 209.863636 203.809091 209.863636 203.809091 209.863636 203.809091 
C 209.863636 203.809091 209.863636 203.809091 209.863636 203.809091 
C 209.863636 203.809091 209.863636 203.809091 209.863636 203.809091 
z
" style="fill:#f7fbff;"/>
    <path clip-path="url(#p6408a341c7)" d="M 209.863636 257.278363 
C 210.937998 257.278363 211.968502 256.851515 212.72819 256.091826 
C 213.487879 255.332138 213.914727 254.301635 213.914727 253.227273 
C 213.914727 252.152911 213.487879 251.122408 212.72819 250.362719 
C 211.968502 249.60303 210.937998 249.176182 209.863636 249.176182 
C 208.789275 249.176182 207.758771 249.60303 206.999083 250.362719 
C 206.239394 251.122408 205.812546 252.152911 205.812546 253.227273 
C 205.812546 254.301635 206.239394 255.332138 206.999083 256.091826 
C 207.758771 256.851515 208.789275 257.278363 209.863636 257.278363 
z
" style="fill:#72b2d8;"/>
    <path clip-path="url(#p6408a341c7)" d="M 209.863636 306.541816 
C 210.896964 306.541816 211.888107 306.131271 212.61878 305.400598 
C 213.349453 304.669926 213.759998 303.678782 213.759998 302.645455 
C 213.759998 301.612127 213.349453 300.620984 212.61878 299.890311 
C 211.888107 299.159638 210.896964 298.749093 209.863636 298.749093 
C 208.830309 298.749093 207.839165 299.159638 207.108493 299.890311 
C 206.37782 300.620984 205.967275 301.612127 205.967275 302.645455 
C 205.967275 303.678782 206.37782 304.669926 207.108493 305.400598 
C 207.839165 306.131271 208.830309 306.541816 209.863636 306.541816 
z
" style="fill:#9ac8e0;"/>
    <path clip-path="url(#p6408a341c7)" d="M 260.590909 64.255831 
C 262.898517 64.255831 265.111922 63.339008 266.743647 61.707283 
C 268.375372 60.075558 269.292194 57.862153 269.292194 55.554545 
C 269.292194 53.246938 268.375372 51.033533 266.743647 49.401808 
C 265.111922 47.770083 262.898517 46.85326 260.590909 46.85326 
C 258.283301 46.85326 256.069896 47.770083 254.438171 49.401808 
C 252.806446 51.033533 251.889624 53.246938 251.889624 55.554545 
C 251.889624 57.862153 252.806446 60.075558 254.438171 61.707283 
C 256.069896 63.339008 258.283301 64.255831 260.590909 64.255831 
z
" style="fill:#083a7a;"/>
    <path clip-path="url(#p6408a341c7)" d="M 260.590909 110.647654 
C 262.095917 110.647654 263.539487 110.049708 264.603688 108.985507 
C 265.66789 107.921305 266.265836 106.477736 266.265836 104.972727 
C 266.265836 103.467719 265.66789 102.024149 264.603688 100.959948 
C 263.539487 99.895746 262.095917 99.2978 260.590909 99.2978 
C 259.085901 99.2978 257.642331 99.895746 256.57813 100.959948 
C 255.513928 102.024149 254.915982 103.467719 254.915982 104.972727 
C 254.915982 106.477736 255.513928 107.921305 256.57813 108.985507 
C 257.642331 110.049708 259.085901 110.647654 260.590909 110.647654 
z
" style="fill:#1460a8;"/>
    <path clip-path="url(#p6408a341c7)" d="M 260.590909 160.133108 
C 262.113758 160.133108 263.57444 159.528074 264.651257 158.451257 
C 265.728074 157.37444 266.333108 155.913758 266.333108 154.390909 
C 266.333108 152.86806 265.728074 151.407378 264.651257 150.330561 
C 263.57444 149.253745 262.113758 148.64871 260.590909 148.64871 
C 259.06806 148.64871 257.607378 149.253745 256.530561 150.330561 
C 255.453745 151.407378 254.84871 152.86806 254.84871 154.390909 
C 254.84871 155.913758 255.453745 157.37444 256.530561 158.451257 
C 257.607378 159.528074 259.06806 160.133108 260.590909 160.133108 
z
" style="fill:#1a68ae;"/>
    <path clip-path="url(#p6408a341c7)" d="M 260.590909 207.860182 
C 261.665271 207.860182 262.695774 207.433333 263.455463 206.673645 
C 264.215151 205.913956 264.642 204.883453 264.642 203.809091 
C 264.642 202.734729 264.215151 201.704226 263.455463 200.944537 
C 262.695774 200.184849 261.665271 199.758 260.590909 199.758 
C 259.516547 199.758 258.486044 200.184849 257.726355 200.944537 
C 256.966667 201.704226 256.539818 202.734729 256.539818 203.809091 
C 256.539818 204.883453 256.966667 205.913956 257.726355 206.673645 
C 258.486044 207.433333 259.516547 207.860182 260.590909 207.860182 
z
" style="fill:#72b2d8;"/>
    <path clip-path="url(#p6408a341c7)" d="M 260.590909 253.227273 
C 260.590909 253.227273 260.590909 253.227273 260.590909 253.227273 
C 260.590909 253.227273 260.590909 253.227273 260.590909 253.227273 
C 260.590909 253.227273 260.590909 253.227273 260.590909 253.227273 
C 260.590909 253.227273 260.590909 253.227273 260.590909 253.227273 
C 260.590909 253.227273 260.590909 253.227273 260.590909 253.227273 
C 260.590909 253.227273 260.590909 253.227273 260.590909 253.227273 
C 260.590909 253.227273 260.590909 253.227273 260.590909 253.227273 
C 260.590909 253.227273 260.590909 253.227273 260.590909 253.227273 
z
" style="fill:#f7fbff;"/>
    <path clip-path="url(#p6408a341c7)" d="M 260.590909 307.86328 
C 261.974693 307.86328 263.301986 307.313497 264.280469 306.335015 
C 265.258952 305.356532 265.808735 304.029238 265.808735 302.645455 
C 265.808735 301.261671 265.258952 299.934377 264.280469 298.955894 
C 263.301986 297.977412 261.974693 297.427629 260.590909 297.427629 
C 259.207125 297.427629 257.879832 297.977412 256.901349 298.955894 
C 255.922866 299.934377 255.373083 301.261671 255.373083 302.645455 
C 255.373083 304.029238 255.922866 305.356532 256.901349 306.335015 
C 257.879832 307.313497 259.207125 307.86328 260.590909 307.86328 
z
" style="fill:#79b5d9;"/>
    <path clip-path="url(#p6408a341c7)" d="M 311.318182 63.394929 
C 313.397476 63.394929 315.391888 62.568817 316.862171 61.098534 
C 318.332454 59.628251 319.158566 57.63384 319.158566 55.554545 
C 319.158566 53.475251 318.332454 51.48084 316.862171 50.010557 
C 315.391888 48.540274 313.397476 47.714161 311.318182 47.714161 
C 309.238888 47.714161 307.244476 48.540274 305.774193 50.010557 
C 304.30391 51.48084 303.477798 53.475251 303.477798 55.554545 
C 303.477798 57.63384 304.30391 59.628251 305.774193 61.098534 
C 307.244476 62.568817 309.238888 63.394929 311.318182 63.394929 
z
" style="fill:#135fa7;"/>
    <path clip-path="url(#p6408a341c7)" d="M 311.318182 111.428088 
C 313.030163 111.428088 314.672257 110.74791 315.882811 109.537356 
C 317.093365 108.326803 317.773542 106.684709 317.773542 104.972727 
C 317.773542 103.260746 317.093365 101.618652 315.882811 100.408098 
C 314.672257 99.197544 313.030163 98.517367 311.318182 98.517367 
C 309.6062 98.517367 307.964106 99.197544 306.753553 100.408098 
C 305.542999 101.618652 304.862821 103.260746 304.862821 104.972727 
C 304.862821 106.684709 305.542999 108.326803 306.753553 109.537356 
C 307.964106 110.74791 309.6062 111.428088 311.318182 111.428088 
z
" style="fill:#3181bd;"/>
    <path clip-path="url(#p6408a341c7)" d="M 311.318182 160.772061 
C 313.010483 160.772061 314.6337 160.099702 315.830337 158.903065 
C 317.026975 157.706427 317.699333 156.08321 317.699333 154.390909 
C 317.699333 152.698608 317.026975 151.075391 315.830337 149.878754 
C 314.6337 148.682116 313.010483 148.009758 311.318182 148.009758 
C 309.625881 148.009758 308.002664 148.682116 306.806026 149.878754 
C 305.609389 151.075391 304.93703 152.698608 304.93703 154.390909 
C 304.93703 156.08321 305.609389 157.706427 306.806026 158.903065 
C 308.002664 160.099702 309.625881 160.772061 311.318182 160.772061 
z
" style="fill:#3989c1;"/>
    <path clip-path="url(#p6408a341c7)" d="M 311.318182 207.705452 
C 312.351509 207.705452 313.342653 207.294907 314.073325 206.564235 
C 314.803998 205.833562 315.214543 204.842418 315.214543 203.809091 
C 315.214543 202.775764 314.803998 201.78462 314.073325 201.053947 
C 313.342653 200.323275 312.351509 199.912729 311.318182 199.912729 
C 310.284855 199.912729 309.293711 200.323275 308.563038 201.053947 
C 307.832366 201.78462 307.42182 202.775764 307.42182 203.809091 
C 307.42182 204.842418 307.832366 205.833562 308.563038 206.564235 
C 309.293711 207.294907 310.284855 207.705452 311.318182 207.705452 
z
" style="fill:#9ac8e0;"/>
    <path clip-path="url(#p6408a341c7)" d="M 311.318182 258.445099 
C 312.701965 258.445099 314.029259 257.895316 315.007742 256.916833 
C 315.986225 255.93835 316.536008 254.611056 316.536008 253.227273 
C 316.536008 251.843489 315.986225 250.516195 315.007742 249.537713 
C 314.029259 248.55923 312.701965 248.009447 311.318182 248.009447 
C 309.934398 248.009447 308.607105 248.55923 307.628622 249.537713 
C 306.650139 250.516195 306.100356 251.843489 306.100356 253.227273 
C 306.100356 254.611056 306.650139 255.93835 307.628622 256.916833 
C 308.607105 257.895316 309.934398 258.445099 311.318182 258.445099 
z
" style="fill:#79b5d9;"/>
    <path clip-path="url(#p6408a341c7)" d="M 311.318182 302.645455 
C 311.318182 302.645455 311.318182 302.645455 311.318182 302.645455 
C 311.318182 302.645455 311.318182 302.645455 311.318182 302.645455 
C 311.318182 302.645455 311.318182 302.645455 311.318182 302.645455 
C 311.318182 302.645455 311.318182 302.645455 311.318182 302.645455 
C 311.318182 302.645455 311.318182 302.645455 311.318182 302.645455 
C 311.318182 302.645455 311.318182 302.645455 311.318182 302.645455 
C 311.318182 302.645455 311.318182 302.645455 311.318182 302.645455 
C 311.318182 302.645455 311.318182 302.645455 311.318182 302.645455 
z
" style="fill:#f7fbff;"/>
   </g>
   <g id="PathCollection_2"/>
   <g id="PathCollection_3"/>
   <g id="PathCollection_4"/>
   <g id="PathCollection_5"/>
   <g id="PathCollection_6"/>
   <g id="PathCollection_7"/>
   <g id="PathCollection_8"/>
   <g id="PathCollection_9"/>
   <g id="PathCollection_10"/>
   <g id="PathCollection_11"/>
   <g id="matplotlib.axis_1">
    <g id="xtick_1">
     <g id="line2d_1">
      <defs>
       <path d="M 0 0 
L 0 3.5 
" id="m6588b7228b" style="stroke:#000000;stroke-width:0.8;"/>
      </defs>
      <g>
       <use style="stroke:#000000;stroke-width:0.8;" x="57.681818" xlink:href="#m6588b7228b" y="315"/>
      </g>
     </g>
     <g id="text_1">
      <!-- PathwayCommons -->
      <g transform="translate(63.122443 527.796875)rotate(-90)scale(0.2 -0.2)">
       <defs>
        <path d="M 9.1875 72.90625 
L 40.375 72.90625 
Q 54.296875 72.90625 61.734375 66.71875 
Q 69.1875 60.546875 69.1875 49.125 
Q 69.1875 37.640625 61.734375 31.46875 
Q 54.296875 25.296875 40.375 25.296875 
L 27.984375 25.296875 
L 27.984375 0 
L 9.1875 0 
z
M 27.984375 59.28125 
L 27.984375 38.921875 
L 38.375 38.921875 
Q 43.84375 38.921875 46.828125 41.578125 
Q 49.8125 44.234375 49.8125 49.125 
Q 49.8125 54 46.828125 56.640625 
Q 43.84375 59.28125 38.375 59.28125 
z
" id="DejaVuSans-Bold-80"/>
        <path d="M 32.90625 24.609375 
Q 27.4375 24.609375 24.671875 22.75 
Q 21.921875 20.90625 21.921875 17.28125 
Q 21.921875 13.96875 24.140625 12.078125 
Q 26.375 10.203125 30.328125 10.203125 
Q 35.25 10.203125 38.625 13.734375 
Q 42 17.28125 42 22.609375 
L 42 24.609375 
z
M 59.625 31.203125 
L 59.625 0 
L 42 0 
L 42 8.109375 
Q 38.484375 3.125 34.078125 0.84375 
Q 29.6875 -1.421875 23.390625 -1.421875 
Q 14.890625 -1.421875 9.59375 3.53125 
Q 4.296875 8.5 4.296875 16.40625 
Q 4.296875 26.03125 10.90625 30.515625 
Q 17.53125 35.015625 31.6875 35.015625 
L 42 35.015625 
L 42 36.375 
Q 42 40.53125 38.71875 42.453125 
Q 35.453125 44.390625 28.515625 44.390625 
Q 22.90625 44.390625 18.0625 43.265625 
Q 13.234375 42.140625 9.078125 39.890625 
L 9.078125 53.21875 
Q 14.703125 54.59375 20.359375 55.296875 
Q 26.03125 56 31.6875 56 
Q 46.484375 56 53.046875 50.171875 
Q 59.625 44.34375 59.625 31.203125 
z
" id="DejaVuSans-Bold-97"/>
        <path d="M 27.484375 70.21875 
L 27.484375 54.6875 
L 45.515625 54.6875 
L 45.515625 42.1875 
L 27.484375 42.1875 
L 27.484375 19 
Q 27.484375 15.1875 29 13.84375 
Q 30.515625 12.5 35.015625 12.5 
L 44 12.5 
L 44 0 
L 29 0 
Q 18.65625 0 14.328125 4.3125 
Q 10.015625 8.640625 10.015625 19 
L 10.015625 42.1875 
L 1.3125 42.1875 
L 1.3125 54.6875 
L 10.015625 54.6875 
L 10.015625 70.21875 
z
" id="DejaVuSans-Bold-116"/>
        <path d="M 63.375 33.296875 
L 63.375 0 
L 45.796875 0 
L 45.796875 5.421875 
L 45.796875 25.390625 
Q 45.796875 32.5625 45.484375 35.25 
Q 45.171875 37.9375 44.390625 39.203125 
Q 43.359375 40.921875 41.59375 41.875 
Q 39.84375 42.828125 37.59375 42.828125 
Q 32.125 42.828125 29 38.59375 
Q 25.875 34.375 25.875 26.90625 
L 25.875 0 
L 8.40625 0 
L 8.40625 75.984375 
L 25.875 75.984375 
L 25.875 46.6875 
Q 29.828125 51.46875 34.265625 53.734375 
Q 38.71875 56 44.09375 56 
Q 53.5625 56 58.46875 50.1875 
Q 63.375 44.390625 63.375 33.296875 
z
" id="DejaVuSans-Bold-104"/>
        <path d="M 3.515625 54.6875 
L 20.515625 54.6875 
L 29.6875 17 
L 38.921875 54.6875 
L 53.515625 54.6875 
L 62.703125 17.390625 
L 71.921875 54.6875 
L 88.921875 54.6875 
L 74.515625 0 
L 55.421875 0 
L 46.1875 37.59375 
L 37.015625 0 
L 17.921875 0 
z
" id="DejaVuSans-Bold-119"/>
        <path d="M 1.21875 54.6875 
L 18.703125 54.6875 
L 33.40625 17.578125 
L 45.90625 54.6875 
L 63.375 54.6875 
L 40.375 -5.171875 
Q 36.921875 -14.3125 32.296875 -17.9375 
Q 27.6875 -21.578125 20.125 -21.578125 
L 10.015625 -21.578125 
L 10.015625 -10.109375 
L 15.484375 -10.109375 
Q 19.921875 -10.109375 21.9375 -8.6875 
Q 23.96875 -7.28125 25.09375 -3.609375 
L 25.59375 -2.09375 
z
" id="DejaVuSans-Bold-121"/>
        <path d="M 67 4 
Q 61.8125 1.3125 56.203125 -0.046875 
Q 50.59375 -1.421875 44.484375 -1.421875 
Q 26.265625 -1.421875 15.625 8.765625 
Q 4.984375 18.953125 4.984375 36.375 
Q 4.984375 53.859375 15.625 64.03125 
Q 26.265625 74.21875 44.484375 74.21875 
Q 50.59375 74.21875 56.203125 72.84375 
Q 61.8125 71.484375 67 68.796875 
L 67 53.71875 
Q 61.765625 57.28125 56.6875 58.9375 
Q 51.609375 60.59375 46 60.59375 
Q 35.9375 60.59375 30.171875 54.140625 
Q 24.421875 47.703125 24.421875 36.375 
Q 24.421875 25.09375 30.171875 18.640625 
Q 35.9375 12.203125 46 12.203125 
Q 51.609375 12.203125 56.6875 13.859375 
Q 61.765625 15.53125 67 19.09375 
z
" id="DejaVuSans-Bold-67"/>
        <path d="M 34.421875 43.5 
Q 28.609375 43.5 25.5625 39.328125 
Q 22.515625 35.15625 22.515625 27.296875 
Q 22.515625 19.4375 25.5625 15.25 
Q 28.609375 11.078125 34.421875 11.078125 
Q 40.140625 11.078125 43.15625 15.25 
Q 46.1875 19.4375 46.1875 27.296875 
Q 46.1875 35.15625 43.15625 39.328125 
Q 40.140625 43.5 34.421875 43.5 
z
M 34.421875 56 
Q 48.53125 56 56.46875 48.375 
Q 64.40625 40.765625 64.40625 27.296875 
Q 64.40625 13.8125 56.46875 6.1875 
Q 48.53125 -1.421875 34.421875 -1.421875 
Q 20.265625 -1.421875 12.28125 6.1875 
Q 4.296875 13.8125 4.296875 27.296875 
Q 4.296875 40.765625 12.28125 48.375 
Q 20.265625 56 34.421875 56 
z
" id="DejaVuSans-Bold-111"/>
        <path d="M 59.078125 45.609375 
Q 62.40625 50.6875 66.96875 53.34375 
Q 71.53125 56 77 56 
Q 86.421875 56 91.359375 50.1875 
Q 96.296875 44.390625 96.296875 33.296875 
L 96.296875 0 
L 78.71875 0 
L 78.71875 28.515625 
Q 78.765625 29.15625 78.78125 29.828125 
Q 78.8125 30.515625 78.8125 31.78125 
Q 78.8125 37.59375 77.09375 40.203125 
Q 75.390625 42.828125 71.578125 42.828125 
Q 66.609375 42.828125 63.890625 38.71875 
Q 61.1875 34.625 61.078125 26.859375 
L 61.078125 0 
L 43.5 0 
L 43.5 28.515625 
Q 43.5 37.59375 41.9375 40.203125 
Q 40.375 42.828125 36.375 42.828125 
Q 31.34375 42.828125 28.609375 38.703125 
Q 25.875 34.578125 25.875 26.90625 
L 25.875 0 
L 8.296875 0 
L 8.296875 54.6875 
L 25.875 54.6875 
L 25.875 46.6875 
Q 29.109375 51.3125 33.28125 53.65625 
Q 37.453125 56 42.484375 56 
Q 48.140625 56 52.484375 53.265625 
Q 56.84375 50.53125 59.078125 45.609375 
z
" id="DejaVuSans-Bold-109"/>
        <path d="M 63.375 33.296875 
L 63.375 0 
L 45.796875 0 
L 45.796875 5.421875 
L 45.796875 25.484375 
Q 45.796875 32.5625 45.484375 35.25 
Q 45.171875 37.9375 44.390625 39.203125 
Q 43.359375 40.921875 41.59375 41.875 
Q 39.84375 42.828125 37.59375 42.828125 
Q 32.125 42.828125 29 38.59375 
Q 25.875 34.375 25.875 26.90625 
L 25.875 0 
L 8.40625 0 
L 8.40625 54.6875 
L 25.875 54.6875 
L 25.875 46.6875 
Q 29.828125 51.46875 34.265625 53.734375 
Q 38.71875 56 44.09375 56 
Q 53.5625 56 58.46875 50.1875 
Q 63.375 44.390625 63.375 33.296875 
z
" id="DejaVuSans-Bold-110"/>
        <path d="M 51.125 52.984375 
L 51.125 39.703125 
Q 45.515625 42.046875 40.28125 43.21875 
Q 35.0625 44.390625 30.421875 44.390625 
Q 25.4375 44.390625 23.015625 43.140625 
Q 20.609375 41.890625 20.609375 39.3125 
Q 20.609375 37.203125 22.4375 36.078125 
Q 24.265625 34.96875 29 34.421875 
L 32.078125 33.984375 
Q 45.515625 32.28125 50.140625 28.375 
Q 54.78125 24.46875 54.78125 16.109375 
Q 54.78125 7.375 48.328125 2.96875 
Q 41.890625 -1.421875 29.109375 -1.421875 
Q 23.6875 -1.421875 17.890625 -0.5625 
Q 12.109375 0.296875 6 2 
L 6 15.28125 
Q 11.234375 12.75 16.71875 11.46875 
Q 22.21875 10.203125 27.875 10.203125 
Q 33.015625 10.203125 35.59375 11.609375 
Q 38.1875 13.03125 38.1875 15.828125 
Q 38.1875 18.171875 36.40625 19.3125 
Q 34.625 20.453125 29.296875 21.09375 
L 26.21875 21.484375 
Q 14.546875 22.953125 9.859375 26.90625 
Q 5.171875 30.859375 5.171875 38.921875 
Q 5.171875 47.609375 11.125 51.796875 
Q 17.09375 56 29.390625 56 
Q 34.234375 56 39.546875 55.265625 
Q 44.875 54.546875 51.125 52.984375 
z
" id="DejaVuSans-Bold-115"/>
       </defs>
       <use xlink:href="#DejaVuSans-Bold-80"/>
       <use x="70.666016" xlink:href="#DejaVuSans-Bold-97"/>
       <use x="138.146484" xlink:href="#DejaVuSans-Bold-116"/>
       <use x="185.949219" xlink:href="#DejaVuSans-Bold-104"/>
       <use x="257.140625" xlink:href="#DejaVuSans-Bold-119"/>
       <use x="349.523438" xlink:href="#DejaVuSans-Bold-97"/>
       <use x="413.878906" xlink:href="#DejaVuSans-Bold-121"/>
       <use x="479.064453" xlink:href="#DejaVuSans-Bold-67"/>
       <use x="552.453125" xlink:href="#DejaVuSans-Bold-111"/>
       <use x="621.154297" xlink:href="#DejaVuSans-Bold-109"/>
       <use x="725.353516" xlink:href="#DejaVuSans-Bold-109"/>
       <use x="829.552734" xlink:href="#DejaVuSans-Bold-111"/>
       <use x="898.253906" xlink:href="#DejaVuSans-Bold-110"/>
       <use x="969.445312" xlink:href="#DejaVuSans-Bold-115"/>
      </g>
     </g>
    </g>
    <g id="xtick_2">
     <g id="line2d_2">
      <g>
       <use style="stroke:#000000;stroke-width:0.8;" x="108.409091" xlink:href="#m6588b7228b" y="315"/>
      </g>
     </g>
     <g id="text_2">
      <!-- ConsensusPath -->
      <g transform="translate(113.927841 493.834375)rotate(-90)scale(0.2 -0.2)">
       <defs>
        <path d="M 62.984375 27.484375 
L 62.984375 22.515625 
L 22.125 22.515625 
Q 22.75 16.359375 26.5625 13.28125 
Q 30.375 10.203125 37.203125 10.203125 
Q 42.71875 10.203125 48.5 11.84375 
Q 54.296875 13.484375 60.40625 16.796875 
L 60.40625 3.328125 
Q 54.203125 0.984375 48 -0.21875 
Q 41.796875 -1.421875 35.59375 -1.421875 
Q 20.75 -1.421875 12.515625 6.125 
Q 4.296875 13.671875 4.296875 27.296875 
Q 4.296875 40.671875 12.375 48.328125 
Q 20.453125 56 34.625 56 
Q 47.515625 56 55.25 48.234375 
Q 62.984375 40.484375 62.984375 27.484375 
z
M 45.015625 33.296875 
Q 45.015625 38.28125 42.109375 41.328125 
Q 39.203125 44.390625 34.515625 44.390625 
Q 29.4375 44.390625 26.265625 41.53125 
Q 23.09375 38.671875 22.3125 33.296875 
z
" id="DejaVuSans-Bold-101"/>
        <path d="M 7.8125 21.296875 
L 7.8125 54.6875 
L 25.390625 54.6875 
L 25.390625 49.21875 
Q 25.390625 44.78125 25.34375 38.0625 
Q 25.296875 31.34375 25.296875 29.109375 
Q 25.296875 22.515625 25.640625 19.609375 
Q 25.984375 16.703125 26.8125 15.375 
Q 27.875 13.671875 29.609375 12.734375 
Q 31.34375 11.8125 33.59375 11.8125 
Q 39.0625 11.8125 42.1875 16.015625 
Q 45.3125 20.21875 45.3125 27.6875 
L 45.3125 54.6875 
L 62.796875 54.6875 
L 62.796875 0 
L 45.3125 0 
L 45.3125 7.90625 
Q 41.359375 3.125 36.9375 0.84375 
Q 32.515625 -1.421875 27.203125 -1.421875 
Q 17.71875 -1.421875 12.765625 4.390625 
Q 7.8125 10.203125 7.8125 21.296875 
z
" id="DejaVuSans-Bold-117"/>
       </defs>
       <use xlink:href="#DejaVuSans-Bold-67"/>
       <use x="73.388672" xlink:href="#DejaVuSans-Bold-111"/>
       <use x="142.089844" xlink:href="#DejaVuSans-Bold-110"/>
       <use x="213.28125" xlink:href="#DejaVuSans-Bold-115"/>
       <use x="272.802734" xlink:href="#DejaVuSans-Bold-101"/>
       <use x="340.625" xlink:href="#DejaVuSans-Bold-110"/>
       <use x="411.816406" xlink:href="#DejaVuSans-Bold-115"/>
       <use x="471.337891" xlink:href="#DejaVuSans-Bold-117"/>
       <use x="542.529297" xlink:href="#DejaVuSans-Bold-115"/>
       <use x="602.050781" xlink:href="#DejaVuSans-Bold-80"/>
       <use x="672.716797" xlink:href="#DejaVuSans-Bold-97"/>
       <use x="740.197266" xlink:href="#DejaVuSans-Bold-116"/>
       <use x="788" xlink:href="#DejaVuSans-Bold-104"/>
      </g>
     </g>
    </g>
    <g id="xtick_3">
     <g id="line2d_3">
      <g>
       <use style="stroke:#000000;stroke-width:0.8;" x="159.136364" xlink:href="#m6588b7228b" y="315"/>
      </g>
     </g>
     <g id="text_3">
      <!-- HIPPIE -->
      <g transform="translate(164.655114 396.6)rotate(-90)scale(0.2 -0.2)">
       <defs>
        <path d="M 9.1875 72.90625 
L 27.984375 72.90625 
L 27.984375 45.125 
L 55.71875 45.125 
L 55.71875 72.90625 
L 74.515625 72.90625 
L 74.515625 0 
L 55.71875 0 
L 55.71875 30.90625 
L 27.984375 30.90625 
L 27.984375 0 
L 9.1875 0 
z
" id="DejaVuSans-Bold-72"/>
        <path d="M 9.1875 72.90625 
L 27.984375 72.90625 
L 27.984375 0 
L 9.1875 0 
z
" id="DejaVuSans-Bold-73"/>
        <path d="M 9.1875 72.90625 
L 59.90625 72.90625 
L 59.90625 58.6875 
L 27.984375 58.6875 
L 27.984375 45.125 
L 58.015625 45.125 
L 58.015625 30.90625 
L 27.984375 30.90625 
L 27.984375 14.203125 
L 60.984375 14.203125 
L 60.984375 0 
L 9.1875 0 
z
" id="DejaVuSans-Bold-69"/>
       </defs>
       <use xlink:href="#DejaVuSans-Bold-72"/>
       <use x="83.691406" xlink:href="#DejaVuSans-Bold-73"/>
       <use x="120.898438" xlink:href="#DejaVuSans-Bold-80"/>
       <use x="194.189453" xlink:href="#DejaVuSans-Bold-80"/>
       <use x="267.480469" xlink:href="#DejaVuSans-Bold-73"/>
       <use x="304.6875" xlink:href="#DejaVuSans-Bold-69"/>
      </g>
     </g>
    </g>
    <g id="xtick_4">
     <g id="line2d_4">
      <g>
       <use style="stroke:#000000;stroke-width:0.8;" x="209.863636" xlink:href="#m6588b7228b" y="315"/>
      </g>
     </g>
     <g id="text_4">
      <!-- iREF -->
      <g transform="translate(215.382386 371.58125)rotate(-90)scale(0.2 -0.2)">
       <defs>
        <path d="M 8.40625 54.6875 
L 25.875 54.6875 
L 25.875 0 
L 8.40625 0 
z
M 8.40625 75.984375 
L 25.875 75.984375 
L 25.875 61.71875 
L 8.40625 61.71875 
z
" id="DejaVuSans-Bold-105"/>
        <path d="M 35.890625 40.578125 
Q 41.796875 40.578125 44.359375 42.765625 
Q 46.921875 44.96875 46.921875 50 
Q 46.921875 54.984375 44.359375 57.125 
Q 41.796875 59.28125 35.890625 59.28125 
L 27.984375 59.28125 
L 27.984375 40.578125 
z
M 27.984375 27.59375 
L 27.984375 0 
L 9.1875 0 
L 9.1875 72.90625 
L 37.890625 72.90625 
Q 52.296875 72.90625 59 68.0625 
Q 65.71875 63.234375 65.71875 52.78125 
Q 65.71875 45.5625 62.21875 40.921875 
Q 58.734375 36.28125 51.703125 34.078125 
Q 55.5625 33.203125 58.609375 30.09375 
Q 61.671875 27 64.796875 20.703125 
L 75 0 
L 54.984375 0 
L 46.09375 18.109375 
Q 43.40625 23.578125 40.640625 25.578125 
Q 37.890625 27.59375 33.296875 27.59375 
z
" id="DejaVuSans-Bold-82"/>
        <path d="M 9.1875 72.90625 
L 59.90625 72.90625 
L 59.90625 58.6875 
L 27.984375 58.6875 
L 27.984375 45.125 
L 58.015625 45.125 
L 58.015625 30.90625 
L 27.984375 30.90625 
L 27.984375 0 
L 9.1875 0 
z
" id="DejaVuSans-Bold-70"/>
       </defs>
       <use xlink:href="#DejaVuSans-Bold-105"/>
       <use x="34.277344" xlink:href="#DejaVuSans-Bold-82"/>
       <use x="111.279297" xlink:href="#DejaVuSans-Bold-69"/>
       <use x="179.589844" xlink:href="#DejaVuSans-Bold-70"/>
      </g>
     </g>
    </g>
    <g id="xtick_5">
     <g id="line2d_5">
      <g>
       <use style="stroke:#000000;stroke-width:0.8;" x="260.590909" xlink:href="#m6588b7228b" y="315"/>
      </g>
     </g>
     <g id="text_5">
      <!-- STRING -->
      <g transform="translate(266.109659 406.040625)rotate(-90)scale(0.2 -0.2)">
       <defs>
        <path d="M 59.90625 70.609375 
L 59.90625 55.171875 
Q 53.90625 57.859375 48.1875 59.21875 
Q 42.484375 60.59375 37.40625 60.59375 
Q 30.671875 60.59375 27.4375 58.734375 
Q 24.21875 56.890625 24.21875 52.984375 
Q 24.21875 50.046875 26.390625 48.40625 
Q 28.5625 46.78125 34.28125 45.609375 
L 42.28125 44 
Q 54.4375 41.546875 59.5625 36.5625 
Q 64.703125 31.59375 64.703125 22.40625 
Q 64.703125 10.359375 57.546875 4.46875 
Q 50.390625 -1.421875 35.6875 -1.421875 
Q 28.765625 -1.421875 21.78125 -0.09375 
Q 14.796875 1.21875 7.8125 3.8125 
L 7.8125 19.671875 
Q 14.796875 15.96875 21.3125 14.078125 
Q 27.828125 12.203125 33.890625 12.203125 
Q 40.046875 12.203125 43.3125 14.25 
Q 46.578125 16.3125 46.578125 20.125 
Q 46.578125 23.53125 44.359375 25.390625 
Q 42.140625 27.25 35.5 28.71875 
L 28.21875 30.328125 
Q 17.28125 32.671875 12.21875 37.796875 
Q 7.171875 42.921875 7.171875 51.609375 
Q 7.171875 62.5 14.203125 68.359375 
Q 21.234375 74.21875 34.421875 74.21875 
Q 40.4375 74.21875 46.78125 73.3125 
Q 53.125 72.40625 59.90625 70.609375 
z
" id="DejaVuSans-Bold-83"/>
        <path d="M 0.484375 72.90625 
L 67.671875 72.90625 
L 67.671875 58.6875 
L 43.5 58.6875 
L 43.5 0 
L 24.703125 0 
L 24.703125 58.6875 
L 0.484375 58.6875 
z
" id="DejaVuSans-Bold-84"/>
        <path d="M 9.1875 72.90625 
L 30.171875 72.90625 
L 56.6875 22.90625 
L 56.6875 72.90625 
L 74.515625 72.90625 
L 74.515625 0 
L 53.515625 0 
L 27 50 
L 27 0 
L 9.1875 0 
z
" id="DejaVuSans-Bold-78"/>
        <path d="M 74.703125 5.421875 
Q 67.671875 2 60.109375 0.28125 
Q 52.546875 -1.421875 44.484375 -1.421875 
Q 26.265625 -1.421875 15.625 8.765625 
Q 4.984375 18.953125 4.984375 36.375 
Q 4.984375 54 15.8125 64.109375 
Q 26.65625 74.21875 45.515625 74.21875 
Q 52.78125 74.21875 59.4375 72.84375 
Q 66.109375 71.484375 72.015625 68.796875 
L 72.015625 53.71875 
Q 65.921875 57.171875 59.890625 58.875 
Q 53.859375 60.59375 47.796875 60.59375 
Q 36.578125 60.59375 30.5 54.3125 
Q 24.421875 48.046875 24.421875 36.375 
Q 24.421875 24.8125 30.28125 18.5 
Q 36.140625 12.203125 46.921875 12.203125 
Q 49.859375 12.203125 52.375 12.5625 
Q 54.890625 12.9375 56.890625 13.71875 
L 56.890625 27.875 
L 45.40625 27.875 
L 45.40625 40.484375 
L 74.703125 40.484375 
z
" id="DejaVuSans-Bold-71"/>
       </defs>
       <use xlink:href="#DejaVuSans-Bold-83"/>
       <use x="72.021484" xlink:href="#DejaVuSans-Bold-84"/>
       <use x="140.234375" xlink:href="#DejaVuSans-Bold-82"/>
       <use x="217.236328" xlink:href="#DejaVuSans-Bold-73"/>
       <use x="254.443359" xlink:href="#DejaVuSans-Bold-78"/>
       <use x="338.134766" xlink:href="#DejaVuSans-Bold-71"/>
      </g>
     </g>
    </g>
    <g id="xtick_6">
     <g id="line2d_6">
      <g>
       <use style="stroke:#000000;stroke-width:0.8;" x="311.318182" xlink:href="#m6588b7228b" y="315"/>
      </g>
     </g>
     <g id="text_6">
      <!-- OmniPath -->
      <g transform="translate(316.836932 432.365625)rotate(-90)scale(0.2 -0.2)">
       <defs>
        <path d="M 42.484375 60.59375 
Q 33.890625 60.59375 29.15625 54.25 
Q 24.421875 47.90625 24.421875 36.375 
Q 24.421875 24.90625 29.15625 18.546875 
Q 33.890625 12.203125 42.484375 12.203125 
Q 51.125 12.203125 55.859375 18.546875 
Q 60.59375 24.90625 60.59375 36.375 
Q 60.59375 47.90625 55.859375 54.25 
Q 51.125 60.59375 42.484375 60.59375 
z
M 42.484375 74.21875 
Q 60.0625 74.21875 70.015625 64.15625 
Q 79.984375 54.109375 79.984375 36.375 
Q 79.984375 18.703125 70.015625 8.640625 
Q 60.0625 -1.421875 42.484375 -1.421875 
Q 24.953125 -1.421875 14.96875 8.640625 
Q 4.984375 18.703125 4.984375 36.375 
Q 4.984375 54.109375 14.96875 64.15625 
Q 24.953125 74.21875 42.484375 74.21875 
z
" id="DejaVuSans-Bold-79"/>
       </defs>
       <use xlink:href="#DejaVuSans-Bold-79"/>
       <use x="85.009766" xlink:href="#DejaVuSans-Bold-109"/>
       <use x="189.208984" xlink:href="#DejaVuSans-Bold-110"/>
       <use x="260.400391" xlink:href="#DejaVuSans-Bold-105"/>
       <use x="294.677734" xlink:href="#DejaVuSans-Bold-80"/>
       <use x="365.34375" xlink:href="#DejaVuSans-Bold-97"/>
       <use x="432.824219" xlink:href="#DejaVuSans-Bold-116"/>
       <use x="480.626953" xlink:href="#DejaVuSans-Bold-104"/>
      </g>
     </g>
    </g>
   </g>
   <g id="matplotlib.axis_2">
    <g id="ytick_1">
     <g id="line2d_7">
      <defs>
       <path d="M 0 0 
L -3.5 0 
" id="m5d3078c89c" style="stroke:#000000;stroke-width:0.8;"/>
      </defs>
      <g>
       <use style="stroke:#000000;stroke-width:0.8;" x="45" xlink:href="#m5d3078c89c" y="55.554545"/>
      </g>
     </g>
     <g id="text_7">
      <!-- PathwayCommons -->
      <g transform="translate(-167.796875 63.152983)scale(0.2 -0.2)">
       <use xlink:href="#DejaVuSans-Bold-80"/>
       <use x="70.666016" xlink:href="#DejaVuSans-Bold-97"/>
       <use x="138.146484" xlink:href="#DejaVuSans-Bold-116"/>
       <use x="185.949219" xlink:href="#DejaVuSans-Bold-104"/>
       <use x="257.140625" xlink:href="#DejaVuSans-Bold-119"/>
       <use x="349.523438" xlink:href="#DejaVuSans-Bold-97"/>
       <use x="413.878906" xlink:href="#DejaVuSans-Bold-121"/>
       <use x="479.064453" xlink:href="#DejaVuSans-Bold-67"/>
       <use x="552.453125" xlink:href="#DejaVuSans-Bold-111"/>
       <use x="621.154297" xlink:href="#DejaVuSans-Bold-109"/>
       <use x="725.353516" xlink:href="#DejaVuSans-Bold-109"/>
       <use x="829.552734" xlink:href="#DejaVuSans-Bold-111"/>
       <use x="898.253906" xlink:href="#DejaVuSans-Bold-110"/>
       <use x="969.445312" xlink:href="#DejaVuSans-Bold-115"/>
      </g>
     </g>
    </g>
    <g id="ytick_2">
     <g id="line2d_8">
      <g>
       <use style="stroke:#000000;stroke-width:0.8;" x="45" xlink:href="#m5d3078c89c" y="104.972727"/>
      </g>
     </g>
     <g id="text_8">
      <!-- ConsensusPath -->
      <g transform="translate(-133.834375 112.571165)scale(0.2 -0.2)">
       <use xlink:href="#DejaVuSans-Bold-67"/>
       <use x="73.388672" xlink:href="#DejaVuSans-Bold-111"/>
       <use x="142.089844" xlink:href="#DejaVuSans-Bold-110"/>
       <use x="213.28125" xlink:href="#DejaVuSans-Bold-115"/>
       <use x="272.802734" xlink:href="#DejaVuSans-Bold-101"/>
       <use x="340.625" xlink:href="#DejaVuSans-Bold-110"/>
       <use x="411.816406" xlink:href="#DejaVuSans-Bold-115"/>
       <use x="471.337891" xlink:href="#DejaVuSans-Bold-117"/>
       <use x="542.529297" xlink:href="#DejaVuSans-Bold-115"/>
       <use x="602.050781" xlink:href="#DejaVuSans-Bold-80"/>
       <use x="672.716797" xlink:href="#DejaVuSans-Bold-97"/>
       <use x="740.197266" xlink:href="#DejaVuSans-Bold-116"/>
       <use x="788" xlink:href="#DejaVuSans-Bold-104"/>
      </g>
     </g>
    </g>
    <g id="ytick_3">
     <g id="line2d_9">
      <g>
       <use style="stroke:#000000;stroke-width:0.8;" x="45" xlink:href="#m5d3078c89c" y="154.390909"/>
      </g>
     </g>
     <g id="text_9">
      <!-- HIPPIE -->
      <g transform="translate(-36.6 161.989347)scale(0.2 -0.2)">
       <use xlink:href="#DejaVuSans-Bold-72"/>
       <use x="83.691406" xlink:href="#DejaVuSans-Bold-73"/>
       <use x="120.898438" xlink:href="#DejaVuSans-Bold-80"/>
       <use x="194.189453" xlink:href="#DejaVuSans-Bold-80"/>
       <use x="267.480469" xlink:href="#DejaVuSans-Bold-73"/>
       <use x="304.6875" xlink:href="#DejaVuSans-Bold-69"/>
      </g>
     </g>
    </g>
    <g id="ytick_4">
     <g id="line2d_10">
      <g>
       <use style="stroke:#000000;stroke-width:0.8;" x="45" xlink:href="#m5d3078c89c" y="203.809091"/>
      </g>
     </g>
     <g id="text_10">
      <!-- iREF -->
      <g transform="translate(-11.58125 211.407528)scale(0.2 -0.2)">
       <use xlink:href="#DejaVuSans-Bold-105"/>
       <use x="34.277344" xlink:href="#DejaVuSans-Bold-82"/>
       <use x="111.279297" xlink:href="#DejaVuSans-Bold-69"/>
       <use x="179.589844" xlink:href="#DejaVuSans-Bold-70"/>
      </g>
     </g>
    </g>
    <g id="ytick_5">
     <g id="line2d_11">
      <g>
       <use style="stroke:#000000;stroke-width:0.8;" x="45" xlink:href="#m5d3078c89c" y="253.227273"/>
      </g>
     </g>
     <g id="text_11">
      <!-- STRING -->
      <g transform="translate(-46.040625 260.82571)scale(0.2 -0.2)">
       <use xlink:href="#DejaVuSans-Bold-83"/>
       <use x="72.021484" xlink:href="#DejaVuSans-Bold-84"/>
       <use x="140.234375" xlink:href="#DejaVuSans-Bold-82"/>
       <use x="217.236328" xlink:href="#DejaVuSans-Bold-73"/>
       <use x="254.443359" xlink:href="#DejaVuSans-Bold-78"/>
       <use x="338.134766" xlink:href="#DejaVuSans-Bold-71"/>
      </g>
     </g>
    </g>
    <g id="ytick_6">
     <g id="line2d_12">
      <g>
       <use style="stroke:#000000;stroke-width:0.8;" x="45" xlink:href="#m5d3078c89c" y="302.645455"/>
      </g>
     </g>
     <g id="text_12">
      <!-- OmniPath -->
      <g transform="translate(-72.365625 310.243892)scale(0.2 -0.2)">
       <use xlink:href="#DejaVuSans-Bold-79"/>
       <use x="85.009766" xlink:href="#DejaVuSans-Bold-109"/>
       <use x="189.208984" xlink:href="#DejaVuSans-Bold-110"/>
       <use x="260.400391" xlink:href="#DejaVuSans-Bold-105"/>
       <use x="294.677734" xlink:href="#DejaVuSans-Bold-80"/>
       <use x="365.34375" xlink:href="#DejaVuSans-Bold-97"/>
       <use x="432.824219" xlink:href="#DejaVuSans-Bold-116"/>
       <use x="480.626953" xlink:href="#DejaVuSans-Bold-104"/>
      </g>
     </g>
    </g>
   </g>
   <g id="patch_3">
    <path d="M 45 315 
L 45 43.2 
" style="fill:none;stroke:#000000;stroke-linecap:square;stroke-linejoin:miter;stroke-width:0.8;"/>
   </g>
   <g id="patch_4">
    <path d="M 324 315 
L 324 43.2 
" style="fill:none;stroke:#000000;stroke-linecap:square;stroke-linejoin:miter;stroke-width:0.8;"/>
   </g>
   <g id="patch_5">
    <path d="M 45 315 
L 324 315 
" style="fill:none;stroke:#000000;stroke-linecap:square;stroke-linejoin:miter;stroke-width:0.8;"/>
   </g>
   <g id="patch_6">
    <path d="M 45 43.2 
L 324 43.2 
" style="fill:none;stroke:#000000;stroke-linecap:square;stroke-linejoin:miter;stroke-width:0.8;"/>
   </g>
   <g id="legend_1">
    <g id="patch_7">
     <path d="M 335.2 313.09 
L 445.3275 313.09 
Q 448.5275 313.09 448.5275 309.89 
L 448.5275 81.58 
Q 448.5275 78.38 445.3275 78.38 
L 335.2 78.38 
Q 332 78.38 332 81.58 
L 332 309.89 
Q 332 313.09 335.2 313.09 
z
" style="fill:#ffffff;opacity:0.8;stroke:#cccccc;stroke-linejoin:miter;"/>
    </g>
    <g id="text_13">
     <!-- Node_sim -->
     <g transform="translate(364 96.9375)scale(0.16 -0.16)">
      <defs>
       <path d="M 9.8125 72.90625 
L 23.09375 72.90625 
L 55.421875 11.921875 
L 55.421875 72.90625 
L 64.984375 72.90625 
L 64.984375 0 
L 51.703125 0 
L 19.390625 60.984375 
L 19.390625 0 
L 9.8125 0 
z
" id="DejaVuSans-78"/>
       <path d="M 30.609375 48.390625 
Q 23.390625 48.390625 19.1875 42.75 
Q 14.984375 37.109375 14.984375 27.296875 
Q 14.984375 17.484375 19.15625 11.84375 
Q 23.34375 6.203125 30.609375 6.203125 
Q 37.796875 6.203125 41.984375 11.859375 
Q 46.1875 17.53125 46.1875 27.296875 
Q 46.1875 37.015625 41.984375 42.703125 
Q 37.796875 48.390625 30.609375 48.390625 
z
M 30.609375 56 
Q 42.328125 56 49.015625 48.375 
Q 55.71875 40.765625 55.71875 27.296875 
Q 55.71875 13.875 49.015625 6.21875 
Q 42.328125 -1.421875 30.609375 -1.421875 
Q 18.84375 -1.421875 12.171875 6.21875 
Q 5.515625 13.875 5.515625 27.296875 
Q 5.515625 40.765625 12.171875 48.375 
Q 18.84375 56 30.609375 56 
z
" id="DejaVuSans-111"/>
       <path d="M 45.40625 46.390625 
L 45.40625 75.984375 
L 54.390625 75.984375 
L 54.390625 0 
L 45.40625 0 
L 45.40625 8.203125 
Q 42.578125 3.328125 38.25 0.953125 
Q 33.9375 -1.421875 27.875 -1.421875 
Q 17.96875 -1.421875 11.734375 6.484375 
Q 5.515625 14.40625 5.515625 27.296875 
Q 5.515625 40.1875 11.734375 48.09375 
Q 17.96875 56 27.875 56 
Q 33.9375 56 38.25 53.625 
Q 42.578125 51.265625 45.40625 46.390625 
z
M 14.796875 27.296875 
Q 14.796875 17.390625 18.875 11.75 
Q 22.953125 6.109375 30.078125 6.109375 
Q 37.203125 6.109375 41.296875 11.75 
Q 45.40625 17.390625 45.40625 27.296875 
Q 45.40625 37.203125 41.296875 42.84375 
Q 37.203125 48.484375 30.078125 48.484375 
Q 22.953125 48.484375 18.875 42.84375 
Q 14.796875 37.203125 14.796875 27.296875 
z
" id="DejaVuSans-100"/>
       <path d="M 56.203125 29.59375 
L 56.203125 25.203125 
L 14.890625 25.203125 
Q 15.484375 15.921875 20.484375 11.0625 
Q 25.484375 6.203125 34.421875 6.203125 
Q 39.59375 6.203125 44.453125 7.46875 
Q 49.3125 8.734375 54.109375 11.28125 
L 54.109375 2.78125 
Q 49.265625 0.734375 44.1875 -0.34375 
Q 39.109375 -1.421875 33.890625 -1.421875 
Q 20.796875 -1.421875 13.15625 6.1875 
Q 5.515625 13.8125 5.515625 26.8125 
Q 5.515625 40.234375 12.765625 48.109375 
Q 20.015625 56 32.328125 56 
Q 43.359375 56 49.78125 48.890625 
Q 56.203125 41.796875 56.203125 29.59375 
z
M 47.21875 32.234375 
Q 47.125 39.59375 43.09375 43.984375 
Q 39.0625 48.390625 32.421875 48.390625 
Q 24.90625 48.390625 20.390625 44.140625 
Q 15.875 39.890625 15.1875 32.171875 
z
" id="DejaVuSans-101"/>
       <path d="M 50.984375 -16.609375 
L 50.984375 -23.578125 
L -0.984375 -23.578125 
L -0.984375 -16.609375 
z
" id="DejaVuSans-95"/>
       <path d="M 44.28125 53.078125 
L 44.28125 44.578125 
Q 40.484375 46.53125 36.375 47.5 
Q 32.28125 48.484375 27.875 48.484375 
Q 21.1875 48.484375 17.84375 46.4375 
Q 14.5 44.390625 14.5 40.28125 
Q 14.5 37.15625 16.890625 35.375 
Q 19.28125 33.59375 26.515625 31.984375 
L 29.59375 31.296875 
Q 39.15625 29.25 43.1875 25.515625 
Q 47.21875 21.78125 47.21875 15.09375 
Q 47.21875 7.46875 41.1875 3.015625 
Q 35.15625 -1.421875 24.609375 -1.421875 
Q 20.21875 -1.421875 15.453125 -0.5625 
Q 10.6875 0.296875 5.421875 2 
L 5.421875 11.28125 
Q 10.40625 8.6875 15.234375 7.390625 
Q 20.0625 6.109375 24.8125 6.109375 
Q 31.15625 6.109375 34.5625 8.28125 
Q 37.984375 10.453125 37.984375 14.40625 
Q 37.984375 18.0625 35.515625 20.015625 
Q 33.0625 21.96875 24.703125 23.78125 
L 21.578125 24.515625 
Q 13.234375 26.265625 9.515625 29.90625 
Q 5.8125 33.546875 5.8125 39.890625 
Q 5.8125 47.609375 11.28125 51.796875 
Q 16.75 56 26.8125 56 
Q 31.78125 56 36.171875 55.265625 
Q 40.578125 54.546875 44.28125 53.078125 
z
" id="DejaVuSans-115"/>
       <path d="M 9.421875 54.6875 
L 18.40625 54.6875 
L 18.40625 0 
L 9.421875 0 
z
M 9.421875 75.984375 
L 18.40625 75.984375 
L 18.40625 64.59375 
L 9.421875 64.59375 
z
" id="DejaVuSans-105"/>
       <path d="M 52 44.1875 
Q 55.375 50.25 60.0625 53.125 
Q 64.75 56 71.09375 56 
Q 79.640625 56 84.28125 50.015625 
Q 88.921875 44.046875 88.921875 33.015625 
L 88.921875 0 
L 79.890625 0 
L 79.890625 32.71875 
Q 79.890625 40.578125 77.09375 44.375 
Q 74.3125 48.1875 68.609375 48.1875 
Q 61.625 48.1875 57.5625 43.546875 
Q 53.515625 38.921875 53.515625 30.90625 
L 53.515625 0 
L 44.484375 0 
L 44.484375 32.71875 
Q 44.484375 40.625 41.703125 44.40625 
Q 38.921875 48.1875 33.109375 48.1875 
Q 26.21875 48.1875 22.15625 43.53125 
Q 18.109375 38.875 18.109375 30.90625 
L 18.109375 0 
L 9.078125 0 
L 9.078125 54.6875 
L 18.109375 54.6875 
L 18.109375 46.1875 
Q 21.1875 51.21875 25.484375 53.609375 
Q 29.78125 56 35.6875 56 
Q 41.65625 56 45.828125 52.96875 
Q 50 49.953125 52 44.1875 
z
" id="DejaVuSans-109"/>
      </defs>
      <use xlink:href="#DejaVuSans-78"/>
      <use x="74.804688" xlink:href="#DejaVuSans-111"/>
      <use x="135.986328" xlink:href="#DejaVuSans-100"/>
      <use x="199.462891" xlink:href="#DejaVuSans-101"/>
      <use x="260.986328" xlink:href="#DejaVuSans-95"/>
      <use x="310.986328" xlink:href="#DejaVuSans-115"/>
      <use x="363.085938" xlink:href="#DejaVuSans-105"/>
      <use x="390.869141" xlink:href="#DejaVuSans-109"/>
     </g>
    </g>
    <g id="PathCollection_12">
     <defs>
      <path d="M 0 3 
C 0.795609 3 1.55874 2.683901 2.12132 2.12132 
C 2.683901 1.55874 3 0.795609 3 0 
C 3 -0.795609 2.683901 -1.55874 2.12132 -2.12132 
C 1.55874 -2.683901 0.795609 -3 0 -3 
C -0.795609 -3 -1.55874 -2.683901 -2.12132 -2.12132 
C -2.683901 -1.55874 -3 -0.795609 -3 0 
C -3 0.795609 -2.683901 1.55874 -2.12132 2.12132 
C -1.55874 2.683901 -0.795609 3 0 3 
z
" id="mc504d4530a" style="stroke:#f7fbff;"/>
     </defs>
     <g>
      <use style="fill:#f7fbff;stroke:#f7fbff;" x="344.8" xlink:href="#mc504d4530a" y="111.8675"/>
     </g>
    </g>
    <g id="text_14">
     <!-- 0.0 -->
     <g transform="translate(364 116.0675)scale(0.16 -0.16)">
      <defs>
       <path d="M 31.78125 66.40625 
Q 24.171875 66.40625 20.328125 58.90625 
Q 16.5 51.421875 16.5 36.375 
Q 16.5 21.390625 20.328125 13.890625 
Q 24.171875 6.390625 31.78125 6.390625 
Q 39.453125 6.390625 43.28125 13.890625 
Q 47.125 21.390625 47.125 36.375 
Q 47.125 51.421875 43.28125 58.90625 
Q 39.453125 66.40625 31.78125 66.40625 
z
M 31.78125 74.21875 
Q 44.046875 74.21875 50.515625 64.515625 
Q 56.984375 54.828125 56.984375 36.375 
Q 56.984375 17.96875 50.515625 8.265625 
Q 44.046875 -1.421875 31.78125 -1.421875 
Q 19.53125 -1.421875 13.0625 8.265625 
Q 6.59375 17.96875 6.59375 36.375 
Q 6.59375 54.828125 13.0625 64.515625 
Q 19.53125 74.21875 31.78125 74.21875 
z
" id="DejaVuSans-48"/>
       <path d="M 10.6875 12.40625 
L 21 12.40625 
L 21 0 
L 10.6875 0 
z
" id="DejaVuSans-46"/>
      </defs>
      <use xlink:href="#DejaVuSans-48"/>
      <use x="63.623047" xlink:href="#DejaVuSans-46"/>
      <use x="95.410156" xlink:href="#DejaVuSans-48"/>
     </g>
    </g>
    <g id="PathCollection_13">
     <defs>
      <path d="M 0 3 
C 0.795609 3 1.55874 2.683901 2.12132 2.12132 
C 2.683901 1.55874 3 0.795609 3 0 
C 3 -0.795609 2.683901 -1.55874 2.12132 -2.12132 
C 1.55874 -2.683901 0.795609 -3 0 -3 
C -0.795609 -3 -1.55874 -2.683901 -2.12132 -2.12132 
C -2.683901 -1.55874 -3 -0.795609 -3 0 
C -3 0.795609 -2.683901 1.55874 -2.12132 2.12132 
C -1.55874 2.683901 -0.795609 3 0 3 
z
" id="m7695b05c74" style="stroke:#cfe1f2;"/>
     </defs>
     <g>
      <use style="fill:#cfe1f2;stroke:#cfe1f2;" x="344.8" xlink:href="#m7695b05c74" y="130.5525"/>
     </g>
    </g>
    <g id="text_15">
     <!-- 0.2 -->
     <g transform="translate(364 134.7525)scale(0.16 -0.16)">
      <defs>
       <path d="M 19.1875 8.296875 
L 53.609375 8.296875 
L 53.609375 0 
L 7.328125 0 
L 7.328125 8.296875 
Q 12.9375 14.109375 22.625 23.890625 
Q 32.328125 33.6875 34.8125 36.53125 
Q 39.546875 41.84375 41.421875 45.53125 
Q 43.3125 49.21875 43.3125 52.78125 
Q 43.3125 58.59375 39.234375 62.25 
Q 35.15625 65.921875 28.609375 65.921875 
Q 23.96875 65.921875 18.8125 64.3125 
Q 13.671875 62.703125 7.8125 59.421875 
L 7.8125 69.390625 
Q 13.765625 71.78125 18.9375 73 
Q 24.125 74.21875 28.421875 74.21875 
Q 39.75 74.21875 46.484375 68.546875 
Q 53.21875 62.890625 53.21875 53.421875 
Q 53.21875 48.921875 51.53125 44.890625 
Q 49.859375 40.875 45.40625 35.40625 
Q 44.1875 33.984375 37.640625 27.21875 
Q 31.109375 20.453125 19.1875 8.296875 
z
" id="DejaVuSans-50"/>
      </defs>
      <use xlink:href="#DejaVuSans-48"/>
      <use x="63.623047" xlink:href="#DejaVuSans-46"/>
      <use x="95.410156" xlink:href="#DejaVuSans-50"/>
     </g>
    </g>
    <g id="PathCollection_14">
     <defs>
      <path d="M 0 3 
C 0.795609 3 1.55874 2.683901 2.12132 2.12132 
C 2.683901 1.55874 3 0.795609 3 0 
C 3 -0.795609 2.683901 -1.55874 2.12132 -2.12132 
C 1.55874 -2.683901 0.795609 -3 0 -3 
C -0.795609 -3 -1.55874 -2.683901 -2.12132 -2.12132 
C -2.683901 -1.55874 -3 -0.795609 -3 0 
C -3 0.795609 -2.683901 1.55874 -2.12132 2.12132 
C -1.55874 2.683901 -0.795609 3 0 3 
z
" id="m16db6f954d" style="stroke:#91c3de;"/>
     </defs>
     <g>
      <use style="fill:#91c3de;stroke:#91c3de;" x="344.8" xlink:href="#m16db6f954d" y="149.2375"/>
     </g>
    </g>
    <g id="text_16">
     <!-- 0.4 -->
     <g transform="translate(364 153.4375)scale(0.16 -0.16)">
      <defs>
       <path d="M 37.796875 64.3125 
L 12.890625 25.390625 
L 37.796875 25.390625 
z
M 35.203125 72.90625 
L 47.609375 72.90625 
L 47.609375 25.390625 
L 58.015625 25.390625 
L 58.015625 17.1875 
L 47.609375 17.1875 
L 47.609375 0 
L 37.796875 0 
L 37.796875 17.1875 
L 4.890625 17.1875 
L 4.890625 26.703125 
z
" id="DejaVuSans-52"/>
      </defs>
      <use xlink:href="#DejaVuSans-48"/>
      <use x="63.623047" xlink:href="#DejaVuSans-46"/>
      <use x="95.410156" xlink:href="#DejaVuSans-52"/>
     </g>
    </g>
    <g id="PathCollection_15">
     <defs>
      <path d="M 0 3 
C 0.795609 3 1.55874 2.683901 2.12132 2.12132 
C 2.683901 1.55874 3 0.795609 3 0 
C 3 -0.795609 2.683901 -1.55874 2.12132 -2.12132 
C 1.55874 -2.683901 0.795609 -3 0 -3 
C -0.795609 -3 -1.55874 -2.683901 -2.12132 -2.12132 
C -2.683901 -1.55874 -3 -0.795609 -3 0 
C -3 0.795609 -2.683901 1.55874 -2.12132 2.12132 
C -1.55874 2.683901 -0.795609 3 0 3 
z
" id="mcbccd2507d" style="stroke:#4695c8;"/>
     </defs>
     <g>
      <use style="fill:#4695c8;stroke:#4695c8;" x="344.8" xlink:href="#mcbccd2507d" y="167.9225"/>
     </g>
    </g>
    <g id="text_17">
     <!-- 0.6 -->
     <g transform="translate(364 172.1225)scale(0.16 -0.16)">
      <defs>
       <path d="M 33.015625 40.375 
Q 26.375 40.375 22.484375 35.828125 
Q 18.609375 31.296875 18.609375 23.390625 
Q 18.609375 15.53125 22.484375 10.953125 
Q 26.375 6.390625 33.015625 6.390625 
Q 39.65625 6.390625 43.53125 10.953125 
Q 47.40625 15.53125 47.40625 23.390625 
Q 47.40625 31.296875 43.53125 35.828125 
Q 39.65625 40.375 33.015625 40.375 
z
M 52.59375 71.296875 
L 52.59375 62.3125 
Q 48.875 64.0625 45.09375 64.984375 
Q 41.3125 65.921875 37.59375 65.921875 
Q 27.828125 65.921875 22.671875 59.328125 
Q 17.53125 52.734375 16.796875 39.40625 
Q 19.671875 43.65625 24.015625 45.921875 
Q 28.375 48.1875 33.59375 48.1875 
Q 44.578125 48.1875 50.953125 41.515625 
Q 57.328125 34.859375 57.328125 23.390625 
Q 57.328125 12.15625 50.6875 5.359375 
Q 44.046875 -1.421875 33.015625 -1.421875 
Q 20.359375 -1.421875 13.671875 8.265625 
Q 6.984375 17.96875 6.984375 36.375 
Q 6.984375 53.65625 15.1875 63.9375 
Q 23.390625 74.21875 37.203125 74.21875 
Q 40.921875 74.21875 44.703125 73.484375 
Q 48.484375 72.75 52.59375 71.296875 
z
" id="DejaVuSans-54"/>
      </defs>
      <use xlink:href="#DejaVuSans-48"/>
      <use x="63.623047" xlink:href="#DejaVuSans-46"/>
      <use x="95.410156" xlink:href="#DejaVuSans-54"/>
     </g>
    </g>
    <g id="PathCollection_16">
     <defs>
      <path d="M 0 3 
C 0.795609 3 1.55874 2.683901 2.12132 2.12132 
C 2.683901 1.55874 3 0.795609 3 0 
C 3 -0.795609 2.683901 -1.55874 2.12132 -2.12132 
C 1.55874 -2.683901 0.795609 -3 0 -3 
C -0.795609 -3 -1.55874 -2.683901 -2.12132 -2.12132 
C -2.683901 -1.55874 -3 -0.795609 -3 0 
C -3 0.795609 -2.683901 1.55874 -2.12132 2.12132 
C -1.55874 2.683901 -0.795609 3 0 3 
z
" id="m4f137e2a33" style="stroke:#135fa7;"/>
     </defs>
     <g>
      <use style="fill:#135fa7;stroke:#135fa7;" x="344.8" xlink:href="#m4f137e2a33" y="186.6075"/>
     </g>
    </g>
    <g id="text_18">
     <!-- 0.8 -->
     <g transform="translate(364 190.8075)scale(0.16 -0.16)">
      <defs>
       <path d="M 31.78125 34.625 
Q 24.75 34.625 20.71875 30.859375 
Q 16.703125 27.09375 16.703125 20.515625 
Q 16.703125 13.921875 20.71875 10.15625 
Q 24.75 6.390625 31.78125 6.390625 
Q 38.8125 6.390625 42.859375 10.171875 
Q 46.921875 13.96875 46.921875 20.515625 
Q 46.921875 27.09375 42.890625 30.859375 
Q 38.875 34.625 31.78125 34.625 
z
M 21.921875 38.8125 
Q 15.578125 40.375 12.03125 44.71875 
Q 8.5 49.078125 8.5 55.328125 
Q 8.5 64.0625 14.71875 69.140625 
Q 20.953125 74.21875 31.78125 74.21875 
Q 42.671875 74.21875 48.875 69.140625 
Q 55.078125 64.0625 55.078125 55.328125 
Q 55.078125 49.078125 51.53125 44.71875 
Q 48 40.375 41.703125 38.8125 
Q 48.828125 37.15625 52.796875 32.3125 
Q 56.78125 27.484375 56.78125 20.515625 
Q 56.78125 9.90625 50.3125 4.234375 
Q 43.84375 -1.421875 31.78125 -1.421875 
Q 19.734375 -1.421875 13.25 4.234375 
Q 6.78125 9.90625 6.78125 20.515625 
Q 6.78125 27.484375 10.78125 32.3125 
Q 14.796875 37.15625 21.921875 38.8125 
z
M 18.3125 54.390625 
Q 18.3125 48.734375 21.84375 45.5625 
Q 25.390625 42.390625 31.78125 42.390625 
Q 38.140625 42.390625 41.71875 45.5625 
Q 45.3125 48.734375 45.3125 54.390625 
Q 45.3125 60.0625 41.71875 63.234375 
Q 38.140625 66.40625 31.78125 66.40625 
Q 25.390625 66.40625 21.84375 63.234375 
Q 18.3125 60.0625 18.3125 54.390625 
z
" id="DejaVuSans-56"/>
      </defs>
      <use xlink:href="#DejaVuSans-48"/>
      <use x="63.623047" xlink:href="#DejaVuSans-46"/>
      <use x="95.410156" xlink:href="#DejaVuSans-56"/>
     </g>
    </g>
    <g id="text_19">
     <!-- Edge_sim -->
     <g transform="translate(364 209.4925)scale(0.16 -0.16)">
      <defs>
       <path d="M 9.8125 72.90625 
L 55.90625 72.90625 
L 55.90625 64.59375 
L 19.671875 64.59375 
L 19.671875 43.015625 
L 54.390625 43.015625 
L 54.390625 34.71875 
L 19.671875 34.71875 
L 19.671875 8.296875 
L 56.78125 8.296875 
L 56.78125 0 
L 9.8125 0 
z
" id="DejaVuSans-69"/>
       <path d="M 45.40625 27.984375 
Q 45.40625 37.75 41.375 43.109375 
Q 37.359375 48.484375 30.078125 48.484375 
Q 22.859375 48.484375 18.828125 43.109375 
Q 14.796875 37.75 14.796875 27.984375 
Q 14.796875 18.265625 18.828125 12.890625 
Q 22.859375 7.515625 30.078125 7.515625 
Q 37.359375 7.515625 41.375 12.890625 
Q 45.40625 18.265625 45.40625 27.984375 
z
M 54.390625 6.78125 
Q 54.390625 -7.171875 48.1875 -13.984375 
Q 42 -20.796875 29.203125 -20.796875 
Q 24.46875 -20.796875 20.265625 -20.09375 
Q 16.0625 -19.390625 12.109375 -17.921875 
L 12.109375 -9.1875 
Q 16.0625 -11.328125 19.921875 -12.34375 
Q 23.78125 -13.375 27.78125 -13.375 
Q 36.625 -13.375 41.015625 -8.765625 
Q 45.40625 -4.15625 45.40625 5.171875 
L 45.40625 9.625 
Q 42.625 4.78125 38.28125 2.390625 
Q 33.9375 0 27.875 0 
Q 17.828125 0 11.671875 7.65625 
Q 5.515625 15.328125 5.515625 27.984375 
Q 5.515625 40.671875 11.671875 48.328125 
Q 17.828125 56 27.875 56 
Q 33.9375 56 38.28125 53.609375 
Q 42.625 51.21875 45.40625 46.390625 
L 45.40625 54.6875 
L 54.390625 54.6875 
z
" id="DejaVuSans-103"/>
      </defs>
      <use xlink:href="#DejaVuSans-69"/>
      <use x="63.183594" xlink:href="#DejaVuSans-100"/>
      <use x="126.660156" xlink:href="#DejaVuSans-103"/>
      <use x="190.136719" xlink:href="#DejaVuSans-101"/>
      <use x="251.660156" xlink:href="#DejaVuSans-95"/>
      <use x="301.660156" xlink:href="#DejaVuSans-115"/>
      <use x="353.759766" xlink:href="#DejaVuSans-105"/>
      <use x="381.542969" xlink:href="#DejaVuSans-109"/>
     </g>
    </g>
    <g id="PathCollection_17">
     <defs>
      <path d="M 0 0 
C 0 0 0 0 0 0 
C 0 0 0 0 0 0 
C 0 0 0 0 0 0 
C 0 0 0 0 0 0 
C 0 0 0 0 0 0 
C 0 0 0 0 0 0 
C 0 0 0 0 0 0 
C 0 0 0 0 0 0 
z
" id="m2513398d46" style="stroke:#333333;"/>
     </defs>
     <g>
      <use style="fill:#333333;stroke:#333333;" x="344.8" xlink:href="#m2513398d46" y="224.4225"/>
     </g>
    </g>
    <g id="text_20">
     <!-- 0.0 -->
     <g transform="translate(364 228.6225)scale(0.16 -0.16)">
      <use xlink:href="#DejaVuSans-48"/>
      <use x="63.623047" xlink:href="#DejaVuSans-46"/>
      <use x="95.410156" xlink:href="#DejaVuSans-48"/>
     </g>
    </g>
    <g id="PathCollection_18">
     <defs>
      <path d="M 0 4.59261 
C 1.217974 4.59261 2.386228 4.108703 3.247465 3.247465 
C 4.108703 2.386228 4.59261 1.217974 4.59261 0 
C 4.59261 -1.217974 4.108703 -2.386228 3.247465 -3.247465 
C 2.386228 -4.108703 1.217974 -4.59261 0 -4.59261 
C -1.217974 -4.59261 -2.386228 -4.108703 -3.247465 -3.247465 
C -4.108703 -2.386228 -4.59261 -1.217974 -4.59261 0 
C -4.59261 1.217974 -4.108703 2.386228 -3.247465 3.247465 
C -2.386228 4.108703 -1.217974 4.59261 0 4.59261 
z
" id="m1359888961" style="stroke:#333333;"/>
     </defs>
     <g>
      <use style="fill:#333333;stroke:#333333;" x="344.8" xlink:href="#m1359888961" y="243.1075"/>
     </g>
    </g>
    <g id="text_21">
     <!-- 0.2 -->
     <g transform="translate(364 247.3075)scale(0.16 -0.16)">
      <use xlink:href="#DejaVuSans-48"/>
      <use x="63.623047" xlink:href="#DejaVuSans-46"/>
      <use x="95.410156" xlink:href="#DejaVuSans-50"/>
     </g>
    </g>
    <g id="PathCollection_19">
     <defs>
      <path d="M 0 6.494931 
C 1.722476 6.494931 3.374635 5.810584 4.59261 4.59261 
C 5.810584 3.374635 6.494931 1.722476 6.494931 0 
C 6.494931 -1.722476 5.810584 -3.374635 4.59261 -4.59261 
C 3.374635 -5.810584 1.722476 -6.494931 0 -6.494931 
C -1.722476 -6.494931 -3.374635 -5.810584 -4.59261 -4.59261 
C -5.810584 -3.374635 -6.494931 -1.722476 -6.494931 0 
C -6.494931 1.722476 -5.810584 3.374635 -4.59261 4.59261 
C -3.374635 5.810584 -1.722476 6.494931 0 6.494931 
z
" id="m3809399fc3" style="stroke:#333333;"/>
     </defs>
     <g>
      <use style="fill:#333333;stroke:#333333;" x="344.8" xlink:href="#m3809399fc3" y="261.7925"/>
     </g>
    </g>
    <g id="text_22">
     <!-- 0.4 -->
     <g transform="translate(364 265.9925)scale(0.16 -0.16)">
      <use xlink:href="#DejaVuSans-48"/>
      <use x="63.623047" xlink:href="#DejaVuSans-46"/>
      <use x="95.410156" xlink:href="#DejaVuSans-52"/>
     </g>
    </g>
    <g id="PathCollection_20">
     <defs>
      <path d="M 0 7.954633 
C 2.109593 7.954633 4.133067 7.116483 5.624775 5.624775 
C 7.116483 4.133067 7.954633 2.109593 7.954633 0 
C 7.954633 -2.109593 7.116483 -4.133067 5.624775 -5.624775 
C 4.133067 -7.116483 2.109593 -7.954633 0 -7.954633 
C -2.109593 -7.954633 -4.133067 -7.116483 -5.624775 -5.624775 
C -7.116483 -4.133067 -7.954633 -2.109593 -7.954633 0 
C -7.954633 2.109593 -7.116483 4.133067 -5.624775 5.624775 
C -4.133067 7.116483 -2.109593 7.954633 0 7.954633 
z
" id="m0573cb50f7" style="stroke:#333333;"/>
     </defs>
     <g>
      <use style="fill:#333333;stroke:#333333;" x="344.8" xlink:href="#m0573cb50f7" y="280.4775"/>
     </g>
    </g>
    <g id="text_23">
     <!-- 0.6 -->
     <g transform="translate(364 284.6775)scale(0.16 -0.16)">
      <use xlink:href="#DejaVuSans-48"/>
      <use x="63.623047" xlink:href="#DejaVuSans-46"/>
      <use x="95.410156" xlink:href="#DejaVuSans-54"/>
     </g>
    </g>
    <g id="PathCollection_21">
     <defs>
      <path d="M 0 9.185219 
C 2.435949 9.185219 4.772455 8.217407 6.494931 6.494931 
C 8.217407 4.772455 9.185219 2.435949 9.185219 0 
C 9.185219 -2.435949 8.217407 -4.772455 6.494931 -6.494931 
C 4.772455 -8.217407 2.435949 -9.185219 0 -9.185219 
C -2.435949 -9.185219 -4.772455 -8.217407 -6.494931 -6.494931 
C -8.217407 -4.772455 -9.185219 -2.435949 -9.185219 0 
C -9.185219 2.435949 -8.217407 4.772455 -6.494931 6.494931 
C -4.772455 8.217407 -2.435949 9.185219 0 9.185219 
z
" id="m60a493f748" style="stroke:#333333;"/>
     </defs>
     <g>
      <use style="fill:#333333;stroke:#333333;" x="344.8" xlink:href="#m60a493f748" y="299.1625"/>
     </g>
    </g>
    <g id="text_24">
     <!-- 0.8 -->
     <g transform="translate(364 303.3625)scale(0.16 -0.16)">
      <use xlink:href="#DejaVuSans-48"/>
      <use x="63.623047" xlink:href="#DejaVuSans-46"/>
      <use x="95.410156" xlink:href="#DejaVuSans-56"/>
     </g>
    </g>
   </g>
  </g>
 </g>
 <defs>
  <clipPath id="p6408a341c7">
   <rect height="271.8" width="279" x="45" y="43.2"/>
  </clipPath>
 </defs>
</svg>
