<?xml version="1.0" encoding="utf-8" standalone="no"?>
<!DOCTYPE svg PUBLIC "-//W3C//DTD SVG 1.1//EN"
  "http://www.w3.org/Graphics/SVG/1.1/DTD/svg11.dtd">
<!-- Created with matplotlib (https://matplotlib.org/) -->
<svg height="720pt" version="1.1" viewBox="0 0 720 720" width="720pt" xmlns="http://www.w3.org/2000/svg" xmlns:xlink="http://www.w3.org/1999/xlink">
 <metadata>
  <rdf:RDF xmlns:cc="http://creativecommons.org/ns#" xmlns:dc="http://purl.org/dc/elements/1.1/" xmlns:rdf="http://www.w3.org/1999/02/22-rdf-syntax-ns#">
   <cc:Work>
    <dc:type rdf:resource="http://purl.org/dc/dcmitype/StillImage"/>
    <dc:date>2021-06-05T11:06:35.276343</dc:date>
    <dc:format>image/svg+xml</dc:format>
    <dc:creator>
     <cc:Agent>
      <dc:title>Matplotlib v3.3.4, https://matplotlib.org/</dc:title>
     </cc:Agent>
    </dc:creator>
   </cc:Work>
  </rdf:RDF>
 </metadata>
 <defs>
  <style type="text/css">*{stroke-linecap:butt;stroke-linejoin:round;}</style>
 </defs>
 <g id="figure_1">
  <g id="patch_1">
   <path d="M 0 720 
L 720 720 
L 720 0 
L 0 0 
z
" style="fill:#ffffff;"/>
  </g>
  <g id="axes_1">
   <g id="patch_2">
    <path d="M 78.21 655.54 
L 495.034457 655.54 
L 495.034457 123.116571 
L 78.21 123.116571 
z
" style="fill:#eaeaf2;"/>
   </g>
   <g id="matplotlib.axis_1">
    <g id="xtick_1">
     <g id="line2d_1">
      <path clip-path="url(#p87378b6a11)" d="M 122.918567 655.54 
L 122.918567 123.116571 
" style="fill:none;stroke:#ffffff;stroke-linecap:round;"/>
     </g>
     <g id="text_1">
      <!-- 0 -->
      <g style="fill:#262626;" transform="translate(114.577161 686.513438)scale(0.3 -0.3)">
       <defs>
        <path d="M 4.15625 35.296875 
Q 4.15625 48 6.765625 55.734375 
Q 9.375 63.484375 14.515625 67.671875 
Q 19.671875 71.875 27.484375 71.875 
Q 33.25 71.875 37.59375 69.546875 
Q 41.9375 67.234375 44.765625 62.859375 
Q 47.609375 58.5 49.21875 52.21875 
Q 50.828125 45.953125 50.828125 35.296875 
Q 50.828125 22.703125 48.234375 14.96875 
Q 45.65625 7.234375 40.5 3 
Q 35.359375 -1.21875 27.484375 -1.21875 
Q 17.140625 -1.21875 11.234375 6.203125 
Q 4.15625 15.140625 4.15625 35.296875 
z
M 13.1875 35.296875 
Q 13.1875 17.671875 17.3125 11.828125 
Q 21.4375 6 27.484375 6 
Q 33.546875 6 37.671875 11.859375 
Q 41.796875 17.71875 41.796875 35.296875 
Q 41.796875 52.984375 37.671875 58.78125 
Q 33.546875 64.59375 27.390625 64.59375 
Q 21.34375 64.59375 17.71875 59.46875 
Q 13.1875 52.9375 13.1875 35.296875 
z
" id="ArialMT-48"/>
       </defs>
       <use xlink:href="#ArialMT-48"/>
      </g>
     </g>
    </g>
    <g id="xtick_2">
     <g id="line2d_2">
      <path clip-path="url(#p87378b6a11)" d="M 237.796989 655.54 
L 237.796989 123.116571 
" style="fill:none;stroke:#ffffff;stroke-linecap:round;"/>
     </g>
     <g id="text_2">
      <!-- 1 -->
      <g style="fill:#262626;" transform="translate(229.455583 686.513438)scale(0.3 -0.3)">
       <defs>
        <path d="M 37.25 0 
L 28.46875 0 
L 28.46875 56 
Q 25.296875 52.984375 20.140625 49.953125 
Q 14.984375 46.921875 10.890625 45.40625 
L 10.890625 53.90625 
Q 18.265625 57.375 23.78125 62.296875 
Q 29.296875 67.234375 31.59375 71.875 
L 37.25 71.875 
z
" id="ArialMT-49"/>
       </defs>
       <use xlink:href="#ArialMT-49"/>
      </g>
     </g>
    </g>
    <g id="xtick_3">
     <g id="line2d_3">
      <path clip-path="url(#p87378b6a11)" d="M 352.675411 655.54 
L 352.675411 123.116571 
" style="fill:none;stroke:#ffffff;stroke-linecap:round;"/>
     </g>
     <g id="text_3">
      <!-- 2 -->
      <g style="fill:#262626;" transform="translate(344.334005 686.513438)scale(0.3 -0.3)">
       <defs>
        <path d="M 50.34375 8.453125 
L 50.34375 0 
L 3.03125 0 
Q 2.9375 3.171875 4.046875 6.109375 
Q 5.859375 10.9375 9.828125 15.625 
Q 13.8125 20.3125 21.34375 26.46875 
Q 33.015625 36.03125 37.109375 41.625 
Q 41.21875 47.21875 41.21875 52.203125 
Q 41.21875 57.421875 37.46875 61 
Q 33.734375 64.59375 27.734375 64.59375 
Q 21.390625 64.59375 17.578125 60.78125 
Q 13.765625 56.984375 13.71875 50.25 
L 4.6875 51.171875 
Q 5.609375 61.28125 11.65625 66.578125 
Q 17.71875 71.875 27.9375 71.875 
Q 38.234375 71.875 44.234375 66.15625 
Q 50.25 60.453125 50.25 52 
Q 50.25 47.703125 48.484375 43.546875 
Q 46.734375 39.40625 42.65625 34.8125 
Q 38.578125 30.21875 29.109375 22.21875 
Q 21.1875 15.578125 18.9375 13.203125 
Q 16.703125 10.84375 15.234375 8.453125 
z
" id="ArialMT-50"/>
       </defs>
       <use xlink:href="#ArialMT-50"/>
      </g>
     </g>
    </g>
    <g id="xtick_4">
     <g id="line2d_4">
      <path clip-path="url(#p87378b6a11)" d="M 467.553833 655.54 
L 467.553833 123.116571 
" style="fill:none;stroke:#ffffff;stroke-linecap:round;"/>
     </g>
     <g id="text_4">
      <!-- 3 -->
      <g style="fill:#262626;" transform="translate(459.212427 686.513438)scale(0.3 -0.3)">
       <defs>
        <path d="M 4.203125 18.890625 
L 12.984375 20.0625 
Q 14.5 12.59375 18.140625 9.296875 
Q 21.78125 6 27 6 
Q 33.203125 6 37.46875 10.296875 
Q 41.75 14.59375 41.75 20.953125 
Q 41.75 27 37.796875 30.921875 
Q 33.84375 34.859375 27.734375 34.859375 
Q 25.25 34.859375 21.53125 33.890625 
L 22.515625 41.609375 
Q 23.390625 41.5 23.921875 41.5 
Q 29.546875 41.5 34.03125 44.421875 
Q 38.53125 47.359375 38.53125 53.46875 
Q 38.53125 58.296875 35.25 61.46875 
Q 31.984375 64.65625 26.8125 64.65625 
Q 21.6875 64.65625 18.265625 61.421875 
Q 14.84375 58.203125 13.875 51.765625 
L 5.078125 53.328125 
Q 6.6875 62.15625 12.390625 67.015625 
Q 18.109375 71.875 26.609375 71.875 
Q 32.46875 71.875 37.390625 69.359375 
Q 42.328125 66.84375 44.9375 62.5 
Q 47.5625 58.15625 47.5625 53.265625 
Q 47.5625 48.640625 45.0625 44.828125 
Q 42.578125 41.015625 37.703125 38.765625 
Q 44.046875 37.3125 47.5625 32.6875 
Q 51.078125 28.078125 51.078125 21.140625 
Q 51.078125 11.765625 44.234375 5.25 
Q 37.40625 -1.265625 26.953125 -1.265625 
Q 17.53125 -1.265625 11.296875 4.34375 
Q 5.078125 9.96875 4.203125 18.890625 
z
" id="ArialMT-51"/>
       </defs>
       <use xlink:href="#ArialMT-51"/>
      </g>
     </g>
    </g>
    <g id="text_5">
     <!-- OmniPath log(Degree) -->
     <g style="fill:#262626;" transform="translate(86.547229 725.619688)scale(0.4 -0.4)">
      <defs>
       <path d="M 4.828125 34.859375 
Q 4.828125 52.6875 14.390625 62.765625 
Q 23.96875 72.859375 39.109375 72.859375 
Q 49.03125 72.859375 56.984375 68.109375 
Q 64.9375 63.375 69.109375 54.90625 
Q 73.296875 46.4375 73.296875 35.6875 
Q 73.296875 24.8125 68.890625 16.21875 
Q 64.5 7.625 56.4375 3.203125 
Q 48.390625 -1.21875 39.0625 -1.21875 
Q 28.953125 -1.21875 20.984375 3.65625 
Q 13.03125 8.546875 8.921875 16.984375 
Q 4.828125 25.4375 4.828125 34.859375 
z
M 14.59375 34.71875 
Q 14.59375 21.78125 21.546875 14.328125 
Q 28.515625 6.890625 39.015625 6.890625 
Q 49.703125 6.890625 56.609375 14.40625 
Q 63.53125 21.921875 63.53125 35.75 
Q 63.53125 44.484375 60.578125 51 
Q 57.625 57.515625 51.921875 61.109375 
Q 46.234375 64.703125 39.15625 64.703125 
Q 29.109375 64.703125 21.84375 57.78125 
Q 14.59375 50.875 14.59375 34.71875 
z
" id="ArialMT-79"/>
       <path d="M 6.59375 0 
L 6.59375 51.859375 
L 14.453125 51.859375 
L 14.453125 44.578125 
Q 16.890625 48.390625 20.9375 50.703125 
Q 25 53.03125 30.171875 53.03125 
Q 35.9375 53.03125 39.625 50.640625 
Q 43.3125 48.25 44.828125 43.953125 
Q 50.984375 53.03125 60.84375 53.03125 
Q 68.5625 53.03125 72.703125 48.75 
Q 76.859375 44.484375 76.859375 35.59375 
L 76.859375 0 
L 68.109375 0 
L 68.109375 32.671875 
Q 68.109375 37.9375 67.25 40.25 
Q 66.40625 42.578125 64.15625 43.984375 
Q 61.921875 45.40625 58.890625 45.40625 
Q 53.421875 45.40625 49.796875 41.765625 
Q 46.1875 38.140625 46.1875 30.125 
L 46.1875 0 
L 37.40625 0 
L 37.40625 33.6875 
Q 37.40625 39.546875 35.25 42.46875 
Q 33.109375 45.40625 28.21875 45.40625 
Q 24.515625 45.40625 21.359375 43.453125 
Q 18.21875 41.5 16.796875 37.734375 
Q 15.375 33.984375 15.375 26.90625 
L 15.375 0 
z
" id="ArialMT-109"/>
       <path d="M 6.59375 0 
L 6.59375 51.859375 
L 14.5 51.859375 
L 14.5 44.484375 
Q 20.21875 53.03125 31 53.03125 
Q 35.6875 53.03125 39.625 51.34375 
Q 43.5625 49.65625 45.515625 46.921875 
Q 47.46875 44.1875 48.25 40.4375 
Q 48.734375 37.984375 48.734375 31.890625 
L 48.734375 0 
L 39.9375 0 
L 39.9375 31.546875 
Q 39.9375 36.921875 38.90625 39.578125 
Q 37.890625 42.234375 35.28125 43.8125 
Q 32.671875 45.40625 29.15625 45.40625 
Q 23.53125 45.40625 19.453125 41.84375 
Q 15.375 38.28125 15.375 28.328125 
L 15.375 0 
z
" id="ArialMT-110"/>
       <path d="M 6.640625 61.46875 
L 6.640625 71.578125 
L 15.4375 71.578125 
L 15.4375 61.46875 
z
M 6.640625 0 
L 6.640625 51.859375 
L 15.4375 51.859375 
L 15.4375 0 
z
" id="ArialMT-105"/>
       <path d="M 7.71875 0 
L 7.71875 71.578125 
L 34.71875 71.578125 
Q 41.84375 71.578125 45.609375 70.90625 
Q 50.875 70.015625 54.4375 67.546875 
Q 58.015625 65.09375 60.1875 60.640625 
Q 62.359375 56.203125 62.359375 50.875 
Q 62.359375 41.75 56.546875 35.421875 
Q 50.734375 29.109375 35.546875 29.109375 
L 17.1875 29.109375 
L 17.1875 0 
z
M 17.1875 37.546875 
L 35.6875 37.546875 
Q 44.875 37.546875 48.734375 40.96875 
Q 52.59375 44.390625 52.59375 50.59375 
Q 52.59375 55.078125 50.3125 58.265625 
Q 48.046875 61.46875 44.34375 62.5 
Q 41.9375 63.140625 35.5 63.140625 
L 17.1875 63.140625 
z
" id="ArialMT-80"/>
       <path d="M 40.4375 6.390625 
Q 35.546875 2.25 31.03125 0.53125 
Q 26.515625 -1.171875 21.34375 -1.171875 
Q 12.796875 -1.171875 8.203125 3 
Q 3.609375 7.171875 3.609375 13.671875 
Q 3.609375 17.484375 5.34375 20.625 
Q 7.078125 23.78125 9.890625 25.6875 
Q 12.703125 27.59375 16.21875 28.5625 
Q 18.796875 29.25 24.03125 29.890625 
Q 34.671875 31.15625 39.703125 32.90625 
Q 39.75 34.71875 39.75 35.203125 
Q 39.75 40.578125 37.25 42.78125 
Q 33.890625 45.75 27.25 45.75 
Q 21.046875 45.75 18.09375 43.578125 
Q 15.140625 41.40625 13.71875 35.890625 
L 5.125 37.0625 
Q 6.296875 42.578125 8.984375 45.96875 
Q 11.671875 49.359375 16.75 51.1875 
Q 21.828125 53.03125 28.515625 53.03125 
Q 35.15625 53.03125 39.296875 51.46875 
Q 43.453125 49.90625 45.40625 47.53125 
Q 47.359375 45.171875 48.140625 41.546875 
Q 48.578125 39.3125 48.578125 33.453125 
L 48.578125 21.734375 
Q 48.578125 9.46875 49.140625 6.21875 
Q 49.703125 2.984375 51.375 0 
L 42.1875 0 
Q 40.828125 2.734375 40.4375 6.390625 
z
M 39.703125 26.03125 
Q 34.90625 24.078125 25.34375 22.703125 
Q 19.921875 21.921875 17.671875 20.9375 
Q 15.4375 19.96875 14.203125 18.09375 
Q 12.984375 16.21875 12.984375 13.921875 
Q 12.984375 10.40625 15.640625 8.0625 
Q 18.3125 5.71875 23.4375 5.71875 
Q 28.515625 5.71875 32.46875 7.9375 
Q 36.421875 10.15625 38.28125 14.015625 
Q 39.703125 17 39.703125 22.796875 
z
" id="ArialMT-97"/>
       <path d="M 25.78125 7.859375 
L 27.046875 0.09375 
Q 23.34375 -0.6875 20.40625 -0.6875 
Q 15.625 -0.6875 12.984375 0.828125 
Q 10.359375 2.34375 9.28125 4.8125 
Q 8.203125 7.28125 8.203125 15.1875 
L 8.203125 45.015625 
L 1.765625 45.015625 
L 1.765625 51.859375 
L 8.203125 51.859375 
L 8.203125 64.703125 
L 16.9375 69.96875 
L 16.9375 51.859375 
L 25.78125 51.859375 
L 25.78125 45.015625 
L 16.9375 45.015625 
L 16.9375 14.703125 
Q 16.9375 10.9375 17.40625 9.859375 
Q 17.875 8.796875 18.921875 8.15625 
Q 19.96875 7.515625 21.921875 7.515625 
Q 23.390625 7.515625 25.78125 7.859375 
z
" id="ArialMT-116"/>
       <path d="M 6.59375 0 
L 6.59375 71.578125 
L 15.375 71.578125 
L 15.375 45.90625 
Q 21.53125 53.03125 30.90625 53.03125 
Q 36.671875 53.03125 40.921875 50.75 
Q 45.171875 48.484375 47 44.484375 
Q 48.828125 40.484375 48.828125 32.859375 
L 48.828125 0 
L 40.046875 0 
L 40.046875 32.859375 
Q 40.046875 39.453125 37.1875 42.453125 
Q 34.328125 45.453125 29.109375 45.453125 
Q 25.203125 45.453125 21.75 43.421875 
Q 18.3125 41.40625 16.84375 37.9375 
Q 15.375 34.46875 15.375 28.375 
L 15.375 0 
z
" id="ArialMT-104"/>
       <path id="ArialMT-32"/>
       <path d="M 6.390625 0 
L 6.390625 71.578125 
L 15.1875 71.578125 
L 15.1875 0 
z
" id="ArialMT-108"/>
       <path d="M 3.328125 25.921875 
Q 3.328125 40.328125 11.328125 47.265625 
Q 18.015625 53.03125 27.640625 53.03125 
Q 38.328125 53.03125 45.109375 46.015625 
Q 51.90625 39.015625 51.90625 26.65625 
Q 51.90625 16.65625 48.90625 10.90625 
Q 45.90625 5.171875 40.15625 2 
Q 34.421875 -1.171875 27.640625 -1.171875 
Q 16.75 -1.171875 10.03125 5.8125 
Q 3.328125 12.796875 3.328125 25.921875 
z
M 12.359375 25.921875 
Q 12.359375 15.96875 16.703125 11.015625 
Q 21.046875 6.0625 27.640625 6.0625 
Q 34.1875 6.0625 38.53125 11.03125 
Q 42.875 16.015625 42.875 26.21875 
Q 42.875 35.84375 38.5 40.796875 
Q 34.125 45.75 27.640625 45.75 
Q 21.046875 45.75 16.703125 40.8125 
Q 12.359375 35.890625 12.359375 25.921875 
z
" id="ArialMT-111"/>
       <path d="M 4.984375 -4.296875 
L 13.53125 -5.5625 
Q 14.0625 -9.515625 16.5 -11.328125 
Q 19.78125 -13.765625 25.4375 -13.765625 
Q 31.546875 -13.765625 34.859375 -11.328125 
Q 38.1875 -8.890625 39.359375 -4.5 
Q 40.046875 -1.8125 39.984375 6.78125 
Q 34.234375 0 25.640625 0 
Q 14.9375 0 9.078125 7.71875 
Q 3.21875 15.4375 3.21875 26.21875 
Q 3.21875 33.640625 5.90625 39.90625 
Q 8.59375 46.1875 13.6875 49.609375 
Q 18.796875 53.03125 25.6875 53.03125 
Q 34.859375 53.03125 40.828125 45.609375 
L 40.828125 51.859375 
L 48.921875 51.859375 
L 48.921875 7.03125 
Q 48.921875 -5.078125 46.453125 -10.125 
Q 44 -15.1875 38.640625 -18.109375 
Q 33.296875 -21.046875 25.484375 -21.046875 
Q 16.21875 -21.046875 10.5 -16.875 
Q 4.78125 -12.703125 4.984375 -4.296875 
z
M 12.25 26.859375 
Q 12.25 16.65625 16.296875 11.96875 
Q 20.359375 7.28125 26.46875 7.28125 
Q 32.515625 7.28125 36.609375 11.9375 
Q 40.71875 16.609375 40.71875 26.5625 
Q 40.71875 36.078125 36.5 40.90625 
Q 32.28125 45.75 26.3125 45.75 
Q 20.453125 45.75 16.34375 40.984375 
Q 12.25 36.234375 12.25 26.859375 
z
" id="ArialMT-103"/>
       <path d="M 23.390625 -21.046875 
Q 16.109375 -11.859375 11.078125 0.4375 
Q 6.0625 12.75 6.0625 25.921875 
Q 6.0625 37.546875 9.8125 48.1875 
Q 14.203125 60.546875 23.390625 72.796875 
L 29.6875 72.796875 
Q 23.78125 62.640625 21.875 58.296875 
Q 18.890625 51.5625 17.1875 44.234375 
Q 15.09375 35.109375 15.09375 25.875 
Q 15.09375 2.390625 29.6875 -21.046875 
z
" id="ArialMT-40"/>
       <path d="M 7.71875 0 
L 7.71875 71.578125 
L 32.375 71.578125 
Q 40.71875 71.578125 45.125 70.5625 
Q 51.265625 69.140625 55.609375 65.4375 
Q 61.28125 60.640625 64.078125 53.1875 
Q 66.890625 45.75 66.890625 36.1875 
Q 66.890625 28.03125 64.984375 21.734375 
Q 63.09375 15.4375 60.109375 11.296875 
Q 57.125 7.171875 53.578125 4.796875 
Q 50.046875 2.4375 45.046875 1.21875 
Q 40.046875 0 33.546875 0 
z
M 17.1875 8.453125 
L 32.46875 8.453125 
Q 39.546875 8.453125 43.578125 9.765625 
Q 47.609375 11.078125 50 13.484375 
Q 53.375 16.84375 55.25 22.53125 
Q 57.125 28.21875 57.125 36.328125 
Q 57.125 47.5625 53.4375 53.59375 
Q 49.75 59.625 44.484375 61.671875 
Q 40.671875 63.140625 32.234375 63.140625 
L 17.1875 63.140625 
z
" id="ArialMT-68"/>
       <path d="M 42.09375 16.703125 
L 51.171875 15.578125 
Q 49.03125 7.625 43.21875 3.21875 
Q 37.40625 -1.171875 28.375 -1.171875 
Q 17 -1.171875 10.328125 5.828125 
Q 3.65625 12.84375 3.65625 25.484375 
Q 3.65625 38.578125 10.390625 45.796875 
Q 17.140625 53.03125 27.875 53.03125 
Q 38.28125 53.03125 44.875 45.953125 
Q 51.46875 38.875 51.46875 26.03125 
Q 51.46875 25.25 51.421875 23.6875 
L 12.75 23.6875 
Q 13.234375 15.140625 17.578125 10.59375 
Q 21.921875 6.0625 28.421875 6.0625 
Q 33.25 6.0625 36.671875 8.59375 
Q 40.09375 11.140625 42.09375 16.703125 
z
M 13.234375 30.90625 
L 42.1875 30.90625 
Q 41.609375 37.453125 38.875 40.71875 
Q 34.671875 45.796875 27.984375 45.796875 
Q 21.921875 45.796875 17.796875 41.75 
Q 13.671875 37.703125 13.234375 30.90625 
z
" id="ArialMT-101"/>
       <path d="M 6.5 0 
L 6.5 51.859375 
L 14.40625 51.859375 
L 14.40625 44 
Q 17.4375 49.515625 20 51.265625 
Q 22.5625 53.03125 25.640625 53.03125 
Q 30.078125 53.03125 34.671875 50.203125 
L 31.640625 42.046875 
Q 28.421875 43.953125 25.203125 43.953125 
Q 22.3125 43.953125 20.015625 42.21875 
Q 17.71875 40.484375 16.75 37.40625 
Q 15.28125 32.71875 15.28125 27.15625 
L 15.28125 0 
z
" id="ArialMT-114"/>
       <path d="M 12.359375 -21.046875 
L 6.0625 -21.046875 
Q 20.65625 2.390625 20.65625 25.875 
Q 20.65625 35.0625 18.5625 44.09375 
Q 16.890625 51.421875 13.921875 58.15625 
Q 12.015625 62.546875 6.0625 72.796875 
L 12.359375 72.796875 
Q 21.53125 60.546875 25.921875 48.1875 
Q 29.6875 37.546875 29.6875 25.921875 
Q 29.6875 12.75 24.625 0.4375 
Q 19.578125 -11.859375 12.359375 -21.046875 
z
" id="ArialMT-41"/>
      </defs>
      <use xlink:href="#ArialMT-79"/>
      <use x="77.783203" xlink:href="#ArialMT-109"/>
      <use x="161.083984" xlink:href="#ArialMT-110"/>
      <use x="216.699219" xlink:href="#ArialMT-105"/>
      <use x="238.916016" xlink:href="#ArialMT-80"/>
      <use x="305.615234" xlink:href="#ArialMT-97"/>
      <use x="361.230469" xlink:href="#ArialMT-116"/>
      <use x="389.013672" xlink:href="#ArialMT-104"/>
      <use x="444.628906" xlink:href="#ArialMT-32"/>
      <use x="472.412109" xlink:href="#ArialMT-108"/>
      <use x="494.628906" xlink:href="#ArialMT-111"/>
      <use x="550.244141" xlink:href="#ArialMT-103"/>
      <use x="605.859375" xlink:href="#ArialMT-40"/>
      <use x="639.160156" xlink:href="#ArialMT-68"/>
      <use x="711.376953" xlink:href="#ArialMT-101"/>
      <use x="766.992188" xlink:href="#ArialMT-103"/>
      <use x="822.607422" xlink:href="#ArialMT-114"/>
      <use x="855.908203" xlink:href="#ArialMT-101"/>
      <use x="911.523438" xlink:href="#ArialMT-101"/>
      <use x="967.138672" xlink:href="#ArialMT-41"/>
     </g>
    </g>
   </g>
   <g id="matplotlib.axis_2">
    <g id="ytick_1">
     <g id="line2d_5">
      <path clip-path="url(#p87378b6a11)" d="M 78.21 612.172417 
L 495.034457 612.172417 
" style="fill:none;stroke:#ffffff;stroke-linecap:round;"/>
     </g>
     <g id="text_6">
      <!-- 0.0 -->
      <g style="fill:#262626;" transform="translate(27.01 622.909136)scale(0.3 -0.3)">
       <defs>
        <path d="M 9.078125 0 
L 9.078125 10.015625 
L 19.09375 10.015625 
L 19.09375 0 
z
" id="ArialMT-46"/>
       </defs>
       <use xlink:href="#ArialMT-48"/>
       <use x="55.615234" xlink:href="#ArialMT-46"/>
       <use x="83.398438" xlink:href="#ArialMT-48"/>
      </g>
     </g>
    </g>
    <g id="ytick_2">
     <g id="line2d_6">
      <path clip-path="url(#p87378b6a11)" d="M 78.21 514.956345 
L 495.034457 514.956345 
" style="fill:none;stroke:#ffffff;stroke-linecap:round;"/>
     </g>
     <g id="text_7">
      <!-- 0.5 -->
      <g style="fill:#262626;" transform="translate(27.01 525.693064)scale(0.3 -0.3)">
       <defs>
        <path d="M 4.15625 18.75 
L 13.375 19.53125 
Q 14.40625 12.796875 18.140625 9.390625 
Q 21.875 6 27.15625 6 
Q 33.5 6 37.890625 10.78125 
Q 42.28125 15.578125 42.28125 23.484375 
Q 42.28125 31 38.0625 35.34375 
Q 33.84375 39.703125 27 39.703125 
Q 22.75 39.703125 19.328125 37.765625 
Q 15.921875 35.84375 13.96875 32.765625 
L 5.71875 33.84375 
L 12.640625 70.609375 
L 48.25 70.609375 
L 48.25 62.203125 
L 19.671875 62.203125 
L 15.828125 42.96875 
Q 22.265625 47.46875 29.34375 47.46875 
Q 38.71875 47.46875 45.15625 40.96875 
Q 51.609375 34.46875 51.609375 24.265625 
Q 51.609375 14.546875 45.953125 7.46875 
Q 39.0625 -1.21875 27.15625 -1.21875 
Q 17.390625 -1.21875 11.203125 4.25 
Q 5.03125 9.71875 4.15625 18.75 
z
" id="ArialMT-53"/>
       </defs>
       <use xlink:href="#ArialMT-48"/>
       <use x="55.615234" xlink:href="#ArialMT-46"/>
       <use x="83.398438" xlink:href="#ArialMT-53"/>
      </g>
     </g>
    </g>
    <g id="ytick_3">
     <g id="line2d_7">
      <path clip-path="url(#p87378b6a11)" d="M 78.21 417.740273 
L 495.034457 417.740273 
" style="fill:none;stroke:#ffffff;stroke-linecap:round;"/>
     </g>
     <g id="text_8">
      <!-- 1.0 -->
      <g style="fill:#262626;" transform="translate(27.01 428.476992)scale(0.3 -0.3)">
       <use xlink:href="#ArialMT-49"/>
       <use x="55.615234" xlink:href="#ArialMT-46"/>
       <use x="83.398438" xlink:href="#ArialMT-48"/>
      </g>
     </g>
    </g>
    <g id="ytick_4">
     <g id="line2d_8">
      <path clip-path="url(#p87378b6a11)" d="M 78.21 320.524201 
L 495.034457 320.524201 
" style="fill:none;stroke:#ffffff;stroke-linecap:round;"/>
     </g>
     <g id="text_9">
      <!-- 1.5 -->
      <g style="fill:#262626;" transform="translate(27.01 331.26092)scale(0.3 -0.3)">
       <use xlink:href="#ArialMT-49"/>
       <use x="55.615234" xlink:href="#ArialMT-46"/>
       <use x="83.398438" xlink:href="#ArialMT-53"/>
      </g>
     </g>
    </g>
    <g id="ytick_5">
     <g id="line2d_9">
      <path clip-path="url(#p87378b6a11)" d="M 78.21 223.308129 
L 495.034457 223.308129 
" style="fill:none;stroke:#ffffff;stroke-linecap:round;"/>
     </g>
     <g id="text_10">
      <!-- 2.0 -->
      <g style="fill:#262626;" transform="translate(27.01 234.044848)scale(0.3 -0.3)">
       <use xlink:href="#ArialMT-50"/>
       <use x="55.615234" xlink:href="#ArialMT-46"/>
       <use x="83.398438" xlink:href="#ArialMT-48"/>
      </g>
     </g>
    </g>
    <g id="ytick_6">
     <g id="line2d_10">
      <path clip-path="url(#p87378b6a11)" d="M 78.21 126.092057 
L 495.034457 126.092057 
" style="fill:none;stroke:#ffffff;stroke-linecap:round;"/>
     </g>
     <g id="text_11">
      <!-- 2.5 -->
      <g style="fill:#262626;" transform="translate(27.01 136.828775)scale(0.3 -0.3)">
       <use xlink:href="#ArialMT-50"/>
       <use x="55.615234" xlink:href="#ArialMT-46"/>
       <use x="83.398438" xlink:href="#ArialMT-53"/>
      </g>
     </g>
    </g>
    <g id="text_12">
     <!-- log(Publication_count) -->
     <g style="fill:#262626;" transform="translate(14.59125 587.215786)rotate(-90)scale(0.4 -0.4)">
      <defs>
       <path d="M 40.578125 0 
L 40.578125 7.625 
Q 34.515625 -1.171875 24.125 -1.171875 
Q 19.53125 -1.171875 15.546875 0.578125 
Q 11.578125 2.34375 9.640625 5 
Q 7.71875 7.671875 6.9375 11.53125 
Q 6.390625 14.109375 6.390625 19.734375 
L 6.390625 51.859375 
L 15.1875 51.859375 
L 15.1875 23.09375 
Q 15.1875 16.21875 15.71875 13.8125 
Q 16.546875 10.359375 19.234375 8.375 
Q 21.921875 6.390625 25.875 6.390625 
Q 29.828125 6.390625 33.296875 8.421875 
Q 36.765625 10.453125 38.203125 13.9375 
Q 39.65625 17.4375 39.65625 24.078125 
L 39.65625 51.859375 
L 48.4375 51.859375 
L 48.4375 0 
z
" id="ArialMT-117"/>
       <path d="M 14.703125 0 
L 6.546875 0 
L 6.546875 71.578125 
L 15.328125 71.578125 
L 15.328125 46.046875 
Q 20.90625 53.03125 29.546875 53.03125 
Q 34.328125 53.03125 38.59375 51.09375 
Q 42.875 49.171875 45.625 45.671875 
Q 48.390625 42.1875 49.953125 37.25 
Q 51.515625 32.328125 51.515625 26.703125 
Q 51.515625 13.375 44.921875 6.09375 
Q 38.328125 -1.171875 29.109375 -1.171875 
Q 19.921875 -1.171875 14.703125 6.5 
z
M 14.59375 26.3125 
Q 14.59375 17 17.140625 12.84375 
Q 21.296875 6.0625 28.375 6.0625 
Q 34.125 6.0625 38.328125 11.0625 
Q 42.53125 16.0625 42.53125 25.984375 
Q 42.53125 36.140625 38.5 40.96875 
Q 34.46875 45.796875 28.765625 45.796875 
Q 23 45.796875 18.796875 40.796875 
Q 14.59375 35.796875 14.59375 26.3125 
z
" id="ArialMT-98"/>
       <path d="M 40.4375 19 
L 49.078125 17.875 
Q 47.65625 8.9375 41.8125 3.875 
Q 35.984375 -1.171875 27.484375 -1.171875 
Q 16.84375 -1.171875 10.375 5.78125 
Q 3.90625 12.75 3.90625 25.734375 
Q 3.90625 34.125 6.6875 40.421875 
Q 9.46875 46.734375 15.15625 49.875 
Q 20.84375 53.03125 27.546875 53.03125 
Q 35.984375 53.03125 41.359375 48.75 
Q 46.734375 44.484375 48.25 36.625 
L 39.703125 35.296875 
Q 38.484375 40.53125 35.375 43.15625 
Q 32.28125 45.796875 27.875 45.796875 
Q 21.234375 45.796875 17.078125 41.03125 
Q 12.9375 36.28125 12.9375 25.984375 
Q 12.9375 15.53125 16.9375 10.796875 
Q 20.953125 6.0625 27.390625 6.0625 
Q 32.5625 6.0625 36.03125 9.234375 
Q 39.5 12.40625 40.4375 19 
z
" id="ArialMT-99"/>
       <path d="M -1.515625 -19.875 
L -1.515625 -13.53125 
L 56.734375 -13.53125 
L 56.734375 -19.875 
z
" id="ArialMT-95"/>
      </defs>
      <use xlink:href="#ArialMT-108"/>
      <use x="22.216797" xlink:href="#ArialMT-111"/>
      <use x="77.832031" xlink:href="#ArialMT-103"/>
      <use x="133.447266" xlink:href="#ArialMT-40"/>
      <use x="166.748047" xlink:href="#ArialMT-80"/>
      <use x="233.447266" xlink:href="#ArialMT-117"/>
      <use x="289.0625" xlink:href="#ArialMT-98"/>
      <use x="344.677734" xlink:href="#ArialMT-108"/>
      <use x="366.894531" xlink:href="#ArialMT-105"/>
      <use x="389.111328" xlink:href="#ArialMT-99"/>
      <use x="439.111328" xlink:href="#ArialMT-97"/>
      <use x="494.726562" xlink:href="#ArialMT-116"/>
      <use x="522.509766" xlink:href="#ArialMT-105"/>
      <use x="544.726562" xlink:href="#ArialMT-111"/>
      <use x="600.341797" xlink:href="#ArialMT-110"/>
      <use x="655.957031" xlink:href="#ArialMT-95"/>
      <use x="711.572266" xlink:href="#ArialMT-99"/>
      <use x="761.572266" xlink:href="#ArialMT-111"/>
      <use x="817.1875" xlink:href="#ArialMT-117"/>
      <use x="872.802734" xlink:href="#ArialMT-110"/>
      <use x="928.417969" xlink:href="#ArialMT-116"/>
      <use x="956.201172" xlink:href="#ArialMT-41"/>
     </g>
    </g>
   </g>
   <g id="LineCollection_1">
    <path clip-path="url(#p87378b6a11)" d="M 113.818119 562.90877 
L 115.912715 564.017454 
L 118.00731 564.485387 
L 120.101905 564.498564 
L 122.196501 564.173614 
L 124.291096 563.582028 
L 126.385691 562.765787 
L 128.480286 561.735797 
L 132.390781 559.222194 
L 135.591191 556.546699 
L 138.086614 553.871205 
L 140 551.19571 
L 141.413862 548.520215 
L 143.85112 543.169226 
L 145.637033 540.493732 
L 147.331644 539.034146 
L 149.426239 537.769818 
L 151.520834 537.214409 
L 153.615429 536.942486 
L 155.710025 536.878699 
L 164.088406 537.121151 
L 166.183001 536.934454 
L 168.277596 536.546981 
L 170.372192 535.952838 
L 185.034358 530.415123 
L 187.128954 529.585609 
L 195.507335 526.436019 
L 201.79112 523.945062 
L 205.980311 522.112574 
L 212.264097 518.9536 
L 216.453287 516.557752 
L 231.115454 507.182438 
L 241.58843 500.023256 
L 245.777621 496.876348 
L 249.966811 493.413841 
L 252.061407 491.531685 
L 256.250597 487.402458 
L 258.345193 485.11084 
L 260.439788 482.632815 
L 261.272862 481.63285 
L 265.134356 476.281861 
L 268.334323 470.930872 
L 270.912764 465.226786 
L 271.808729 462.904388 
L 273.393224 457.553398 
L 275.101955 452.999805 
L 275.478227 452.202409 
L 277.19655 449.287959 
L 279.291145 446.582753 
L 281.490862 444.175925 
L 290.34971 436.149441 
L 296.047907 431.484734 
L 298.142503 430.03277 
L 300.237098 428.883159 
L 302.331693 428.122385 
L 304.574638 428.122958 
L 306.520884 429.045198 
L 308.238821 430.798452 
L 308.615479 431.405976 
L 309.662439 433.473947 
L 310.409683 436.149441 
L 310.578975 438.824936 
L 310.222466 441.500431 
L 309.471451 444.175925 
L 308.567009 446.85142 
L 307.844653 449.526915 
L 307.65384 452.202409 
L 308.299582 454.877904 
L 309.984689 457.553398 
L 310.710074 458.244561 
L 313.216081 460.228893 
L 314.899265 460.934409 
L 316.99386 461.30464 
L 319.088455 461.081983 
L 321.195908 460.228893 
L 323.277646 458.316725 
L 323.869692 457.553398 
L 325.372241 454.775614 
L 326.011271 452.202409 
L 326.25581 449.526915 
L 326.178765 446.85142 
L 325.771115 441.500431 
L 325.852585 438.824936 
L 326.330758 436.149441 
L 327.466836 433.089183 
L 328.394688 430.798452 
L 331.656027 424.237069 
L 333.750622 419.462826 
L 334.507047 417.420979 
L 335.845217 412.96767 
L 336.071851 412.06999 
L 337.047767 406.719001 
L 337.939812 401.077128 
L 338.992823 396.017022 
L 340.476851 390.666033 
L 343.071527 382.639549 
L 347.62788 369.262076 
L 349.584204 363.911087 
L 351.757739 358.560098 
L 352.975427 355.884603 
L 355.734223 350.533614 
L 361.845144 339.831635 
L 363.172801 337.156141 
L 364.319492 334.480646 
L 365.267548 331.805151 
L 366.026559 329.129657 
L 366.602668 326.454162 
L 367.264146 321.538191 
L 367.508468 318.427678 
L 367.660199 313.076689 
L 367.561165 307.7257 
L 367.085998 299.699216 
L 366.393641 288.997238 
L 366.360211 283.646248 
L 366.691992 278.295259 
L 367.709872 267.593281 
L 367.715721 264.917786 
L 367.477667 262.242291 
L 366.910307 259.566797 
L 365.888828 256.891302 
L 364.193808 254.215808 
L 363.074956 253.023769 
L 360.98036 251.291276 
L 358.885765 250.148206 
L 356.79117 249.321713 
L 354.696575 248.758734 
L 352.601979 248.413607 
L 350.507384 248.231324 
L 348.412789 248.18826 
L 344.223598 248.443692 
L 340.034408 249.04025 
L 329.561431 250.884279 
L 327.466836 251.079442 
L 325.372241 251.144578 
L 323.277646 251.06092 
L 321.18305 250.827233 
L 316.99386 250.033613 
L 312.804669 249.264753 
L 310.710074 249.094292 
L 308.615479 249.14102 
L 306.520884 249.418293 
L 304.426288 249.908858 
L 302.331693 250.576436 
L 298.142503 252.283373 
L 291.858717 255.072239 
L 287.669526 256.666405 
L 285.574931 257.330725 
L 281.38574 258.392765 
L 277.19655 259.198172 
L 270.912764 260.142199 
L 260.439788 261.497123 
L 256.250597 261.838543 
L 254.156002 261.871674 
L 252.061407 261.754662 
L 249.966811 261.435746 
L 247.872216 260.868667 
L 244.837263 259.566797 
L 239.493835 256.180685 
L 237.39924 255.098156 
L 235.173067 254.215808 
L 233.210049 253.659007 
L 229.020859 252.86505 
L 224.831668 252.391945 
L 220.642478 252.127889 
L 216.453287 252.074248 
L 212.264097 252.291909 
L 208.074906 252.853643 
L 203.885716 253.788543 
L 199.696525 255.027767 
L 193.412739 257.18861 
L 185.034358 260.282907 
L 180.37769 262.242291 
L 176.655977 264.046636 
L 172.466787 266.406363 
L 168.277596 269.114435 
L 155.320575 278.295259 
L 151.520834 280.424063 
L 149.426239 281.315898 
L 147.331644 281.925201 
L 145.237048 282.261192 
L 143.142453 282.324749 
L 141.047858 282.16335 
L 132.669477 281.040219 
L 130.574882 281.029821 
L 128.480286 281.219655 
L 126.385691 281.633331 
L 124.291096 282.293453 
L 121.476855 283.646248 
L 120.101905 284.431009 
L 117.57711 286.321743 
L 115.912715 287.800311 
L 113.818119 290.057977 
L 111.723524 292.791527 
L 109.628929 296.118136 
L 109.118341 297.023721 
L 107.534334 300.204491 
L 106.561565 302.374711 
L 104.533927 307.7257 
L 102.031326 315.752184 
L 94.095689 345.182625 
L 91.620537 355.884603 
L 88.957569 369.262076 
L 87.318226 379.964055 
L 86.801015 385.315044 
L 86.067519 396.017022 
L 85.76072 404.043506 
L 85.591106 414.745485 
L 85.649224 425.447463 
L 85.982116 441.500431 
L 86.285548 449.526915 
L 86.810836 457.553398 
L 87.3003 462.904388 
L 88.32852 470.930872 
L 89.061607 476.281861 
L 90.55855 486.983839 
L 91.288205 492.334828 
L 92.504744 500.361312 
L 94.480294 511.063291 
L 95.581815 516.41428 
L 97.736663 527.116258 
L 98.442519 529.791753 
L 99.363325 532.467248 
L 100.53587 535.142742 
L 102.060185 537.818237 
L 103.903563 540.493732 
L 105.869479 543.169226 
L 107.581523 545.844721 
L 108.768055 548.520215 
L 109.445394 551.19571 
L 110.309741 556.546699 
L 111.074456 559.222194 
L 111.723524 560.503056 
L 112.696105 561.897688 
L 113.818119 562.90877 
L 113.818119 562.90877 
" style="fill:none;stroke:#8b4513;stroke-width:1.5;"/>
   </g>
   <g id="LineCollection_2">
    <path clip-path="url(#p87378b6a11)" d="M 115.912715 527.61264 
L 118.00731 528.304929 
L 120.101905 528.495095 
L 122.196501 528.26293 
L 124.291096 527.65284 
L 126.385691 526.696129 
L 128.480286 525.438297 
L 130.574882 523.882923 
L 133.015104 521.765269 
L 136.858667 517.911439 
L 141.047858 513.649649 
L 143.142453 511.803905 
L 145.237048 510.287485 
L 147.331644 509.118858 
L 149.426239 508.255685 
L 151.520834 507.643959 
L 155.710025 506.833978 
L 162.169186 505.712302 
L 166.183001 504.780331 
L 170.372192 503.542537 
L 180.845168 500.146528 
L 185.034358 499.028964 
L 189.223549 498.132747 
L 197.60193 496.55364 
L 201.79112 495.528856 
L 203.885716 494.88619 
L 208.074906 493.23189 
L 210.169502 492.237158 
L 214.358692 489.840597 
L 216.453287 488.456577 
L 220.642478 485.401542 
L 225.288252 481.63285 
L 229.020859 478.367277 
L 233.210049 474.364894 
L 236.406714 470.930872 
L 238.651547 468.255377 
L 240.694172 465.579882 
L 242.569282 462.904388 
L 244.316054 460.228893 
L 247.872216 454.383634 
L 254.156002 443.808949 
L 258.345193 437.366716 
L 261.105845 433.473947 
L 265.198048 428.122958 
L 275.101955 415.464497 
L 277.19655 412.403065 
L 279.100419 409.394495 
L 282.209935 404.043506 
L 286.716344 396.017022 
L 289.924736 390.666033 
L 293.953312 384.505781 
L 300.735509 374.613065 
L 304.426288 368.80264 
L 306.520884 365.134707 
L 307.200041 363.911087 
L 309.732997 358.560098 
L 311.84533 353.209108 
L 316.99386 339.126434 
L 319.088455 334.400144 
L 321.701628 329.129657 
L 324.313465 323.778668 
L 325.372241 320.93731 
L 325.874643 318.427678 
L 325.582116 315.752184 
L 325.372241 315.37301 
L 323.667368 313.076689 
L 323.277646 312.807192 
L 321.18305 311.595511 
L 318.738095 310.401195 
L 314.899265 308.827078 
L 310.710074 306.661015 
L 306.520884 303.92346 
L 302.331693 301.035457 
L 300.122884 299.699216 
L 298.142503 298.687852 
L 296.047907 297.785386 
L 291.858717 296.374659 
L 281.38574 293.348099 
L 275.101955 291.129407 
L 270.912764 289.644261 
L 266.723574 288.475224 
L 264.628978 288.085275 
L 262.534383 287.852581 
L 260.439788 287.775009 
L 258.345193 287.839518 
L 254.156002 288.303269 
L 243.683026 289.972708 
L 239.493835 290.301576 
L 235.304645 290.328651 
L 229.020859 290.007826 
L 220.642478 289.573086 
L 216.453287 289.559707 
L 212.264097 289.768781 
L 208.074906 290.258094 
L 203.885716 291.067219 
L 199.696525 292.158 
L 195.507335 293.46535 
L 185.034358 297.044209 
L 180.845168 298.239183 
L 174.561382 299.740116 
L 170.372192 300.649779 
L 166.183001 301.803601 
L 161.99381 303.347222 
L 157.80462 305.354888 
L 149.426239 309.655173 
L 147.331644 310.450401 
L 145.237048 310.955861 
L 143.142453 311.184971 
L 141.047858 311.134785 
L 138.953263 310.845058 
L 136.858667 310.389637 
L 132.669477 309.266432 
L 130.574882 308.871788 
L 128.480286 308.728034 
L 126.385691 308.927809 
L 124.291096 309.558869 
L 122.196501 310.683446 
L 120.101905 312.307173 
L 118.00731 314.484016 
L 115.136327 318.427678 
L 113.47314 321.103173 
L 110.601166 326.454162 
L 108.111548 331.805151 
L 105.905576 337.156141 
L 103.925807 342.50713 
L 101.250548 350.773987 
L 99.717296 355.884603 
L 97.003304 366.586581 
L 95.846567 371.937571 
L 94.966762 377.50141 
L 94.256614 382.639549 
L 93.743356 387.990538 
L 93.257926 396.017022 
L 92.986668 404.043506 
L 92.868185 414.745485 
L 93.039193 428.122958 
L 93.399048 441.500431 
L 93.825074 449.526915 
L 94.321692 454.877904 
L 95.41733 462.904388 
L 96.319097 468.255377 
L 100.969749 492.334828 
L 102.189171 497.685818 
L 103.660328 503.036807 
L 105.439738 508.461524 
L 109.302301 519.089775 
L 109.628929 519.894436 
L 110.511185 521.765269 
L 112.151311 524.440764 
L 113.818119 526.235846 
L 115.912715 527.61264 
L 115.912715 527.61264 
" style="fill:none;stroke:#8b4513;stroke-width:1.5;"/>
   </g>
   <g id="LineCollection_3">
    <path clip-path="url(#p87378b6a11)" d="M 120.101905 508.611851 
L 122.196501 509.020262 
L 124.291096 508.688916 
L 126.385691 507.717004 
L 128.926758 505.712302 
L 130.574882 504.163442 
L 134.764072 499.392917 
L 138.953263 494.516611 
L 141.069034 492.334828 
L 143.142453 490.544684 
L 145.237048 489.114292 
L 147.331644 488.093551 
L 149.426239 487.405106 
L 151.520834 486.964708 
L 157.80462 486.099318 
L 159.899215 485.654251 
L 161.99381 485.0458 
L 166.183001 483.388857 
L 176.655977 478.396547 
L 180.845168 476.911921 
L 182.998771 476.281861 
L 187.128954 475.402817 
L 196.320507 473.606366 
L 199.696525 472.820862 
L 203.885716 471.499866 
L 208.074906 469.816555 
L 212.264097 467.696526 
L 216.453287 465.180365 
L 220.642478 462.292378 
L 224.831668 459.022015 
L 229.458648 454.877904 
L 232.141951 452.202409 
L 235.304645 448.723966 
L 238.978648 444.175925 
L 241.58843 440.625832 
L 245.777621 434.47029 
L 252.061407 424.781881 
L 258.54547 414.745485 
L 262.534383 408.233987 
L 264.947289 404.043506 
L 269.19631 396.017022 
L 277.245381 379.964055 
L 279.604278 374.613065 
L 280.585031 371.937571 
L 281.390034 369.262076 
L 281.980681 366.586581 
L 282.347641 363.911087 
L 282.487259 361.235592 
L 282.417286 358.560098 
L 282.176393 355.884603 
L 280.392347 342.50713 
L 279.709354 334.480646 
L 279.291145 331.600977 
L 278.734953 329.129657 
L 277.769472 326.454162 
L 276.354539 323.778668 
L 274.477687 321.103173 
L 272.234281 318.427678 
L 268.818169 314.941579 
L 266.716289 313.076689 
L 264.628978 311.534579 
L 262.534383 310.257414 
L 260.439788 309.288803 
L 258.345193 308.578598 
L 256.250597 308.103305 
L 254.156002 307.829034 
L 252.061407 307.71659 
L 247.872216 307.815905 
L 239.493835 308.258582 
L 235.304645 308.132001 
L 231.115454 307.663802 
L 222.737073 306.422323 
L 218.547883 306.175727 
L 216.453287 306.213096 
L 212.264097 306.619692 
L 208.074906 307.428917 
L 203.885716 308.529262 
L 195.507335 311.122536 
L 187.128954 313.574018 
L 178.167891 315.752184 
L 170.372192 317.445959 
L 166.183001 318.632464 
L 164.088406 319.325213 
L 161.99381 320.152394 
L 157.80462 322.135913 
L 151.520834 325.446615 
L 149.284217 326.454162 
L 147.331644 327.099548 
L 145.237048 327.530074 
L 143.142453 327.663928 
L 141.047858 327.516238 
L 138.953263 327.149995 
L 132.669477 325.651552 
L 130.574882 325.358027 
L 128.480286 325.32049 
L 126.385691 325.609492 
L 123.995756 326.454162 
L 122.196501 327.364679 
L 119.904668 329.129657 
L 118.00731 330.95406 
L 115.237838 334.480646 
L 113.481832 337.156141 
L 111.723524 340.22704 
L 109.29415 345.182625 
L 107.024347 350.533614 
L 105.03183 355.884603 
L 103.28976 361.235592 
L 101.754306 366.586581 
L 99.961153 374.613065 
L 99.133956 379.964055 
L 98.46556 385.315044 
L 98.005402 390.666033 
L 97.56941 398.692517 
L 97.346858 406.719001 
L 97.306894 414.745485 
L 97.486046 425.447463 
L 97.911776 438.824936 
L 98.396916 446.85142 
L 98.966687 452.202409 
L 99.742197 457.553398 
L 100.763766 462.904388 
L 103.345143 474.03791 
L 105.439738 482.289382 
L 107.561026 489.659334 
L 109.439932 495.010323 
L 109.628929 495.493559 
L 111.723524 499.934846 
L 113.818119 503.234464 
L 115.924064 505.712302 
L 118.00731 507.523367 
L 120.101905 508.611851 
L 120.101905 508.611851 
" style="fill:none;stroke:#8b4513;stroke-width:1.5;"/>
   </g>
   <g id="LineCollection_4">
    <path clip-path="url(#p87378b6a11)" d="M 120.101905 492.387255 
L 122.196501 492.806947 
L 124.622197 492.334828 
L 126.385691 491.520012 
L 128.798312 489.659334 
L 131.387701 486.983839 
L 133.59226 484.308345 
L 138.953263 477.412674 
L 141.047858 475.092586 
L 143.142453 473.204657 
L 145.237048 471.825116 
L 147.331644 470.92924 
L 149.426239 470.454283 
L 151.520834 470.266806 
L 157.80462 470.150313 
L 159.899215 469.955222 
L 161.99381 469.611447 
L 164.088406 469.119362 
L 168.277596 467.792961 
L 176.655977 464.891011 
L 180.845168 463.822898 
L 185.034358 463.096016 
L 195.507335 461.667162 
L 199.696525 460.73023 
L 201.79112 460.104729 
L 205.980311 458.492204 
L 208.074906 457.499641 
L 212.264097 455.114973 
L 214.358692 453.716657 
L 216.453287 452.198281 
L 220.642478 448.71173 
L 222.737073 446.75722 
L 225.250885 444.175925 
L 227.613429 441.500431 
L 231.115454 437.015763 
L 233.594309 433.473947 
L 236.966612 428.122958 
L 241.58843 420.061778 
L 244.424317 414.745485 
L 247.045889 409.394495 
L 249.294096 404.043506 
L 250.23958 401.368011 
L 251.046751 398.692517 
L 252.061407 394.400477 
L 252.748866 390.666033 
L 254.437785 379.964055 
L 255.72283 374.613065 
L 259.460609 361.235592 
L 259.935331 358.560098 
L 260.249389 355.884603 
L 260.397859 353.209108 
L 260.381579 350.533614 
L 260.204257 347.858119 
L 259.869601 345.182625 
L 259.377816 342.50713 
L 258.345193 338.618594 
L 257.872631 337.156141 
L 256.250597 333.441704 
L 255.32114 331.805151 
L 254.156002 330.190043 
L 253.233585 329.129657 
L 252.061407 328.053201 
L 249.646707 326.454162 
L 247.872216 325.712296 
L 245.777621 325.131736 
L 243.683026 324.768276 
L 239.493835 324.393423 
L 233.210049 323.932304 
L 229.020859 323.406092 
L 220.642478 322.175852 
L 216.453287 321.875243 
L 212.264097 321.930345 
L 208.074906 322.293113 
L 180.845168 325.652605 
L 176.501513 326.454162 
L 172.466787 327.350511 
L 168.277596 328.582711 
L 164.088406 330.199404 
L 159.899215 332.297703 
L 149.426239 338.163775 
L 147.331644 338.888439 
L 145.237048 339.294069 
L 143.142453 339.355885 
L 141.047858 339.104293 
L 138.953263 338.618186 
L 132.669477 336.826338 
L 130.574882 336.450757 
L 128.480286 336.354197 
L 126.385691 336.605905 
L 124.291096 337.263053 
L 122.196501 338.325735 
L 120.101905 339.912719 
L 117.573456 342.50713 
L 115.502859 345.182625 
L 113.755538 347.858119 
L 111.723524 351.481995 
L 109.628929 355.902787 
L 107.484649 361.235592 
L 105.705285 366.586581 
L 104.271535 371.937571 
L 103.198379 377.28856 
L 102.375543 382.639549 
L 101.805393 387.990538 
L 101.250548 396.249369 
L 100.937838 404.043506 
L 100.850266 412.06999 
L 100.970385 420.096474 
L 101.418398 433.473947 
L 101.826504 441.500431 
L 102.29654 446.85142 
L 103.039355 452.202409 
L 104.081229 457.553398 
L 105.439738 462.927268 
L 107.534334 469.926184 
L 109.715272 476.281861 
L 111.844281 481.63285 
L 113.818119 485.705045 
L 115.912715 488.94618 
L 118.00731 491.142076 
L 120.101905 492.387255 
L 120.101905 492.387255 
" style="fill:none;stroke:#8b4513;stroke-width:1.5;"/>
   </g>
   <g id="LineCollection_5">
    <path clip-path="url(#p87378b6a11)" d="M 120.101905 479.308312 
L 122.196501 479.91978 
L 124.291096 479.692679 
L 126.385691 478.708558 
L 128.480286 477.076644 
L 130.574882 474.895255 
L 133.688422 470.930872 
L 139.62929 462.904388 
L 141.047858 461.152375 
L 143.142453 459.006034 
L 145.237048 457.394802 
L 147.331644 456.386839 
L 149.426239 455.952064 
L 151.520834 455.970556 
L 159.899215 457.052285 
L 161.99381 456.97942 
L 164.088406 456.699721 
L 166.183001 456.237976 
L 170.538683 454.877904 
L 176.655977 452.713569 
L 180.845168 451.495281 
L 185.034358 450.642105 
L 189.223549 450.114874 
L 195.507335 449.46768 
L 197.60193 449.115814 
L 199.696525 448.643463 
L 201.79112 448.031145 
L 204.841464 446.85142 
L 205.980311 446.299254 
L 209.551012 444.175925 
L 210.169502 443.740368 
L 212.976802 441.500431 
L 215.742884 438.824936 
L 218.081074 436.149441 
L 220.097704 433.473947 
L 221.872902 430.798452 
L 223.467039 428.122958 
L 224.924425 425.447463 
L 227.473254 420.096474 
L 229.671526 414.745485 
L 231.506017 409.394495 
L 232.913265 404.043506 
L 233.894361 398.692517 
L 234.89873 390.666033 
L 235.680295 385.315044 
L 236.839506 379.964055 
L 237.564547 377.28856 
L 241.749875 363.911087 
L 242.374941 361.235592 
L 242.797925 358.560098 
L 242.978351 355.884603 
L 242.871329 353.209108 
L 242.422219 350.533614 
L 241.554959 347.858119 
L 240.09216 345.182625 
L 239.493835 344.408334 
L 237.39924 342.242079 
L 235.304645 340.738621 
L 233.210049 339.521897 
L 229.020859 337.571265 
L 226.926264 336.71098 
L 222.737073 335.193003 
L 218.547883 334.040122 
L 216.453287 333.640316 
L 214.358692 333.361468 
L 210.169502 333.130606 
L 205.980311 333.20817 
L 195.507335 333.571372 
L 182.939763 333.593466 
L 178.750573 333.956132 
L 174.561382 334.654976 
L 170.372192 335.745306 
L 166.58746 337.156141 
L 166.183001 337.321475 
L 164.088406 338.307828 
L 161.339667 339.831635 
L 157.80462 342.067142 
L 153.100263 345.182625 
L 151.520834 346.136408 
L 149.426239 347.162801 
L 147.331644 347.858119 
L 145.237048 348.156099 
L 143.142453 348.060455 
L 141.047858 347.627999 
L 136.858667 346.179781 
L 132.669477 344.768266 
L 130.574882 344.322462 
L 128.480286 344.174987 
L 126.385691 344.390741 
L 124.008678 345.182625 
L 122.196501 346.09971 
L 119.9397 347.858119 
L 117.416466 350.533614 
L 115.422805 353.209108 
L 113.750317 355.884603 
L 111.723524 359.770277 
L 109.948094 363.911087 
L 108.964009 366.586581 
L 107.359299 371.937571 
L 106.15009 377.28856 
L 105.28654 382.639549 
L 104.654675 387.990538 
L 104.216211 393.341528 
L 103.815486 401.368011 
L 103.672681 409.394495 
L 103.762566 417.420979 
L 104.122733 428.122958 
L 104.678365 438.824936 
L 105.170367 444.175925 
L 105.944618 449.526915 
L 107.103525 454.877904 
L 107.848162 457.553398 
L 109.651289 462.904388 
L 111.901016 468.255377 
L 113.818119 472.090923 
L 115.912715 475.410443 
L 118.00731 477.824449 
L 120.101905 479.308312 
L 120.101905 479.308312 
" style="fill:none;stroke:#8b4513;stroke-width:1.5;"/>
   </g>
   <g id="LineCollection_6">
    <path clip-path="url(#p87378b6a11)" d="M 120.101905 468.819013 
L 122.196501 469.403311 
L 124.291096 469.164828 
L 126.385691 468.158167 
L 128.480286 466.507831 
L 130.574882 464.276203 
L 133.636607 460.228893 
L 137.218244 454.877904 
L 141.047858 449.046325 
L 143.142453 446.177545 
L 145.237048 443.766094 
L 147.331644 441.9987 
L 149.426239 440.995603 
L 151.520834 440.742994 
L 153.615429 441.083812 
L 159.899215 443.078659 
L 161.99381 443.433556 
L 164.088406 443.50074 
L 166.183001 443.293034 
L 168.277596 442.855478 
L 172.466787 441.520084 
L 179.228107 438.824936 
L 186.033038 436.149441 
L 193.412739 433.105498 
L 197.60193 430.948047 
L 199.696525 429.614209 
L 201.79112 428.070341 
L 204.671466 425.447463 
L 207.058412 422.771968 
L 209.084805 420.096474 
L 210.872057 417.420979 
L 212.493786 414.745485 
L 215.352002 409.394495 
L 216.629599 406.719001 
L 218.871955 401.368011 
L 220.770968 396.017022 
L 224.971252 382.639549 
L 227.473217 374.613065 
L 228.838943 369.262076 
L 229.302929 366.586581 
L 229.538161 363.911087 
L 229.471848 361.235592 
L 229.020859 358.560098 
L 228.090098 355.884603 
L 226.574367 353.209108 
L 224.372707 350.533614 
L 221.366908 347.858119 
L 220.642478 347.330921 
L 217.172422 345.182625 
L 216.453287 344.823001 
L 214.358692 343.93973 
L 212.264097 343.255732 
L 208.679952 342.50713 
L 205.980311 342.202973 
L 201.79112 342.009672 
L 191.318144 341.710084 
L 182.939763 341.31569 
L 178.750573 341.421508 
L 176.655977 341.623495 
L 174.561382 341.944496 
L 172.078193 342.50713 
L 170.372192 343.003164 
L 168.277596 343.765036 
L 165.223828 345.182625 
L 164.088406 345.788829 
L 160.805844 347.858119 
L 157.142915 350.533614 
L 153.610185 353.209108 
L 151.520834 354.620248 
L 149.426239 355.686631 
L 147.331644 356.323618 
L 145.237048 356.433691 
L 142.773322 355.884603 
L 141.047858 355.251661 
L 132.669477 351.27187 
L 130.574882 350.705584 
L 128.480286 350.474492 
L 126.385691 350.636072 
L 124.291096 351.231304 
L 122.196501 352.319456 
L 120.101905 353.942341 
L 118.00731 356.146195 
L 115.912715 358.995791 
L 113.818119 362.634887 
L 112.026098 366.586581 
L 111.024267 369.262076 
L 109.628929 373.898911 
L 108.820796 377.28856 
L 107.866692 382.639549 
L 107.189864 387.990538 
L 106.71357 393.341528 
L 106.285498 401.368011 
L 106.153658 409.394495 
L 106.287435 417.420979 
L 106.727327 428.122958 
L 107.196414 436.149441 
L 107.693016 441.500431 
L 108.500568 446.85142 
L 109.628929 451.717807 
L 110.644206 454.877904 
L 111.723524 457.708928 
L 113.818119 461.943348 
L 115.912715 465.110394 
L 118.00731 467.399675 
L 120.101905 468.819013 
L 120.101905 468.819013 
" style="fill:none;stroke:#8b4513;stroke-width:1.5;"/>
   </g>
   <g id="LineCollection_7">
    <path clip-path="url(#p87378b6a11)" d="M 120.101905 460.804087 
L 122.196501 461.327604 
L 124.291096 461.038766 
L 126.385691 459.992025 
L 128.480286 458.28079 
L 130.574882 455.957979 
L 133.266741 452.202409 
L 134.93184 449.526915 
L 137.90728 444.175925 
L 141.76167 436.149441 
L 145.237048 427.935959 
L 147.973339 422.771968 
L 149.426239 420.806224 
L 151.520834 419.959133 
L 153.615429 420.592237 
L 156.476231 422.771968 
L 159.921659 425.447463 
L 161.99381 426.588978 
L 164.088406 427.324923 
L 166.183001 427.617473 
L 168.277596 427.50138 
L 170.372192 427.043659 
L 172.466787 426.322769 
L 174.561382 425.410931 
L 179.158806 422.771968 
L 182.998881 420.096474 
L 187.128954 416.775674 
L 192.373822 412.06999 
L 197.60193 407.157481 
L 203.885716 400.748027 
L 205.980311 398.291181 
L 208.074906 395.563067 
L 210.169502 392.472674 
L 212.749642 387.990538 
L 214.358692 384.772157 
L 216.453287 379.798083 
L 217.314428 377.28856 
L 218.083161 374.613065 
L 218.648054 371.937571 
L 218.935523 369.262076 
L 218.897615 366.586581 
L 218.448911 363.911087 
L 217.471079 361.235592 
L 215.883672 358.560098 
L 213.486631 355.884603 
L 212.264097 354.873247 
L 209.802927 353.209108 
L 208.074906 352.371052 
L 205.980311 351.576709 
L 203.885716 350.977226 
L 201.79112 350.533614 
L 197.60193 350.012114 
L 189.223549 349.365742 
L 182.939763 348.978579 
L 178.750573 348.95748 
L 176.655977 349.094006 
L 174.561382 349.362089 
L 172.466787 349.782357 
L 169.933372 350.533614 
L 168.277596 351.186016 
L 166.183001 352.207369 
L 164.088406 353.436304 
L 160.781698 355.884603 
L 157.750007 358.560098 
L 153.615429 362.594096 
L 151.520834 364.364611 
L 149.426239 365.66268 
L 147.331644 366.145842 
L 145.237048 365.796403 
L 143.142453 364.704088 
L 142.168846 363.911087 
L 141.047858 363.149943 
L 136.858667 359.732575 
L 134.764072 358.236029 
L 132.669477 357.06254 
L 130.574882 356.250957 
L 128.480286 355.86212 
L 126.385691 355.936201 
L 124.291096 356.50831 
L 122.196501 357.621479 
L 120.101905 359.336232 
L 118.00731 361.728478 
L 115.912715 364.95381 
L 115.066469 366.586581 
L 113.818119 369.295782 
L 112.844922 371.937571 
L 111.723524 375.629222 
L 110.723273 379.964055 
L 109.829929 385.315044 
L 109.208353 390.666033 
L 108.783985 396.017022 
L 108.520109 401.368011 
L 108.403278 409.394495 
L 108.58701 417.420979 
L 109.115911 428.122958 
L 109.690249 436.149441 
L 110.34395 441.500431 
L 110.814965 444.175925 
L 111.723524 447.996054 
L 112.209084 449.526915 
L 113.818119 453.564946 
L 114.549098 454.877904 
L 116.311849 457.553398 
L 118.00731 459.427065 
L 120.101905 460.804087 
L 120.101905 460.804087 
" style="fill:none;stroke:#8b4513;stroke-width:1.5;"/>
   </g>
   <g id="LineCollection_8">
    <path clip-path="url(#p87378b6a11)" d="M 120.101905 455.13254 
L 122.196501 455.683431 
L 124.291096 455.376128 
L 125.245865 454.877904 
L 126.385691 454.282984 
L 128.480286 452.461174 
L 128.704146 452.202409 
L 130.574882 449.953464 
L 130.872856 449.526915 
L 132.624961 446.85142 
L 132.669477 446.777955 
L 134.115989 444.175925 
L 134.764072 442.871948 
L 135.435058 441.500431 
L 136.585371 438.824936 
L 136.858667 438.09349 
L 137.623888 436.149441 
L 138.515172 433.473947 
L 138.953263 431.907631 
L 139.303037 430.798452 
L 140.009754 428.122958 
L 140.602802 425.447463 
L 141.047858 423.116915 
L 141.127874 422.771968 
L 141.686238 420.096474 
L 142.20825 417.420979 
L 142.71326 414.745485 
L 143.142453 412.430072 
L 143.231584 412.06999 
L 143.880029 409.394495 
L 144.500916 406.719001 
L 145.073395 404.043506 
L 145.237048 403.159385 
L 145.762913 401.368011 
L 146.413814 398.692517 
L 146.908819 396.017022 
L 147.225958 393.341528 
L 147.331644 391.004819 
L 147.372329 390.666033 
L 147.331644 390.190813 
L 147.252551 387.990538 
L 146.897947 385.315044 
L 146.195413 382.639549 
L 145.237048 380.497715 
L 145.09409 379.964055 
L 144.044308 377.28856 
L 143.142453 375.710807 
L 142.688505 374.613065 
L 141.172074 371.937571 
L 141.047858 371.768603 
L 139.528991 369.262076 
L 138.953263 368.51624 
L 137.573527 366.586581 
L 136.858667 365.774212 
L 135.153408 363.911087 
L 134.764072 363.553521 
L 132.669477 361.890815 
L 131.52874 361.235592 
L 130.574882 360.750228 
L 128.480286 360.160102 
L 126.385691 360.116189 
L 124.291096 360.646394 
L 123.207453 361.235592 
L 122.196501 361.802562 
L 120.101905 363.643914 
L 119.878503 363.911087 
L 118.00731 366.317733 
L 117.84105 366.586581 
L 116.337075 369.262076 
L 115.912715 370.110735 
L 115.139313 371.937571 
L 114.156114 374.613065 
L 113.818119 375.676378 
L 113.360925 377.28856 
L 112.714334 379.964055 
L 112.169167 382.639549 
L 111.723524 385.234448 
L 111.710599 385.315044 
L 111.34601 387.990538 
L 111.0413 390.666033 
L 110.788803 393.341528 
L 110.583544 396.017022 
L 110.422687 398.692517 
L 110.304856 401.368011 
L 110.229432 404.043506 
L 110.195866 406.719001 
L 110.203052 409.394495 
L 110.248775 412.06999 
L 110.329339 414.745485 
L 110.439531 417.420979 
L 110.573127 420.096474 
L 110.724067 422.771968 
L 110.888183 425.447463 
L 111.065146 428.122958 
L 111.260065 430.798452 
L 111.484296 433.473947 
L 111.723524 435.841648 
L 111.758128 436.149441 
L 112.130486 438.824936 
L 112.610092 441.500431 
L 113.22793 444.175925 
L 113.818119 446.211333 
L 114.049336 446.85142 
L 115.214414 449.526915 
L 115.912715 450.884599 
L 116.867855 452.202409 
L 118.00731 453.615588 
L 119.738249 454.877904 
L 120.101905 455.13254 
" style="fill:none;stroke:#8b4513;stroke-width:1.5;"/>
    <path clip-path="url(#p87378b6a11)" d="M 164.088406 407.124655 
L 166.183001 407.940622 
L 168.277596 408.179348 
L 170.372192 407.905529 
L 172.466787 407.20755 
L 173.458033 406.719001 
L 174.561382 406.188111 
L 176.655977 404.943519 
L 177.998454 404.043506 
L 178.750573 403.548308 
L 180.845168 402.077627 
L 181.825859 401.368011 
L 182.939763 400.57252 
L 185.034358 399.07593 
L 185.573216 398.692517 
L 187.128954 397.593511 
L 189.223549 396.148674 
L 189.414332 396.017022 
L 191.318144 394.700046 
L 193.300738 393.341528 
L 193.412739 393.26312 
L 195.507335 391.747275 
L 196.939329 390.666033 
L 197.60193 390.144898 
L 199.696525 388.366416 
L 200.095879 387.990538 
L 201.79112 386.288166 
L 202.658096 385.315044 
L 203.885716 383.795414 
L 204.715155 382.639549 
L 205.980311 380.608827 
L 206.338103 379.964055 
L 207.527036 377.28856 
L 208.074906 375.518994 
L 208.327805 374.613065 
L 208.658141 371.937571 
L 208.495004 369.262076 
L 208.074906 367.730866 
L 207.702383 366.586581 
L 206.106035 363.911087 
L 205.980311 363.7679 
L 203.885716 361.747263 
L 203.251588 361.235592 
L 201.79112 360.359103 
L 199.696525 359.331892 
L 197.747324 358.560098 
L 197.60193 358.515227 
L 195.507335 357.978566 
L 193.412739 357.541386 
L 191.318144 357.179157 
L 189.223549 356.87446 
L 187.128954 356.617521 
L 185.034358 356.406597 
L 182.939763 356.248279 
L 180.845168 356.157538 
L 178.750573 356.157108 
L 176.655977 356.275748 
L 174.561382 356.545152 
L 172.466787 356.995828 
L 170.372192 357.652793 
L 168.277596 358.532047 
L 168.225696 358.560098 
L 166.183001 359.813194 
L 164.228949 361.235592 
L 164.088406 361.354567 
L 161.99381 363.398334 
L 161.51323 363.911087 
L 159.899215 365.94625 
L 159.409171 366.586581 
L 157.80462 369.120147 
L 157.711833 369.262076 
L 156.320374 371.937571 
L 155.710025 373.433974 
L 155.157753 374.613065 
L 154.210024 377.28856 
L 153.615429 379.579553 
L 153.474424 379.964055 
L 152.825614 382.639549 
L 152.45074 385.315044 
L 152.389048 387.990538 
L 152.726852 390.666033 
L 153.615429 393.341528 
L 154.65143 396.017022 
L 155.710025 397.858572 
L 156.146622 398.692517 
L 157.80462 401.159583 
L 157.953327 401.368011 
L 159.899215 403.723732 
L 160.216732 404.043506 
L 161.99381 405.711956 
L 163.478093 406.719001 
L 164.088406 407.124655 
" style="fill:none;stroke:#8b4513;stroke-width:1.5;"/>
   </g>
   <g id="LineCollection_9">
    <path clip-path="url(#p87378b6a11)" d="M 120.101905 449.817932 
L 122.196501 450.510011 
L 124.291096 450.226568 
L 125.56148 449.526915 
L 126.385691 449.05611 
L 128.480286 447.048371 
L 128.634586 446.85142 
L 130.574882 444.175925 
L 132.063606 441.500431 
L 132.669477 440.26256 
L 133.318047 438.824936 
L 134.358521 436.149441 
L 134.764072 434.92109 
L 135.237636 433.473947 
L 135.969723 430.798452 
L 136.577603 428.122958 
L 136.858667 426.652992 
L 137.102756 425.447463 
L 137.570457 422.771968 
L 137.989338 420.096474 
L 138.380111 417.420979 
L 138.754908 414.745485 
L 138.953263 413.280476 
L 139.13929 412.06999 
L 139.530969 409.394495 
L 139.890892 406.719001 
L 140.204263 404.043506 
L 140.456374 401.368011 
L 140.634938 398.692517 
L 140.731137 396.017022 
L 140.739096 393.341528 
L 140.65378 390.666033 
L 140.467773 387.990538 
L 140.167558 385.315044 
L 139.729919 382.639549 
L 139.118724 379.964055 
L 138.953263 379.413051 
L 138.373058 377.28856 
L 137.39923 374.613065 
L 136.858667 373.461605 
L 136.140439 371.937571 
L 134.764072 369.663173 
L 134.491663 369.262076 
L 132.669477 367.099551 
L 132.101874 366.586581 
L 130.574882 365.431853 
L 128.480286 364.501965 
L 126.385691 364.278217 
L 124.291096 364.767199 
L 122.196501 365.981009 
L 121.550656 366.586581 
L 120.101905 368.054908 
L 119.242783 369.262076 
L 118.00731 371.19333 
L 117.630899 371.937571 
L 116.440399 374.613065 
L 115.912715 375.979846 
L 115.486428 377.28856 
L 114.739709 379.964055 
L 114.106713 382.639549 
L 113.818119 384.074321 
L 113.596076 385.315044 
L 113.191141 387.990538 
L 112.852279 390.666033 
L 112.571824 393.341528 
L 112.344969 396.017022 
L 112.169134 398.692517 
L 112.043218 401.368011 
L 111.966794 404.043506 
L 111.939337 406.719001 
L 111.959481 409.394495 
L 112.024384 412.06999 
L 112.129328 414.745485 
L 112.267801 417.420979 
L 112.432294 420.096474 
L 112.615926 422.771968 
L 112.814689 425.447463 
L 113.029777 428.122958 
L 113.269351 430.798452 
L 113.549248 433.473947 
L 113.818119 435.579949 
L 113.904351 436.149441 
L 114.412047 438.824936 
L 115.071531 441.500431 
L 115.912715 444.139711 
L 115.928383 444.175925 
L 117.344886 446.85142 
L 118.00731 447.887819 
L 119.753811 449.526915 
L 120.101905 449.817932 
" style="fill:none;stroke:#8b4513;stroke-width:1.5;"/>
    <path clip-path="url(#p87378b6a11)" d="M 168.277596 383.57886 
L 170.372192 385.242761 
L 172.466787 385.290074 
L 174.561382 384.485646 
L 176.655977 383.246363 
L 177.496328 382.639549 
L 178.750573 381.574865 
L 180.528412 379.964055 
L 180.845168 379.588464 
L 182.729812 377.28856 
L 182.939763 376.843684 
L 183.975876 374.613065 
L 183.883369 371.937571 
L 182.939763 370.761944 
L 181.223815 369.262076 
L 180.845168 369.111357 
L 178.750573 368.587058 
L 176.655977 368.42157 
L 174.561382 368.630646 
L 172.466787 369.236308 
L 172.416887 369.262076 
L 170.372192 370.778833 
L 169.255521 371.937571 
L 168.277596 373.519165 
L 167.76775 374.613065 
L 167.15182 377.28856 
L 167.130623 379.964055 
L 167.787013 382.639549 
L 168.277596 383.57886 
" style="fill:none;stroke:#8b4513;stroke-width:1.5;"/>
   </g>
   <g id="LineCollection_10"/>
   <g id="patch_3">
    <path d="M 78.21 655.54 
L 78.21 123.116571 
" style="fill:none;stroke:#ffffff;stroke-linecap:square;stroke-linejoin:miter;stroke-width:1.25;"/>
   </g>
   <g id="patch_4">
    <path d="M 78.21 655.54 
L 495.034457 655.54 
" style="fill:none;stroke:#ffffff;stroke-linecap:square;stroke-linejoin:miter;stroke-width:1.25;"/>
   </g>
  </g>
  <g id="axes_2">
   <g id="patch_5">
    <path d="M 78.21 104.757143 
L 599.240571 104.757143 
L 599.240571 12.96 
L 78.21 12.96 
z
" style="fill:#eaeaf2;"/>
   </g>
   <g id="matplotlib.axis_3">
    <g id="xtick_5">
     <g id="line2d_11">
      <path clip-path="url(#p0a2f870766)" d="M 134.095709 104.757143 
L 134.095709 12.96 
" style="fill:none;stroke:#ffffff;stroke-linecap:round;"/>
     </g>
    </g>
    <g id="xtick_6">
     <g id="line2d_12">
      <path clip-path="url(#p0a2f870766)" d="M 277.693736 104.757143 
L 277.693736 12.96 
" style="fill:none;stroke:#ffffff;stroke-linecap:round;"/>
     </g>
    </g>
    <g id="xtick_7">
     <g id="line2d_13">
      <path clip-path="url(#p0a2f870766)" d="M 421.291764 104.757143 
L 421.291764 12.96 
" style="fill:none;stroke:#ffffff;stroke-linecap:round;"/>
     </g>
    </g>
    <g id="xtick_8">
     <g id="line2d_14">
      <path clip-path="url(#p0a2f870766)" d="M 564.889791 104.757143 
L 564.889791 12.96 
" style="fill:none;stroke:#ffffff;stroke-linecap:round;"/>
     </g>
    </g>
   </g>
   <g id="matplotlib.axis_4">
    <g id="ytick_7"/>
    <g id="ytick_8"/>
   </g>
   <g id="line2d_15">
    <path clip-path="url(#p0a2f870766)" d="M 92.059949 103.790365 
L 94.538998 103.13891 
L 97.018046 102.131948 
L 99.497095 100.629637 
L 101.976143 98.46759 
L 104.455192 95.468377 
L 106.934241 91.461702 
L 109.413289 86.313163 
L 111.892338 79.959252 
L 114.371387 72.443568 
L 116.850435 63.946949 
L 124.287581 36.604939 
L 126.76663 28.788994 
L 129.245678 22.66384 
L 131.724727 18.738113 
L 134.203775 17.331252 
L 136.682824 18.519209 
L 139.161873 22.114684 
L 141.640921 27.686353 
L 144.11997 34.613764 
L 149.078067 49.603022 
L 151.557116 56.245569 
L 154.036164 61.566358 
L 156.515213 65.228865 
L 158.994261 67.109321 
L 161.47331 67.289488 
L 163.952359 66.02581 
L 166.431407 63.700611 
L 173.868553 54.795524 
L 176.347602 52.457328 
L 178.82665 50.813795 
L 181.305699 49.899017 
L 183.784748 49.632644 
L 186.263796 49.855118 
L 191.221893 50.997748 
L 193.700942 51.589104 
L 196.179991 52.063362 
L 198.659039 52.398748 
L 203.617136 52.779415 
L 211.054282 53.317982 
L 220.970477 54.207078 
L 225.928574 54.382387 
L 233.36572 54.547252 
L 235.844768 54.727559 
L 238.323817 55.03432 
L 240.802866 55.494595 
L 243.281914 56.123987 
L 245.760963 56.925696 
L 248.240011 57.890797 
L 253.198109 60.223482 
L 268.0724 68.035525 
L 273.030498 70.187062 
L 277.988595 72.034242 
L 297.820984 78.853079 
L 312.695275 84.451038 
L 317.653373 86.066627 
L 322.61147 87.478009 
L 330.048616 89.277695 
L 339.96481 91.346248 
L 347.401956 92.667388 
L 352.360053 93.352417 
L 357.31815 93.839161 
L 362.276248 94.137461 
L 372.192442 94.403068 
L 379.629588 94.667502 
L 384.587685 95.038216 
L 389.545782 95.602346 
L 396.982928 96.708138 
L 406.899122 98.222577 
L 416.815317 99.485527 
L 434.168657 101.40858 
L 444.084852 102.329091 
L 454.001046 103.028185 
L 463.917241 103.50758 
L 476.312484 103.877334 
L 488.707727 104.027829 
L 523.414407 104.222762 
L 558.121088 104.691868 
L 585.390622 104.7563 
L 585.390622 104.7563 
" style="fill:none;stroke:#8b4513;stroke-linecap:round;stroke-width:1.5;"/>
   </g>
   <g id="patch_6">
    <path d="M 78.21 104.757143 
L 599.240571 104.757143 
" style="fill:none;stroke:#ffffff;stroke-linecap:square;stroke-linejoin:miter;stroke-width:1.25;"/>
   </g>
  </g>
  <g id="axes_3">
   <g id="patch_7">
    <path d="M 617.207143 655.54 
L 707.04 655.54 
L 707.04 123.116571 
L 617.207143 123.116571 
z
" style="fill:#eaeaf2;"/>
   </g>
   <g id="matplotlib.axis_5">
    <g id="xtick_9"/>
    <g id="xtick_10"/>
   </g>
   <g id="matplotlib.axis_6">
    <g id="ytick_9">
     <g id="line2d_16">
      <path clip-path="url(#p221bc52cea)" d="M 617.207143 612.172417 
L 707.04 612.172417 
" style="fill:none;stroke:#ffffff;stroke-linecap:round;"/>
     </g>
    </g>
    <g id="ytick_10">
     <g id="line2d_17">
      <path clip-path="url(#p221bc52cea)" d="M 617.207143 514.956345 
L 707.04 514.956345 
" style="fill:none;stroke:#ffffff;stroke-linecap:round;"/>
     </g>
    </g>
    <g id="ytick_11">
     <g id="line2d_18">
      <path clip-path="url(#p221bc52cea)" d="M 617.207143 417.740273 
L 707.04 417.740273 
" style="fill:none;stroke:#ffffff;stroke-linecap:round;"/>
     </g>
    </g>
    <g id="ytick_12">
     <g id="line2d_19">
      <path clip-path="url(#p221bc52cea)" d="M 617.207143 320.524201 
L 707.04 320.524201 
" style="fill:none;stroke:#ffffff;stroke-linecap:round;"/>
     </g>
    </g>
    <g id="ytick_13">
     <g id="line2d_20">
      <path clip-path="url(#p221bc52cea)" d="M 617.207143 223.308129 
L 707.04 223.308129 
" style="fill:none;stroke:#ffffff;stroke-linecap:round;"/>
     </g>
    </g>
    <g id="ytick_14">
     <g id="line2d_21">
      <path clip-path="url(#p221bc52cea)" d="M 617.207143 126.092057 
L 707.04 126.092057 
" style="fill:none;stroke:#ffffff;stroke-linecap:round;"/>
     </g>
    </g>
   </g>
   <g id="line2d_22">
    <path clip-path="url(#p221bc52cea)" d="M 617.21722 644.792372 
L 617.31684 634.522459 
L 617.573238 626.820024 
L 618.10176 613.982633 
L 618.072825 608.847676 
L 617.749848 601.145242 
L 617.352497 590.875329 
L 617.339714 583.172894 
L 617.557818 578.037937 
L 618.09652 572.902981 
L 619.041258 567.768024 
L 620.795037 560.06559 
L 621.227407 557.498111 
L 621.477778 554.930633 
L 621.519099 552.363155 
L 621.367062 549.795677 
L 620.507989 542.093242 
L 620.437654 539.525764 
L 620.624751 536.958285 
L 621.100945 534.390807 
L 621.84285 531.823329 
L 623.786453 526.688372 
L 624.759442 524.120894 
L 625.604214 521.553416 
L 626.289547 518.985938 
L 628.088737 511.283503 
L 629.000908 508.716025 
L 630.199144 506.148546 
L 631.647169 503.581068 
L 634.809662 498.446111 
L 636.251139 495.878633 
L 637.497467 493.311155 
L 641.788383 483.041242 
L 643.177218 480.473764 
L 644.788431 477.906285 
L 646.607123 475.338807 
L 648.607841 472.771329 
L 653.063601 467.636372 
L 657.964681 462.501416 
L 667.986734 452.231503 
L 672.648955 447.096546 
L 676.930537 441.96159 
L 680.7756 436.826633 
L 684.148706 431.691677 
L 687.043957 426.55672 
L 689.532015 421.421764 
L 693.992611 411.151851 
L 697.304367 403.449416 
L 699.236639 398.31446 
L 700.019824 395.746981 
L 700.657461 393.179503 
L 701.542932 388.044547 
L 702.391974 380.342112 
L 702.762293 375.207155 
L 702.727343 372.639677 
L 702.403223 370.072199 
L 701.682321 367.504721 
L 700.488255 364.937242 
L 698.796278 362.369764 
L 696.640683 359.802286 
L 694.107062 357.234808 
L 688.379267 352.099851 
L 679.644954 344.397416 
L 674.216688 339.26246 
L 669.069103 334.127503 
L 664.188102 328.992547 
L 659.665173 323.85759 
L 655.53393 318.722634 
L 649.792977 311.020199 
L 644.269461 303.317764 
L 640.752809 298.182808 
L 637.437063 293.047851 
L 634.381973 287.912895 
L 631.719496 282.777938 
L 630.59005 280.21046 
L 629.61595 277.642982 
L 628.798614 275.075503 
L 628.124757 272.508025 
L 627.088454 267.373069 
L 625.221527 257.103156 
L 623.46774 249.400721 
L 621.782446 241.698286 
L 620.902281 236.56333 
L 620.245148 231.428373 
L 619.546003 223.725938 
L 618.226703 205.753591 
L 617.733216 195.483678 
L 617.4744 185.213765 
L 617.345679 167.241417 
L 617.20816 133.864199 
L 617.20816 133.864199 
" style="fill:none;stroke:#8b4513;stroke-linecap:round;stroke-width:1.5;"/>
   </g>
   <g id="patch_8">
    <path d="M 617.207143 655.54 
L 617.207143 123.116571 
" style="fill:none;stroke:#ffffff;stroke-linecap:square;stroke-linejoin:miter;stroke-width:1.25;"/>
   </g>
  </g>
  <g id="axes_4">
   <g id="patch_9">
    <path clip-path="url(#p96c3350f41)" d="M 521.085986 655.54 
L 521.085986 596.381841 
L 521.085986 182.27473 
L 521.085986 123.116571 
L 547.707157 123.116571 
L 547.707157 182.27473 
L 547.707157 596.381841 
L 547.707157 655.54 
z
" style="fill:#eaeaf2;stroke:#eaeaf2;stroke-linejoin:miter;stroke-width:0.01;"/>
   </g>
   <g id="matplotlib.axis_7"/>
   <g id="matplotlib.axis_8">
    <g id="ytick_15">
     <g id="line2d_23">
      <path clip-path="url(#p96c3350f41)" d="M 521.085986 655.54 
L 547.707157 655.54 
" style="fill:none;stroke:#ffffff;stroke-linecap:round;"/>
     </g>
     <g id="line2d_24">
      <defs>
       <path d="M 0 0 
L 6 0 
" id="mbbe7b3752b" style="stroke:#262626;stroke-width:1.25;"/>
      </defs>
      <g>
       <use style="fill:#262626;stroke:#262626;stroke-width:1.25;" x="547.707157" xlink:href="#mbbe7b3752b" y="655.54"/>
      </g>
     </g>
     <g id="text_13">
      <!-- 0.055 -->
      <g style="fill:#262626;" transform="translate(557.207157 666.276719)scale(0.3 -0.3)">
       <use xlink:href="#ArialMT-48"/>
       <use x="55.615234" xlink:href="#ArialMT-46"/>
       <use x="83.398438" xlink:href="#ArialMT-48"/>
       <use x="139.013672" xlink:href="#ArialMT-53"/>
       <use x="194.628906" xlink:href="#ArialMT-53"/>
      </g>
     </g>
    </g>
    <g id="ytick_16">
     <g id="line2d_25">
      <path clip-path="url(#p96c3350f41)" d="M 521.085986 596.381841 
L 547.707157 596.381841 
" style="fill:none;stroke:#ffffff;stroke-linecap:round;"/>
     </g>
     <g id="line2d_26">
      <g>
       <use style="fill:#262626;stroke:#262626;stroke-width:1.25;" x="547.707157" xlink:href="#mbbe7b3752b" y="596.381841"/>
      </g>
     </g>
     <g id="text_14">
      <!-- 0.163 -->
      <g style="fill:#262626;" transform="translate(557.207157 607.11856)scale(0.3 -0.3)">
       <defs>
        <path d="M 49.75 54.046875 
L 41.015625 53.375 
Q 39.84375 58.546875 37.703125 60.890625 
Q 34.125 64.65625 28.90625 64.65625 
Q 24.703125 64.65625 21.53125 62.3125 
Q 17.390625 59.28125 14.984375 53.46875 
Q 12.59375 47.65625 12.5 36.921875 
Q 15.671875 41.75 20.265625 44.09375 
Q 24.859375 46.4375 29.890625 46.4375 
Q 38.671875 46.4375 44.84375 39.96875 
Q 51.03125 33.5 51.03125 23.25 
Q 51.03125 16.5 48.125 10.71875 
Q 45.21875 4.9375 40.140625 1.859375 
Q 35.0625 -1.21875 28.609375 -1.21875 
Q 17.625 -1.21875 10.6875 6.859375 
Q 3.765625 14.9375 3.765625 33.5 
Q 3.765625 54.25 11.421875 63.671875 
Q 18.109375 71.875 29.4375 71.875 
Q 37.890625 71.875 43.28125 67.140625 
Q 48.6875 62.40625 49.75 54.046875 
z
M 13.875 23.1875 
Q 13.875 18.65625 15.796875 14.5 
Q 17.71875 10.359375 21.1875 8.171875 
Q 24.65625 6 28.46875 6 
Q 34.03125 6 38.03125 10.484375 
Q 42.046875 14.984375 42.046875 22.703125 
Q 42.046875 30.125 38.078125 34.390625 
Q 34.125 38.671875 28.125 38.671875 
Q 22.171875 38.671875 18.015625 34.390625 
Q 13.875 30.125 13.875 23.1875 
z
" id="ArialMT-54"/>
       </defs>
       <use xlink:href="#ArialMT-48"/>
       <use x="55.615234" xlink:href="#ArialMT-46"/>
       <use x="83.398438" xlink:href="#ArialMT-49"/>
       <use x="139.013672" xlink:href="#ArialMT-54"/>
       <use x="194.628906" xlink:href="#ArialMT-51"/>
      </g>
     </g>
    </g>
    <g id="ytick_17">
     <g id="line2d_27">
      <path clip-path="url(#p96c3350f41)" d="M 521.085986 537.223683 
L 547.707157 537.223683 
" style="fill:none;stroke:#ffffff;stroke-linecap:round;"/>
     </g>
     <g id="line2d_28">
      <g>
       <use style="fill:#262626;stroke:#262626;stroke-width:1.25;" x="547.707157" xlink:href="#mbbe7b3752b" y="537.223683"/>
      </g>
     </g>
     <g id="text_15">
      <!-- 0.285 -->
      <g style="fill:#262626;" transform="translate(557.207157 547.960401)scale(0.3 -0.3)">
       <defs>
        <path d="M 17.671875 38.8125 
Q 12.203125 40.828125 9.5625 44.53125 
Q 6.9375 48.25 6.9375 53.421875 
Q 6.9375 61.234375 12.546875 66.546875 
Q 18.171875 71.875 27.484375 71.875 
Q 36.859375 71.875 42.578125 66.421875 
Q 48.296875 60.984375 48.296875 53.171875 
Q 48.296875 48.1875 45.671875 44.5 
Q 43.0625 40.828125 37.75 38.8125 
Q 44.34375 36.671875 47.78125 31.875 
Q 51.21875 27.09375 51.21875 20.453125 
Q 51.21875 11.28125 44.71875 5.03125 
Q 38.234375 -1.21875 27.640625 -1.21875 
Q 17.046875 -1.21875 10.546875 5.046875 
Q 4.046875 11.328125 4.046875 20.703125 
Q 4.046875 27.6875 7.59375 32.390625 
Q 11.140625 37.109375 17.671875 38.8125 
z
M 15.921875 53.71875 
Q 15.921875 48.640625 19.1875 45.40625 
Q 22.46875 42.1875 27.6875 42.1875 
Q 32.765625 42.1875 36.015625 45.375 
Q 39.265625 48.578125 39.265625 53.21875 
Q 39.265625 58.0625 35.90625 61.359375 
Q 32.5625 64.65625 27.59375 64.65625 
Q 22.5625 64.65625 19.234375 61.421875 
Q 15.921875 58.203125 15.921875 53.71875 
z
M 13.09375 20.65625 
Q 13.09375 16.890625 14.875 13.375 
Q 16.65625 9.859375 20.171875 7.921875 
Q 23.6875 6 27.734375 6 
Q 34.03125 6 38.125 10.046875 
Q 42.234375 14.109375 42.234375 20.359375 
Q 42.234375 26.703125 38.015625 30.859375 
Q 33.796875 35.015625 27.4375 35.015625 
Q 21.234375 35.015625 17.15625 30.90625 
Q 13.09375 26.8125 13.09375 20.65625 
z
" id="ArialMT-56"/>
       </defs>
       <use xlink:href="#ArialMT-48"/>
       <use x="55.615234" xlink:href="#ArialMT-46"/>
       <use x="83.398438" xlink:href="#ArialMT-50"/>
       <use x="139.013672" xlink:href="#ArialMT-56"/>
       <use x="194.628906" xlink:href="#ArialMT-53"/>
      </g>
     </g>
    </g>
    <g id="ytick_18">
     <g id="line2d_29">
      <path clip-path="url(#p96c3350f41)" d="M 521.085986 478.065524 
L 547.707157 478.065524 
" style="fill:none;stroke:#ffffff;stroke-linecap:round;"/>
     </g>
     <g id="line2d_30">
      <g>
       <use style="fill:#262626;stroke:#262626;stroke-width:1.25;" x="547.707157" xlink:href="#mbbe7b3752b" y="478.065524"/>
      </g>
     </g>
     <g id="text_16">
      <!-- 0.417 -->
      <g style="fill:#262626;" transform="translate(557.207157 488.802243)scale(0.3 -0.3)">
       <defs>
        <path d="M 32.328125 0 
L 32.328125 17.140625 
L 1.265625 17.140625 
L 1.265625 25.203125 
L 33.9375 71.578125 
L 41.109375 71.578125 
L 41.109375 25.203125 
L 50.78125 25.203125 
L 50.78125 17.140625 
L 41.109375 17.140625 
L 41.109375 0 
z
M 32.328125 25.203125 
L 32.328125 57.46875 
L 9.90625 25.203125 
z
" id="ArialMT-52"/>
        <path d="M 4.734375 62.203125 
L 4.734375 70.65625 
L 51.078125 70.65625 
L 51.078125 63.8125 
Q 44.234375 56.546875 37.515625 44.484375 
Q 30.8125 32.421875 27.15625 19.671875 
Q 24.515625 10.6875 23.78125 0 
L 14.75 0 
Q 14.890625 8.453125 18.0625 20.40625 
Q 21.234375 32.375 27.171875 43.484375 
Q 33.109375 54.59375 39.796875 62.203125 
z
" id="ArialMT-55"/>
       </defs>
       <use xlink:href="#ArialMT-48"/>
       <use x="55.615234" xlink:href="#ArialMT-46"/>
       <use x="83.398438" xlink:href="#ArialMT-52"/>
       <use x="139.013672" xlink:href="#ArialMT-49"/>
       <use x="194.628906" xlink:href="#ArialMT-55"/>
      </g>
     </g>
    </g>
    <g id="ytick_19">
     <g id="line2d_31">
      <path clip-path="url(#p96c3350f41)" d="M 521.085986 418.907365 
L 547.707157 418.907365 
" style="fill:none;stroke:#ffffff;stroke-linecap:round;"/>
     </g>
     <g id="line2d_32">
      <g>
       <use style="fill:#262626;stroke:#262626;stroke-width:1.25;" x="547.707157" xlink:href="#mbbe7b3752b" y="418.907365"/>
      </g>
     </g>
     <g id="text_17">
      <!-- 0.542 -->
      <g style="fill:#262626;" transform="translate(557.207157 429.644084)scale(0.3 -0.3)">
       <use xlink:href="#ArialMT-48"/>
       <use x="55.615234" xlink:href="#ArialMT-46"/>
       <use x="83.398438" xlink:href="#ArialMT-53"/>
       <use x="139.013672" xlink:href="#ArialMT-52"/>
       <use x="194.628906" xlink:href="#ArialMT-50"/>
      </g>
     </g>
    </g>
    <g id="ytick_20">
     <g id="line2d_33">
      <path clip-path="url(#p96c3350f41)" d="M 521.085986 359.749206 
L 547.707157 359.749206 
" style="fill:none;stroke:#ffffff;stroke-linecap:round;"/>
     </g>
     <g id="line2d_34">
      <g>
       <use style="fill:#262626;stroke:#262626;stroke-width:1.25;" x="547.707157" xlink:href="#mbbe7b3752b" y="359.749206"/>
      </g>
     </g>
     <g id="text_18">
      <!-- 0.663 -->
      <g style="fill:#262626;" transform="translate(557.207157 370.485925)scale(0.3 -0.3)">
       <use xlink:href="#ArialMT-48"/>
       <use x="55.615234" xlink:href="#ArialMT-46"/>
       <use x="83.398438" xlink:href="#ArialMT-54"/>
       <use x="139.013672" xlink:href="#ArialMT-54"/>
       <use x="194.628906" xlink:href="#ArialMT-51"/>
      </g>
     </g>
    </g>
    <g id="ytick_21">
     <g id="line2d_35">
      <path clip-path="url(#p96c3350f41)" d="M 521.085986 300.591048 
L 547.707157 300.591048 
" style="fill:none;stroke:#ffffff;stroke-linecap:round;"/>
     </g>
     <g id="line2d_36">
      <g>
       <use style="fill:#262626;stroke:#262626;stroke-width:1.25;" x="547.707157" xlink:href="#mbbe7b3752b" y="300.591048"/>
      </g>
     </g>
     <g id="text_19">
      <!-- 0.777 -->
      <g style="fill:#262626;" transform="translate(557.207157 311.327766)scale(0.3 -0.3)">
       <use xlink:href="#ArialMT-48"/>
       <use x="55.615234" xlink:href="#ArialMT-46"/>
       <use x="83.398438" xlink:href="#ArialMT-55"/>
       <use x="139.013672" xlink:href="#ArialMT-55"/>
       <use x="194.628906" xlink:href="#ArialMT-55"/>
      </g>
     </g>
    </g>
    <g id="ytick_22">
     <g id="line2d_37">
      <path clip-path="url(#p96c3350f41)" d="M 521.085986 241.432889 
L 547.707157 241.432889 
" style="fill:none;stroke:#ffffff;stroke-linecap:round;"/>
     </g>
     <g id="line2d_38">
      <g>
       <use style="fill:#262626;stroke:#262626;stroke-width:1.25;" x="547.707157" xlink:href="#mbbe7b3752b" y="241.432889"/>
      </g>
     </g>
     <g id="text_20">
      <!-- 0.868 -->
      <g style="fill:#262626;" transform="translate(557.207157 252.169608)scale(0.3 -0.3)">
       <use xlink:href="#ArialMT-48"/>
       <use x="55.615234" xlink:href="#ArialMT-46"/>
       <use x="83.398438" xlink:href="#ArialMT-56"/>
       <use x="139.013672" xlink:href="#ArialMT-54"/>
       <use x="194.628906" xlink:href="#ArialMT-56"/>
      </g>
     </g>
    </g>
    <g id="ytick_23">
     <g id="line2d_39">
      <path clip-path="url(#p96c3350f41)" d="M 521.085986 182.27473 
L 547.707157 182.27473 
" style="fill:none;stroke:#ffffff;stroke-linecap:round;"/>
     </g>
     <g id="line2d_40">
      <g>
       <use style="fill:#262626;stroke:#262626;stroke-width:1.25;" x="547.707157" xlink:href="#mbbe7b3752b" y="182.27473"/>
      </g>
     </g>
     <g id="text_21">
      <!-- 0.954 -->
      <g style="fill:#262626;" transform="translate(557.207157 193.011449)scale(0.3 -0.3)">
       <defs>
        <path d="M 5.46875 16.546875 
L 13.921875 17.328125 
Q 14.984375 11.375 18.015625 8.6875 
Q 21.046875 6 25.78125 6 
Q 29.828125 6 32.875 7.859375 
Q 35.9375 9.71875 37.890625 12.8125 
Q 39.84375 15.921875 41.15625 21.1875 
Q 42.484375 26.46875 42.484375 31.9375 
Q 42.484375 32.515625 42.4375 33.6875 
Q 39.796875 29.5 35.234375 26.875 
Q 30.671875 24.265625 25.34375 24.265625 
Q 16.453125 24.265625 10.296875 30.703125 
Q 4.15625 37.15625 4.15625 47.703125 
Q 4.15625 58.59375 10.578125 65.234375 
Q 17 71.875 26.65625 71.875 
Q 33.640625 71.875 39.421875 68.109375 
Q 45.21875 64.359375 48.21875 57.390625 
Q 51.21875 50.4375 51.21875 37.25 
Q 51.21875 23.53125 48.234375 15.40625 
Q 45.265625 7.28125 39.375 3.03125 
Q 33.5 -1.21875 25.59375 -1.21875 
Q 17.1875 -1.21875 11.859375 3.4375 
Q 6.546875 8.109375 5.46875 16.546875 
z
M 41.453125 48.140625 
Q 41.453125 55.71875 37.421875 60.15625 
Q 33.40625 64.59375 27.734375 64.59375 
Q 21.875 64.59375 17.53125 59.8125 
Q 13.1875 55.03125 13.1875 47.40625 
Q 13.1875 40.578125 17.3125 36.296875 
Q 21.4375 32.03125 27.484375 32.03125 
Q 33.59375 32.03125 37.515625 36.296875 
Q 41.453125 40.578125 41.453125 48.140625 
z
" id="ArialMT-57"/>
       </defs>
       <use xlink:href="#ArialMT-48"/>
       <use x="55.615234" xlink:href="#ArialMT-46"/>
       <use x="83.398438" xlink:href="#ArialMT-57"/>
       <use x="139.013672" xlink:href="#ArialMT-53"/>
       <use x="194.628906" xlink:href="#ArialMT-52"/>
      </g>
     </g>
    </g>
    <g id="ytick_24">
     <g id="line2d_41">
      <path clip-path="url(#p96c3350f41)" d="M 521.085986 123.116571 
L 547.707157 123.116571 
" style="fill:none;stroke:#ffffff;stroke-linecap:round;"/>
     </g>
     <g id="line2d_42">
      <g>
       <use style="fill:#262626;stroke:#262626;stroke-width:1.25;" x="547.707157" xlink:href="#mbbe7b3752b" y="123.116571"/>
      </g>
     </g>
     <g id="text_22">
      <!-- 1.291 -->
      <g style="fill:#262626;" transform="translate(557.207157 133.85329)scale(0.3 -0.3)">
       <use xlink:href="#ArialMT-49"/>
       <use x="55.615234" xlink:href="#ArialMT-46"/>
       <use x="83.398438" xlink:href="#ArialMT-50"/>
       <use x="139.013672" xlink:href="#ArialMT-57"/>
       <use x="194.628906" xlink:href="#ArialMT-49"/>
      </g>
     </g>
    </g>
   </g>
   <g id="LineCollection_11">
    <path clip-path="url(#p96c3350f41)" d="M 521.085986 655.54 
L 547.707157 655.54 
" style="fill:none;stroke:#8b4513;stroke-width:1.5;"/>
    <path clip-path="url(#p96c3350f41)" d="M 521.085986 596.381841 
L 547.707157 596.381841 
" style="fill:none;stroke:#8b4513;stroke-width:1.5;"/>
    <path clip-path="url(#p96c3350f41)" d="M 521.085986 537.223683 
L 547.707157 537.223683 
" style="fill:none;stroke:#8b4513;stroke-width:1.5;"/>
    <path clip-path="url(#p96c3350f41)" d="M 521.085986 478.065524 
L 547.707157 478.065524 
" style="fill:none;stroke:#8b4513;stroke-width:1.5;"/>
    <path clip-path="url(#p96c3350f41)" d="M 521.085986 418.907365 
L 547.707157 418.907365 
" style="fill:none;stroke:#8b4513;stroke-width:1.5;"/>
    <path clip-path="url(#p96c3350f41)" d="M 521.085986 359.749206 
L 547.707157 359.749206 
" style="fill:none;stroke:#8b4513;stroke-width:1.5;"/>
    <path clip-path="url(#p96c3350f41)" d="M 521.085986 300.591048 
L 547.707157 300.591048 
" style="fill:none;stroke:#8b4513;stroke-width:1.5;"/>
    <path clip-path="url(#p96c3350f41)" d="M 521.085986 241.432889 
L 547.707157 241.432889 
" style="fill:none;stroke:#8b4513;stroke-width:1.5;"/>
    <path clip-path="url(#p96c3350f41)" d="M 521.085986 182.27473 
L 547.707157 182.27473 
" style="fill:none;stroke:#8b4513;stroke-width:1.5;"/>
    <path clip-path="url(#p96c3350f41)" d="M 521.085986 123.116571 
L 547.707157 123.116571 
" style="fill:none;stroke:#8b4513;stroke-width:1.5;"/>
   </g>
   <g id="patch_10">
    <path d="M 521.085986 655.54 
L 521.085986 596.381841 
L 521.085986 182.27473 
L 521.085986 123.116571 
L 547.707157 123.116571 
L 547.707157 182.27473 
L 547.707157 596.381841 
L 547.707157 655.54 
z
" style="fill:none;stroke:#ffffff;stroke-linejoin:miter;stroke-width:1.25;"/>
   </g>
  </g>
 </g>
 <defs>
  <clipPath id="p87378b6a11">
   <rect height="532.423429" width="416.824457" x="78.21" y="123.116571"/>
  </clipPath>
  <clipPath id="p0a2f870766">
   <rect height="91.797143" width="521.030571" x="78.21" y="12.96"/>
  </clipPath>
  <clipPath id="p221bc52cea">
   <rect height="532.423429" width="89.832857" x="617.207143" y="123.116571"/>
  </clipPath>
  <clipPath id="p96c3350f41">
   <rect height="532.423429" width="26.621171" x="521.085986" y="123.116571"/>
  </clipPath>
 </defs>
</svg>
