<?xml version="1.0" encoding="utf-8" standalone="no"?>
<!DOCTYPE svg PUBLIC "-//W3C//DTD SVG 1.1//EN"
  "http://www.w3.org/Graphics/SVG/1.1/DTD/svg11.dtd">
<!-- Created with matplotlib (https://matplotlib.org/) -->
<svg height="720pt" version="1.1" viewBox="0 0 720 720" width="720pt" xmlns="http://www.w3.org/2000/svg" xmlns:xlink="http://www.w3.org/1999/xlink">
 <metadata>
  <rdf:RDF xmlns:cc="http://creativecommons.org/ns#" xmlns:dc="http://purl.org/dc/elements/1.1/" xmlns:rdf="http://www.w3.org/1999/02/22-rdf-syntax-ns#">
   <cc:Work>
    <dc:type rdf:resource="http://purl.org/dc/dcmitype/StillImage"/>
    <dc:date>2021-06-05T11:00:36.368316</dc:date>
    <dc:format>image/svg+xml</dc:format>
    <dc:creator>
     <cc:Agent>
      <dc:title>Matplotlib v3.3.4, https://matplotlib.org/</dc:title>
     </cc:Agent>
    </dc:creator>
   </cc:Work>
  </rdf:RDF>
 </metadata>
 <defs>
  <style type="text/css">*{stroke-linecap:butt;stroke-linejoin:round;}</style>
 </defs>
 <g id="figure_1">
  <g id="patch_1">
   <path d="M 0 720 
L 720 720 
L 720 0 
L 0 0 
z
" style="fill:#ffffff;"/>
  </g>
  <g id="axes_1">
   <g id="patch_2">
    <path d="M 78.21 655.54 
L 495.034457 655.54 
L 495.034457 123.116571 
L 78.21 123.116571 
z
" style="fill:#eaeaf2;"/>
   </g>
   <g id="matplotlib.axis_1">
    <g id="xtick_1">
     <g id="line2d_1">
      <path clip-path="url(#p588f422284)" d="M 113.914206 655.54 
L 113.914206 123.116571 
" style="fill:none;stroke:#ffffff;stroke-linecap:round;"/>
     </g>
     <g id="text_1">
      <!-- 0 -->
      <g style="fill:#262626;" transform="translate(105.5728 686.513438)scale(0.3 -0.3)">
       <defs>
        <path d="M 4.15625 35.296875 
Q 4.15625 48 6.765625 55.734375 
Q 9.375 63.484375 14.515625 67.671875 
Q 19.671875 71.875 27.484375 71.875 
Q 33.25 71.875 37.59375 69.546875 
Q 41.9375 67.234375 44.765625 62.859375 
Q 47.609375 58.5 49.21875 52.21875 
Q 50.828125 45.953125 50.828125 35.296875 
Q 50.828125 22.703125 48.234375 14.96875 
Q 45.65625 7.234375 40.5 3 
Q 35.359375 -1.21875 27.484375 -1.21875 
Q 17.140625 -1.21875 11.234375 6.203125 
Q 4.15625 15.140625 4.15625 35.296875 
z
M 13.1875 35.296875 
Q 13.1875 17.671875 17.3125 11.828125 
Q 21.4375 6 27.484375 6 
Q 33.546875 6 37.671875 11.859375 
Q 41.796875 17.71875 41.796875 35.296875 
Q 41.796875 52.984375 37.671875 58.78125 
Q 33.546875 64.59375 27.390625 64.59375 
Q 21.34375 64.59375 17.71875 59.46875 
Q 13.1875 52.9375 13.1875 35.296875 
z
" id="ArialMT-48"/>
       </defs>
       <use xlink:href="#ArialMT-48"/>
      </g>
     </g>
    </g>
    <g id="xtick_2">
     <g id="line2d_2">
      <path clip-path="url(#p588f422284)" d="M 297.859138 655.54 
L 297.859138 123.116571 
" style="fill:none;stroke:#ffffff;stroke-linecap:round;"/>
     </g>
     <g id="text_2">
      <!-- 2 -->
      <g style="fill:#262626;" transform="translate(289.517732 686.513438)scale(0.3 -0.3)">
       <defs>
        <path d="M 50.34375 8.453125 
L 50.34375 0 
L 3.03125 0 
Q 2.9375 3.171875 4.046875 6.109375 
Q 5.859375 10.9375 9.828125 15.625 
Q 13.8125 20.3125 21.34375 26.46875 
Q 33.015625 36.03125 37.109375 41.625 
Q 41.21875 47.21875 41.21875 52.203125 
Q 41.21875 57.421875 37.46875 61 
Q 33.734375 64.59375 27.734375 64.59375 
Q 21.390625 64.59375 17.578125 60.78125 
Q 13.765625 56.984375 13.71875 50.25 
L 4.6875 51.171875 
Q 5.609375 61.28125 11.65625 66.578125 
Q 17.71875 71.875 27.9375 71.875 
Q 38.234375 71.875 44.234375 66.15625 
Q 50.25 60.453125 50.25 52 
Q 50.25 47.703125 48.484375 43.546875 
Q 46.734375 39.40625 42.65625 34.8125 
Q 38.578125 30.21875 29.109375 22.21875 
Q 21.1875 15.578125 18.9375 13.203125 
Q 16.703125 10.84375 15.234375 8.453125 
z
" id="ArialMT-50"/>
       </defs>
       <use xlink:href="#ArialMT-50"/>
      </g>
     </g>
    </g>
    <g id="xtick_3">
     <g id="line2d_3">
      <path clip-path="url(#p588f422284)" d="M 481.804071 655.54 
L 481.804071 123.116571 
" style="fill:none;stroke:#ffffff;stroke-linecap:round;"/>
     </g>
     <g id="text_3">
      <!-- 4 -->
      <g style="fill:#262626;" transform="translate(473.462665 686.513438)scale(0.3 -0.3)">
       <defs>
        <path d="M 32.328125 0 
L 32.328125 17.140625 
L 1.265625 17.140625 
L 1.265625 25.203125 
L 33.9375 71.578125 
L 41.109375 71.578125 
L 41.109375 25.203125 
L 50.78125 25.203125 
L 50.78125 17.140625 
L 41.109375 17.140625 
L 41.109375 0 
z
M 32.328125 25.203125 
L 32.328125 57.46875 
L 9.90625 25.203125 
z
" id="ArialMT-52"/>
       </defs>
       <use xlink:href="#ArialMT-52"/>
      </g>
     </g>
    </g>
    <g id="text_4">
     <!-- PathwayCommons log(Degree) -->
     <g style="fill:#262626;" transform="translate(7.634729 725.594687)scale(0.4 -0.4)">
      <defs>
       <path d="M 7.71875 0 
L 7.71875 71.578125 
L 34.71875 71.578125 
Q 41.84375 71.578125 45.609375 70.90625 
Q 50.875 70.015625 54.4375 67.546875 
Q 58.015625 65.09375 60.1875 60.640625 
Q 62.359375 56.203125 62.359375 50.875 
Q 62.359375 41.75 56.546875 35.421875 
Q 50.734375 29.109375 35.546875 29.109375 
L 17.1875 29.109375 
L 17.1875 0 
z
M 17.1875 37.546875 
L 35.6875 37.546875 
Q 44.875 37.546875 48.734375 40.96875 
Q 52.59375 44.390625 52.59375 50.59375 
Q 52.59375 55.078125 50.3125 58.265625 
Q 48.046875 61.46875 44.34375 62.5 
Q 41.9375 63.140625 35.5 63.140625 
L 17.1875 63.140625 
z
" id="ArialMT-80"/>
       <path d="M 40.4375 6.390625 
Q 35.546875 2.25 31.03125 0.53125 
Q 26.515625 -1.171875 21.34375 -1.171875 
Q 12.796875 -1.171875 8.203125 3 
Q 3.609375 7.171875 3.609375 13.671875 
Q 3.609375 17.484375 5.34375 20.625 
Q 7.078125 23.78125 9.890625 25.6875 
Q 12.703125 27.59375 16.21875 28.5625 
Q 18.796875 29.25 24.03125 29.890625 
Q 34.671875 31.15625 39.703125 32.90625 
Q 39.75 34.71875 39.75 35.203125 
Q 39.75 40.578125 37.25 42.78125 
Q 33.890625 45.75 27.25 45.75 
Q 21.046875 45.75 18.09375 43.578125 
Q 15.140625 41.40625 13.71875 35.890625 
L 5.125 37.0625 
Q 6.296875 42.578125 8.984375 45.96875 
Q 11.671875 49.359375 16.75 51.1875 
Q 21.828125 53.03125 28.515625 53.03125 
Q 35.15625 53.03125 39.296875 51.46875 
Q 43.453125 49.90625 45.40625 47.53125 
Q 47.359375 45.171875 48.140625 41.546875 
Q 48.578125 39.3125 48.578125 33.453125 
L 48.578125 21.734375 
Q 48.578125 9.46875 49.140625 6.21875 
Q 49.703125 2.984375 51.375 0 
L 42.1875 0 
Q 40.828125 2.734375 40.4375 6.390625 
z
M 39.703125 26.03125 
Q 34.90625 24.078125 25.34375 22.703125 
Q 19.921875 21.921875 17.671875 20.9375 
Q 15.4375 19.96875 14.203125 18.09375 
Q 12.984375 16.21875 12.984375 13.921875 
Q 12.984375 10.40625 15.640625 8.0625 
Q 18.3125 5.71875 23.4375 5.71875 
Q 28.515625 5.71875 32.46875 7.9375 
Q 36.421875 10.15625 38.28125 14.015625 
Q 39.703125 17 39.703125 22.796875 
z
" id="ArialMT-97"/>
       <path d="M 25.78125 7.859375 
L 27.046875 0.09375 
Q 23.34375 -0.6875 20.40625 -0.6875 
Q 15.625 -0.6875 12.984375 0.828125 
Q 10.359375 2.34375 9.28125 4.8125 
Q 8.203125 7.28125 8.203125 15.1875 
L 8.203125 45.015625 
L 1.765625 45.015625 
L 1.765625 51.859375 
L 8.203125 51.859375 
L 8.203125 64.703125 
L 16.9375 69.96875 
L 16.9375 51.859375 
L 25.78125 51.859375 
L 25.78125 45.015625 
L 16.9375 45.015625 
L 16.9375 14.703125 
Q 16.9375 10.9375 17.40625 9.859375 
Q 17.875 8.796875 18.921875 8.15625 
Q 19.96875 7.515625 21.921875 7.515625 
Q 23.390625 7.515625 25.78125 7.859375 
z
" id="ArialMT-116"/>
       <path d="M 6.59375 0 
L 6.59375 71.578125 
L 15.375 71.578125 
L 15.375 45.90625 
Q 21.53125 53.03125 30.90625 53.03125 
Q 36.671875 53.03125 40.921875 50.75 
Q 45.171875 48.484375 47 44.484375 
Q 48.828125 40.484375 48.828125 32.859375 
L 48.828125 0 
L 40.046875 0 
L 40.046875 32.859375 
Q 40.046875 39.453125 37.1875 42.453125 
Q 34.328125 45.453125 29.109375 45.453125 
Q 25.203125 45.453125 21.75 43.421875 
Q 18.3125 41.40625 16.84375 37.9375 
Q 15.375 34.46875 15.375 28.375 
L 15.375 0 
z
" id="ArialMT-104"/>
       <path d="M 16.15625 0 
L 0.296875 51.859375 
L 9.375 51.859375 
L 17.625 21.921875 
L 20.703125 10.796875 
Q 20.90625 11.625 23.390625 21.484375 
L 31.640625 51.859375 
L 40.671875 51.859375 
L 48.4375 21.78125 
L 51.03125 11.859375 
L 54 21.875 
L 62.890625 51.859375 
L 71.4375 51.859375 
L 55.21875 0 
L 46.09375 0 
L 37.84375 31.0625 
L 35.84375 39.890625 
L 25.34375 0 
z
" id="ArialMT-119"/>
       <path d="M 6.203125 -19.96875 
L 5.21875 -11.71875 
Q 8.109375 -12.5 10.25 -12.5 
Q 13.1875 -12.5 14.9375 -11.515625 
Q 16.703125 -10.546875 17.828125 -8.796875 
Q 18.65625 -7.46875 20.515625 -2.25 
Q 20.75 -1.515625 21.296875 -0.09375 
L 1.609375 51.859375 
L 11.078125 51.859375 
L 21.875 21.828125 
Q 23.96875 16.109375 25.640625 9.8125 
Q 27.15625 15.875 29.25 21.625 
L 40.328125 51.859375 
L 49.125 51.859375 
L 29.390625 -0.875 
Q 26.21875 -9.421875 24.46875 -12.640625 
Q 22.125 -17 19.09375 -19.015625 
Q 16.0625 -21.046875 11.859375 -21.046875 
Q 9.328125 -21.046875 6.203125 -19.96875 
z
" id="ArialMT-121"/>
       <path d="M 58.796875 25.09375 
L 68.265625 22.703125 
Q 65.28125 11.03125 57.546875 4.90625 
Q 49.8125 -1.21875 38.625 -1.21875 
Q 27.046875 -1.21875 19.796875 3.484375 
Q 12.546875 8.203125 8.765625 17.140625 
Q 4.984375 26.078125 4.984375 36.328125 
Q 4.984375 47.515625 9.25 55.828125 
Q 13.53125 64.15625 21.40625 68.46875 
Q 29.296875 72.796875 38.765625 72.796875 
Q 49.515625 72.796875 56.828125 67.328125 
Q 64.15625 61.859375 67.046875 51.953125 
L 57.71875 49.75 
Q 55.21875 57.5625 50.484375 61.125 
Q 45.75 64.703125 38.578125 64.703125 
Q 30.328125 64.703125 24.78125 60.734375 
Q 19.234375 56.78125 16.984375 50.109375 
Q 14.75 43.453125 14.75 36.375 
Q 14.75 27.25 17.40625 20.4375 
Q 20.0625 13.625 25.671875 10.25 
Q 31.296875 6.890625 37.84375 6.890625 
Q 45.796875 6.890625 51.3125 11.46875 
Q 56.84375 16.0625 58.796875 25.09375 
z
" id="ArialMT-67"/>
       <path d="M 3.328125 25.921875 
Q 3.328125 40.328125 11.328125 47.265625 
Q 18.015625 53.03125 27.640625 53.03125 
Q 38.328125 53.03125 45.109375 46.015625 
Q 51.90625 39.015625 51.90625 26.65625 
Q 51.90625 16.65625 48.90625 10.90625 
Q 45.90625 5.171875 40.15625 2 
Q 34.421875 -1.171875 27.640625 -1.171875 
Q 16.75 -1.171875 10.03125 5.8125 
Q 3.328125 12.796875 3.328125 25.921875 
z
M 12.359375 25.921875 
Q 12.359375 15.96875 16.703125 11.015625 
Q 21.046875 6.0625 27.640625 6.0625 
Q 34.1875 6.0625 38.53125 11.03125 
Q 42.875 16.015625 42.875 26.21875 
Q 42.875 35.84375 38.5 40.796875 
Q 34.125 45.75 27.640625 45.75 
Q 21.046875 45.75 16.703125 40.8125 
Q 12.359375 35.890625 12.359375 25.921875 
z
" id="ArialMT-111"/>
       <path d="M 6.59375 0 
L 6.59375 51.859375 
L 14.453125 51.859375 
L 14.453125 44.578125 
Q 16.890625 48.390625 20.9375 50.703125 
Q 25 53.03125 30.171875 53.03125 
Q 35.9375 53.03125 39.625 50.640625 
Q 43.3125 48.25 44.828125 43.953125 
Q 50.984375 53.03125 60.84375 53.03125 
Q 68.5625 53.03125 72.703125 48.75 
Q 76.859375 44.484375 76.859375 35.59375 
L 76.859375 0 
L 68.109375 0 
L 68.109375 32.671875 
Q 68.109375 37.9375 67.25 40.25 
Q 66.40625 42.578125 64.15625 43.984375 
Q 61.921875 45.40625 58.890625 45.40625 
Q 53.421875 45.40625 49.796875 41.765625 
Q 46.1875 38.140625 46.1875 30.125 
L 46.1875 0 
L 37.40625 0 
L 37.40625 33.6875 
Q 37.40625 39.546875 35.25 42.46875 
Q 33.109375 45.40625 28.21875 45.40625 
Q 24.515625 45.40625 21.359375 43.453125 
Q 18.21875 41.5 16.796875 37.734375 
Q 15.375 33.984375 15.375 26.90625 
L 15.375 0 
z
" id="ArialMT-109"/>
       <path d="M 6.59375 0 
L 6.59375 51.859375 
L 14.5 51.859375 
L 14.5 44.484375 
Q 20.21875 53.03125 31 53.03125 
Q 35.6875 53.03125 39.625 51.34375 
Q 43.5625 49.65625 45.515625 46.921875 
Q 47.46875 44.1875 48.25 40.4375 
Q 48.734375 37.984375 48.734375 31.890625 
L 48.734375 0 
L 39.9375 0 
L 39.9375 31.546875 
Q 39.9375 36.921875 38.90625 39.578125 
Q 37.890625 42.234375 35.28125 43.8125 
Q 32.671875 45.40625 29.15625 45.40625 
Q 23.53125 45.40625 19.453125 41.84375 
Q 15.375 38.28125 15.375 28.328125 
L 15.375 0 
z
" id="ArialMT-110"/>
       <path d="M 3.078125 15.484375 
L 11.765625 16.84375 
Q 12.5 11.625 15.84375 8.84375 
Q 19.1875 6.0625 25.203125 6.0625 
Q 31.25 6.0625 34.171875 8.515625 
Q 37.109375 10.984375 37.109375 14.3125 
Q 37.109375 17.28125 34.515625 19 
Q 32.71875 20.171875 25.53125 21.96875 
Q 15.875 24.421875 12.140625 26.203125 
Q 8.40625 27.984375 6.46875 31.125 
Q 4.546875 34.28125 4.546875 38.09375 
Q 4.546875 41.546875 6.125 44.5 
Q 7.71875 47.46875 10.453125 49.421875 
Q 12.5 50.921875 16.03125 51.96875 
Q 19.578125 53.03125 23.640625 53.03125 
Q 29.734375 53.03125 34.34375 51.265625 
Q 38.96875 49.515625 41.15625 46.5 
Q 43.359375 43.5 44.1875 38.484375 
L 35.59375 37.3125 
Q 35.015625 41.3125 32.203125 43.546875 
Q 29.390625 45.796875 24.265625 45.796875 
Q 18.21875 45.796875 15.625 43.796875 
Q 13.03125 41.796875 13.03125 39.109375 
Q 13.03125 37.40625 14.109375 36.03125 
Q 15.1875 34.625 17.484375 33.6875 
Q 18.796875 33.203125 25.25 31.453125 
Q 34.578125 28.953125 38.25 27.359375 
Q 41.9375 25.78125 44.03125 22.75 
Q 46.140625 19.734375 46.140625 15.234375 
Q 46.140625 10.84375 43.578125 6.953125 
Q 41.015625 3.078125 36.171875 0.953125 
Q 31.34375 -1.171875 25.25 -1.171875 
Q 15.140625 -1.171875 9.84375 3.03125 
Q 4.546875 7.234375 3.078125 15.484375 
z
" id="ArialMT-115"/>
       <path id="ArialMT-32"/>
       <path d="M 6.390625 0 
L 6.390625 71.578125 
L 15.1875 71.578125 
L 15.1875 0 
z
" id="ArialMT-108"/>
       <path d="M 4.984375 -4.296875 
L 13.53125 -5.5625 
Q 14.0625 -9.515625 16.5 -11.328125 
Q 19.78125 -13.765625 25.4375 -13.765625 
Q 31.546875 -13.765625 34.859375 -11.328125 
Q 38.1875 -8.890625 39.359375 -4.5 
Q 40.046875 -1.8125 39.984375 6.78125 
Q 34.234375 0 25.640625 0 
Q 14.9375 0 9.078125 7.71875 
Q 3.21875 15.4375 3.21875 26.21875 
Q 3.21875 33.640625 5.90625 39.90625 
Q 8.59375 46.1875 13.6875 49.609375 
Q 18.796875 53.03125 25.6875 53.03125 
Q 34.859375 53.03125 40.828125 45.609375 
L 40.828125 51.859375 
L 48.921875 51.859375 
L 48.921875 7.03125 
Q 48.921875 -5.078125 46.453125 -10.125 
Q 44 -15.1875 38.640625 -18.109375 
Q 33.296875 -21.046875 25.484375 -21.046875 
Q 16.21875 -21.046875 10.5 -16.875 
Q 4.78125 -12.703125 4.984375 -4.296875 
z
M 12.25 26.859375 
Q 12.25 16.65625 16.296875 11.96875 
Q 20.359375 7.28125 26.46875 7.28125 
Q 32.515625 7.28125 36.609375 11.9375 
Q 40.71875 16.609375 40.71875 26.5625 
Q 40.71875 36.078125 36.5 40.90625 
Q 32.28125 45.75 26.3125 45.75 
Q 20.453125 45.75 16.34375 40.984375 
Q 12.25 36.234375 12.25 26.859375 
z
" id="ArialMT-103"/>
       <path d="M 23.390625 -21.046875 
Q 16.109375 -11.859375 11.078125 0.4375 
Q 6.0625 12.75 6.0625 25.921875 
Q 6.0625 37.546875 9.8125 48.1875 
Q 14.203125 60.546875 23.390625 72.796875 
L 29.6875 72.796875 
Q 23.78125 62.640625 21.875 58.296875 
Q 18.890625 51.5625 17.1875 44.234375 
Q 15.09375 35.109375 15.09375 25.875 
Q 15.09375 2.390625 29.6875 -21.046875 
z
" id="ArialMT-40"/>
       <path d="M 7.71875 0 
L 7.71875 71.578125 
L 32.375 71.578125 
Q 40.71875 71.578125 45.125 70.5625 
Q 51.265625 69.140625 55.609375 65.4375 
Q 61.28125 60.640625 64.078125 53.1875 
Q 66.890625 45.75 66.890625 36.1875 
Q 66.890625 28.03125 64.984375 21.734375 
Q 63.09375 15.4375 60.109375 11.296875 
Q 57.125 7.171875 53.578125 4.796875 
Q 50.046875 2.4375 45.046875 1.21875 
Q 40.046875 0 33.546875 0 
z
M 17.1875 8.453125 
L 32.46875 8.453125 
Q 39.546875 8.453125 43.578125 9.765625 
Q 47.609375 11.078125 50 13.484375 
Q 53.375 16.84375 55.25 22.53125 
Q 57.125 28.21875 57.125 36.328125 
Q 57.125 47.5625 53.4375 53.59375 
Q 49.75 59.625 44.484375 61.671875 
Q 40.671875 63.140625 32.234375 63.140625 
L 17.1875 63.140625 
z
" id="ArialMT-68"/>
       <path d="M 42.09375 16.703125 
L 51.171875 15.578125 
Q 49.03125 7.625 43.21875 3.21875 
Q 37.40625 -1.171875 28.375 -1.171875 
Q 17 -1.171875 10.328125 5.828125 
Q 3.65625 12.84375 3.65625 25.484375 
Q 3.65625 38.578125 10.390625 45.796875 
Q 17.140625 53.03125 27.875 53.03125 
Q 38.28125 53.03125 44.875 45.953125 
Q 51.46875 38.875 51.46875 26.03125 
Q 51.46875 25.25 51.421875 23.6875 
L 12.75 23.6875 
Q 13.234375 15.140625 17.578125 10.59375 
Q 21.921875 6.0625 28.421875 6.0625 
Q 33.25 6.0625 36.671875 8.59375 
Q 40.09375 11.140625 42.09375 16.703125 
z
M 13.234375 30.90625 
L 42.1875 30.90625 
Q 41.609375 37.453125 38.875 40.71875 
Q 34.671875 45.796875 27.984375 45.796875 
Q 21.921875 45.796875 17.796875 41.75 
Q 13.671875 37.703125 13.234375 30.90625 
z
" id="ArialMT-101"/>
       <path d="M 6.5 0 
L 6.5 51.859375 
L 14.40625 51.859375 
L 14.40625 44 
Q 17.4375 49.515625 20 51.265625 
Q 22.5625 53.03125 25.640625 53.03125 
Q 30.078125 53.03125 34.671875 50.203125 
L 31.640625 42.046875 
Q 28.421875 43.953125 25.203125 43.953125 
Q 22.3125 43.953125 20.015625 42.21875 
Q 17.71875 40.484375 16.75 37.40625 
Q 15.28125 32.71875 15.28125 27.15625 
L 15.28125 0 
z
" id="ArialMT-114"/>
       <path d="M 12.359375 -21.046875 
L 6.0625 -21.046875 
Q 20.65625 2.390625 20.65625 25.875 
Q 20.65625 35.0625 18.5625 44.09375 
Q 16.890625 51.421875 13.921875 58.15625 
Q 12.015625 62.546875 6.0625 72.796875 
L 12.359375 72.796875 
Q 21.53125 60.546875 25.921875 48.1875 
Q 29.6875 37.546875 29.6875 25.921875 
Q 29.6875 12.75 24.625 0.4375 
Q 19.578125 -11.859375 12.359375 -21.046875 
z
" id="ArialMT-41"/>
      </defs>
      <use xlink:href="#ArialMT-80"/>
      <use x="66.699219" xlink:href="#ArialMT-97"/>
      <use x="122.314453" xlink:href="#ArialMT-116"/>
      <use x="150.097656" xlink:href="#ArialMT-104"/>
      <use x="205.712891" xlink:href="#ArialMT-119"/>
      <use x="277.929688" xlink:href="#ArialMT-97"/>
      <use x="333.544922" xlink:href="#ArialMT-121"/>
      <use x="383.544922" xlink:href="#ArialMT-67"/>
      <use x="455.761719" xlink:href="#ArialMT-111"/>
      <use x="511.376953" xlink:href="#ArialMT-109"/>
      <use x="594.677734" xlink:href="#ArialMT-109"/>
      <use x="677.978516" xlink:href="#ArialMT-111"/>
      <use x="733.59375" xlink:href="#ArialMT-110"/>
      <use x="789.208984" xlink:href="#ArialMT-115"/>
      <use x="839.208984" xlink:href="#ArialMT-32"/>
      <use x="866.992188" xlink:href="#ArialMT-108"/>
      <use x="889.208984" xlink:href="#ArialMT-111"/>
      <use x="944.824219" xlink:href="#ArialMT-103"/>
      <use x="1000.439453" xlink:href="#ArialMT-40"/>
      <use x="1033.740234" xlink:href="#ArialMT-68"/>
      <use x="1105.957031" xlink:href="#ArialMT-101"/>
      <use x="1161.572266" xlink:href="#ArialMT-103"/>
      <use x="1217.1875" xlink:href="#ArialMT-114"/>
      <use x="1250.488281" xlink:href="#ArialMT-101"/>
      <use x="1306.103516" xlink:href="#ArialMT-101"/>
      <use x="1361.71875" xlink:href="#ArialMT-41"/>
     </g>
    </g>
   </g>
   <g id="matplotlib.axis_2">
    <g id="ytick_1">
     <g id="line2d_4">
      <path clip-path="url(#p588f422284)" d="M 78.21 612.794587 
L 495.034457 612.794587 
" style="fill:none;stroke:#ffffff;stroke-linecap:round;"/>
     </g>
     <g id="text_5">
      <!-- 0.0 -->
      <g style="fill:#262626;" transform="translate(27.01 623.531305)scale(0.3 -0.3)">
       <defs>
        <path d="M 9.078125 0 
L 9.078125 10.015625 
L 19.09375 10.015625 
L 19.09375 0 
z
" id="ArialMT-46"/>
       </defs>
       <use xlink:href="#ArialMT-48"/>
       <use x="55.615234" xlink:href="#ArialMT-46"/>
       <use x="83.398438" xlink:href="#ArialMT-48"/>
      </g>
     </g>
    </g>
    <g id="ytick_2">
     <g id="line2d_5">
      <path clip-path="url(#p588f422284)" d="M 78.21 515.307092 
L 495.034457 515.307092 
" style="fill:none;stroke:#ffffff;stroke-linecap:round;"/>
     </g>
     <g id="text_6">
      <!-- 0.5 -->
      <g style="fill:#262626;" transform="translate(27.01 526.043811)scale(0.3 -0.3)">
       <defs>
        <path d="M 4.15625 18.75 
L 13.375 19.53125 
Q 14.40625 12.796875 18.140625 9.390625 
Q 21.875 6 27.15625 6 
Q 33.5 6 37.890625 10.78125 
Q 42.28125 15.578125 42.28125 23.484375 
Q 42.28125 31 38.0625 35.34375 
Q 33.84375 39.703125 27 39.703125 
Q 22.75 39.703125 19.328125 37.765625 
Q 15.921875 35.84375 13.96875 32.765625 
L 5.71875 33.84375 
L 12.640625 70.609375 
L 48.25 70.609375 
L 48.25 62.203125 
L 19.671875 62.203125 
L 15.828125 42.96875 
Q 22.265625 47.46875 29.34375 47.46875 
Q 38.71875 47.46875 45.15625 40.96875 
Q 51.609375 34.46875 51.609375 24.265625 
Q 51.609375 14.546875 45.953125 7.46875 
Q 39.0625 -1.21875 27.15625 -1.21875 
Q 17.390625 -1.21875 11.203125 4.25 
Q 5.03125 9.71875 4.15625 18.75 
z
" id="ArialMT-53"/>
       </defs>
       <use xlink:href="#ArialMT-48"/>
       <use x="55.615234" xlink:href="#ArialMT-46"/>
       <use x="83.398438" xlink:href="#ArialMT-53"/>
      </g>
     </g>
    </g>
    <g id="ytick_3">
     <g id="line2d_6">
      <path clip-path="url(#p588f422284)" d="M 78.21 417.819598 
L 495.034457 417.819598 
" style="fill:none;stroke:#ffffff;stroke-linecap:round;"/>
     </g>
     <g id="text_7">
      <!-- 1.0 -->
      <g style="fill:#262626;" transform="translate(27.01 428.556317)scale(0.3 -0.3)">
       <defs>
        <path d="M 37.25 0 
L 28.46875 0 
L 28.46875 56 
Q 25.296875 52.984375 20.140625 49.953125 
Q 14.984375 46.921875 10.890625 45.40625 
L 10.890625 53.90625 
Q 18.265625 57.375 23.78125 62.296875 
Q 29.296875 67.234375 31.59375 71.875 
L 37.25 71.875 
z
" id="ArialMT-49"/>
       </defs>
       <use xlink:href="#ArialMT-49"/>
       <use x="55.615234" xlink:href="#ArialMT-46"/>
       <use x="83.398438" xlink:href="#ArialMT-48"/>
      </g>
     </g>
    </g>
    <g id="ytick_4">
     <g id="line2d_7">
      <path clip-path="url(#p588f422284)" d="M 78.21 320.332103 
L 495.034457 320.332103 
" style="fill:none;stroke:#ffffff;stroke-linecap:round;"/>
     </g>
     <g id="text_8">
      <!-- 1.5 -->
      <g style="fill:#262626;" transform="translate(27.01 331.068822)scale(0.3 -0.3)">
       <use xlink:href="#ArialMT-49"/>
       <use x="55.615234" xlink:href="#ArialMT-46"/>
       <use x="83.398438" xlink:href="#ArialMT-53"/>
      </g>
     </g>
    </g>
    <g id="ytick_5">
     <g id="line2d_8">
      <path clip-path="url(#p588f422284)" d="M 78.21 222.844609 
L 495.034457 222.844609 
" style="fill:none;stroke:#ffffff;stroke-linecap:round;"/>
     </g>
     <g id="text_9">
      <!-- 2.0 -->
      <g style="fill:#262626;" transform="translate(27.01 233.581328)scale(0.3 -0.3)">
       <use xlink:href="#ArialMT-50"/>
       <use x="55.615234" xlink:href="#ArialMT-46"/>
       <use x="83.398438" xlink:href="#ArialMT-48"/>
      </g>
     </g>
    </g>
    <g id="ytick_6">
     <g id="line2d_9">
      <path clip-path="url(#p588f422284)" d="M 78.21 125.357115 
L 495.034457 125.357115 
" style="fill:none;stroke:#ffffff;stroke-linecap:round;"/>
     </g>
     <g id="text_10">
      <!-- 2.5 -->
      <g style="fill:#262626;" transform="translate(27.01 136.093833)scale(0.3 -0.3)">
       <use xlink:href="#ArialMT-50"/>
       <use x="55.615234" xlink:href="#ArialMT-46"/>
       <use x="83.398438" xlink:href="#ArialMT-53"/>
      </g>
     </g>
    </g>
    <g id="text_11">
     <!-- log(Publication_count) -->
     <g style="fill:#262626;" transform="translate(14.59125 587.215786)rotate(-90)scale(0.4 -0.4)">
      <defs>
       <path d="M 40.578125 0 
L 40.578125 7.625 
Q 34.515625 -1.171875 24.125 -1.171875 
Q 19.53125 -1.171875 15.546875 0.578125 
Q 11.578125 2.34375 9.640625 5 
Q 7.71875 7.671875 6.9375 11.53125 
Q 6.390625 14.109375 6.390625 19.734375 
L 6.390625 51.859375 
L 15.1875 51.859375 
L 15.1875 23.09375 
Q 15.1875 16.21875 15.71875 13.8125 
Q 16.546875 10.359375 19.234375 8.375 
Q 21.921875 6.390625 25.875 6.390625 
Q 29.828125 6.390625 33.296875 8.421875 
Q 36.765625 10.453125 38.203125 13.9375 
Q 39.65625 17.4375 39.65625 24.078125 
L 39.65625 51.859375 
L 48.4375 51.859375 
L 48.4375 0 
z
" id="ArialMT-117"/>
       <path d="M 14.703125 0 
L 6.546875 0 
L 6.546875 71.578125 
L 15.328125 71.578125 
L 15.328125 46.046875 
Q 20.90625 53.03125 29.546875 53.03125 
Q 34.328125 53.03125 38.59375 51.09375 
Q 42.875 49.171875 45.625 45.671875 
Q 48.390625 42.1875 49.953125 37.25 
Q 51.515625 32.328125 51.515625 26.703125 
Q 51.515625 13.375 44.921875 6.09375 
Q 38.328125 -1.171875 29.109375 -1.171875 
Q 19.921875 -1.171875 14.703125 6.5 
z
M 14.59375 26.3125 
Q 14.59375 17 17.140625 12.84375 
Q 21.296875 6.0625 28.375 6.0625 
Q 34.125 6.0625 38.328125 11.0625 
Q 42.53125 16.0625 42.53125 25.984375 
Q 42.53125 36.140625 38.5 40.96875 
Q 34.46875 45.796875 28.765625 45.796875 
Q 23 45.796875 18.796875 40.796875 
Q 14.59375 35.796875 14.59375 26.3125 
z
" id="ArialMT-98"/>
       <path d="M 6.640625 61.46875 
L 6.640625 71.578125 
L 15.4375 71.578125 
L 15.4375 61.46875 
z
M 6.640625 0 
L 6.640625 51.859375 
L 15.4375 51.859375 
L 15.4375 0 
z
" id="ArialMT-105"/>
       <path d="M 40.4375 19 
L 49.078125 17.875 
Q 47.65625 8.9375 41.8125 3.875 
Q 35.984375 -1.171875 27.484375 -1.171875 
Q 16.84375 -1.171875 10.375 5.78125 
Q 3.90625 12.75 3.90625 25.734375 
Q 3.90625 34.125 6.6875 40.421875 
Q 9.46875 46.734375 15.15625 49.875 
Q 20.84375 53.03125 27.546875 53.03125 
Q 35.984375 53.03125 41.359375 48.75 
Q 46.734375 44.484375 48.25 36.625 
L 39.703125 35.296875 
Q 38.484375 40.53125 35.375 43.15625 
Q 32.28125 45.796875 27.875 45.796875 
Q 21.234375 45.796875 17.078125 41.03125 
Q 12.9375 36.28125 12.9375 25.984375 
Q 12.9375 15.53125 16.9375 10.796875 
Q 20.953125 6.0625 27.390625 6.0625 
Q 32.5625 6.0625 36.03125 9.234375 
Q 39.5 12.40625 40.4375 19 
z
" id="ArialMT-99"/>
       <path d="M -1.515625 -19.875 
L -1.515625 -13.53125 
L 56.734375 -13.53125 
L 56.734375 -19.875 
z
" id="ArialMT-95"/>
      </defs>
      <use xlink:href="#ArialMT-108"/>
      <use x="22.216797" xlink:href="#ArialMT-111"/>
      <use x="77.832031" xlink:href="#ArialMT-103"/>
      <use x="133.447266" xlink:href="#ArialMT-40"/>
      <use x="166.748047" xlink:href="#ArialMT-80"/>
      <use x="233.447266" xlink:href="#ArialMT-117"/>
      <use x="289.0625" xlink:href="#ArialMT-98"/>
      <use x="344.677734" xlink:href="#ArialMT-108"/>
      <use x="366.894531" xlink:href="#ArialMT-105"/>
      <use x="389.111328" xlink:href="#ArialMT-99"/>
      <use x="439.111328" xlink:href="#ArialMT-97"/>
      <use x="494.726562" xlink:href="#ArialMT-116"/>
      <use x="522.509766" xlink:href="#ArialMT-105"/>
      <use x="544.726562" xlink:href="#ArialMT-111"/>
      <use x="600.341797" xlink:href="#ArialMT-110"/>
      <use x="655.957031" xlink:href="#ArialMT-95"/>
      <use x="711.572266" xlink:href="#ArialMT-99"/>
      <use x="761.572266" xlink:href="#ArialMT-111"/>
      <use x="817.1875" xlink:href="#ArialMT-117"/>
      <use x="872.802734" xlink:href="#ArialMT-110"/>
      <use x="928.417969" xlink:href="#ArialMT-116"/>
      <use x="956.201172" xlink:href="#ArialMT-41"/>
     </g>
    </g>
   </g>
   <g id="LineCollection_1">
    <path clip-path="url(#p588f422284)" d="M 103.345143 631.475717 
L 105.439738 631.47288 
L 105.492772 631.460548 
L 107.534334 631.047431 
L 109.628929 630.316045 
L 111.723524 629.298758 
L 112.574395 628.785054 
L 113.818119 628.083447 
L 115.912715 626.69172 
L 116.71036 626.109559 
L 118.00731 625.161469 
L 120.101905 623.470758 
L 120.151265 623.434065 
L 122.196501 621.768788 
L 123.458759 620.75857 
L 124.291096 619.9648 
L 126.385691 618.145317 
L 126.499174 618.083075 
L 128.480286 616.422757 
L 130.387568 615.407581 
L 130.574882 615.161467 
L 130.864551 615.407581 
L 132.669477 618.013473 
L 132.686355 618.083075 
L 134.431331 620.75857 
L 134.764072 621.024929 
L 136.858667 622.035075 
L 138.953263 622.268169 
L 141.047858 622.015665 
L 143.142453 621.473435 
L 145.237048 620.75857 
L 147.331644 619.859095 
L 149.426239 618.993005 
L 151.520834 618.256393 
L 152.354271 618.083075 
L 153.615429 617.681569 
L 155.710025 617.539338 
L 157.80462 617.985519 
L 158.071974 618.083075 
L 159.899215 618.481662 
L 161.99381 618.800191 
L 164.088406 618.796682 
L 166.183001 618.429284 
L 167.173955 618.083075 
L 168.277596 617.562423 
L 170.372192 616.219889 
L 171.412692 615.407581 
L 172.466787 614.117406 
L 173.486263 612.732086 
L 174.203918 610.056592 
L 172.780945 607.381097 
L 172.466787 607.1952 
L 170.372192 606.669477 
L 168.277596 606.660204 
L 166.183001 606.927516 
L 164.088406 607.310994 
L 163.648805 607.381097 
L 161.99381 607.773222 
L 159.899215 607.963477 
L 157.80462 607.463177 
L 157.690655 607.381097 
L 155.710025 606.361525 
L 153.615429 604.70652 
L 153.614262 604.705602 
L 151.520834 603.679365 
L 149.426239 603.174808 
L 147.331644 603.222204 
L 145.237048 603.706054 
L 143.142453 604.513628 
L 142.753004 604.705602 
L 141.047858 605.662178 
L 138.953263 606.945108 
L 138.188505 607.381097 
L 136.858667 608.417552 
L 134.764072 609.789428 
L 132.669477 610.015786 
L 132.153629 607.381097 
L 131.797425 604.705602 
L 131.372622 602.030108 
L 130.710042 599.354613 
L 130.574882 599.003854 
L 129.606427 596.679118 
L 128.480286 595.122144 
L 127.00391 594.003624 
L 126.385691 593.64288 
L 124.291096 593.23257 
L 122.196501 593.482228 
L 120.754519 594.003624 
L 120.101905 594.192677 
L 118.00731 595.163367 
L 115.912715 596.489095 
L 115.671499 596.679118 
L 113.818119 597.984238 
L 112.246007 599.354613 
L 111.723524 599.787911 
L 109.628929 601.82231 
L 109.437003 602.030108 
L 107.534334 604.118758 
L 107.047604 604.705602 
L 105.439738 606.77478 
L 104.991647 607.381097 
L 103.345143 609.882412 
L 103.231219 610.056592 
L 101.701383 612.732086 
L 101.250548 613.709072 
L 100.422277 615.407581 
L 99.433975 618.083075 
L 99.155953 619.177786 
L 98.704826 620.75857 
L 98.330454 623.434065 
L 98.428914 626.109559 
L 99.155953 628.483789 
L 99.2936 628.785054 
L 101.250548 630.75935 
L 103.28793 631.460548 
L 103.345143 631.475717 
" style="fill:none;stroke:#4c72b0;stroke-width:1.5;"/>
    <path clip-path="url(#p588f422284)" d="M 203.885716 630.097583 
L 205.980311 630.980024 
L 208.074906 631.365707 
L 210.169502 631.366935 
L 212.264097 631.072007 
L 214.358692 630.535543 
L 216.453287 629.779923 
L 218.547883 628.801593 
L 218.579079 628.785054 
L 220.642478 627.753869 
L 222.737073 626.532049 
L 223.422644 626.109559 
L 224.831668 625.236634 
L 226.926264 623.849415 
L 227.573125 623.434065 
L 229.020859 622.425673 
L 231.115454 620.95927 
L 231.448769 620.75857 
L 233.210049 619.484792 
L 235.255067 618.083075 
L 235.304645 618.036818 
L 237.39924 616.497688 
L 239.097196 615.407581 
L 239.493835 614.918747 
L 241.58638 612.732086 
L 241.58843 612.695621 
L 241.768951 610.056592 
L 241.58843 609.784739 
L 240.879708 607.381097 
L 239.776445 604.705602 
L 239.493835 604.166368 
L 238.748889 602.030108 
L 237.469827 599.354613 
L 237.39924 599.24113 
L 235.728583 596.679118 
L 235.304645 596.201037 
L 233.210049 594.504557 
L 232.034766 594.003624 
L 231.115454 593.649441 
L 229.020859 593.365255 
L 226.926264 593.505853 
L 224.831668 593.97932 
L 224.764165 594.003624 
L 222.737073 594.596127 
L 220.642478 595.403796 
L 218.547883 596.423575 
L 218.090695 596.679118 
L 216.453287 597.497799 
L 214.358692 598.71279 
L 213.364235 599.354613 
L 212.264097 600.039814 
L 210.169502 601.473971 
L 209.408446 602.030108 
L 208.074906 603.039553 
L 206.059434 604.705602 
L 205.980311 604.778594 
L 203.885716 606.724423 
L 203.204347 607.381097 
L 201.79112 609.041292 
L 200.929577 610.056592 
L 199.696525 612.04271 
L 199.252998 612.732086 
L 198.15585 615.407581 
L 197.680017 618.083075 
L 197.754439 620.75857 
L 198.399427 623.434065 
L 199.696525 626.033127 
L 199.73599 626.109559 
L 201.79112 628.581687 
L 202.004406 628.785054 
L 203.885716 630.097583 
" style="fill:none;stroke:#4c72b0;stroke-width:1.5;"/>
    <path clip-path="url(#p588f422284)" d="M 197.60193 578.517915 
L 199.696525 579.201377 
L 201.79112 579.75359 
L 203.885716 580.125711 
L 205.980311 580.31081 
L 208.074906 580.325437 
L 210.169502 580.193043 
L 214.358692 579.569131 
L 218.547883 578.578336 
L 220.841342 577.950656 
L 224.831668 577.232173 
L 229.020859 576.793093 
L 233.210049 576.708788 
L 237.39924 576.678317 
L 241.58843 576.431185 
L 245.777621 575.94675 
L 256.250597 574.335062 
L 260.439788 573.50959 
L 270.912764 571.183629 
L 281.38574 569.057049 
L 283.480336 568.482501 
L 286.898315 567.248678 
L 287.669526 566.944126 
L 289.764121 565.984537 
L 292.345136 564.573183 
L 293.953312 563.586009 
L 296.390117 561.897688 
L 299.648914 559.222194 
L 302.331693 556.505677 
L 304.475053 553.871205 
L 306.520884 550.721776 
L 308.615479 546.827679 
L 310.710074 542.858472 
L 312.804669 539.62281 
L 314.899265 536.965051 
L 316.99386 534.647254 
L 319.128767 532.467248 
L 325.372241 526.550231 
L 331.656027 520.208761 
L 335.845217 515.58533 
L 340.034408 510.7123 
L 344.223598 505.632547 
L 348.234732 500.361312 
L 350.507384 496.959371 
L 352.601979 493.345823 
L 353.146003 492.334828 
L 354.696575 488.915948 
L 355.47369 486.983839 
L 356.79117 482.752194 
L 357.105567 481.63285 
L 358.231962 476.281861 
L 360.426833 462.904388 
L 360.98036 460.071274 
L 363.074956 451.847867 
L 365.539786 444.175925 
L 367.521767 438.824936 
L 370.969741 430.798452 
L 373.547932 425.187701 
L 375.880014 420.096474 
L 378.043515 414.745485 
L 378.959924 412.06999 
L 379.831718 408.800578 
L 380.316345 406.719001 
L 380.766417 404.043506 
L 381.295805 398.692517 
L 381.926313 391.224202 
L 382.379555 387.990538 
L 384.020908 377.08971 
L 384.558368 371.937571 
L 385.254456 358.560098 
L 386.004613 353.209108 
L 386.568801 350.533614 
L 389.15241 339.831635 
L 390.947603 331.805151 
L 391.412548 329.129657 
L 391.749816 326.454162 
L 391.92703 323.778668 
L 391.902711 321.103173 
L 391.643216 318.427678 
L 391.152438 315.752184 
L 389.867556 310.401195 
L 389.358121 307.7257 
L 389.012768 305.050205 
L 388.842332 302.374711 
L 388.913055 297.023721 
L 389.504383 286.321743 
L 389.519572 283.646248 
L 389.423441 280.970754 
L 389.204027 278.295259 
L 388.43532 272.94427 
L 387.927278 270.268775 
L 386.707944 264.917786 
L 385.876221 262.242291 
L 384.582607 259.566797 
L 384.020908 258.735954 
L 381.926313 256.679015 
L 379.831718 255.516049 
L 377.737122 254.757832 
L 375.329167 254.215808 
L 373.547932 253.962312 
L 371.453337 253.843908 
L 369.358741 253.914984 
L 367.105249 254.215808 
L 365.169551 254.626293 
L 363.074956 255.235885 
L 358.682791 256.891302 
L 351.807137 259.566797 
L 350.507384 259.989882 
L 348.412789 260.551033 
L 346.318194 260.973539 
L 342.129003 261.430311 
L 337.939812 261.731082 
L 334.965659 262.242291 
L 333.750622 262.524622 
L 331.656027 263.254633 
L 329.561431 264.260396 
L 327.466836 265.536032 
L 324.764048 267.593281 
L 321.78249 270.268775 
L 319.088455 272.963363 
L 314.899265 277.139725 
L 312.804669 279.04631 
L 310.326428 280.970754 
L 308.615479 282.040555 
L 306.520884 283.089279 
L 304.426288 283.873104 
L 300.237098 285.186569 
L 297.360608 286.321743 
L 296.047907 286.886149 
L 293.953312 287.981953 
L 289.764121 290.646343 
L 283.480336 295.466919 
L 273.007359 304.390316 
L 268.818169 308.299126 
L 264.347504 313.076689 
L 260.439788 317.793717 
L 252.061407 328.751161 
L 249.58005 331.805151 
L 245.777621 336.082177 
L 243.683026 338.238912 
L 241.58843 340.27108 
L 239.064198 342.50713 
L 232.261693 347.858119 
L 231.115454 348.70038 
L 225.681093 353.209108 
L 224.831668 353.932653 
L 220.174602 358.560098 
L 216.453287 362.633845 
L 201.79112 379.991466 
L 194.476663 387.990538 
L 179.621403 404.043506 
L 176.655977 407.53321 
L 173.066443 412.06999 
L 169.252927 417.420979 
L 159.899215 431.873361 
L 156.606196 436.149441 
L 154.251068 438.824936 
L 151.520834 441.629661 
L 145.237048 447.605131 
L 143.142453 449.8151 
L 134.764072 459.20181 
L 132.669477 460.927515 
L 130.574882 462.00142 
L 128.480286 462.333942 
L 126.385691 461.781251 
L 122.196501 459.186001 
L 120.101905 458.553231 
L 118.00731 458.76003 
L 115.912715 459.700601 
L 113.818119 461.452839 
L 111.723524 464.090769 
L 110.865385 465.579882 
L 109.553142 468.255377 
L 107.806366 473.606366 
L 107.065361 476.281861 
L 105.439738 481.755466 
L 100.199996 497.685818 
L 99.155953 502.436407 
L 99.030617 503.036807 
L 98.634775 505.712302 
L 98.243324 511.063291 
L 97.946306 516.41428 
L 97.36239 521.765269 
L 96.686546 527.116258 
L 96.499484 529.791753 
L 96.542748 532.467248 
L 97.061357 535.619943 
L 97.784646 537.818237 
L 99.155953 540.599056 
L 100.244754 543.169226 
L 100.487176 545.844721 
L 100.024401 548.520215 
L 99.155953 551.517182 
L 97.383924 556.546699 
L 95.785171 561.897688 
L 95.287173 564.573183 
L 95.046029 567.248678 
L 95.162808 569.924172 
L 95.879554 572.599667 
L 97.061357 574.482159 
L 97.909388 575.275162 
L 99.155953 576.082262 
L 101.250548 576.679702 
L 103.345143 576.737791 
L 105.439738 576.433033 
L 107.534334 575.842094 
L 113.818119 573.241857 
L 115.912715 572.301081 
L 118.00731 571.612641 
L 120.101905 571.283979 
L 122.196501 571.6741 
L 124.291096 572.93413 
L 126.385691 574.503892 
L 128.480286 575.665826 
L 130.574882 576.32391 
L 132.669477 576.515124 
L 134.764072 576.392985 
L 138.953263 575.652128 
L 141.047858 575.22523 
L 145.237048 574.726738 
L 147.331644 574.661093 
L 151.520834 574.902312 
L 161.99381 575.934377 
L 174.561382 576.419591 
L 180.845168 576.57851 
L 189.223549 576.733332 
L 191.318144 576.948542 
L 193.412739 577.313104 
L 195.927753 577.950656 
L 197.60193 578.517915 
L 197.60193 578.517915 
" style="fill:none;stroke:#4c72b0;stroke-width:1.5;"/>
   </g>
   <g id="LineCollection_2">
    <path clip-path="url(#p588f422284)" d="M 208.074906 567.782194 
L 210.169502 568.471943 
L 212.264097 568.762553 
L 214.358692 568.718811 
L 216.453287 568.408002 
L 218.547883 567.880276 
L 222.737073 566.356147 
L 226.926264 564.462309 
L 233.210049 561.623739 
L 235.304645 560.838479 
L 237.39924 560.221987 
L 239.493835 559.798717 
L 243.683026 559.386646 
L 247.872216 559.002605 
L 249.966811 558.648907 
L 254.156002 557.605421 
L 257.30262 556.546699 
L 260.439788 554.848656 
L 262.049981 553.871205 
L 264.772314 551.19571 
L 266.338009 548.520215 
L 268.510877 543.169226 
L 270.306 540.493732 
L 273.10809 537.818237 
L 280.853703 532.467248 
L 283.480336 530.818025 
L 292.498723 524.440764 
L 296.047907 521.599977 
L 300.237098 517.967157 
L 304.797341 513.738785 
L 319.088455 499.828015 
L 323.277646 495.137447 
L 325.501136 492.334828 
L 327.466836 489.628889 
L 330.924823 484.308345 
L 333.750622 479.59862 
L 337.22807 473.606366 
L 340.333569 468.255377 
L 344.858348 460.228893 
L 348.412789 453.323635 
L 350.507384 448.772199 
L 352.415464 444.175925 
L 354.696575 437.663707 
L 355.958908 433.473947 
L 357.300417 428.122958 
L 361.666772 409.394495 
L 365.176207 396.017022 
L 366.335129 390.666033 
L 367.264146 384.632551 
L 369.358741 369.695209 
L 370.00739 366.586581 
L 371.868632 358.560098 
L 373.116691 353.209108 
L 374.161858 347.858119 
L 374.537603 345.182625 
L 374.77162 342.50713 
L 374.830931 339.831635 
L 374.684405 337.156141 
L 374.318498 334.480646 
L 373.083978 329.129657 
L 371.453337 322.512584 
L 370.08877 315.752184 
L 368.983771 310.401195 
L 367.627661 305.050205 
L 366.779106 302.374711 
L 365.169551 298.343781 
L 364.553104 297.023721 
L 363.043789 294.348227 
L 360.931787 291.672732 
L 358.885765 290.07945 
L 356.79117 289.137157 
L 354.696575 288.710774 
L 352.601979 288.625334 
L 350.507384 288.780189 
L 346.318194 289.565079 
L 342.129003 290.766928 
L 337.939812 292.289109 
L 333.750622 294.083929 
L 327.966974 297.023721 
L 325.372241 298.490353 
L 319.493757 302.374711 
L 316.99386 304.120385 
L 312.074224 307.7257 
L 304.426288 312.93568 
L 302.331693 314.177842 
L 298.142503 316.519322 
L 283.480336 324.157741 
L 279.906093 326.454162 
L 277.19655 328.322996 
L 270.912764 333.281075 
L 263.625734 339.831635 
L 260.439788 342.8789 
L 254.156002 349.227908 
L 239.493835 364.673453 
L 231.115454 372.972265 
L 226.895282 377.28856 
L 221.99589 382.639549 
L 216.453287 389.162582 
L 208.074906 399.032938 
L 199.696525 408.633763 
L 197.60193 411.248721 
L 195.507335 414.096131 
L 195.045517 414.745485 
L 193.324087 417.420979 
L 191.318144 421.031463 
L 189.1548 425.447463 
L 185.034358 434.207912 
L 182.630067 438.824936 
L 178.043593 446.85142 
L 168.277596 463.781986 
L 163.779274 470.930872 
L 161.937096 473.606366 
L 157.80462 479.065677 
L 151.478279 486.983839 
L 149.426239 489.779154 
L 147.331644 492.952106 
L 145.237048 496.590363 
L 143.142453 500.72998 
L 139.549938 508.387796 
L 137.221192 513.738785 
L 136.16126 516.41428 
L 134.764072 520.81496 
L 134.477516 521.765269 
L 133.92126 524.440764 
L 133.689522 527.116258 
L 134.283999 529.791753 
L 134.764072 530.333721 
L 136.858667 531.193666 
L 143.142453 531.964127 
L 144.617368 532.467248 
L 145.237048 532.839946 
L 147.332103 535.142742 
L 147.770606 537.818237 
L 146.926458 540.493732 
L 145.216391 543.169226 
L 141.557696 548.520215 
L 141.047858 549.392131 
L 140.130754 551.19571 
L 139.212374 553.871205 
L 139.298227 556.546699 
L 141.047858 558.059871 
L 143.142453 558.149337 
L 145.237048 557.576131 
L 147.666773 556.546699 
L 151.791294 553.871205 
L 153.615429 552.162015 
L 154.849865 551.19571 
L 155.710025 549.766754 
L 156.705937 548.520215 
L 157.80462 545.0299 
L 158.687182 543.169226 
L 159.899215 541.867616 
L 161.99381 540.680816 
L 164.088406 540.909358 
L 165.480696 543.169226 
L 164.493026 545.844721 
L 162.984335 548.520215 
L 162.465169 551.19571 
L 163.33966 553.871205 
L 166.214654 556.546699 
L 168.277596 557.346204 
L 170.372192 557.952068 
L 174.561382 558.81995 
L 178.750573 559.542204 
L 185.034358 560.504067 
L 189.223549 560.862785 
L 195.507335 561.199226 
L 197.60193 561.568396 
L 199.696525 562.279815 
L 201.79112 563.45687 
L 203.885716 565.060443 
L 207.002142 567.248678 
L 208.074906 567.782194 
L 208.074906 567.782194 
" style="fill:none;stroke:#4c72b0;stroke-width:1.5;"/>
    <path clip-path="url(#p588f422284)" d="M 109.628929 561.920657 
L 109.834108 561.897688 
L 111.723524 561.662451 
L 113.818119 560.664162 
L 115.912715 559.286332 
L 115.990451 559.222194 
L 118.00731 557.307796 
L 118.743298 556.546699 
L 120.101905 554.825383 
L 120.838808 553.871205 
L 122.196501 551.58472 
L 122.437641 551.19571 
L 123.574842 548.520215 
L 124.291096 545.965342 
L 124.329596 545.844721 
L 124.363082 543.169226 
L 124.291096 543.00046 
L 122.196501 541.69173 
L 120.101905 542.091208 
L 118.00731 543.050964 
L 117.846552 543.169226 
L 115.912715 544.517482 
L 114.415818 545.844721 
L 113.818119 546.386196 
L 111.912226 548.520215 
L 111.723524 548.754044 
L 110.052882 551.19571 
L 109.628929 551.945938 
L 108.656508 553.871205 
L 107.68724 556.546699 
L 107.534334 558.079804 
L 107.427669 559.222194 
L 107.534334 559.598343 
L 109.568053 561.897688 
L 109.628929 561.920657 
" style="fill:none;stroke:#4c72b0;stroke-width:1.5;"/>
    <path clip-path="url(#p588f422284)" d="M 115.912715 516.535175 
L 115.986997 516.41428 
L 115.912715 516.296301 
L 115.796764 516.41428 
L 115.912715 516.535175 
" style="fill:none;stroke:#4c72b0;stroke-width:1.5;"/>
   </g>
   <g id="LineCollection_3">
    <path clip-path="url(#p588f422284)" d="M 216.453287 557.976041 
L 218.547883 558.357432 
L 220.642478 557.896406 
L 223.405593 556.546699 
L 224.831668 555.405112 
L 226.926264 553.377059 
L 228.57438 551.19571 
L 229.999597 548.520215 
L 232.125348 543.169226 
L 233.631182 540.493732 
L 236.139978 537.818237 
L 237.39924 536.937334 
L 240.367542 535.142742 
L 243.683026 533.757218 
L 247.872216 532.266512 
L 252.061407 530.922151 
L 258.345193 528.578777 
L 262.534383 526.743125 
L 267.337247 524.440764 
L 273.007359 521.409346 
L 277.19655 518.837444 
L 280.545257 516.41428 
L 283.645799 513.738785 
L 287.669526 509.665371 
L 293.953312 502.798274 
L 298.964927 497.685818 
L 310.710074 486.426735 
L 316.99386 479.935838 
L 323.277646 472.852492 
L 331.731247 462.904388 
L 335.908108 457.553398 
L 337.939812 454.634256 
L 340.034408 451.230833 
L 342.129003 447.244476 
L 342.317888 446.85142 
L 344.223598 442.121013 
L 344.446662 441.500431 
L 345.978426 436.149441 
L 347.137232 430.798452 
L 349.304728 420.096474 
L 350.577938 414.745485 
L 352.786976 406.719001 
L 355.061406 398.692517 
L 356.416352 393.341528 
L 358.709687 382.639549 
L 360.463986 374.613065 
L 363.469273 361.235592 
L 364.32971 355.884603 
L 364.582587 353.209108 
L 364.670897 350.533614 
L 364.557247 347.858119 
L 364.217314 345.182625 
L 363.658601 342.50713 
L 362.126722 337.156141 
L 358.759612 326.454162 
L 356.641771 321.103173 
L 354.225337 315.752184 
L 352.601979 312.540379 
L 350.507384 309.442585 
L 348.412789 307.507694 
L 346.318194 306.465609 
L 344.223598 305.980135 
L 342.129003 305.89025 
L 340.034408 306.083861 
L 337.939812 306.487104 
L 335.845217 307.052239 
L 333.750622 307.74899 
L 329.561431 309.470909 
L 325.372241 311.512715 
L 321.18305 313.794676 
L 314.899265 317.501883 
L 306.520884 322.599913 
L 300.237098 326.283716 
L 295.102438 329.129657 
L 289.764121 332.060184 
L 285.574931 334.50037 
L 281.38574 337.156141 
L 277.19655 340.073865 
L 273.007359 343.263342 
L 267.537717 347.858119 
L 264.579564 350.533614 
L 260.439788 354.495109 
L 256.250597 358.835746 
L 249.966811 365.796089 
L 242.315295 374.613065 
L 233.428794 385.315044 
L 227.640827 393.341528 
L 224.3149 398.692517 
L 218.019759 409.394495 
L 214.358692 415.013449 
L 210.169502 420.82979 
L 204.62186 428.122958 
L 198.505532 436.149441 
L 194.638334 441.500431 
L 191.055454 446.85142 
L 187.77943 452.202409 
L 184.788508 457.553398 
L 180.617306 465.579882 
L 172.618557 481.63285 
L 169.23487 489.659334 
L 168.277596 493.008909 
L 167.806903 495.010323 
L 167.415095 497.685818 
L 167.216051 500.361312 
L 167.190506 505.712302 
L 167.369806 508.387796 
L 167.850492 511.063291 
L 168.964165 513.738785 
L 170.372192 515.423311 
L 171.34638 516.41428 
L 172.466787 517.157803 
L 175.799646 519.089775 
L 187.971299 524.440764 
L 189.223549 525.150787 
L 191.800558 527.116258 
L 193.412739 528.698691 
L 195.507335 531.385455 
L 199.815995 537.818237 
L 201.79112 539.891314 
L 203.885716 541.26674 
L 205.980311 542.111794 
L 208.074906 542.629436 
L 210.998158 543.169226 
L 212.264097 543.638005 
L 214.358692 545.19298 
L 214.829656 545.844721 
L 214.817217 548.520215 
L 214.336247 551.19571 
L 214.127108 553.871205 
L 214.358692 555.038711 
L 214.79417 556.546699 
L 216.453287 557.976041 
L 216.453287 557.976041 
" style="fill:none;stroke:#4c72b0;stroke-width:1.5;"/>
   </g>
   <g id="LineCollection_4">
    <path clip-path="url(#p588f422284)" d="M 210.169502 532.657777 
L 212.264097 533.111743 
L 214.358692 533.178567 
L 216.453287 532.950943 
L 218.566631 532.467248 
L 220.642478 531.873829 
L 222.737073 531.117431 
L 226.926264 529.201127 
L 237.39924 524.125195 
L 241.58843 522.640299 
L 252.061407 519.573503 
L 254.156002 518.738741 
L 256.250597 517.730854 
L 258.622343 516.41428 
L 262.512966 513.738785 
L 264.628978 512.051296 
L 268.874475 508.387796 
L 275.131692 503.036807 
L 282.040235 497.685818 
L 287.669526 493.468007 
L 293.953312 488.457595 
L 298.723736 484.308345 
L 302.331693 480.948203 
L 306.949226 476.281861 
L 310.710074 472.137145 
L 314.899265 467.127895 
L 319.088455 461.752532 
L 322.223549 457.553398 
L 325.979336 452.202409 
L 329.561431 446.479009 
L 331.656027 442.616713 
L 332.221958 441.500431 
L 334.567078 436.149441 
L 336.537154 430.798452 
L 339.147729 422.771968 
L 348.412789 392.074795 
L 350.939474 382.639549 
L 352.907568 374.613065 
L 353.999746 369.262076 
L 354.696575 364.242044 
L 354.734896 363.911087 
L 354.872419 361.235592 
L 354.696575 357.406029 
L 354.518389 355.884603 
L 353.966808 353.209108 
L 352.601979 348.733769 
L 350.507384 343.048133 
L 349.201247 339.831635 
L 347.974497 337.156141 
L 346.318194 334.089825 
L 344.223598 330.878243 
L 342.129003 328.249167 
L 340.034408 326.252739 
L 337.939812 324.92124 
L 335.845217 324.148403 
L 333.750622 323.807272 
L 331.656027 323.782153 
L 329.561431 323.984765 
L 327.466836 324.355148 
L 323.277646 325.463079 
L 319.088455 326.924052 
L 314.899265 328.630726 
L 306.520884 332.572746 
L 297.688909 337.156141 
L 291.858717 340.284957 
L 287.669526 342.654559 
L 283.480336 345.207788 
L 279.291145 348.029972 
L 275.101955 351.18177 
L 270.912764 354.695613 
L 266.723574 358.590621 
L 262.534383 362.840831 
L 258.345193 367.447526 
L 254.156002 372.364282 
L 249.966811 377.57903 
L 245.777621 383.197635 
L 242.510679 387.990538 
L 239.259335 393.341528 
L 231.115454 407.508418 
L 228.128952 412.06999 
L 224.267429 417.420979 
L 218.547883 424.736968 
L 212.264097 432.773695 
L 209.743717 436.149441 
L 205.980311 441.56386 
L 202.660835 446.85142 
L 199.696525 452.202409 
L 197.145324 457.553398 
L 194.954638 462.904388 
L 193.08669 468.255377 
L 191.318144 474.448506 
L 190.280241 478.957355 
L 189.371542 484.308345 
L 189.102266 486.983839 
L 188.995791 489.659334 
L 189.223549 493.281573 
L 189.442858 495.010323 
L 190.058887 497.685818 
L 191.318144 501.097679 
L 192.116696 503.036807 
L 201.79112 522.547399 
L 202.664038 524.440764 
L 204.085732 527.116258 
L 205.980311 529.817593 
L 208.074906 531.637955 
L 210.169502 532.657777 
L 210.169502 532.657777 
" style="fill:none;stroke:#4c72b0;stroke-width:1.5;"/>
   </g>
   <g id="LineCollection_5">
    <path clip-path="url(#p588f422284)" d="M 214.358692 525.408376 
L 216.453287 525.776558 
L 218.547883 525.616964 
L 220.642478 525.080853 
L 222.737073 524.238139 
L 224.831668 523.119093 
L 227.040437 521.765269 
L 231.115454 518.727914 
L 237.39924 513.661265 
L 239.493835 512.133985 
L 241.58843 510.831965 
L 243.683026 509.714672 
L 247.872216 507.893238 
L 252.061407 506.161429 
L 256.250597 504.108215 
L 260.439788 501.558489 
L 265.763099 497.685818 
L 269.150018 495.010323 
L 278.869125 486.983839 
L 282.180797 484.308345 
L 287.669526 480.030103 
L 293.953312 475.221482 
L 298.142503 471.78021 
L 302.331693 467.95496 
L 306.520884 463.634283 
L 310.710074 458.769326 
L 314.899265 453.306214 
L 317.52874 449.526915 
L 321.18305 443.743534 
L 323.974443 438.824936 
L 326.693745 433.473947 
L 329.561431 427.063492 
L 331.294677 422.771968 
L 333.750622 415.941303 
L 335.035628 412.06999 
L 337.939812 402.319218 
L 339.674564 396.017022 
L 342.129003 386.156455 
L 342.892314 382.639549 
L 343.864343 377.28856 
L 344.223598 374.542933 
L 344.41971 371.937571 
L 344.457879 369.262076 
L 344.223598 365.997784 
L 343.929397 363.911087 
L 343.364589 361.235592 
L 342.129003 356.954726 
L 341.793483 355.884603 
L 340.034408 351.26384 
L 339.725385 350.533614 
L 337.939812 347.029207 
L 335.845217 343.872743 
L 333.750622 341.479521 
L 331.656027 339.704482 
L 329.561431 338.490378 
L 327.466836 337.733145 
L 325.372241 337.350718 
L 323.277646 337.261919 
L 321.18305 337.397437 
L 319.088455 337.704634 
L 314.899265 338.701497 
L 310.710074 340.08425 
L 306.520884 341.740978 
L 300.237098 344.625954 
L 293.953312 347.858119 
L 287.669526 351.425419 
L 283.480336 354.061278 
L 279.291145 356.99909 
L 275.101955 360.315092 
L 270.912764 364.057986 
L 266.723574 368.244557 
L 262.534383 372.847699 
L 258.345193 377.854031 
L 254.156002 383.311958 
L 250.872642 387.990538 
L 247.450243 393.341528 
L 241.58843 403.333559 
L 237.39924 410.386533 
L 232.869291 417.420979 
L 229.020859 422.986143 
L 222.737073 431.936538 
L 219.98553 436.149441 
L 216.978313 441.500431 
L 214.588436 446.85142 
L 212.754254 452.202409 
L 205.980311 476.362101 
L 204.434433 481.63285 
L 203.235798 486.983839 
L 202.850311 489.659334 
L 202.650625 492.334828 
L 202.63743 495.010323 
L 202.803989 497.685818 
L 203.142817 500.361312 
L 203.885716 503.962662 
L 204.302088 505.712302 
L 205.10325 508.387796 
L 208.074906 516.587586 
L 209.039175 519.089775 
L 210.287326 521.765269 
L 212.511496 524.440764 
L 214.358692 525.408376 
L 214.358692 525.408376 
" style="fill:none;stroke:#4c72b0;stroke-width:1.5;"/>
   </g>
   <g id="LineCollection_6">
    <path clip-path="url(#p588f422284)" d="M 218.547883 514.90236 
L 220.642478 515.44418 
L 222.737073 514.888712 
L 224.831668 513.654162 
L 227.476897 511.063291 
L 229.69675 508.387796 
L 233.210049 503.952053 
L 235.304645 501.611615 
L 237.39924 499.638904 
L 240.192929 497.685818 
L 241.58843 496.90959 
L 243.683026 496.10831 
L 245.777621 495.594474 
L 252.061407 494.450002 
L 254.156002 493.860795 
L 256.250597 493.104615 
L 258.345193 492.158794 
L 260.439788 490.981885 
L 262.536717 489.659334 
L 266.723574 486.446256 
L 270.912764 482.679404 
L 275.101955 478.52766 
L 283.480336 469.969935 
L 287.669526 466.076275 
L 291.858717 462.619086 
L 302.331693 454.707814 
L 305.203443 452.202409 
L 306.520884 450.999374 
L 310.425893 446.85142 
L 310.710074 446.538594 
L 312.804669 443.971474 
L 314.899265 441.149349 
L 318.166974 436.149441 
L 319.738521 433.473947 
L 322.536871 428.122958 
L 323.784128 425.447463 
L 325.985632 420.096474 
L 327.831866 414.745485 
L 329.355732 409.394495 
L 330.583453 404.043506 
L 331.656027 397.869944 
L 332.206352 393.341528 
L 332.609818 387.990538 
L 332.943837 379.964055 
L 333.076332 371.937571 
L 332.988987 369.262076 
L 332.778107 366.586581 
L 332.4026 363.911087 
L 331.656027 360.71743 
L 330.945531 358.560098 
L 329.561431 355.628917 
L 327.466836 352.690111 
L 325.122017 350.533614 
L 323.277646 349.409807 
L 321.18305 348.580059 
L 319.088455 348.136454 
L 316.99386 348.009484 
L 314.899265 348.137575 
L 312.804669 348.470151 
L 310.710074 348.968802 
L 308.615479 349.605962 
L 304.426288 351.229293 
L 300.231048 353.209108 
L 295.283306 355.884603 
L 289.764121 359.184665 
L 285.574931 361.889682 
L 281.38574 364.828222 
L 277.19655 368.081763 
L 273.007359 371.720076 
L 268.818169 375.806518 
L 264.628978 380.327178 
L 260.436079 385.315044 
L 256.250597 390.810709 
L 252.061407 396.914761 
L 247.621623 404.043506 
L 229.020859 435.445589 
L 227.229086 438.824936 
L 224.738949 444.175925 
L 222.624632 449.526915 
L 220.642478 455.239677 
L 212.775219 478.957355 
L 211.287859 484.308345 
L 210.693784 486.983839 
L 210.169502 490.213325 
L 209.929322 492.334828 
L 209.823512 495.010323 
L 209.947826 497.685818 
L 210.350081 500.361312 
L 211.099626 503.036807 
L 212.264097 505.911801 
L 214.358692 509.67438 
L 215.329308 511.063291 
L 216.453287 512.868378 
L 217.280174 513.738785 
L 218.547883 514.90236 
L 218.547883 514.90236 
" style="fill:none;stroke:#4c72b0;stroke-width:1.5;"/>
   </g>
   <g id="LineCollection_7">
    <path clip-path="url(#p588f422284)" d="M 218.547883 498.791085 
L 220.642478 499.793181 
L 222.737073 499.603071 
L 224.831668 498.604471 
L 226.926264 496.970916 
L 229.020859 494.914085 
L 233.528883 489.659334 
L 235.808492 486.983839 
L 237.39924 485.218148 
L 239.493835 483.314253 
L 242.054379 481.63285 
L 243.683026 480.821131 
L 245.777621 480.145834 
L 247.872216 479.76158 
L 249.966811 479.605011 
L 256.250597 479.608323 
L 258.345193 479.346988 
L 260.439788 478.789198 
L 262.534383 477.894464 
L 265.212015 476.281861 
L 266.723574 475.237507 
L 268.818169 473.552041 
L 273.007359 469.705699 
L 282.607413 460.228893 
L 287.669526 455.674832 
L 291.89631 452.202409 
L 304.426288 442.617288 
L 306.520884 440.740857 
L 308.615479 438.66256 
L 310.849675 436.149441 
L 312.938351 433.473947 
L 314.899265 430.606371 
L 316.99386 427.026801 
L 319.101366 422.771968 
L 321.18305 417.360408 
L 321.955663 414.745485 
L 322.622569 412.06999 
L 323.277646 408.532072 
L 323.524522 406.719001 
L 323.733671 404.043506 
L 323.790059 401.368011 
L 323.700833 398.692517 
L 323.228329 393.341528 
L 322.786242 387.990538 
L 322.729078 385.315044 
L 322.958212 379.964055 
L 323.338122 374.613065 
L 323.402004 371.937571 
L 323.277646 369.262076 
L 322.83212 366.586581 
L 321.943227 363.911087 
L 321.18305 362.500902 
L 320.319514 361.235592 
L 319.088455 359.986319 
L 316.99386 358.539859 
L 314.899265 357.839921 
L 312.804669 357.563346 
L 310.710074 357.631962 
L 308.615479 357.979539 
L 306.504291 358.560098 
L 304.426288 359.370176 
L 300.583047 361.235592 
L 298.142503 362.658213 
L 293.953312 365.369868 
L 287.669526 369.806967 
L 279.291145 375.991832 
L 274.306248 379.964055 
L 270.912764 382.878103 
L 266.723574 386.871291 
L 262.534383 391.38923 
L 258.345193 396.538596 
L 254.880842 401.368011 
L 252.061407 405.673769 
L 248.216275 412.06999 
L 243.683026 420.129789 
L 239.396507 428.122958 
L 235.375965 436.149441 
L 231.793975 444.175925 
L 229.020859 451.276784 
L 226.780144 457.553398 
L 221.317499 473.606366 
L 220.360321 476.281861 
L 217.746775 484.308345 
L 217.057189 486.983839 
L 216.453287 490.616665 
L 216.331019 492.334828 
L 216.561608 495.010323 
L 217.675282 497.685818 
L 218.547883 498.791085 
L 218.547883 498.791085 
" style="fill:none;stroke:#4c72b0;stroke-width:1.5;"/>
   </g>
   <g id="LineCollection_8">
    <path clip-path="url(#p588f422284)" d="M 239.493835 466.149258 
L 241.58843 466.655543 
L 245.777621 467.303331 
L 249.966811 467.69522 
L 254.156002 467.827347 
L 258.345193 467.618159 
L 260.439788 467.315775 
L 262.534383 466.822486 
L 264.628978 466.095458 
L 266.723574 465.137133 
L 268.818169 463.959686 
L 273.007359 461.013146 
L 279.291145 455.73362 
L 289.764121 446.500543 
L 302.331693 435.785113 
L 304.764054 433.473947 
L 307.241867 430.798452 
L 309.372694 428.122958 
L 311.179172 425.447463 
L 312.804669 422.541272 
L 313.881605 420.096474 
L 314.899265 417.331974 
L 315.543507 414.745485 
L 315.979727 412.06999 
L 316.15704 409.394495 
L 316.05747 406.719001 
L 315.690799 404.043506 
L 314.899265 400.590633 
L 311.777373 390.666033 
L 311.380887 387.990538 
L 311.323025 385.315044 
L 311.514935 382.639549 
L 312.079324 377.28856 
L 312.100967 374.613065 
L 311.594211 371.937571 
L 310.710074 370.331109 
L 309.689227 369.262076 
L 308.615479 368.687195 
L 306.520884 368.321572 
L 304.426288 368.524553 
L 301.946521 369.262076 
L 300.237098 370.034535 
L 296.770482 371.937571 
L 293.953312 373.725221 
L 287.669526 378.02367 
L 277.19655 385.436662 
L 273.007359 388.623911 
L 268.818169 392.160771 
L 264.846648 396.017022 
L 264.628978 396.23993 
L 262.410884 398.692517 
L 260.209365 401.368011 
L 258.191252 404.043506 
L 256.250597 406.840473 
L 253.001569 412.06999 
L 249.966811 417.443382 
L 245.777621 425.73192 
L 242.272085 433.473947 
L 239.493835 440.368797 
L 238.119147 444.175925 
L 237.229383 446.85142 
L 235.774856 452.202409 
L 235.220432 454.877904 
L 234.906451 457.553398 
L 234.891014 460.228893 
L 235.453055 462.904388 
L 237.39924 465.224747 
L 238.038464 465.579882 
L 239.493835 466.149258 
L 239.493835 466.149258 
" style="fill:none;stroke:#4c72b0;stroke-width:1.5;"/>
   </g>
   <g id="LineCollection_9">
    <path clip-path="url(#p588f422284)" d="M 252.061407 455.159555 
L 254.156002 456.170546 
L 256.250597 456.814275 
L 258.345193 457.135164 
L 260.439788 457.1719 
L 262.534383 456.954463 
L 264.628978 456.502218 
L 266.723574 455.826708 
L 268.818169 454.937736 
L 268.929179 454.877904 
L 270.912764 453.786745 
L 273.007359 452.475529 
L 273.390772 452.202409 
L 275.101955 450.935808 
L 276.903853 449.526915 
L 277.19655 449.281717 
L 279.291145 447.446757 
L 279.962455 446.85142 
L 281.38574 445.477565 
L 282.768078 444.175925 
L 283.480336 443.424604 
L 285.401035 441.500431 
L 285.574931 441.29976 
L 287.669526 439.036472 
L 287.87959 438.824936 
L 289.764121 436.636799 
L 290.226833 436.149441 
L 291.858717 434.128706 
L 292.449318 433.473947 
L 293.953312 431.47896 
L 294.529579 430.798452 
L 296.047907 428.614722 
L 296.429778 428.122958 
L 298.08647 425.447463 
L 298.142503 425.315531 
L 299.324263 422.771968 
L 300.11105 420.096474 
L 300.091883 417.420979 
L 298.782267 414.745485 
L 298.142503 414.055451 
L 296.047907 412.06999 
L 294.032229 409.394495 
L 293.953312 409.224945 
L 293.236523 406.719001 
L 292.985738 404.043506 
L 293.02591 401.368011 
L 293.201715 398.692517 
L 293.401032 396.017022 
L 293.495162 393.341528 
L 293.199129 390.666033 
L 291.858717 388.492105 
L 290.282046 387.990538 
L 289.764121 387.918153 
L 289.368005 387.990538 
L 287.669526 388.306428 
L 285.574931 389.082353 
L 283.480336 390.025268 
L 282.272574 390.666033 
L 281.38574 391.15118 
L 279.291145 392.424239 
L 277.860575 393.341528 
L 277.19655 393.787356 
L 275.101955 395.283415 
L 274.121579 396.017022 
L 273.007359 396.899217 
L 270.912764 398.604686 
L 270.812359 398.692517 
L 268.818169 400.543537 
L 267.964902 401.368011 
L 266.723574 402.653619 
L 265.439512 404.043506 
L 264.628978 404.988803 
L 263.214509 406.719001 
L 262.534383 407.614791 
L 261.24919 409.394495 
L 260.439788 410.593217 
L 259.492113 412.06999 
L 258.345193 413.959019 
L 257.890838 414.745485 
L 256.428877 417.420979 
L 256.250597 417.773303 
L 255.135305 420.096474 
L 254.156002 422.167516 
L 253.883871 422.771968 
L 252.766372 425.447463 
L 252.061407 427.166743 
L 251.690187 428.122958 
L 250.715556 430.798452 
L 249.966811 432.898663 
L 249.772963 433.473947 
L 248.965983 436.149441 
L 248.217877 438.824936 
L 247.872216 440.368411 
L 247.629437 441.500431 
L 247.271511 444.175925 
L 247.219423 446.85142 
L 247.652093 449.526915 
L 247.872216 450.087529 
L 248.924191 452.202409 
L 249.966811 453.411374 
L 251.615667 454.877904 
L 252.061407 455.159555 
" style="fill:none;stroke:#4c72b0;stroke-width:1.5;"/>
   </g>
   <g id="LineCollection_10"/>
   <g id="patch_3">
    <path d="M 78.21 655.54 
L 78.21 123.116571 
" style="fill:none;stroke:#ffffff;stroke-linecap:square;stroke-linejoin:miter;stroke-width:1.25;"/>
   </g>
   <g id="patch_4">
    <path d="M 78.21 655.54 
L 495.034457 655.54 
" style="fill:none;stroke:#ffffff;stroke-linecap:square;stroke-linejoin:miter;stroke-width:1.25;"/>
   </g>
  </g>
  <g id="axes_2">
   <g id="patch_5">
    <path d="M 78.21 104.757143 
L 599.240571 104.757143 
L 599.240571 12.96 
L 78.21 12.96 
z
" style="fill:#eaeaf2;"/>
   </g>
   <g id="matplotlib.axis_3">
    <g id="xtick_4">
     <g id="line2d_10">
      <path clip-path="url(#pee436586c0)" d="M 122.840258 104.757143 
L 122.840258 12.96 
" style="fill:none;stroke:#ffffff;stroke-linecap:round;"/>
     </g>
    </g>
    <g id="xtick_5">
     <g id="line2d_11">
      <path clip-path="url(#pee436586c0)" d="M 352.771423 104.757143 
L 352.771423 12.96 
" style="fill:none;stroke:#ffffff;stroke-linecap:round;"/>
     </g>
    </g>
    <g id="xtick_6">
     <g id="line2d_12">
      <path clip-path="url(#pee436586c0)" d="M 582.702589 104.757143 
L 582.702589 12.96 
" style="fill:none;stroke:#ffffff;stroke-linecap:round;"/>
     </g>
    </g>
   </g>
   <g id="matplotlib.axis_4">
    <g id="ytick_7"/>
    <g id="ytick_8"/>
   </g>
   <g id="line2d_13">
    <path clip-path="url(#pee436586c0)" d="M 90.367317 104.597528 
L 95.359437 104.184651 
L 97.855497 103.756042 
L 100.351557 103.097201 
L 102.847617 102.147291 
L 105.343677 100.866256 
L 107.839737 99.256738 
L 112.831857 95.384435 
L 115.327917 93.458179 
L 117.823977 91.837473 
L 120.320037 90.740369 
L 122.816097 90.318391 
L 125.312157 90.614831 
L 127.808217 91.547151 
L 130.304277 92.919632 
L 135.296397 95.887578 
L 137.792457 96.941895 
L 140.288517 97.454139 
L 142.784577 97.359472 
L 145.280637 96.704433 
L 147.776697 95.631301 
L 152.768817 93.068726 
L 155.264877 91.994496 
L 157.760937 91.243793 
L 160.256997 90.8455 
L 162.753057 90.740085 
L 170.241237 90.929418 
L 172.737297 90.798263 
L 175.233357 90.500227 
L 180.225477 89.51863 
L 187.713657 87.652696 
L 197.697897 84.960097 
L 202.690017 83.398187 
L 207.682137 81.560283 
L 212.674257 79.4545 
L 225.154557 73.807576 
L 227.650616 72.553565 
L 230.146676 71.126211 
L 232.642736 69.428435 
L 235.138796 67.36413 
L 237.634856 64.861249 
L 240.130916 61.898273 
L 242.626976 58.527883 
L 250.115156 47.739637 
L 252.611216 44.771676 
L 255.107276 42.516182 
L 257.603336 41.083891 
L 260.099396 40.452172 
L 262.595456 40.469594 
L 265.091516 40.890693 
L 267.587576 41.429829 
L 270.083636 41.818096 
L 272.579696 41.848504 
L 275.075756 41.400613 
L 277.571816 40.443343 
L 280.067876 39.020669 
L 282.563936 37.22776 
L 287.556056 33.014846 
L 292.548176 28.703957 
L 295.044236 26.708338 
L 297.540296 24.87656 
L 300.036356 23.229474 
L 302.532416 21.77805 
L 305.028476 20.528612 
L 307.524536 19.485607 
L 310.020596 18.651911 
L 312.516656 18.027475 
L 315.012716 17.607495 
L 317.508776 17.381117 
L 320.004836 17.33127 
L 322.500896 17.435749 
L 327.493016 18.00635 
L 332.485136 18.902499 
L 337.477256 19.996686 
L 344.965436 21.878043 
L 354.949676 24.409681 
L 364.933916 26.693602 
L 367.429976 27.428962 
L 369.926035 28.341196 
L 372.422095 29.482461 
L 374.918155 30.887457 
L 377.414215 32.565786 
L 379.910275 34.4985 
L 384.902395 38.924156 
L 392.390575 45.918812 
L 397.382695 50.23881 
L 407.366935 58.518141 
L 412.359055 63.105389 
L 419.847235 70.592302 
L 424.839355 75.553014 
L 429.831475 80.150503 
L 434.823595 84.244918 
L 439.815715 87.812771 
L 444.807835 90.880826 
L 449.799955 93.489718 
L 454.792075 95.694635 
L 459.784195 97.560066 
L 464.776315 99.129422 
L 469.768435 100.412774 
L 474.760555 101.421515 
L 479.752675 102.200671 
L 487.240855 103.062778 
L 494.729035 103.640292 
L 502.217215 103.99079 
L 512.201454 104.238511 
L 554.634474 104.697552 
L 587.083254 104.756677 
L 587.083254 104.756677 
" style="fill:none;stroke:#4c72b0;stroke-linecap:round;stroke-width:1.5;"/>
   </g>
   <g id="patch_6">
    <path d="M 78.21 104.757143 
L 599.240571 104.757143 
" style="fill:none;stroke:#ffffff;stroke-linecap:square;stroke-linejoin:miter;stroke-width:1.25;"/>
   </g>
  </g>
  <g id="axes_3">
   <g id="patch_7">
    <path d="M 617.207143 655.54 
L 707.04 655.54 
L 707.04 123.116571 
L 617.207143 123.116571 
z
" style="fill:#eaeaf2;"/>
   </g>
   <g id="matplotlib.axis_5">
    <g id="xtick_7"/>
    <g id="xtick_8"/>
   </g>
   <g id="matplotlib.axis_6">
    <g id="ytick_9">
     <g id="line2d_14">
      <path clip-path="url(#pdcfbe0d31a)" d="M 617.207143 612.794587 
L 707.04 612.794587 
" style="fill:none;stroke:#ffffff;stroke-linecap:round;"/>
     </g>
    </g>
    <g id="ytick_10">
     <g id="line2d_15">
      <path clip-path="url(#pdcfbe0d31a)" d="M 617.207143 515.307092 
L 707.04 515.307092 
" style="fill:none;stroke:#ffffff;stroke-linecap:round;"/>
     </g>
    </g>
    <g id="ytick_11">
     <g id="line2d_16">
      <path clip-path="url(#pdcfbe0d31a)" d="M 617.207143 417.819598 
L 707.04 417.819598 
" style="fill:none;stroke:#ffffff;stroke-linecap:round;"/>
     </g>
    </g>
    <g id="ytick_12">
     <g id="line2d_17">
      <path clip-path="url(#pdcfbe0d31a)" d="M 617.207143 320.332103 
L 707.04 320.332103 
" style="fill:none;stroke:#ffffff;stroke-linecap:round;"/>
     </g>
    </g>
    <g id="ytick_13">
     <g id="line2d_18">
      <path clip-path="url(#pdcfbe0d31a)" d="M 617.207143 222.844609 
L 707.04 222.844609 
" style="fill:none;stroke:#ffffff;stroke-linecap:round;"/>
     </g>
    </g>
    <g id="ytick_14">
     <g id="line2d_19">
      <path clip-path="url(#pdcfbe0d31a)" d="M 617.207143 125.357115 
L 707.04 125.357115 
" style="fill:none;stroke:#ffffff;stroke-linecap:round;"/>
     </g>
    </g>
   </g>
   <g id="line2d_20">
    <path clip-path="url(#pdcfbe0d31a)" d="M 617.343298 643.896116 
L 617.484056 641.337645 
L 617.737052 638.779174 
L 618.161278 636.220704 
L 618.823614 633.662233 
L 619.783917 631.103762 
L 621.072012 628.545292 
L 622.661497 625.986821 
L 626.256354 620.86988 
L 627.845377 618.311409 
L 628.974488 615.752938 
L 629.454364 613.194468 
L 629.200671 610.635997 
L 628.25829 608.077526 
L 626.788382 605.519056 
L 621.544119 597.843644 
L 620.163415 595.285173 
L 619.121011 592.726703 
L 618.416147 590.168232 
L 618.02339 587.609761 
L 617.925924 585.051291 
L 618.142952 582.49282 
L 618.745924 579.934349 
L 619.858895 577.375879 
L 621.63804 574.817408 
L 624.227099 572.258937 
L 627.692022 569.700467 
L 631.949305 567.141996 
L 641.498184 562.025055 
L 645.678363 559.466584 
L 648.630726 556.908113 
L 649.897547 554.349643 
L 649.33293 551.791172 
L 647.17566 549.232701 
L 640.70857 544.11576 
L 638.135431 541.55729 
L 637.084089 538.998819 
L 638.057569 536.440348 
L 641.172084 533.881878 
L 646.114771 531.323407 
L 658.420401 526.206466 
L 663.830039 523.647995 
L 667.640859 521.089524 
L 669.531494 518.531054 
L 669.736278 515.972583 
L 668.202258 510.855642 
L 668.293585 508.297171 
L 669.729884 505.7387 
L 672.459818 503.18023 
L 679.474662 498.063288 
L 682.327379 495.504818 
L 684.167345 492.946347 
L 685.0518 490.387876 
L 685.345025 487.829406 
L 685.503881 485.270935 
L 685.866774 482.712465 
L 686.546037 480.153994 
L 691.111816 467.361641 
L 692.142699 464.80317 
L 693.381395 462.244699 
L 694.822785 459.686229 
L 699.469631 452.010817 
L 700.744682 449.452346 
L 701.730278 446.893875 
L 702.387073 444.335405 
L 702.717957 441.776934 
L 702.762267 439.218463 
L 702.582027 436.659993 
L 701.811537 431.543051 
L 699.759243 421.309169 
L 698.598178 416.192228 
L 697.165881 411.075286 
L 696.295024 408.516816 
L 695.305662 405.958345 
L 692.972778 400.841404 
L 690.224943 395.724462 
L 682.801662 382.932109 
L 680.25461 377.815168 
L 677.821809 372.698226 
L 676.482502 370.139756 
L 674.970735 367.581285 
L 673.245109 365.022815 
L 671.296842 362.464344 
L 669.14947 359.905873 
L 664.460454 354.788932 
L 657.267656 347.11352 
L 652.751719 341.996579 
L 648.539753 336.879637 
L 644.668795 331.762696 
L 641.224015 326.645755 
L 638.266632 321.528813 
L 635.738918 316.411872 
L 633.497768 311.294931 
L 631.445055 306.17799 
L 629.571094 301.061048 
L 627.081299 293.385636 
L 624.894298 285.710224 
L 623.674525 280.593283 
L 622.747097 275.476342 
L 622.106092 270.3594 
L 618.928694 237.099282 
L 618.421503 226.865399 
L 617.531585 201.280693 
L 617.327571 185.929869 
L 617.227226 152.66975 
L 617.207614 134.760456 
L 617.207614 134.760456 
" style="fill:none;stroke:#4c72b0;stroke-linecap:round;stroke-width:1.5;"/>
   </g>
   <g id="patch_8">
    <path d="M 617.207143 655.54 
L 617.207143 123.116571 
" style="fill:none;stroke:#ffffff;stroke-linecap:square;stroke-linejoin:miter;stroke-width:1.25;"/>
   </g>
  </g>
  <g id="axes_4">
   <g id="patch_9">
    <path clip-path="url(#p724fad8d25)" d="M 521.085986 655.54 
L 521.085986 596.381841 
L 521.085986 182.27473 
L 521.085986 123.116571 
L 547.707157 123.116571 
L 547.707157 182.27473 
L 547.707157 596.381841 
L 547.707157 655.54 
z
" style="fill:#eaeaf2;stroke:#eaeaf2;stroke-linejoin:miter;stroke-width:0.01;"/>
   </g>
   <g id="matplotlib.axis_7"/>
   <g id="matplotlib.axis_8">
    <g id="ytick_15">
     <g id="line2d_21">
      <path clip-path="url(#p724fad8d25)" d="M 521.085986 655.54 
L 547.707157 655.54 
" style="fill:none;stroke:#ffffff;stroke-linecap:round;"/>
     </g>
     <g id="line2d_22">
      <defs>
       <path d="M 0 0 
L 6 0 
" id="m3fdbfe425a" style="stroke:#262626;stroke-width:1.25;"/>
      </defs>
      <g>
       <use style="fill:#262626;stroke:#262626;stroke-width:1.25;" x="547.707157" xlink:href="#m3fdbfe425a" y="655.54"/>
      </g>
     </g>
     <g id="text_12">
      <!-- 0.0438 -->
      <g style="fill:#262626;" transform="translate(557.207157 666.276719)scale(0.3 -0.3)">
       <defs>
        <path d="M 4.203125 18.890625 
L 12.984375 20.0625 
Q 14.5 12.59375 18.140625 9.296875 
Q 21.78125 6 27 6 
Q 33.203125 6 37.46875 10.296875 
Q 41.75 14.59375 41.75 20.953125 
Q 41.75 27 37.796875 30.921875 
Q 33.84375 34.859375 27.734375 34.859375 
Q 25.25 34.859375 21.53125 33.890625 
L 22.515625 41.609375 
Q 23.390625 41.5 23.921875 41.5 
Q 29.546875 41.5 34.03125 44.421875 
Q 38.53125 47.359375 38.53125 53.46875 
Q 38.53125 58.296875 35.25 61.46875 
Q 31.984375 64.65625 26.8125 64.65625 
Q 21.6875 64.65625 18.265625 61.421875 
Q 14.84375 58.203125 13.875 51.765625 
L 5.078125 53.328125 
Q 6.6875 62.15625 12.390625 67.015625 
Q 18.109375 71.875 26.609375 71.875 
Q 32.46875 71.875 37.390625 69.359375 
Q 42.328125 66.84375 44.9375 62.5 
Q 47.5625 58.15625 47.5625 53.265625 
Q 47.5625 48.640625 45.0625 44.828125 
Q 42.578125 41.015625 37.703125 38.765625 
Q 44.046875 37.3125 47.5625 32.6875 
Q 51.078125 28.078125 51.078125 21.140625 
Q 51.078125 11.765625 44.234375 5.25 
Q 37.40625 -1.265625 26.953125 -1.265625 
Q 17.53125 -1.265625 11.296875 4.34375 
Q 5.078125 9.96875 4.203125 18.890625 
z
" id="ArialMT-51"/>
        <path d="M 17.671875 38.8125 
Q 12.203125 40.828125 9.5625 44.53125 
Q 6.9375 48.25 6.9375 53.421875 
Q 6.9375 61.234375 12.546875 66.546875 
Q 18.171875 71.875 27.484375 71.875 
Q 36.859375 71.875 42.578125 66.421875 
Q 48.296875 60.984375 48.296875 53.171875 
Q 48.296875 48.1875 45.671875 44.5 
Q 43.0625 40.828125 37.75 38.8125 
Q 44.34375 36.671875 47.78125 31.875 
Q 51.21875 27.09375 51.21875 20.453125 
Q 51.21875 11.28125 44.71875 5.03125 
Q 38.234375 -1.21875 27.640625 -1.21875 
Q 17.046875 -1.21875 10.546875 5.046875 
Q 4.046875 11.328125 4.046875 20.703125 
Q 4.046875 27.6875 7.59375 32.390625 
Q 11.140625 37.109375 17.671875 38.8125 
z
M 15.921875 53.71875 
Q 15.921875 48.640625 19.1875 45.40625 
Q 22.46875 42.1875 27.6875 42.1875 
Q 32.765625 42.1875 36.015625 45.375 
Q 39.265625 48.578125 39.265625 53.21875 
Q 39.265625 58.0625 35.90625 61.359375 
Q 32.5625 64.65625 27.59375 64.65625 
Q 22.5625 64.65625 19.234375 61.421875 
Q 15.921875 58.203125 15.921875 53.71875 
z
M 13.09375 20.65625 
Q 13.09375 16.890625 14.875 13.375 
Q 16.65625 9.859375 20.171875 7.921875 
Q 23.6875 6 27.734375 6 
Q 34.03125 6 38.125 10.046875 
Q 42.234375 14.109375 42.234375 20.359375 
Q 42.234375 26.703125 38.015625 30.859375 
Q 33.796875 35.015625 27.4375 35.015625 
Q 21.234375 35.015625 17.15625 30.90625 
Q 13.09375 26.8125 13.09375 20.65625 
z
" id="ArialMT-56"/>
       </defs>
       <use xlink:href="#ArialMT-48"/>
       <use x="55.615234" xlink:href="#ArialMT-46"/>
       <use x="83.398438" xlink:href="#ArialMT-48"/>
       <use x="139.013672" xlink:href="#ArialMT-52"/>
       <use x="194.628906" xlink:href="#ArialMT-51"/>
       <use x="250.244141" xlink:href="#ArialMT-56"/>
      </g>
     </g>
    </g>
    <g id="ytick_16">
     <g id="line2d_23">
      <path clip-path="url(#p724fad8d25)" d="M 521.085986 596.381841 
L 547.707157 596.381841 
" style="fill:none;stroke:#ffffff;stroke-linecap:round;"/>
     </g>
     <g id="line2d_24">
      <g>
       <use style="fill:#262626;stroke:#262626;stroke-width:1.25;" x="547.707157" xlink:href="#m3fdbfe425a" y="596.381841"/>
      </g>
     </g>
     <g id="text_13">
      <!-- 0.1338 -->
      <g style="fill:#262626;" transform="translate(557.207157 607.11856)scale(0.3 -0.3)">
       <use xlink:href="#ArialMT-48"/>
       <use x="55.615234" xlink:href="#ArialMT-46"/>
       <use x="83.398438" xlink:href="#ArialMT-49"/>
       <use x="139.013672" xlink:href="#ArialMT-51"/>
       <use x="194.628906" xlink:href="#ArialMT-51"/>
       <use x="250.244141" xlink:href="#ArialMT-56"/>
      </g>
     </g>
    </g>
    <g id="ytick_17">
     <g id="line2d_25">
      <path clip-path="url(#p724fad8d25)" d="M 521.085986 537.223683 
L 547.707157 537.223683 
" style="fill:none;stroke:#ffffff;stroke-linecap:round;"/>
     </g>
     <g id="line2d_26">
      <g>
       <use style="fill:#262626;stroke:#262626;stroke-width:1.25;" x="547.707157" xlink:href="#m3fdbfe425a" y="537.223683"/>
      </g>
     </g>
     <g id="text_14">
      <!-- 0.2222 -->
      <g style="fill:#262626;" transform="translate(557.207157 547.960401)scale(0.3 -0.3)">
       <use xlink:href="#ArialMT-48"/>
       <use x="55.615234" xlink:href="#ArialMT-46"/>
       <use x="83.398438" xlink:href="#ArialMT-50"/>
       <use x="139.013672" xlink:href="#ArialMT-50"/>
       <use x="194.628906" xlink:href="#ArialMT-50"/>
       <use x="250.244141" xlink:href="#ArialMT-50"/>
      </g>
     </g>
    </g>
    <g id="ytick_18">
     <g id="line2d_27">
      <path clip-path="url(#p724fad8d25)" d="M 521.085986 478.065524 
L 547.707157 478.065524 
" style="fill:none;stroke:#ffffff;stroke-linecap:round;"/>
     </g>
     <g id="line2d_28">
      <g>
       <use style="fill:#262626;stroke:#262626;stroke-width:1.25;" x="547.707157" xlink:href="#m3fdbfe425a" y="478.065524"/>
      </g>
     </g>
     <g id="text_15">
      <!-- 0.3251 -->
      <g style="fill:#262626;" transform="translate(557.207157 488.802243)scale(0.3 -0.3)">
       <use xlink:href="#ArialMT-48"/>
       <use x="55.615234" xlink:href="#ArialMT-46"/>
       <use x="83.398438" xlink:href="#ArialMT-51"/>
       <use x="139.013672" xlink:href="#ArialMT-50"/>
       <use x="194.628906" xlink:href="#ArialMT-53"/>
       <use x="250.244141" xlink:href="#ArialMT-49"/>
      </g>
     </g>
    </g>
    <g id="ytick_19">
     <g id="line2d_29">
      <path clip-path="url(#p724fad8d25)" d="M 521.085986 418.907365 
L 547.707157 418.907365 
" style="fill:none;stroke:#ffffff;stroke-linecap:round;"/>
     </g>
     <g id="line2d_30">
      <g>
       <use style="fill:#262626;stroke:#262626;stroke-width:1.25;" x="547.707157" xlink:href="#m3fdbfe425a" y="418.907365"/>
      </g>
     </g>
     <g id="text_16">
      <!-- 0.4336 -->
      <g style="fill:#262626;" transform="translate(557.207157 429.644084)scale(0.3 -0.3)">
       <defs>
        <path d="M 49.75 54.046875 
L 41.015625 53.375 
Q 39.84375 58.546875 37.703125 60.890625 
Q 34.125 64.65625 28.90625 64.65625 
Q 24.703125 64.65625 21.53125 62.3125 
Q 17.390625 59.28125 14.984375 53.46875 
Q 12.59375 47.65625 12.5 36.921875 
Q 15.671875 41.75 20.265625 44.09375 
Q 24.859375 46.4375 29.890625 46.4375 
Q 38.671875 46.4375 44.84375 39.96875 
Q 51.03125 33.5 51.03125 23.25 
Q 51.03125 16.5 48.125 10.71875 
Q 45.21875 4.9375 40.140625 1.859375 
Q 35.0625 -1.21875 28.609375 -1.21875 
Q 17.625 -1.21875 10.6875 6.859375 
Q 3.765625 14.9375 3.765625 33.5 
Q 3.765625 54.25 11.421875 63.671875 
Q 18.109375 71.875 29.4375 71.875 
Q 37.890625 71.875 43.28125 67.140625 
Q 48.6875 62.40625 49.75 54.046875 
z
M 13.875 23.1875 
Q 13.875 18.65625 15.796875 14.5 
Q 17.71875 10.359375 21.1875 8.171875 
Q 24.65625 6 28.46875 6 
Q 34.03125 6 38.03125 10.484375 
Q 42.046875 14.984375 42.046875 22.703125 
Q 42.046875 30.125 38.078125 34.390625 
Q 34.125 38.671875 28.125 38.671875 
Q 22.171875 38.671875 18.015625 34.390625 
Q 13.875 30.125 13.875 23.1875 
z
" id="ArialMT-54"/>
       </defs>
       <use xlink:href="#ArialMT-48"/>
       <use x="55.615234" xlink:href="#ArialMT-46"/>
       <use x="83.398438" xlink:href="#ArialMT-52"/>
       <use x="139.013672" xlink:href="#ArialMT-51"/>
       <use x="194.628906" xlink:href="#ArialMT-51"/>
       <use x="250.244141" xlink:href="#ArialMT-54"/>
      </g>
     </g>
    </g>
    <g id="ytick_20">
     <g id="line2d_31">
      <path clip-path="url(#p724fad8d25)" d="M 521.085986 359.749206 
L 547.707157 359.749206 
" style="fill:none;stroke:#ffffff;stroke-linecap:round;"/>
     </g>
     <g id="line2d_32">
      <g>
       <use style="fill:#262626;stroke:#262626;stroke-width:1.25;" x="547.707157" xlink:href="#m3fdbfe425a" y="359.749206"/>
      </g>
     </g>
     <g id="text_17">
      <!-- 0.5410 -->
      <g style="fill:#262626;" transform="translate(557.207157 370.485925)scale(0.3 -0.3)">
       <use xlink:href="#ArialMT-48"/>
       <use x="55.615234" xlink:href="#ArialMT-46"/>
       <use x="83.398438" xlink:href="#ArialMT-53"/>
       <use x="139.013672" xlink:href="#ArialMT-52"/>
       <use x="194.628906" xlink:href="#ArialMT-49"/>
       <use x="250.244141" xlink:href="#ArialMT-48"/>
      </g>
     </g>
    </g>
    <g id="ytick_21">
     <g id="line2d_33">
      <path clip-path="url(#p724fad8d25)" d="M 521.085986 300.591048 
L 547.707157 300.591048 
" style="fill:none;stroke:#ffffff;stroke-linecap:round;"/>
     </g>
     <g id="line2d_34">
      <g>
       <use style="fill:#262626;stroke:#262626;stroke-width:1.25;" x="547.707157" xlink:href="#m3fdbfe425a" y="300.591048"/>
      </g>
     </g>
     <g id="text_18">
      <!-- 0.6369 -->
      <g style="fill:#262626;" transform="translate(557.207157 311.327766)scale(0.3 -0.3)">
       <defs>
        <path d="M 5.46875 16.546875 
L 13.921875 17.328125 
Q 14.984375 11.375 18.015625 8.6875 
Q 21.046875 6 25.78125 6 
Q 29.828125 6 32.875 7.859375 
Q 35.9375 9.71875 37.890625 12.8125 
Q 39.84375 15.921875 41.15625 21.1875 
Q 42.484375 26.46875 42.484375 31.9375 
Q 42.484375 32.515625 42.4375 33.6875 
Q 39.796875 29.5 35.234375 26.875 
Q 30.671875 24.265625 25.34375 24.265625 
Q 16.453125 24.265625 10.296875 30.703125 
Q 4.15625 37.15625 4.15625 47.703125 
Q 4.15625 58.59375 10.578125 65.234375 
Q 17 71.875 26.65625 71.875 
Q 33.640625 71.875 39.421875 68.109375 
Q 45.21875 64.359375 48.21875 57.390625 
Q 51.21875 50.4375 51.21875 37.25 
Q 51.21875 23.53125 48.234375 15.40625 
Q 45.265625 7.28125 39.375 3.03125 
Q 33.5 -1.21875 25.59375 -1.21875 
Q 17.1875 -1.21875 11.859375 3.4375 
Q 6.546875 8.109375 5.46875 16.546875 
z
M 41.453125 48.140625 
Q 41.453125 55.71875 37.421875 60.15625 
Q 33.40625 64.59375 27.734375 64.59375 
Q 21.875 64.59375 17.53125 59.8125 
Q 13.1875 55.03125 13.1875 47.40625 
Q 13.1875 40.578125 17.3125 36.296875 
Q 21.4375 32.03125 27.484375 32.03125 
Q 33.59375 32.03125 37.515625 36.296875 
Q 41.453125 40.578125 41.453125 48.140625 
z
" id="ArialMT-57"/>
       </defs>
       <use xlink:href="#ArialMT-48"/>
       <use x="55.615234" xlink:href="#ArialMT-46"/>
       <use x="83.398438" xlink:href="#ArialMT-54"/>
       <use x="139.013672" xlink:href="#ArialMT-51"/>
       <use x="194.628906" xlink:href="#ArialMT-54"/>
       <use x="250.244141" xlink:href="#ArialMT-57"/>
      </g>
     </g>
    </g>
    <g id="ytick_22">
     <g id="line2d_35">
      <path clip-path="url(#p724fad8d25)" d="M 521.085986 241.432889 
L 547.707157 241.432889 
" style="fill:none;stroke:#ffffff;stroke-linecap:round;"/>
     </g>
     <g id="line2d_36">
      <g>
       <use style="fill:#262626;stroke:#262626;stroke-width:1.25;" x="547.707157" xlink:href="#m3fdbfe425a" y="241.432889"/>
      </g>
     </g>
     <g id="text_19">
      <!-- 0.7188 -->
      <g style="fill:#262626;" transform="translate(557.207157 252.169608)scale(0.3 -0.3)">
       <defs>
        <path d="M 4.734375 62.203125 
L 4.734375 70.65625 
L 51.078125 70.65625 
L 51.078125 63.8125 
Q 44.234375 56.546875 37.515625 44.484375 
Q 30.8125 32.421875 27.15625 19.671875 
Q 24.515625 10.6875 23.78125 0 
L 14.75 0 
Q 14.890625 8.453125 18.0625 20.40625 
Q 21.234375 32.375 27.171875 43.484375 
Q 33.109375 54.59375 39.796875 62.203125 
z
" id="ArialMT-55"/>
       </defs>
       <use xlink:href="#ArialMT-48"/>
       <use x="55.615234" xlink:href="#ArialMT-46"/>
       <use x="83.398438" xlink:href="#ArialMT-55"/>
       <use x="139.013672" xlink:href="#ArialMT-49"/>
       <use x="194.628906" xlink:href="#ArialMT-56"/>
       <use x="250.244141" xlink:href="#ArialMT-56"/>
      </g>
     </g>
    </g>
    <g id="ytick_23">
     <g id="line2d_37">
      <path clip-path="url(#p724fad8d25)" d="M 521.085986 182.27473 
L 547.707157 182.27473 
" style="fill:none;stroke:#ffffff;stroke-linecap:round;"/>
     </g>
     <g id="line2d_38">
      <g>
       <use style="fill:#262626;stroke:#262626;stroke-width:1.25;" x="547.707157" xlink:href="#m3fdbfe425a" y="182.27473"/>
      </g>
     </g>
     <g id="text_20">
      <!-- 0.8065 -->
      <g style="fill:#262626;" transform="translate(557.207157 193.011449)scale(0.3 -0.3)">
       <use xlink:href="#ArialMT-48"/>
       <use x="55.615234" xlink:href="#ArialMT-46"/>
       <use x="83.398438" xlink:href="#ArialMT-56"/>
       <use x="139.013672" xlink:href="#ArialMT-48"/>
       <use x="194.628906" xlink:href="#ArialMT-54"/>
       <use x="250.244141" xlink:href="#ArialMT-53"/>
      </g>
     </g>
    </g>
    <g id="ytick_24">
     <g id="line2d_39">
      <path clip-path="url(#p724fad8d25)" d="M 521.085986 123.116571 
L 547.707157 123.116571 
" style="fill:none;stroke:#ffffff;stroke-linecap:round;"/>
     </g>
     <g id="line2d_40">
      <g>
       <use style="fill:#262626;stroke:#262626;stroke-width:1.25;" x="547.707157" xlink:href="#m3fdbfe425a" y="123.116571"/>
      </g>
     </g>
     <g id="text_21">
      <!-- 0.8903 -->
      <g style="fill:#262626;" transform="translate(557.207157 133.85329)scale(0.3 -0.3)">
       <use xlink:href="#ArialMT-48"/>
       <use x="55.615234" xlink:href="#ArialMT-46"/>
       <use x="83.398438" xlink:href="#ArialMT-56"/>
       <use x="139.013672" xlink:href="#ArialMT-57"/>
       <use x="194.628906" xlink:href="#ArialMT-48"/>
       <use x="250.244141" xlink:href="#ArialMT-51"/>
      </g>
     </g>
    </g>
   </g>
   <g id="LineCollection_11">
    <path clip-path="url(#p724fad8d25)" d="M 521.085986 655.54 
L 547.707157 655.54 
" style="fill:none;stroke:#4c72b0;stroke-width:1.5;"/>
    <path clip-path="url(#p724fad8d25)" d="M 521.085986 596.381841 
L 547.707157 596.381841 
" style="fill:none;stroke:#4c72b0;stroke-width:1.5;"/>
    <path clip-path="url(#p724fad8d25)" d="M 521.085986 537.223683 
L 547.707157 537.223683 
" style="fill:none;stroke:#4c72b0;stroke-width:1.5;"/>
    <path clip-path="url(#p724fad8d25)" d="M 521.085986 478.065524 
L 547.707157 478.065524 
" style="fill:none;stroke:#4c72b0;stroke-width:1.5;"/>
    <path clip-path="url(#p724fad8d25)" d="M 521.085986 418.907365 
L 547.707157 418.907365 
" style="fill:none;stroke:#4c72b0;stroke-width:1.5;"/>
    <path clip-path="url(#p724fad8d25)" d="M 521.085986 359.749206 
L 547.707157 359.749206 
" style="fill:none;stroke:#4c72b0;stroke-width:1.5;"/>
    <path clip-path="url(#p724fad8d25)" d="M 521.085986 300.591048 
L 547.707157 300.591048 
" style="fill:none;stroke:#4c72b0;stroke-width:1.5;"/>
    <path clip-path="url(#p724fad8d25)" d="M 521.085986 241.432889 
L 547.707157 241.432889 
" style="fill:none;stroke:#4c72b0;stroke-width:1.5;"/>
    <path clip-path="url(#p724fad8d25)" d="M 521.085986 182.27473 
L 547.707157 182.27473 
" style="fill:none;stroke:#4c72b0;stroke-width:1.5;"/>
    <path clip-path="url(#p724fad8d25)" d="M 521.085986 123.116571 
L 547.707157 123.116571 
" style="fill:none;stroke:#4c72b0;stroke-width:1.5;"/>
   </g>
   <g id="patch_10">
    <path d="M 521.085986 655.54 
L 521.085986 596.381841 
L 521.085986 182.27473 
L 521.085986 123.116571 
L 547.707157 123.116571 
L 547.707157 182.27473 
L 547.707157 596.381841 
L 547.707157 655.54 
z
" style="fill:none;stroke:#ffffff;stroke-linejoin:miter;stroke-width:1.25;"/>
   </g>
  </g>
 </g>
 <defs>
  <clipPath id="p588f422284">
   <rect height="532.423429" width="416.824457" x="78.21" y="123.116571"/>
  </clipPath>
  <clipPath id="pee436586c0">
   <rect height="91.797143" width="521.030571" x="78.21" y="12.96"/>
  </clipPath>
  <clipPath id="pdcfbe0d31a">
   <rect height="532.423429" width="89.832857" x="617.207143" y="123.116571"/>
  </clipPath>
  <clipPath id="p724fad8d25">
   <rect height="532.423429" width="26.621171" x="521.085986" y="123.116571"/>
  </clipPath>
 </defs>
</svg>
