<?xml version="1.0" encoding="utf-8" standalone="no"?>
<!DOCTYPE svg PUBLIC "-//W3C//DTD SVG 1.1//EN"
  "http://www.w3.org/Graphics/SVG/1.1/DTD/svg11.dtd">
<!-- Created with matplotlib (https://matplotlib.org/) -->
<svg height="720pt" version="1.1" viewBox="0 0 720 720" width="720pt" xmlns="http://www.w3.org/2000/svg" xmlns:xlink="http://www.w3.org/1999/xlink">
 <metadata>
  <rdf:RDF xmlns:cc="http://creativecommons.org/ns#" xmlns:dc="http://purl.org/dc/elements/1.1/" xmlns:rdf="http://www.w3.org/1999/02/22-rdf-syntax-ns#">
   <cc:Work>
    <dc:type rdf:resource="http://purl.org/dc/dcmitype/StillImage"/>
    <dc:date>2021-06-05T11:00:10.399691</dc:date>
    <dc:format>image/svg+xml</dc:format>
    <dc:creator>
     <cc:Agent>
      <dc:title>Matplotlib v3.3.4, https://matplotlib.org/</dc:title>
     </cc:Agent>
    </dc:creator>
   </cc:Work>
  </rdf:RDF>
 </metadata>
 <defs>
  <style type="text/css">*{stroke-linecap:butt;stroke-linejoin:round;}</style>
 </defs>
 <g id="figure_1">
  <g id="patch_1">
   <path d="M 0 720 
L 720 720 
L 720 0 
L 0 0 
z
" style="fill:#ffffff;"/>
  </g>
  <g id="axes_1">
   <g id="patch_2">
    <path d="M 78.21 655.54 
L 495.034457 655.54 
L 495.034457 123.116571 
L 78.21 123.116571 
z
" style="fill:#eaeaf2;"/>
   </g>
   <g id="matplotlib.axis_1">
    <g id="xtick_1">
     <g id="line2d_1">
      <path clip-path="url(#pf3e79a67f2)" d="M 126.592393 655.54 
L 126.592393 123.116571 
" style="fill:none;stroke:#ffffff;stroke-linecap:round;"/>
     </g>
     <g id="text_1">
      <!-- 0 -->
      <g style="fill:#262626;" transform="translate(118.250987 686.513438)scale(0.3 -0.3)">
       <defs>
        <path d="M 4.15625 35.296875 
Q 4.15625 48 6.765625 55.734375 
Q 9.375 63.484375 14.515625 67.671875 
Q 19.671875 71.875 27.484375 71.875 
Q 33.25 71.875 37.59375 69.546875 
Q 41.9375 67.234375 44.765625 62.859375 
Q 47.609375 58.5 49.21875 52.21875 
Q 50.828125 45.953125 50.828125 35.296875 
Q 50.828125 22.703125 48.234375 14.96875 
Q 45.65625 7.234375 40.5 3 
Q 35.359375 -1.21875 27.484375 -1.21875 
Q 17.140625 -1.21875 11.234375 6.203125 
Q 4.15625 15.140625 4.15625 35.296875 
z
M 13.1875 35.296875 
Q 13.1875 17.671875 17.3125 11.828125 
Q 21.4375 6 27.484375 6 
Q 33.546875 6 37.671875 11.859375 
Q 41.796875 17.71875 41.796875 35.296875 
Q 41.796875 52.984375 37.671875 58.78125 
Q 33.546875 64.59375 27.390625 64.59375 
Q 21.34375 64.59375 17.71875 59.46875 
Q 13.1875 52.9375 13.1875 35.296875 
z
" id="ArialMT-48"/>
       </defs>
       <use xlink:href="#ArialMT-48"/>
      </g>
     </g>
    </g>
    <g id="xtick_2">
     <g id="line2d_2">
      <path clip-path="url(#pf3e79a67f2)" d="M 240.001539 655.54 
L 240.001539 123.116571 
" style="fill:none;stroke:#ffffff;stroke-linecap:round;"/>
     </g>
     <g id="text_2">
      <!-- 1 -->
      <g style="fill:#262626;" transform="translate(231.660133 686.513438)scale(0.3 -0.3)">
       <defs>
        <path d="M 37.25 0 
L 28.46875 0 
L 28.46875 56 
Q 25.296875 52.984375 20.140625 49.953125 
Q 14.984375 46.921875 10.890625 45.40625 
L 10.890625 53.90625 
Q 18.265625 57.375 23.78125 62.296875 
Q 29.296875 67.234375 31.59375 71.875 
L 37.25 71.875 
z
" id="ArialMT-49"/>
       </defs>
       <use xlink:href="#ArialMT-49"/>
      </g>
     </g>
    </g>
    <g id="xtick_3">
     <g id="line2d_3">
      <path clip-path="url(#pf3e79a67f2)" d="M 353.410684 655.54 
L 353.410684 123.116571 
" style="fill:none;stroke:#ffffff;stroke-linecap:round;"/>
     </g>
     <g id="text_3">
      <!-- 2 -->
      <g style="fill:#262626;" transform="translate(345.069278 686.513438)scale(0.3 -0.3)">
       <defs>
        <path d="M 50.34375 8.453125 
L 50.34375 0 
L 3.03125 0 
Q 2.9375 3.171875 4.046875 6.109375 
Q 5.859375 10.9375 9.828125 15.625 
Q 13.8125 20.3125 21.34375 26.46875 
Q 33.015625 36.03125 37.109375 41.625 
Q 41.21875 47.21875 41.21875 52.203125 
Q 41.21875 57.421875 37.46875 61 
Q 33.734375 64.59375 27.734375 64.59375 
Q 21.390625 64.59375 17.578125 60.78125 
Q 13.765625 56.984375 13.71875 50.25 
L 4.6875 51.171875 
Q 5.609375 61.28125 11.65625 66.578125 
Q 17.71875 71.875 27.9375 71.875 
Q 38.234375 71.875 44.234375 66.15625 
Q 50.25 60.453125 50.25 52 
Q 50.25 47.703125 48.484375 43.546875 
Q 46.734375 39.40625 42.65625 34.8125 
Q 38.578125 30.21875 29.109375 22.21875 
Q 21.1875 15.578125 18.9375 13.203125 
Q 16.703125 10.84375 15.234375 8.453125 
z
" id="ArialMT-50"/>
       </defs>
       <use xlink:href="#ArialMT-50"/>
      </g>
     </g>
    </g>
    <g id="xtick_4">
     <g id="line2d_4">
      <path clip-path="url(#pf3e79a67f2)" d="M 466.81983 655.54 
L 466.81983 123.116571 
" style="fill:none;stroke:#ffffff;stroke-linecap:round;"/>
     </g>
     <g id="text_4">
      <!-- 3 -->
      <g style="fill:#262626;" transform="translate(458.478424 686.513438)scale(0.3 -0.3)">
       <defs>
        <path d="M 4.203125 18.890625 
L 12.984375 20.0625 
Q 14.5 12.59375 18.140625 9.296875 
Q 21.78125 6 27 6 
Q 33.203125 6 37.46875 10.296875 
Q 41.75 14.59375 41.75 20.953125 
Q 41.75 27 37.796875 30.921875 
Q 33.84375 34.859375 27.734375 34.859375 
Q 25.25 34.859375 21.53125 33.890625 
L 22.515625 41.609375 
Q 23.390625 41.5 23.921875 41.5 
Q 29.546875 41.5 34.03125 44.421875 
Q 38.53125 47.359375 38.53125 53.46875 
Q 38.53125 58.296875 35.25 61.46875 
Q 31.984375 64.65625 26.8125 64.65625 
Q 21.6875 64.65625 18.265625 61.421875 
Q 14.84375 58.203125 13.875 51.765625 
L 5.078125 53.328125 
Q 6.6875 62.15625 12.390625 67.015625 
Q 18.109375 71.875 26.609375 71.875 
Q 32.46875 71.875 37.390625 69.359375 
Q 42.328125 66.84375 44.9375 62.5 
Q 47.5625 58.15625 47.5625 53.265625 
Q 47.5625 48.640625 45.0625 44.828125 
Q 42.578125 41.015625 37.703125 38.765625 
Q 44.046875 37.3125 47.5625 32.6875 
Q 51.078125 28.078125 51.078125 21.140625 
Q 51.078125 11.765625 44.234375 5.25 
Q 37.40625 -1.265625 26.953125 -1.265625 
Q 17.53125 -1.265625 11.296875 4.34375 
Q 5.078125 9.96875 4.203125 18.890625 
z
" id="ArialMT-51"/>
       </defs>
       <use xlink:href="#ArialMT-51"/>
      </g>
     </g>
    </g>
    <g id="text_5">
     <!-- STRING log(Degree) -->
     <g style="fill:#262626;" transform="translate(99.912854 725.594687)scale(0.4 -0.4)">
      <defs>
       <path d="M 4.5 23 
L 13.421875 23.78125 
Q 14.0625 18.40625 16.375 14.96875 
Q 18.703125 11.53125 23.578125 9.40625 
Q 28.46875 7.28125 34.578125 7.28125 
Q 39.984375 7.28125 44.140625 8.890625 
Q 48.296875 10.5 50.3125 13.296875 
Q 52.34375 16.109375 52.34375 19.4375 
Q 52.34375 22.796875 50.390625 25.3125 
Q 48.4375 27.828125 43.953125 29.546875 
Q 41.0625 30.671875 31.203125 33.03125 
Q 21.34375 35.40625 17.390625 37.5 
Q 12.25 40.1875 9.734375 44.15625 
Q 7.234375 48.140625 7.234375 53.078125 
Q 7.234375 58.5 10.296875 63.203125 
Q 13.375 67.921875 19.28125 70.359375 
Q 25.203125 72.796875 32.421875 72.796875 
Q 40.375 72.796875 46.453125 70.234375 
Q 52.546875 67.671875 55.8125 62.6875 
Q 59.078125 57.71875 59.328125 51.421875 
L 50.25 50.734375 
Q 49.515625 57.515625 45.28125 60.984375 
Q 41.0625 64.453125 32.8125 64.453125 
Q 24.21875 64.453125 20.28125 61.296875 
Q 16.359375 58.15625 16.359375 53.71875 
Q 16.359375 49.859375 19.140625 47.359375 
Q 21.875 44.875 33.421875 42.265625 
Q 44.96875 39.65625 49.265625 37.703125 
Q 55.515625 34.8125 58.484375 30.390625 
Q 61.46875 25.984375 61.46875 20.21875 
Q 61.46875 14.5 58.203125 9.4375 
Q 54.9375 4.390625 48.796875 1.578125 
Q 42.671875 -1.21875 35.015625 -1.21875 
Q 25.296875 -1.21875 18.71875 1.609375 
Q 12.15625 4.4375 8.421875 10.125 
Q 4.6875 15.828125 4.5 23 
z
" id="ArialMT-83"/>
       <path d="M 25.921875 0 
L 25.921875 63.140625 
L 2.34375 63.140625 
L 2.34375 71.578125 
L 59.078125 71.578125 
L 59.078125 63.140625 
L 35.40625 63.140625 
L 35.40625 0 
z
" id="ArialMT-84"/>
       <path d="M 7.859375 0 
L 7.859375 71.578125 
L 39.59375 71.578125 
Q 49.171875 71.578125 54.140625 69.640625 
Q 59.125 67.71875 62.109375 62.828125 
Q 65.09375 57.953125 65.09375 52.046875 
Q 65.09375 44.4375 60.15625 39.203125 
Q 55.21875 33.984375 44.921875 32.5625 
Q 48.6875 30.765625 50.640625 29 
Q 54.78125 25.203125 58.5 19.484375 
L 70.953125 0 
L 59.03125 0 
L 49.5625 14.890625 
Q 45.40625 21.34375 42.71875 24.75 
Q 40.046875 28.171875 37.921875 29.53125 
Q 35.796875 30.90625 33.59375 31.453125 
Q 31.984375 31.78125 28.328125 31.78125 
L 17.328125 31.78125 
L 17.328125 0 
z
M 17.328125 39.984375 
L 37.703125 39.984375 
Q 44.1875 39.984375 47.84375 41.328125 
Q 51.515625 42.671875 53.421875 45.625 
Q 55.328125 48.578125 55.328125 52.046875 
Q 55.328125 57.125 51.640625 60.390625 
Q 47.953125 63.671875 39.984375 63.671875 
L 17.328125 63.671875 
z
" id="ArialMT-82"/>
       <path d="M 9.328125 0 
L 9.328125 71.578125 
L 18.796875 71.578125 
L 18.796875 0 
z
" id="ArialMT-73"/>
       <path d="M 7.625 0 
L 7.625 71.578125 
L 17.328125 71.578125 
L 54.9375 15.375 
L 54.9375 71.578125 
L 64.015625 71.578125 
L 64.015625 0 
L 54.296875 0 
L 16.703125 56.25 
L 16.703125 0 
z
" id="ArialMT-78"/>
       <path d="M 41.21875 28.078125 
L 41.21875 36.46875 
L 71.53125 36.53125 
L 71.53125 9.96875 
Q 64.546875 4.390625 57.125 1.578125 
Q 49.703125 -1.21875 41.890625 -1.21875 
Q 31.34375 -1.21875 22.71875 3.296875 
Q 14.109375 7.8125 9.71875 16.359375 
Q 5.328125 24.90625 5.328125 35.453125 
Q 5.328125 45.90625 9.6875 54.953125 
Q 14.0625 64.015625 22.265625 68.40625 
Q 30.46875 72.796875 41.15625 72.796875 
Q 48.921875 72.796875 55.1875 70.28125 
Q 61.46875 67.78125 65.03125 63.28125 
Q 68.609375 58.796875 70.453125 51.5625 
L 61.921875 49.21875 
Q 60.296875 54.6875 57.90625 57.8125 
Q 55.515625 60.9375 51.0625 62.8125 
Q 46.625 64.703125 41.21875 64.703125 
Q 34.71875 64.703125 29.984375 62.71875 
Q 25.25 60.75 22.34375 57.515625 
Q 19.4375 54.296875 17.828125 50.4375 
Q 15.09375 43.796875 15.09375 36.03125 
Q 15.09375 26.46875 18.390625 20.015625 
Q 21.6875 13.578125 27.984375 10.453125 
Q 34.28125 7.328125 41.359375 7.328125 
Q 47.515625 7.328125 53.375 9.6875 
Q 59.234375 12.0625 62.25 14.75 
L 62.25 28.078125 
z
" id="ArialMT-71"/>
       <path id="ArialMT-32"/>
       <path d="M 6.390625 0 
L 6.390625 71.578125 
L 15.1875 71.578125 
L 15.1875 0 
z
" id="ArialMT-108"/>
       <path d="M 3.328125 25.921875 
Q 3.328125 40.328125 11.328125 47.265625 
Q 18.015625 53.03125 27.640625 53.03125 
Q 38.328125 53.03125 45.109375 46.015625 
Q 51.90625 39.015625 51.90625 26.65625 
Q 51.90625 16.65625 48.90625 10.90625 
Q 45.90625 5.171875 40.15625 2 
Q 34.421875 -1.171875 27.640625 -1.171875 
Q 16.75 -1.171875 10.03125 5.8125 
Q 3.328125 12.796875 3.328125 25.921875 
z
M 12.359375 25.921875 
Q 12.359375 15.96875 16.703125 11.015625 
Q 21.046875 6.0625 27.640625 6.0625 
Q 34.1875 6.0625 38.53125 11.03125 
Q 42.875 16.015625 42.875 26.21875 
Q 42.875 35.84375 38.5 40.796875 
Q 34.125 45.75 27.640625 45.75 
Q 21.046875 45.75 16.703125 40.8125 
Q 12.359375 35.890625 12.359375 25.921875 
z
" id="ArialMT-111"/>
       <path d="M 4.984375 -4.296875 
L 13.53125 -5.5625 
Q 14.0625 -9.515625 16.5 -11.328125 
Q 19.78125 -13.765625 25.4375 -13.765625 
Q 31.546875 -13.765625 34.859375 -11.328125 
Q 38.1875 -8.890625 39.359375 -4.5 
Q 40.046875 -1.8125 39.984375 6.78125 
Q 34.234375 0 25.640625 0 
Q 14.9375 0 9.078125 7.71875 
Q 3.21875 15.4375 3.21875 26.21875 
Q 3.21875 33.640625 5.90625 39.90625 
Q 8.59375 46.1875 13.6875 49.609375 
Q 18.796875 53.03125 25.6875 53.03125 
Q 34.859375 53.03125 40.828125 45.609375 
L 40.828125 51.859375 
L 48.921875 51.859375 
L 48.921875 7.03125 
Q 48.921875 -5.078125 46.453125 -10.125 
Q 44 -15.1875 38.640625 -18.109375 
Q 33.296875 -21.046875 25.484375 -21.046875 
Q 16.21875 -21.046875 10.5 -16.875 
Q 4.78125 -12.703125 4.984375 -4.296875 
z
M 12.25 26.859375 
Q 12.25 16.65625 16.296875 11.96875 
Q 20.359375 7.28125 26.46875 7.28125 
Q 32.515625 7.28125 36.609375 11.9375 
Q 40.71875 16.609375 40.71875 26.5625 
Q 40.71875 36.078125 36.5 40.90625 
Q 32.28125 45.75 26.3125 45.75 
Q 20.453125 45.75 16.34375 40.984375 
Q 12.25 36.234375 12.25 26.859375 
z
" id="ArialMT-103"/>
       <path d="M 23.390625 -21.046875 
Q 16.109375 -11.859375 11.078125 0.4375 
Q 6.0625 12.75 6.0625 25.921875 
Q 6.0625 37.546875 9.8125 48.1875 
Q 14.203125 60.546875 23.390625 72.796875 
L 29.6875 72.796875 
Q 23.78125 62.640625 21.875 58.296875 
Q 18.890625 51.5625 17.1875 44.234375 
Q 15.09375 35.109375 15.09375 25.875 
Q 15.09375 2.390625 29.6875 -21.046875 
z
" id="ArialMT-40"/>
       <path d="M 7.71875 0 
L 7.71875 71.578125 
L 32.375 71.578125 
Q 40.71875 71.578125 45.125 70.5625 
Q 51.265625 69.140625 55.609375 65.4375 
Q 61.28125 60.640625 64.078125 53.1875 
Q 66.890625 45.75 66.890625 36.1875 
Q 66.890625 28.03125 64.984375 21.734375 
Q 63.09375 15.4375 60.109375 11.296875 
Q 57.125 7.171875 53.578125 4.796875 
Q 50.046875 2.4375 45.046875 1.21875 
Q 40.046875 0 33.546875 0 
z
M 17.1875 8.453125 
L 32.46875 8.453125 
Q 39.546875 8.453125 43.578125 9.765625 
Q 47.609375 11.078125 50 13.484375 
Q 53.375 16.84375 55.25 22.53125 
Q 57.125 28.21875 57.125 36.328125 
Q 57.125 47.5625 53.4375 53.59375 
Q 49.75 59.625 44.484375 61.671875 
Q 40.671875 63.140625 32.234375 63.140625 
L 17.1875 63.140625 
z
" id="ArialMT-68"/>
       <path d="M 42.09375 16.703125 
L 51.171875 15.578125 
Q 49.03125 7.625 43.21875 3.21875 
Q 37.40625 -1.171875 28.375 -1.171875 
Q 17 -1.171875 10.328125 5.828125 
Q 3.65625 12.84375 3.65625 25.484375 
Q 3.65625 38.578125 10.390625 45.796875 
Q 17.140625 53.03125 27.875 53.03125 
Q 38.28125 53.03125 44.875 45.953125 
Q 51.46875 38.875 51.46875 26.03125 
Q 51.46875 25.25 51.421875 23.6875 
L 12.75 23.6875 
Q 13.234375 15.140625 17.578125 10.59375 
Q 21.921875 6.0625 28.421875 6.0625 
Q 33.25 6.0625 36.671875 8.59375 
Q 40.09375 11.140625 42.09375 16.703125 
z
M 13.234375 30.90625 
L 42.1875 30.90625 
Q 41.609375 37.453125 38.875 40.71875 
Q 34.671875 45.796875 27.984375 45.796875 
Q 21.921875 45.796875 17.796875 41.75 
Q 13.671875 37.703125 13.234375 30.90625 
z
" id="ArialMT-101"/>
       <path d="M 6.5 0 
L 6.5 51.859375 
L 14.40625 51.859375 
L 14.40625 44 
Q 17.4375 49.515625 20 51.265625 
Q 22.5625 53.03125 25.640625 53.03125 
Q 30.078125 53.03125 34.671875 50.203125 
L 31.640625 42.046875 
Q 28.421875 43.953125 25.203125 43.953125 
Q 22.3125 43.953125 20.015625 42.21875 
Q 17.71875 40.484375 16.75 37.40625 
Q 15.28125 32.71875 15.28125 27.15625 
L 15.28125 0 
z
" id="ArialMT-114"/>
       <path d="M 12.359375 -21.046875 
L 6.0625 -21.046875 
Q 20.65625 2.390625 20.65625 25.875 
Q 20.65625 35.0625 18.5625 44.09375 
Q 16.890625 51.421875 13.921875 58.15625 
Q 12.015625 62.546875 6.0625 72.796875 
L 12.359375 72.796875 
Q 21.53125 60.546875 25.921875 48.1875 
Q 29.6875 37.546875 29.6875 25.921875 
Q 29.6875 12.75 24.625 0.4375 
Q 19.578125 -11.859375 12.359375 -21.046875 
z
" id="ArialMT-41"/>
      </defs>
      <use xlink:href="#ArialMT-83"/>
      <use x="66.699219" xlink:href="#ArialMT-84"/>
      <use x="127.783203" xlink:href="#ArialMT-82"/>
      <use x="200" xlink:href="#ArialMT-73"/>
      <use x="227.783203" xlink:href="#ArialMT-78"/>
      <use x="300" xlink:href="#ArialMT-71"/>
      <use x="377.783203" xlink:href="#ArialMT-32"/>
      <use x="405.566406" xlink:href="#ArialMT-108"/>
      <use x="427.783203" xlink:href="#ArialMT-111"/>
      <use x="483.398438" xlink:href="#ArialMT-103"/>
      <use x="539.013672" xlink:href="#ArialMT-40"/>
      <use x="572.314453" xlink:href="#ArialMT-68"/>
      <use x="644.53125" xlink:href="#ArialMT-101"/>
      <use x="700.146484" xlink:href="#ArialMT-103"/>
      <use x="755.761719" xlink:href="#ArialMT-114"/>
      <use x="789.0625" xlink:href="#ArialMT-101"/>
      <use x="844.677734" xlink:href="#ArialMT-101"/>
      <use x="900.292969" xlink:href="#ArialMT-41"/>
     </g>
    </g>
   </g>
   <g id="matplotlib.axis_2">
    <g id="ytick_1">
     <g id="line2d_5">
      <path clip-path="url(#pf3e79a67f2)" d="M 78.21 612.951711 
L 495.034457 612.951711 
" style="fill:none;stroke:#ffffff;stroke-linecap:round;"/>
     </g>
     <g id="text_6">
      <!-- 0.0 -->
      <g style="fill:#262626;" transform="translate(27.01 623.688429)scale(0.3 -0.3)">
       <defs>
        <path d="M 9.078125 0 
L 9.078125 10.015625 
L 19.09375 10.015625 
L 19.09375 0 
z
" id="ArialMT-46"/>
       </defs>
       <use xlink:href="#ArialMT-48"/>
       <use x="55.615234" xlink:href="#ArialMT-46"/>
       <use x="83.398438" xlink:href="#ArialMT-48"/>
      </g>
     </g>
    </g>
    <g id="ytick_2">
     <g id="line2d_6">
      <path clip-path="url(#pf3e79a67f2)" d="M 78.21 515.395671 
L 495.034457 515.395671 
" style="fill:none;stroke:#ffffff;stroke-linecap:round;"/>
     </g>
     <g id="text_7">
      <!-- 0.5 -->
      <g style="fill:#262626;" transform="translate(27.01 526.132389)scale(0.3 -0.3)">
       <defs>
        <path d="M 4.15625 18.75 
L 13.375 19.53125 
Q 14.40625 12.796875 18.140625 9.390625 
Q 21.875 6 27.15625 6 
Q 33.5 6 37.890625 10.78125 
Q 42.28125 15.578125 42.28125 23.484375 
Q 42.28125 31 38.0625 35.34375 
Q 33.84375 39.703125 27 39.703125 
Q 22.75 39.703125 19.328125 37.765625 
Q 15.921875 35.84375 13.96875 32.765625 
L 5.71875 33.84375 
L 12.640625 70.609375 
L 48.25 70.609375 
L 48.25 62.203125 
L 19.671875 62.203125 
L 15.828125 42.96875 
Q 22.265625 47.46875 29.34375 47.46875 
Q 38.71875 47.46875 45.15625 40.96875 
Q 51.609375 34.46875 51.609375 24.265625 
Q 51.609375 14.546875 45.953125 7.46875 
Q 39.0625 -1.21875 27.15625 -1.21875 
Q 17.390625 -1.21875 11.203125 4.25 
Q 5.03125 9.71875 4.15625 18.75 
z
" id="ArialMT-53"/>
       </defs>
       <use xlink:href="#ArialMT-48"/>
       <use x="55.615234" xlink:href="#ArialMT-46"/>
       <use x="83.398438" xlink:href="#ArialMT-53"/>
      </g>
     </g>
    </g>
    <g id="ytick_3">
     <g id="line2d_7">
      <path clip-path="url(#pf3e79a67f2)" d="M 78.21 417.839631 
L 495.034457 417.839631 
" style="fill:none;stroke:#ffffff;stroke-linecap:round;"/>
     </g>
     <g id="text_8">
      <!-- 1.0 -->
      <g style="fill:#262626;" transform="translate(27.01 428.576349)scale(0.3 -0.3)">
       <use xlink:href="#ArialMT-49"/>
       <use x="55.615234" xlink:href="#ArialMT-46"/>
       <use x="83.398438" xlink:href="#ArialMT-48"/>
      </g>
     </g>
    </g>
    <g id="ytick_4">
     <g id="line2d_8">
      <path clip-path="url(#pf3e79a67f2)" d="M 78.21 320.283591 
L 495.034457 320.283591 
" style="fill:none;stroke:#ffffff;stroke-linecap:round;"/>
     </g>
     <g id="text_9">
      <!-- 1.5 -->
      <g style="fill:#262626;" transform="translate(27.01 331.020309)scale(0.3 -0.3)">
       <use xlink:href="#ArialMT-49"/>
       <use x="55.615234" xlink:href="#ArialMT-46"/>
       <use x="83.398438" xlink:href="#ArialMT-53"/>
      </g>
     </g>
    </g>
    <g id="ytick_5">
     <g id="line2d_9">
      <path clip-path="url(#pf3e79a67f2)" d="M 78.21 222.727551 
L 495.034457 222.727551 
" style="fill:none;stroke:#ffffff;stroke-linecap:round;"/>
     </g>
     <g id="text_10">
      <!-- 2.0 -->
      <g style="fill:#262626;" transform="translate(27.01 233.464269)scale(0.3 -0.3)">
       <use xlink:href="#ArialMT-50"/>
       <use x="55.615234" xlink:href="#ArialMT-46"/>
       <use x="83.398438" xlink:href="#ArialMT-48"/>
      </g>
     </g>
    </g>
    <g id="ytick_6">
     <g id="line2d_10">
      <path clip-path="url(#pf3e79a67f2)" d="M 78.21 125.171511 
L 495.034457 125.171511 
" style="fill:none;stroke:#ffffff;stroke-linecap:round;"/>
     </g>
     <g id="text_11">
      <!-- 2.5 -->
      <g style="fill:#262626;" transform="translate(27.01 135.908229)scale(0.3 -0.3)">
       <use xlink:href="#ArialMT-50"/>
       <use x="55.615234" xlink:href="#ArialMT-46"/>
       <use x="83.398438" xlink:href="#ArialMT-53"/>
      </g>
     </g>
    </g>
    <g id="text_12">
     <!-- log(Publication_count) -->
     <g style="fill:#262626;" transform="translate(14.59125 587.215786)rotate(-90)scale(0.4 -0.4)">
      <defs>
       <path d="M 7.71875 0 
L 7.71875 71.578125 
L 34.71875 71.578125 
Q 41.84375 71.578125 45.609375 70.90625 
Q 50.875 70.015625 54.4375 67.546875 
Q 58.015625 65.09375 60.1875 60.640625 
Q 62.359375 56.203125 62.359375 50.875 
Q 62.359375 41.75 56.546875 35.421875 
Q 50.734375 29.109375 35.546875 29.109375 
L 17.1875 29.109375 
L 17.1875 0 
z
M 17.1875 37.546875 
L 35.6875 37.546875 
Q 44.875 37.546875 48.734375 40.96875 
Q 52.59375 44.390625 52.59375 50.59375 
Q 52.59375 55.078125 50.3125 58.265625 
Q 48.046875 61.46875 44.34375 62.5 
Q 41.9375 63.140625 35.5 63.140625 
L 17.1875 63.140625 
z
" id="ArialMT-80"/>
       <path d="M 40.578125 0 
L 40.578125 7.625 
Q 34.515625 -1.171875 24.125 -1.171875 
Q 19.53125 -1.171875 15.546875 0.578125 
Q 11.578125 2.34375 9.640625 5 
Q 7.71875 7.671875 6.9375 11.53125 
Q 6.390625 14.109375 6.390625 19.734375 
L 6.390625 51.859375 
L 15.1875 51.859375 
L 15.1875 23.09375 
Q 15.1875 16.21875 15.71875 13.8125 
Q 16.546875 10.359375 19.234375 8.375 
Q 21.921875 6.390625 25.875 6.390625 
Q 29.828125 6.390625 33.296875 8.421875 
Q 36.765625 10.453125 38.203125 13.9375 
Q 39.65625 17.4375 39.65625 24.078125 
L 39.65625 51.859375 
L 48.4375 51.859375 
L 48.4375 0 
z
" id="ArialMT-117"/>
       <path d="M 14.703125 0 
L 6.546875 0 
L 6.546875 71.578125 
L 15.328125 71.578125 
L 15.328125 46.046875 
Q 20.90625 53.03125 29.546875 53.03125 
Q 34.328125 53.03125 38.59375 51.09375 
Q 42.875 49.171875 45.625 45.671875 
Q 48.390625 42.1875 49.953125 37.25 
Q 51.515625 32.328125 51.515625 26.703125 
Q 51.515625 13.375 44.921875 6.09375 
Q 38.328125 -1.171875 29.109375 -1.171875 
Q 19.921875 -1.171875 14.703125 6.5 
z
M 14.59375 26.3125 
Q 14.59375 17 17.140625 12.84375 
Q 21.296875 6.0625 28.375 6.0625 
Q 34.125 6.0625 38.328125 11.0625 
Q 42.53125 16.0625 42.53125 25.984375 
Q 42.53125 36.140625 38.5 40.96875 
Q 34.46875 45.796875 28.765625 45.796875 
Q 23 45.796875 18.796875 40.796875 
Q 14.59375 35.796875 14.59375 26.3125 
z
" id="ArialMT-98"/>
       <path d="M 6.640625 61.46875 
L 6.640625 71.578125 
L 15.4375 71.578125 
L 15.4375 61.46875 
z
M 6.640625 0 
L 6.640625 51.859375 
L 15.4375 51.859375 
L 15.4375 0 
z
" id="ArialMT-105"/>
       <path d="M 40.4375 19 
L 49.078125 17.875 
Q 47.65625 8.9375 41.8125 3.875 
Q 35.984375 -1.171875 27.484375 -1.171875 
Q 16.84375 -1.171875 10.375 5.78125 
Q 3.90625 12.75 3.90625 25.734375 
Q 3.90625 34.125 6.6875 40.421875 
Q 9.46875 46.734375 15.15625 49.875 
Q 20.84375 53.03125 27.546875 53.03125 
Q 35.984375 53.03125 41.359375 48.75 
Q 46.734375 44.484375 48.25 36.625 
L 39.703125 35.296875 
Q 38.484375 40.53125 35.375 43.15625 
Q 32.28125 45.796875 27.875 45.796875 
Q 21.234375 45.796875 17.078125 41.03125 
Q 12.9375 36.28125 12.9375 25.984375 
Q 12.9375 15.53125 16.9375 10.796875 
Q 20.953125 6.0625 27.390625 6.0625 
Q 32.5625 6.0625 36.03125 9.234375 
Q 39.5 12.40625 40.4375 19 
z
" id="ArialMT-99"/>
       <path d="M 40.4375 6.390625 
Q 35.546875 2.25 31.03125 0.53125 
Q 26.515625 -1.171875 21.34375 -1.171875 
Q 12.796875 -1.171875 8.203125 3 
Q 3.609375 7.171875 3.609375 13.671875 
Q 3.609375 17.484375 5.34375 20.625 
Q 7.078125 23.78125 9.890625 25.6875 
Q 12.703125 27.59375 16.21875 28.5625 
Q 18.796875 29.25 24.03125 29.890625 
Q 34.671875 31.15625 39.703125 32.90625 
Q 39.75 34.71875 39.75 35.203125 
Q 39.75 40.578125 37.25 42.78125 
Q 33.890625 45.75 27.25 45.75 
Q 21.046875 45.75 18.09375 43.578125 
Q 15.140625 41.40625 13.71875 35.890625 
L 5.125 37.0625 
Q 6.296875 42.578125 8.984375 45.96875 
Q 11.671875 49.359375 16.75 51.1875 
Q 21.828125 53.03125 28.515625 53.03125 
Q 35.15625 53.03125 39.296875 51.46875 
Q 43.453125 49.90625 45.40625 47.53125 
Q 47.359375 45.171875 48.140625 41.546875 
Q 48.578125 39.3125 48.578125 33.453125 
L 48.578125 21.734375 
Q 48.578125 9.46875 49.140625 6.21875 
Q 49.703125 2.984375 51.375 0 
L 42.1875 0 
Q 40.828125 2.734375 40.4375 6.390625 
z
M 39.703125 26.03125 
Q 34.90625 24.078125 25.34375 22.703125 
Q 19.921875 21.921875 17.671875 20.9375 
Q 15.4375 19.96875 14.203125 18.09375 
Q 12.984375 16.21875 12.984375 13.921875 
Q 12.984375 10.40625 15.640625 8.0625 
Q 18.3125 5.71875 23.4375 5.71875 
Q 28.515625 5.71875 32.46875 7.9375 
Q 36.421875 10.15625 38.28125 14.015625 
Q 39.703125 17 39.703125 22.796875 
z
" id="ArialMT-97"/>
       <path d="M 25.78125 7.859375 
L 27.046875 0.09375 
Q 23.34375 -0.6875 20.40625 -0.6875 
Q 15.625 -0.6875 12.984375 0.828125 
Q 10.359375 2.34375 9.28125 4.8125 
Q 8.203125 7.28125 8.203125 15.1875 
L 8.203125 45.015625 
L 1.765625 45.015625 
L 1.765625 51.859375 
L 8.203125 51.859375 
L 8.203125 64.703125 
L 16.9375 69.96875 
L 16.9375 51.859375 
L 25.78125 51.859375 
L 25.78125 45.015625 
L 16.9375 45.015625 
L 16.9375 14.703125 
Q 16.9375 10.9375 17.40625 9.859375 
Q 17.875 8.796875 18.921875 8.15625 
Q 19.96875 7.515625 21.921875 7.515625 
Q 23.390625 7.515625 25.78125 7.859375 
z
" id="ArialMT-116"/>
       <path d="M 6.59375 0 
L 6.59375 51.859375 
L 14.5 51.859375 
L 14.5 44.484375 
Q 20.21875 53.03125 31 53.03125 
Q 35.6875 53.03125 39.625 51.34375 
Q 43.5625 49.65625 45.515625 46.921875 
Q 47.46875 44.1875 48.25 40.4375 
Q 48.734375 37.984375 48.734375 31.890625 
L 48.734375 0 
L 39.9375 0 
L 39.9375 31.546875 
Q 39.9375 36.921875 38.90625 39.578125 
Q 37.890625 42.234375 35.28125 43.8125 
Q 32.671875 45.40625 29.15625 45.40625 
Q 23.53125 45.40625 19.453125 41.84375 
Q 15.375 38.28125 15.375 28.328125 
L 15.375 0 
z
" id="ArialMT-110"/>
       <path d="M -1.515625 -19.875 
L -1.515625 -13.53125 
L 56.734375 -13.53125 
L 56.734375 -19.875 
z
" id="ArialMT-95"/>
      </defs>
      <use xlink:href="#ArialMT-108"/>
      <use x="22.216797" xlink:href="#ArialMT-111"/>
      <use x="77.832031" xlink:href="#ArialMT-103"/>
      <use x="133.447266" xlink:href="#ArialMT-40"/>
      <use x="166.748047" xlink:href="#ArialMT-80"/>
      <use x="233.447266" xlink:href="#ArialMT-117"/>
      <use x="289.0625" xlink:href="#ArialMT-98"/>
      <use x="344.677734" xlink:href="#ArialMT-108"/>
      <use x="366.894531" xlink:href="#ArialMT-105"/>
      <use x="389.111328" xlink:href="#ArialMT-99"/>
      <use x="439.111328" xlink:href="#ArialMT-97"/>
      <use x="494.726562" xlink:href="#ArialMT-116"/>
      <use x="522.509766" xlink:href="#ArialMT-105"/>
      <use x="544.726562" xlink:href="#ArialMT-111"/>
      <use x="600.341797" xlink:href="#ArialMT-110"/>
      <use x="655.957031" xlink:href="#ArialMT-95"/>
      <use x="711.572266" xlink:href="#ArialMT-99"/>
      <use x="761.572266" xlink:href="#ArialMT-111"/>
      <use x="817.1875" xlink:href="#ArialMT-117"/>
      <use x="872.802734" xlink:href="#ArialMT-110"/>
      <use x="928.417969" xlink:href="#ArialMT-116"/>
      <use x="956.201172" xlink:href="#ArialMT-41"/>
     </g>
    </g>
   </g>
   <g id="LineCollection_1">
    <path clip-path="url(#pf3e79a67f2)" d="M 235.304645 556.736531 
L 237.39924 557.206941 
L 239.493835 557.497843 
L 241.58843 557.602197 
L 243.683026 557.52474 
L 245.777621 557.278063 
L 249.179973 556.546699 
L 249.966811 556.252197 
L 254.156002 554.268971 
L 254.895679 553.871205 
L 257.886795 551.19571 
L 259.607246 548.520215 
L 260.984883 545.844721 
L 263.308748 543.169226 
L 264.628978 542.430773 
L 266.723574 541.419375 
L 269.012039 540.493732 
L 273.007359 539.651716 
L 279.291145 538.634132 
L 291.858717 536.718574 
L 296.047907 535.634392 
L 302.331693 533.466185 
L 306.520884 531.548674 
L 310.710074 529.235071 
L 313.970926 527.116258 
L 314.899265 526.481319 
L 317.573154 524.440764 
L 321.18305 521.328935 
L 326.250979 516.41428 
L 329.561431 513.213736 
L 332.038266 511.063291 
L 335.72571 508.387796 
L 335.845217 508.310147 
L 337.939812 507.136442 
L 341.009617 505.712302 
L 342.129003 505.279146 
L 346.318194 504.06515 
L 351.396597 503.036807 
L 354.696575 502.37428 
L 356.79117 501.81109 
L 358.885765 501.048772 
L 360.98036 499.998164 
L 363.074956 498.529939 
L 364.025498 497.685818 
L 365.169551 496.447741 
L 366.265551 495.010323 
L 367.712614 492.334828 
L 368.611562 489.659334 
L 369.135845 486.983839 
L 369.417196 484.308345 
L 369.943867 476.281861 
L 370.553857 470.930872 
L 371.453337 465.2618 
L 373.547932 454.748636 
L 375.642527 445.789768 
L 376.862213 441.500431 
L 377.737122 438.671106 
L 379.831718 432.949964 
L 384.100015 422.771968 
L 386.363085 417.420979 
L 388.405407 412.06999 
L 389.318926 409.394495 
L 390.800572 404.043506 
L 391.918195 398.692517 
L 393.328261 390.666033 
L 394.493885 384.974153 
L 396.58848 377.024085 
L 397.994298 371.937571 
L 399.204567 366.586581 
L 400.041692 361.235592 
L 400.480164 355.884603 
L 400.642627 350.533614 
L 400.618323 345.182625 
L 400.377717 339.831635 
L 400.12801 337.156141 
L 399.754164 334.480646 
L 399.227375 331.805151 
L 398.534867 329.129657 
L 397.705198 326.454162 
L 393.813069 315.752184 
L 393.071633 313.076689 
L 392.399289 309.762982 
L 392.118082 307.7257 
L 391.894372 305.050205 
L 391.756453 299.699216 
L 391.671141 291.672732 
L 391.47207 288.997238 
L 391.098323 286.321743 
L 390.304694 282.97386 
L 389.681005 280.970754 
L 388.210099 277.391494 
L 385.998477 272.94427 
L 381.686471 264.917786 
L 379.831718 261.916223 
L 377.737122 259.094788 
L 375.642527 256.800019 
L 372.663237 254.215808 
L 371.453337 253.334101 
L 368.662314 251.540313 
L 365.169551 249.665971 
L 360.98036 247.823742 
L 356.79117 246.365 
L 352.601979 245.29839 
L 350.507384 244.943347 
L 348.412789 244.720539 
L 346.318194 244.637495 
L 344.223598 244.698483 
L 342.129003 244.903319 
L 340.034408 245.246981 
L 336.277441 246.189324 
L 333.750622 246.997529 
L 328.887637 248.864818 
L 316.99386 253.637346 
L 312.804669 254.999193 
L 308.615479 256.082729 
L 304.426288 256.893912 
L 300.237098 257.434086 
L 296.047907 257.771298 
L 281.38574 258.624385 
L 277.19655 259.287259 
L 273.007359 260.304964 
L 270.912764 260.98002 
L 266.723574 262.690267 
L 264.628978 263.692383 
L 260.439788 266.001256 
L 253.413494 270.268775 
L 247.872216 273.142091 
L 243.683026 274.791559 
L 241.362792 275.619765 
L 235.304645 277.176646 
L 229.020859 278.52958 
L 220.642478 279.896969 
L 214.358692 280.683686 
L 208.074906 281.188157 
L 197.60193 281.885245 
L 193.412739 282.367881 
L 189.223549 283.079327 
L 185.034358 284.02882 
L 180.845168 285.226267 
L 176.655977 286.750617 
L 174.561382 287.626906 
L 170.372192 289.735297 
L 167.238774 291.672732 
L 166.183001 292.35769 
L 161.99381 295.520473 
L 153.615429 302.531008 
L 149.989025 305.050205 
L 149.426239 305.386032 
L 147.331644 306.479533 
L 144.352236 307.7257 
L 143.142453 308.106672 
L 138.953263 309.06625 
L 132.669477 310.330286 
L 128.480286 311.560644 
L 126.385691 312.479397 
L 124.291096 313.608498 
L 122.196501 314.976581 
L 120.101905 316.617476 
L 118.00731 318.576332 
L 115.661433 321.103173 
L 113.486298 323.778668 
L 111.547953 326.454162 
L 108.15439 331.805151 
L 106.648649 334.480646 
L 103.976844 339.831635 
L 101.7162 345.182625 
L 99.831482 350.533614 
L 98.304358 355.884603 
L 97.061357 361.56965 
L 96.099064 366.586581 
L 95.325878 371.937571 
L 94.168199 382.639549 
L 93.643927 390.666033 
L 93.259419 401.368011 
L 93.05688 414.745485 
L 93.003294 452.202409 
L 93.206057 457.553398 
L 93.624097 462.904388 
L 94.272625 468.255377 
L 96.794875 484.308345 
L 99.546621 500.361312 
L 100.890364 505.712302 
L 102.558489 511.063291 
L 104.492828 516.41428 
L 106.692332 521.765269 
L 107.992025 524.440764 
L 109.628929 527.282354 
L 111.723524 530.199322 
L 113.818119 532.523016 
L 115.912715 534.508044 
L 116.757902 535.142742 
L 118.00731 536.235877 
L 122.196501 539.160512 
L 126.385691 541.418287 
L 128.480286 542.048996 
L 130.574882 541.969385 
L 132.669477 541.105646 
L 133.482683 540.493732 
L 134.764072 539.926364 
L 138.953263 537.399437 
L 143.142453 535.503446 
L 145.237048 534.908689 
L 147.331644 534.641794 
L 149.426239 534.637291 
L 151.520834 534.890437 
L 153.615429 535.436045 
L 157.80462 537.184312 
L 159.899215 538.239129 
L 161.99381 539.468037 
L 164.088406 540.493732 
L 166.183001 541.743047 
L 168.277596 542.602326 
L 172.466787 543.64393 
L 174.561382 543.90947 
L 185.034358 544.626246 
L 189.223549 545.282566 
L 191.965568 545.844721 
L 197.60193 547.450349 
L 201.79112 548.316304 
L 205.980311 548.78148 
L 210.169502 548.884102 
L 216.453287 548.877995 
L 218.547883 549.011648 
L 220.642478 549.312545 
L 222.737073 549.864152 
L 224.831668 550.775874 
L 226.926264 552.013626 
L 229.418221 553.871205 
L 233.210049 555.884485 
L 235.304645 556.736531 
L 235.304645 556.736531 
" style="fill:none;stroke:#800080;stroke-width:1.5;"/>
   </g>
   <g id="LineCollection_2">
    <path clip-path="url(#pf3e79a67f2)" d="M 180.845168 508.450256 
L 185.034358 509.22762 
L 189.223549 509.722925 
L 195.507335 510.137 
L 214.358692 510.914834 
L 218.547883 510.940294 
L 222.737073 510.76157 
L 226.926264 510.354503 
L 233.210049 509.41399 
L 245.777621 507.330804 
L 249.966811 506.819457 
L 254.156002 506.474822 
L 258.345193 506.316564 
L 264.628978 506.353503 
L 270.912764 506.410818 
L 275.101955 506.229082 
L 279.359599 505.712302 
L 283.480336 504.853532 
L 287.669526 503.553712 
L 291.858717 501.860753 
L 296.047907 499.816584 
L 300.237098 497.516861 
L 306.520884 493.783535 
L 313.000954 489.659334 
L 316.99386 486.954758 
L 321.18305 483.905193 
L 325.372241 480.564625 
L 327.466836 478.768943 
L 331.656027 474.794211 
L 333.750622 472.582267 
L 335.845217 470.167127 
L 337.939812 467.491469 
L 340.034408 464.496189 
L 342.653049 460.228893 
L 346.318194 453.452615 
L 349.71168 446.85142 
L 361.18327 425.447463 
L 363.749551 420.096474 
L 366.020289 414.745485 
L 367.978005 409.394495 
L 369.645 404.043506 
L 371.8104 396.017022 
L 373.992861 387.990538 
L 378.751782 371.937571 
L 379.314021 369.262076 
L 379.831718 365.373207 
L 379.964701 363.911087 
L 380.02701 361.235592 
L 379.831718 357.713178 
L 379.646168 355.884603 
L 378.72653 350.533614 
L 377.445034 345.182625 
L 375.642527 338.9545 
L 373.32784 331.805151 
L 370.735928 323.778668 
L 366.622075 310.401195 
L 365.169551 306.747713 
L 364.350314 305.050205 
L 362.803901 302.374711 
L 360.783818 299.699216 
L 358.885765 297.770524 
L 356.79117 296.105651 
L 353.716778 294.348227 
L 352.601979 293.839256 
L 350.507384 293.110445 
L 348.412789 292.594487 
L 346.318194 292.255568 
L 344.223598 292.060304 
L 340.034408 291.980963 
L 333.750622 292.271699 
L 325.372241 292.717292 
L 319.088455 292.827741 
L 308.615479 292.913311 
L 304.426288 293.154957 
L 300.237098 293.620497 
L 296.047907 294.348227 
L 291.858717 295.297938 
L 287.669526 296.472591 
L 275.101955 300.336002 
L 270.912764 301.414083 
L 266.493471 302.374711 
L 260.439788 303.36591 
L 252.061407 304.665337 
L 245.777621 305.909436 
L 241.58843 306.965756 
L 235.304645 308.853782 
L 224.831668 312.21613 
L 220.642478 313.365958 
L 216.453287 314.276111 
L 212.264097 314.984809 
L 205.980311 315.786424 
L 199.696525 316.599044 
L 195.507335 317.393989 
L 191.318144 318.521148 
L 187.128954 320.028429 
L 182.939763 321.969122 
L 178.750573 324.34365 
L 174.561382 327.13016 
L 170.372192 330.251164 
L 164.088406 335.091622 
L 161.075081 337.156141 
L 159.899215 337.863577 
L 157.80462 338.953152 
L 155.621482 339.831635 
L 153.615429 340.325643 
L 151.520834 340.544181 
L 149.426239 340.467327 
L 146.11011 339.831635 
L 143.142453 338.985755 
L 138.953263 337.786426 
L 136.858667 337.346898 
L 134.764072 337.072222 
L 132.669477 336.999146 
L 130.574882 337.166568 
L 128.480286 337.583319 
L 126.385691 338.288542 
L 124.291096 339.322315 
L 122.196501 340.69664 
L 120.067011 342.50713 
L 117.605434 345.182625 
L 115.635839 347.858119 
L 113.818119 350.887306 
L 112.643907 353.209108 
L 111.470994 355.884603 
L 110.456223 358.560098 
L 108.795191 363.911087 
L 107.518249 369.262076 
L 106.491126 374.613065 
L 105.724214 379.964055 
L 104.913154 387.990538 
L 104.415633 396.017022 
L 104.048882 406.719001 
L 103.951887 417.420979 
L 103.926679 436.149441 
L 103.817125 446.85142 
L 103.985188 452.202409 
L 104.454698 457.553398 
L 105.289958 462.904388 
L 106.420473 468.255377 
L 108.521458 476.281861 
L 111.723524 487.360768 
L 113.434754 492.334828 
L 114.580047 495.010323 
L 115.969217 497.685818 
L 118.00731 500.58449 
L 120.598834 503.036807 
L 122.196501 504.128246 
L 124.291096 505.013126 
L 126.385691 505.415769 
L 128.480286 505.398033 
L 130.574882 505.011237 
L 132.669477 504.303481 
L 135.290358 503.036807 
L 138.953263 500.933979 
L 143.142453 498.519788 
L 145.237048 497.544941 
L 147.331644 496.853984 
L 149.426239 496.49718 
L 151.520834 496.501478 
L 153.615429 496.855303 
L 156.109229 497.685818 
L 157.80462 498.415791 
L 161.99381 500.618794 
L 166.415077 503.036807 
L 170.372192 504.988039 
L 174.561382 506.680639 
L 178.750573 507.958962 
L 180.845168 508.450256 
L 180.845168 508.450256 
" style="fill:none;stroke:#800080;stroke-width:1.5;"/>
   </g>
   <g id="LineCollection_3">
    <path clip-path="url(#pf3e79a67f2)" d="M 191.318144 492.425708 
L 195.507335 492.313961 
L 199.696525 491.899551 
L 205.980311 490.928712 
L 216.453287 489.141757 
L 220.642478 488.642499 
L 224.831668 488.366416 
L 229.020859 488.339531 
L 235.304645 488.646901 
L 241.58843 489.004879 
L 245.777621 489.085756 
L 249.966811 488.99319 
L 256.250597 488.593862 
L 275.441887 486.983839 
L 279.291145 486.405025 
L 281.38574 485.950178 
L 283.480336 485.380219 
L 286.569605 484.308345 
L 289.764121 482.957249 
L 293.953312 480.803853 
L 298.142503 478.316339 
L 302.331693 475.546215 
L 306.520884 472.477836 
L 310.710074 469.045933 
L 314.899265 465.205719 
L 319.822028 460.228893 
L 323.277646 456.570263 
L 331.986775 446.85142 
L 336.53752 441.500431 
L 340.836287 436.149441 
L 344.223598 431.607548 
L 346.598954 428.122958 
L 348.412789 425.232395 
L 351.24036 420.096474 
L 352.601979 417.246418 
L 354.696575 412.054202 
L 356.379516 406.719001 
L 357.701885 401.368011 
L 360.98036 386.418187 
L 362.718293 379.964055 
L 364.061457 374.613065 
L 364.574304 371.937571 
L 364.921999 369.262076 
L 365.074016 366.586581 
L 365.023244 363.911087 
L 364.787647 361.235592 
L 363.918046 355.884603 
L 362.776112 350.533614 
L 360.98036 343.312288 
L 359.94436 339.831635 
L 358.885765 336.755908 
L 356.79117 331.743896 
L 354.696575 327.702095 
L 352.601979 324.321166 
L 350.205955 321.103173 
L 347.790827 318.427678 
L 346.318194 317.03398 
L 344.223598 315.370262 
L 342.129003 314.03325 
L 340.034408 312.968825 
L 337.939812 312.166606 
L 335.845217 311.562777 
L 333.750622 311.128657 
L 331.656027 310.836652 
L 327.466836 310.576866 
L 323.277646 310.600256 
L 306.520884 311.072197 
L 298.142503 311.133226 
L 293.953312 311.382426 
L 289.764121 311.863455 
L 285.574931 312.560763 
L 277.19655 314.307087 
L 268.818169 316.073234 
L 255.83769 318.427678 
L 249.966811 319.58226 
L 245.777621 320.589301 
L 239.493835 322.389617 
L 231.115454 325.19586 
L 222.737073 328.041118 
L 216.453287 329.966955 
L 209.52175 331.805151 
L 199.696525 334.295948 
L 195.507335 335.601231 
L 191.318144 337.232404 
L 187.128954 339.177626 
L 181.134131 342.50713 
L 178.750573 343.920162 
L 161.99381 354.44834 
L 159.331803 355.884603 
L 157.80462 356.635202 
L 155.710025 357.46798 
L 153.615429 358.047346 
L 151.520834 358.314408 
L 149.426239 358.226625 
L 147.331644 357.772945 
L 145.237048 356.985184 
L 143.045685 355.884603 
L 138.242049 353.209108 
L 136.858667 352.522696 
L 134.764072 351.713354 
L 132.669477 351.221623 
L 130.574882 351.103904 
L 128.480286 351.404131 
L 126.385691 352.16259 
L 124.291096 353.429903 
L 121.694141 355.884603 
L 119.666995 358.560098 
L 118.00731 361.393927 
L 115.912715 366.1887 
L 114.875275 369.262076 
L 113.431434 374.613065 
L 112.380146 379.964055 
L 111.619938 385.315044 
L 111.082136 390.666033 
L 110.546869 398.692517 
L 110.236397 406.719001 
L 110.134171 414.745485 
L 110.118807 433.473947 
L 109.932363 444.175925 
L 110.085874 449.526915 
L 110.298685 452.202409 
L 110.62633 454.877904 
L 111.081331 457.553398 
L 111.723524 460.436258 
L 112.407963 462.904388 
L 113.818119 467.093079 
L 115.912715 472.040552 
L 118.130883 476.281861 
L 120.101905 479.443685 
L 122.196501 482.043711 
L 124.291096 483.851381 
L 126.385691 484.869225 
L 128.480286 485.174526 
L 130.574882 484.85829 
L 132.669477 484.034566 
L 134.764072 482.832608 
L 143.142453 477.085913 
L 145.237048 476.08272 
L 147.331644 475.450072 
L 149.426239 475.173784 
L 151.520834 475.248553 
L 153.615429 475.638331 
L 155.710025 476.290088 
L 157.80462 477.204021 
L 161.093177 478.957355 
L 164.088406 480.841638 
L 169.163883 484.308345 
L 172.466787 486.521638 
L 174.561382 487.787498 
L 178.261879 489.659334 
L 178.750573 489.878087 
L 180.845168 490.671283 
L 182.939763 491.305418 
L 185.034358 491.787144 
L 187.128954 492.126264 
L 189.223549 492.334828 
L 191.318144 492.425708 
L 191.318144 492.425708 
" style="fill:none;stroke:#800080;stroke-width:1.5;"/>
   </g>
   <g id="LineCollection_4">
    <path clip-path="url(#pf3e79a67f2)" d="M 185.034358 476.64404 
L 187.128954 477.266937 
L 189.223549 477.75077 
L 191.318144 478.096818 
L 193.412739 478.312901 
L 197.60193 478.409982 
L 201.79112 478.173092 
L 208.074906 477.475904 
L 218.547883 476.188091 
L 224.831668 475.726701 
L 229.020859 475.626553 
L 233.210049 475.702469 
L 241.58843 476.172789 
L 247.872216 476.392637 
L 252.061407 476.276951 
L 256.250597 475.926477 
L 260.439788 475.360251 
L 264.628978 474.618652 
L 270.912764 473.245991 
L 275.101955 472.182877 
L 279.291145 470.892976 
L 283.480336 469.406716 
L 287.669526 467.582158 
L 291.858717 465.416127 
L 293.953312 464.235849 
L 298.142503 461.591581 
L 303.74778 457.553398 
L 307.114589 454.877904 
L 310.710074 451.782958 
L 314.899265 447.820627 
L 318.422583 444.175925 
L 323.277646 438.696485 
L 329.838602 430.798452 
L 334.064394 425.447463 
L 336.028329 422.771968 
L 337.939812 419.915154 
L 340.034408 416.243555 
L 340.789947 414.745485 
L 342.129003 411.541826 
L 342.854136 409.394495 
L 343.566117 406.719001 
L 344.223598 403.164373 
L 344.736615 398.692517 
L 345.498317 390.666033 
L 346.318194 385.877184 
L 347.043272 382.639549 
L 348.997014 374.613065 
L 349.488852 371.937571 
L 349.827186 369.262076 
L 349.996235 366.586581 
L 350.000923 363.911087 
L 349.859524 361.235592 
L 349.219119 355.884603 
L 348.412789 351.735902 
L 348.139537 350.533614 
L 347.388464 347.858119 
L 346.318194 344.851317 
L 345.287439 342.50713 
L 343.843338 339.831635 
L 342.072203 337.156141 
L 339.924712 334.480646 
L 337.31674 331.805151 
L 335.845217 330.520845 
L 333.750622 328.921018 
L 331.656027 327.598358 
L 329.402192 326.454162 
L 327.466836 325.675336 
L 325.372241 325.032661 
L 323.277646 324.567358 
L 321.18305 324.251104 
L 316.99386 323.955362 
L 312.804669 323.942137 
L 300.237098 324.120196 
L 287.669526 323.944426 
L 283.480336 324.126992 
L 279.291145 324.49209 
L 273.007359 325.312509 
L 264.628978 326.734574 
L 258.345193 327.958122 
L 252.061407 329.380408 
L 245.777621 331.010645 
L 239.493835 332.909801 
L 233.210049 335.071767 
L 224.831668 338.25303 
L 214.358692 342.272156 
L 208.074906 344.398306 
L 195.507335 348.406906 
L 191.318144 350.022361 
L 187.128954 351.903701 
L 182.939763 354.04725 
L 178.750573 356.426197 
L 174.561382 359.021069 
L 170.372192 361.836037 
L 166.183001 364.876268 
L 157.80462 371.130052 
L 155.710025 372.425018 
L 153.615429 373.438976 
L 151.520834 374.010481 
L 149.426239 374.061341 
L 147.331644 373.54966 
L 145.237048 372.490205 
L 140.915572 369.262076 
L 136.858667 366.199188 
L 134.764072 364.995465 
L 132.669477 364.189779 
L 130.510005 363.911087 
L 128.480286 364.226144 
L 126.385691 365.24963 
L 124.291096 367.084139 
L 122.196501 369.977655 
L 121.190562 371.937571 
L 120.001629 374.613065 
L 119.119767 377.28856 
L 118.00731 381.43422 
L 117.268355 385.315044 
L 116.513992 390.666033 
L 115.912715 396.715382 
L 115.46858 404.043506 
L 115.262372 412.06999 
L 115.09269 436.149441 
L 114.960725 441.500431 
L 115.06494 446.85142 
L 115.282186 449.526915 
L 115.912715 453.546591 
L 116.211398 454.877904 
L 117.010242 457.553398 
L 118.02975 460.228893 
L 120.101905 463.971399 
L 122.196501 466.558377 
L 124.291096 468.268701 
L 126.385691 469.278142 
L 128.480286 469.639547 
L 130.574882 469.447305 
L 132.669477 468.794875 
L 134.764072 467.805762 
L 143.503854 462.904388 
L 145.237048 462.256659 
L 147.331644 461.803327 
L 149.426239 461.701791 
L 151.520834 461.931723 
L 153.615429 462.440129 
L 155.710025 463.163734 
L 159.899215 464.998902 
L 168.277596 469.077487 
L 178.750573 474.111017 
L 182.939763 475.89693 
L 185.034358 476.64404 
L 185.034358 476.64404 
" style="fill:none;stroke:#800080;stroke-width:1.5;"/>
   </g>
   <g id="LineCollection_5">
    <path clip-path="url(#pf3e79a67f2)" d="M 193.412739 465.851365 
L 197.60193 466.478419 
L 201.79112 466.863767 
L 205.980311 467.046716 
L 212.264097 467.066478 
L 233.210049 466.770277 
L 249.966811 466.979686 
L 254.156002 466.762716 
L 258.345193 466.342984 
L 263.301265 465.579882 
L 266.723574 464.912255 
L 270.912764 463.91805 
L 275.101955 462.709217 
L 279.291145 461.267488 
L 283.480336 459.53068 
L 287.669526 457.470308 
L 291.858717 455.077831 
L 296.219256 452.202409 
L 300.237098 449.177256 
L 304.426288 445.550413 
L 306.520884 443.518431 
L 308.615479 441.316565 
L 310.787383 438.824936 
L 312.92162 436.149441 
L 316.752368 430.798452 
L 321.858403 422.771968 
L 324.876748 417.420979 
L 327.353588 412.06999 
L 328.338431 409.394495 
L 329.113838 406.719001 
L 330.191675 401.368011 
L 332.577729 385.315044 
L 335.419914 371.937571 
L 335.845217 368.352207 
L 335.98703 366.586581 
L 336.04039 363.911087 
L 335.845217 360.367582 
L 335.666609 358.560098 
L 335.242517 355.884603 
L 334.64597 353.209108 
L 333.750622 350.26564 
L 332.828712 347.858119 
L 331.506948 345.182625 
L 329.561431 342.21992 
L 327.466836 339.820916 
L 325.372241 338.062154 
L 323.277646 336.702806 
L 321.18305 335.716619 
L 319.088455 334.992268 
L 316.926311 334.480646 
L 314.899265 334.185764 
L 310.710074 333.955633 
L 306.520884 334.026613 
L 298.142503 334.256013 
L 293.953312 334.152378 
L 285.574931 333.580481 
L 281.38574 333.361487 
L 277.19655 333.323431 
L 273.007359 333.495821 
L 268.818169 333.871207 
L 264.34411 334.480646 
L 260.439788 335.145067 
L 256.250597 336.011475 
L 249.966811 337.595486 
L 245.777621 338.821494 
L 239.493835 340.95217 
L 235.304645 342.579278 
L 229.294808 345.182625 
L 222.737073 348.321193 
L 214.358692 352.342467 
L 208.074906 355.017171 
L 195.507335 359.956416 
L 191.318144 361.94094 
L 187.128954 364.281126 
L 182.939763 367.010272 
L 178.750573 370.081547 
L 174.561382 373.429041 
L 170.372192 377.066872 
L 167.340943 379.964055 
L 164.088406 383.368808 
L 159.899215 388.226601 
L 155.656625 393.341528 
L 153.118611 396.017022 
L 151.520834 397.488483 
L 149.426239 398.66793 
L 147.331644 398.816155 
L 145.237048 397.635273 
L 143.142453 395.049671 
L 136.858667 384.286208 
L 134.764072 381.669147 
L 132.669477 379.964055 
L 130.574882 379.358123 
L 128.342808 379.964055 
L 126.385691 381.823631 
L 125.903593 382.639549 
L 124.291096 385.887135 
L 123.655681 387.990538 
L 122.371696 393.341528 
L 121.937972 396.017022 
L 121.323761 401.368011 
L 120.936687 406.719001 
L 120.77171 412.06999 
L 120.623719 430.798452 
L 120.173763 441.500431 
L 120.256323 444.175925 
L 120.525859 446.85142 
L 121.043127 449.526915 
L 122.196501 452.981633 
L 123.327696 454.877904 
L 124.291096 456.136932 
L 126.385691 457.739728 
L 128.480286 458.345618 
L 130.574882 458.268453 
L 132.886754 457.553398 
L 134.764072 456.600196 
L 137.494376 454.877904 
L 141.047858 452.460868 
L 143.142453 451.261717 
L 145.237048 450.470617 
L 147.331644 450.161305 
L 149.426239 450.318827 
L 151.520834 450.88011 
L 154.476744 452.202409 
L 157.80462 453.926363 
L 161.99381 456.18948 
L 166.183001 458.190797 
L 170.372192 459.842895 
L 176.655977 461.829445 
L 185.034358 464.027796 
L 191.318144 465.451206 
L 193.412739 465.851365 
L 193.412739 465.851365 
" style="fill:none;stroke:#800080;stroke-width:1.5;"/>
   </g>
   <g id="LineCollection_6">
    <path clip-path="url(#pf3e79a67f2)" d="M 197.60193 457.581524 
L 208.074906 458.929921 
L 214.358692 459.523178 
L 220.642478 459.898454 
L 229.020859 460.133925 
L 239.493835 460.203721 
L 247.872216 460.061279 
L 254.156002 459.709901 
L 260.439788 459.057061 
L 264.628978 458.426969 
L 269.076971 457.553398 
L 273.007359 456.562082 
L 277.19655 455.248389 
L 281.38574 453.604687 
L 285.574931 451.597799 
L 289.764121 449.180651 
L 293.953312 446.29165 
L 296.618018 444.175925 
L 300.237098 440.852468 
L 302.331693 438.666575 
L 304.49508 436.149441 
L 306.559578 433.473947 
L 308.615479 430.526795 
L 311.804579 425.447463 
L 314.899265 419.894531 
L 317.429876 414.745485 
L 319.088455 410.667917 
L 319.567048 409.394495 
L 320.420935 406.719001 
L 321.723039 401.368011 
L 322.643738 396.017022 
L 326.036318 371.937571 
L 326.212042 369.262076 
L 326.266666 366.586581 
L 326.185521 363.911087 
L 325.95743 361.235592 
L 325.372241 357.626036 
L 324.98685 355.884603 
L 324.162307 353.209108 
L 323.010424 350.533614 
L 321.18305 347.678785 
L 318.625043 345.182625 
L 316.99386 344.153362 
L 314.899265 343.199046 
L 312.516228 342.50713 
L 310.710074 342.206861 
L 308.615479 342.018428 
L 304.426288 341.939889 
L 296.047907 341.952972 
L 291.858717 341.676469 
L 287.669526 341.169245 
L 279.291145 340.0007 
L 275.101955 339.653204 
L 270.912764 339.574025 
L 266.101688 339.831635 
L 262.534383 340.228564 
L 258.345193 340.921678 
L 254.156002 341.839249 
L 249.966811 342.969771 
L 245.777621 344.302317 
L 241.58843 345.852128 
L 236.882136 347.858119 
L 233.210049 349.632441 
L 229.020859 351.874765 
L 222.737073 355.559609 
L 210.169502 362.844008 
L 197.789981 369.262076 
L 195.507335 370.635796 
L 191.318144 373.45419 
L 187.128954 376.668842 
L 180.845168 381.900072 
L 173.863414 387.990538 
L 170.372192 391.342513 
L 168.277596 393.577804 
L 166.183001 396.024388 
L 164.088406 398.708732 
L 160.399536 404.043506 
L 157.80462 408.2865 
L 157.142751 409.394495 
L 154.266043 414.745485 
L 151.520834 420.940958 
L 150.732873 422.771968 
L 149.873019 425.447463 
L 149.262525 428.122958 
L 148.934661 430.798452 
L 149.226731 433.473947 
L 149.426239 433.951093 
L 150.101005 436.149441 
L 151.729082 438.824936 
L 153.848622 441.500431 
L 156.420473 444.175925 
L 159.899215 447.136254 
L 163.341164 449.526915 
L 166.183001 451.108317 
L 168.58232 452.202409 
L 170.372192 452.895474 
L 174.561382 454.147308 
L 178.750573 455.024869 
L 185.034358 455.981641 
L 197.60193 457.581524 
L 197.60193 457.581524 
" style="fill:none;stroke:#800080;stroke-width:1.5;"/>
    <path clip-path="url(#pf3e79a67f2)" d="M 128.480286 444.684309 
L 130.574882 445.823002 
L 132.669477 445.181673 
L 133.951622 444.175925 
L 134.764072 443.28139 
L 136.032673 441.500431 
L 136.858667 439.717837 
L 137.275423 438.824936 
L 137.842517 436.149441 
L 137.76536 433.473947 
L 137.098676 430.798452 
L 136.858667 430.168297 
L 135.978629 428.122958 
L 134.800241 425.447463 
L 134.764072 425.353493 
L 133.269695 422.771968 
L 132.669477 421.218148 
L 130.574882 421.266758 
L 130.308274 422.771968 
L 129.700274 425.447463 
L 128.962788 428.122958 
L 128.480286 429.640169 
L 128.299854 430.798452 
L 127.861861 433.473947 
L 127.487332 436.149441 
L 127.293956 438.824936 
L 127.448786 441.500431 
L 128.188914 444.175925 
L 128.480286 444.684309 
" style="fill:none;stroke:#800080;stroke-width:1.5;"/>
   </g>
   <g id="LineCollection_7">
    <path clip-path="url(#pf3e79a67f2)" d="M 224.831668 449.623812 
L 231.115454 450.073396 
L 235.304645 450.194894 
L 241.58843 450.095018 
L 247.872216 449.711534 
L 256.250597 448.935916 
L 264.628978 448.022444 
L 268.818169 447.409204 
L 273.007359 446.543454 
L 277.19655 445.291102 
L 280.101002 444.175925 
L 283.480336 442.520426 
L 285.574931 441.320603 
L 289.124142 438.824936 
L 291.858717 436.490277 
L 292.22589 436.149441 
L 294.804745 433.473947 
L 297.031776 430.798452 
L 298.999848 428.122958 
L 300.7812 425.447463 
L 302.426889 422.771968 
L 305.361106 417.420979 
L 306.690204 414.745485 
L 308.967223 409.394495 
L 309.899215 406.719001 
L 310.710074 404.043506 
L 311.356172 401.368011 
L 312.303533 396.017022 
L 312.866674 390.666033 
L 313.120873 385.315044 
L 313.139311 379.964055 
L 312.897202 374.613065 
L 312.636559 371.937571 
L 312.244385 369.262076 
L 311.684464 366.586581 
L 310.710074 363.470178 
L 309.635435 361.235592 
L 308.615479 359.744058 
L 307.589181 358.560098 
L 306.520884 357.659323 
L 304.426288 356.332674 
L 302.331693 355.443297 
L 298.142503 354.27061 
L 287.669526 351.804346 
L 275.101955 348.427878 
L 270.912764 347.725855 
L 266.723574 347.431055 
L 262.534383 347.532425 
L 258.345193 348.017323 
L 254.156002 348.87241 
L 249.966811 350.059967 
L 247.872216 350.785029 
L 243.683026 352.51258 
L 241.58843 353.511089 
L 237.28763 355.884603 
L 233.210049 358.5824 
L 229.020859 361.838417 
L 223.525003 366.586581 
L 220.501822 369.262076 
L 216.453287 372.558809 
L 212.264097 375.471285 
L 208.074906 378.007064 
L 199.696525 382.914075 
L 195.507335 385.680263 
L 191.318144 388.780115 
L 185.79448 393.341528 
L 180.845168 397.72777 
L 176.655977 401.645315 
L 172.466787 405.912652 
L 170.372192 408.312282 
L 168.277596 411.009482 
L 166.183001 414.162771 
L 165.832418 414.745485 
L 164.088406 418.158539 
L 163.272296 420.096474 
L 162.40692 422.771968 
L 161.836343 425.447463 
L 161.595924 428.122958 
L 161.724683 430.798452 
L 162.291719 433.473947 
L 163.389511 436.149441 
L 165.169761 438.824936 
L 166.183001 439.911271 
L 168.277596 441.76507 
L 170.372192 443.086682 
L 172.553464 444.175925 
L 174.561382 444.902707 
L 176.655977 445.49309 
L 180.845168 446.281971 
L 185.034358 446.712422 
L 191.318144 447.016256 
L 203.885716 447.511397 
L 210.169502 448.005579 
L 218.547883 448.926751 
L 224.831668 449.623812 
L 224.831668 449.623812 
" style="fill:none;stroke:#800080;stroke-width:1.5;"/>
   </g>
   <g id="LineCollection_8">
    <path clip-path="url(#pf3e79a67f2)" d="M 178.750573 436.418763 
L 180.845168 437.192579 
L 182.939763 437.765622 
L 185.034358 438.178921 
L 189.223549 438.654193 
L 193.412739 438.815362 
L 199.696525 438.724693 
L 208.074906 438.304251 
L 220.642478 437.635444 
L 226.926264 437.58976 
L 239.493835 437.81406 
L 243.683026 437.646206 
L 247.872216 437.296415 
L 256.250597 436.278965 
L 264.628978 435.115968 
L 268.818169 434.431439 
L 273.108972 433.473947 
L 275.101955 432.803501 
L 277.19655 431.944362 
L 279.508771 430.798452 
L 281.38574 429.551881 
L 283.480336 427.95447 
L 286.027438 425.447463 
L 288.247251 422.771968 
L 290.154975 420.096474 
L 291.858717 417.420979 
L 293.953312 413.589392 
L 295.931453 409.394495 
L 296.932544 406.719001 
L 298.142503 402.548231 
L 298.406219 401.368011 
L 298.794849 398.692517 
L 298.972657 396.017022 
L 298.939515 393.341528 
L 298.715951 390.666033 
L 298.142503 386.884278 
L 297.261608 382.639549 
L 295.936949 377.28856 
L 295.068101 374.613065 
L 293.91868 371.937571 
L 291.858717 368.755085 
L 289.764121 366.453752 
L 286.580742 363.911087 
L 281.38574 360.809706 
L 276.949095 358.560098 
L 273.007359 356.954058 
L 269.757854 355.884603 
L 268.818169 355.646015 
L 266.723574 355.234691 
L 264.628978 354.963986 
L 262.534383 354.839089 
L 260.439788 354.860299 
L 258.345193 355.024442 
L 256.250597 355.326369 
L 253.695866 355.884603 
L 252.061407 356.37121 
L 249.966811 357.125986 
L 246.698624 358.560098 
L 243.683026 360.301182 
L 241.58843 361.716385 
L 238.84061 363.911087 
L 235.304645 367.456291 
L 233.210049 369.862629 
L 226.926264 377.346017 
L 224.246723 379.964055 
L 222.737073 381.242775 
L 220.642478 382.801866 
L 218.547883 384.156888 
L 214.358692 386.460367 
L 203.885716 391.604662 
L 199.696525 394.050416 
L 196.793239 396.017022 
L 193.307101 398.692517 
L 189.223549 402.287694 
L 184.654246 406.719001 
L 179.648913 412.06999 
L 176.655977 415.814827 
L 175.5142 417.420979 
L 173.972963 420.096474 
L 172.8703 422.771968 
L 172.261613 425.447463 
L 172.231193 428.122958 
L 172.917621 430.798452 
L 174.585156 433.473947 
L 176.655977 435.190001 
L 178.750573 436.418763 
L 178.750573 436.418763 
" style="fill:none;stroke:#800080;stroke-width:1.5;"/>
   </g>
   <g id="LineCollection_9">
    <path clip-path="url(#pf3e79a67f2)" d="M 189.223549 428.235782 
L 191.318144 429.06826 
L 193.412739 429.602186 
L 195.507335 429.908574 
L 197.60193 430.037492 
L 199.696525 430.024264 
L 203.885716 429.664319 
L 208.074906 428.95815 
L 212.264097 427.965896 
L 224.831668 424.042211 
L 226.926264 423.56191 
L 229.020859 423.205342 
L 231.115454 422.974059 
L 235.304645 422.841781 
L 247.872216 423.110889 
L 252.061407 422.735489 
L 256.250597 421.922003 
L 258.345193 421.34319 
L 261.790343 420.096474 
L 262.534383 419.767537 
L 264.628978 418.692429 
L 266.723574 417.420002 
L 269.971796 414.745485 
L 272.303086 412.06999 
L 274.008003 409.394495 
L 275.239672 406.719001 
L 276.097058 404.043506 
L 276.644398 401.368011 
L 276.953417 398.692517 
L 277.149076 393.341528 
L 277.19655 382.576336 
L 277.033645 379.964055 
L 276.599599 377.28856 
L 275.763778 374.613065 
L 274.371414 371.937571 
L 272.266913 369.262076 
L 269.190251 366.586581 
L 268.818169 366.349053 
L 266.723574 365.165211 
L 263.783587 363.911087 
L 262.534383 363.589434 
L 260.439788 363.284306 
L 258.345193 363.229559 
L 256.250597 363.423513 
L 253.982765 363.911087 
L 252.061407 364.666402 
L 249.966811 365.730587 
L 247.872216 367.117668 
L 245.434499 369.262076 
L 243.170168 371.937571 
L 241.317748 374.613065 
L 236.261316 382.639549 
L 234.209084 385.315044 
L 233.210049 386.475955 
L 231.115454 388.582182 
L 228.577396 390.666033 
L 226.926264 391.863294 
L 224.346596 393.341528 
L 222.737073 394.194619 
L 220.642478 395.11824 
L 212.264097 398.131734 
L 210.169502 398.895336 
L 205.980311 400.752303 
L 203.885716 401.860966 
L 200.456642 404.043506 
L 197.60193 406.269393 
L 195.507335 408.18739 
L 193.412739 410.316456 
L 191.318144 412.717738 
L 189.223549 415.542647 
L 188.00897 417.420979 
L 186.742938 420.096474 
L 186.162065 422.771968 
L 186.592339 425.447463 
L 187.128954 426.216002 
L 189.223549 428.235782 
L 189.223549 428.235782 
" style="fill:none;stroke:#800080;stroke-width:1.5;"/>
   </g>
   <g id="LineCollection_10"/>
   <g id="patch_3">
    <path d="M 78.21 655.54 
L 78.21 123.116571 
" style="fill:none;stroke:#ffffff;stroke-linecap:square;stroke-linejoin:miter;stroke-width:1.25;"/>
   </g>
   <g id="patch_4">
    <path d="M 78.21 655.54 
L 495.034457 655.54 
" style="fill:none;stroke:#ffffff;stroke-linecap:square;stroke-linejoin:miter;stroke-width:1.25;"/>
   </g>
  </g>
  <g id="axes_2">
   <g id="patch_5">
    <path d="M 78.21 104.757143 
L 599.240571 104.757143 
L 599.240571 12.96 
L 78.21 12.96 
z
" style="fill:#eaeaf2;"/>
   </g>
   <g id="matplotlib.axis_3">
    <g id="xtick_5">
     <g id="line2d_11">
      <path clip-path="url(#p17672ab807)" d="M 138.687992 104.757143 
L 138.687992 12.96 
" style="fill:none;stroke:#ffffff;stroke-linecap:round;"/>
     </g>
    </g>
    <g id="xtick_6">
     <g id="line2d_12">
      <path clip-path="url(#p17672ab807)" d="M 280.449424 104.757143 
L 280.449424 12.96 
" style="fill:none;stroke:#ffffff;stroke-linecap:round;"/>
     </g>
    </g>
    <g id="xtick_7">
     <g id="line2d_13">
      <path clip-path="url(#p17672ab807)" d="M 422.210855 104.757143 
L 422.210855 12.96 
" style="fill:none;stroke:#ffffff;stroke-linecap:round;"/>
     </g>
    </g>
    <g id="xtick_8">
     <g id="line2d_14">
      <path clip-path="url(#p17672ab807)" d="M 563.972287 104.757143 
L 563.972287 12.96 
" style="fill:none;stroke:#ffffff;stroke-linecap:round;"/>
     </g>
    </g>
   </g>
   <g id="matplotlib.axis_4">
    <g id="ytick_7"/>
    <g id="ytick_8"/>
   </g>
   <g id="line2d_15">
    <path clip-path="url(#p17672ab807)" d="M 93.622194 104.011475 
L 96.085542 103.553887 
L 98.548889 102.867009 
L 101.012237 101.8668 
L 103.475585 100.454566 
L 105.938932 98.522223 
L 108.40228 95.961712 
L 110.865628 92.678764 
L 113.328975 88.610298 
L 115.792323 83.743675 
L 118.25567 78.134913 
L 120.719018 71.922167 
L 128.109061 52.291347 
L 130.572409 46.599718 
L 133.035756 41.965601 
L 135.499104 38.701665 
L 137.962452 37.01529 
L 140.425799 36.97642 
L 142.889147 38.502014 
L 145.352495 41.360348 
L 147.815842 45.19512 
L 152.742538 53.999462 
L 155.205885 58.042986 
L 157.669233 61.314223 
L 160.132581 63.539549 
L 162.595928 64.576983 
L 165.059276 64.421542 
L 167.522624 63.19334 
L 169.985971 61.110964 
L 172.449319 58.454464 
L 177.376014 52.596762 
L 179.839362 49.898213 
L 182.30271 47.575035 
L 184.766057 45.689519 
L 187.229405 44.225204 
L 189.692753 43.10478 
L 194.619448 41.435577 
L 199.546143 39.812411 
L 204.472838 37.800092 
L 214.326229 33.28223 
L 216.789577 32.307231 
L 219.252924 31.454982 
L 221.716272 30.734486 
L 224.17962 30.144613 
L 229.106315 29.317677 
L 234.03301 28.856135 
L 241.423053 28.508653 
L 248.813096 28.102297 
L 253.739792 27.589066 
L 258.666487 26.796222 
L 263.593182 25.701574 
L 268.519878 24.33137 
L 275.90992 21.95289 
L 283.299963 19.646918 
L 288.226659 18.448479 
L 290.690006 18.004269 
L 293.153354 17.674495 
L 298.080049 17.348764 
L 303.006745 17.387883 
L 310.396788 17.80849 
L 322.713526 18.743797 
L 327.640221 19.312822 
L 332.566917 20.161699 
L 337.493612 21.367514 
L 342.420307 22.928513 
L 347.347003 24.761404 
L 357.200393 28.772415 
L 364.590436 31.973746 
L 369.517131 34.421257 
L 374.443827 37.294043 
L 379.370522 40.58436 
L 389.223913 47.414077 
L 391.68726 48.924949 
L 394.150608 50.297091 
L 396.613956 51.526405 
L 401.540651 53.624659 
L 411.394042 57.453654 
L 413.857389 58.57828 
L 416.320737 59.829049 
L 418.784085 61.217553 
L 421.247432 62.745141 
L 426.174128 66.181248 
L 431.100823 70.00715 
L 445.880909 81.899025 
L 450.807604 85.403546 
L 455.734299 88.51261 
L 460.660995 91.238442 
L 465.58769 93.638333 
L 470.514385 95.770127 
L 475.441081 97.661704 
L 480.367776 99.308801 
L 485.294471 100.694092 
L 490.221167 101.809378 
L 495.147862 102.667148 
L 500.074557 103.299221 
L 505.001253 103.748012 
L 512.391295 104.17143 
L 522.244686 104.450461 
L 539.48812 104.62083 
L 581.36503 104.755568 
L 583.828378 104.756169 
L 583.828378 104.756169 
" style="fill:none;stroke:#800080;stroke-linecap:round;stroke-width:1.5;"/>
   </g>
   <g id="patch_6">
    <path d="M 78.21 104.757143 
L 599.240571 104.757143 
" style="fill:none;stroke:#ffffff;stroke-linecap:square;stroke-linejoin:miter;stroke-width:1.25;"/>
   </g>
  </g>
  <g id="axes_3">
   <g id="patch_7">
    <path d="M 617.207143 655.54 
L 707.04 655.54 
L 707.04 123.116571 
L 617.207143 123.116571 
z
" style="fill:#eaeaf2;"/>
   </g>
   <g id="matplotlib.axis_5">
    <g id="xtick_9"/>
    <g id="xtick_10"/>
   </g>
   <g id="matplotlib.axis_6">
    <g id="ytick_9">
     <g id="line2d_16">
      <path clip-path="url(#pb82914f9a4)" d="M 617.207143 612.951711 
L 707.04 612.951711 
" style="fill:none;stroke:#ffffff;stroke-linecap:round;"/>
     </g>
    </g>
    <g id="ytick_10">
     <g id="line2d_17">
      <path clip-path="url(#pb82914f9a4)" d="M 617.207143 515.395671 
L 707.04 515.395671 
" style="fill:none;stroke:#ffffff;stroke-linecap:round;"/>
     </g>
    </g>
    <g id="ytick_11">
     <g id="line2d_18">
      <path clip-path="url(#pb82914f9a4)" d="M 617.207143 417.839631 
L 707.04 417.839631 
" style="fill:none;stroke:#ffffff;stroke-linecap:round;"/>
     </g>
    </g>
    <g id="ytick_12">
     <g id="line2d_19">
      <path clip-path="url(#pb82914f9a4)" d="M 617.207143 320.283591 
L 707.04 320.283591 
" style="fill:none;stroke:#ffffff;stroke-linecap:round;"/>
     </g>
    </g>
    <g id="ytick_13">
     <g id="line2d_20">
      <path clip-path="url(#pb82914f9a4)" d="M 617.207143 222.727551 
L 707.04 222.727551 
" style="fill:none;stroke:#ffffff;stroke-linecap:round;"/>
     </g>
    </g>
    <g id="ytick_14">
     <g id="line2d_21">
      <path clip-path="url(#pb82914f9a4)" d="M 617.207143 125.171511 
L 707.04 125.171511 
" style="fill:none;stroke:#ffffff;stroke-linecap:round;"/>
     </g>
    </g>
   </g>
   <g id="line2d_22">
    <path clip-path="url(#pb82914f9a4)" d="M 617.230071 644.686813 
L 617.363322 636.987561 
L 617.62527 631.854726 
L 618.091739 626.721891 
L 619.160891 616.456222 
L 619.263004 613.889804 
L 619.246798 611.323387 
L 618.889836 606.190552 
L 617.775341 595.924883 
L 617.455879 590.792048 
L 617.370095 585.659213 
L 617.560431 580.526379 
L 617.809618 577.959961 
L 618.204822 575.393544 
L 618.777224 572.827127 
L 619.541681 570.260709 
L 621.539062 565.127875 
L 623.566664 559.99504 
L 624.270109 557.428623 
L 624.619134 554.862205 
L 624.575728 552.295788 
L 624.184941 549.729371 
L 622.447453 542.030118 
L 622.327782 539.463701 
L 622.69313 536.897284 
L 623.582077 534.330866 
L 624.930914 531.764449 
L 629.897252 524.065197 
L 631.165096 521.49878 
L 632.062346 518.932362 
L 633.929265 511.23311 
L 635.044299 508.666693 
L 636.652541 506.100275 
L 638.689591 503.533858 
L 643.201994 498.401023 
L 645.216785 495.834606 
L 646.915409 493.268189 
L 649.684936 488.135354 
L 651.085618 485.568937 
L 652.67686 483.002519 
L 654.492393 480.436102 
L 658.613002 475.303267 
L 663.05694 470.170432 
L 667.816849 465.037598 
L 672.948644 459.904763 
L 683.378659 449.639094 
L 688.106203 444.506259 
L 690.236657 441.939842 
L 692.179131 439.373424 
L 693.920557 436.807007 
L 695.459142 434.240589 
L 696.80465 431.674172 
L 697.976962 429.107755 
L 699.002187 426.541337 
L 700.706148 421.408503 
L 701.404905 418.842085 
L 701.987938 416.275668 
L 702.42794 413.709251 
L 702.693973 411.142833 
L 702.762284 408.576416 
L 702.624291 406.009999 
L 702.288874 403.443581 
L 701.779232 400.877164 
L 700.370001 395.744329 
L 697.172738 385.47866 
L 696.568935 382.912242 
L 695.729161 377.779408 
L 694.973651 372.646573 
L 694.358 370.080156 
L 693.436199 367.513738 
L 692.138852 364.947321 
L 690.448303 362.380903 
L 688.398301 359.814486 
L 686.060645 357.248069 
L 680.873788 352.115234 
L 664.764792 336.71673 
L 659.601398 331.583895 
L 654.788813 326.45106 
L 650.4678 321.318226 
L 646.590933 316.185391 
L 643.006732 311.052556 
L 639.653634 305.919722 
L 636.595431 300.786887 
L 633.883402 295.654052 
L 631.488618 290.521217 
L 629.394161 285.388383 
L 627.665715 280.255548 
L 626.370311 275.122713 
L 625.449205 269.989879 
L 623.469311 257.157792 
L 620.693081 241.759288 
L 620.042783 236.626453 
L 619.364376 228.927201 
L 618.433664 213.528697 
L 617.806452 200.69661 
L 617.460263 187.864523 
L 617.339337 172.466019 
L 617.207968 133.969759 
L 617.207968 133.969759 
" style="fill:none;stroke:#800080;stroke-linecap:round;stroke-width:1.5;"/>
   </g>
   <g id="patch_8">
    <path d="M 617.207143 655.54 
L 617.207143 123.116571 
" style="fill:none;stroke:#ffffff;stroke-linecap:square;stroke-linejoin:miter;stroke-width:1.25;"/>
   </g>
  </g>
  <g id="axes_4">
   <g id="patch_9">
    <path clip-path="url(#p2ef5730dc5)" d="M 521.085986 655.54 
L 521.085986 596.381841 
L 521.085986 182.27473 
L 521.085986 123.116571 
L 547.707157 123.116571 
L 547.707157 182.27473 
L 547.707157 596.381841 
L 547.707157 655.54 
z
" style="fill:#eaeaf2;stroke:#eaeaf2;stroke-linejoin:miter;stroke-width:0.01;"/>
   </g>
   <g id="matplotlib.axis_7"/>
   <g id="matplotlib.axis_8">
    <g id="ytick_15">
     <g id="line2d_23">
      <path clip-path="url(#p2ef5730dc5)" d="M 521.085986 655.54 
L 547.707157 655.54 
" style="fill:none;stroke:#ffffff;stroke-linecap:round;"/>
     </g>
     <g id="line2d_24">
      <defs>
       <path d="M 0 0 
L 6 0 
" id="m9195cdf27b" style="stroke:#262626;stroke-width:1.25;"/>
      </defs>
      <g>
       <use style="fill:#262626;stroke:#262626;stroke-width:1.25;" x="547.707157" xlink:href="#m9195cdf27b" y="655.54"/>
      </g>
     </g>
     <g id="text_13">
      <!-- 0.0472 -->
      <g style="fill:#262626;" transform="translate(557.207157 666.276719)scale(0.3 -0.3)">
       <defs>
        <path d="M 32.328125 0 
L 32.328125 17.140625 
L 1.265625 17.140625 
L 1.265625 25.203125 
L 33.9375 71.578125 
L 41.109375 71.578125 
L 41.109375 25.203125 
L 50.78125 25.203125 
L 50.78125 17.140625 
L 41.109375 17.140625 
L 41.109375 0 
z
M 32.328125 25.203125 
L 32.328125 57.46875 
L 9.90625 25.203125 
z
" id="ArialMT-52"/>
        <path d="M 4.734375 62.203125 
L 4.734375 70.65625 
L 51.078125 70.65625 
L 51.078125 63.8125 
Q 44.234375 56.546875 37.515625 44.484375 
Q 30.8125 32.421875 27.15625 19.671875 
Q 24.515625 10.6875 23.78125 0 
L 14.75 0 
Q 14.890625 8.453125 18.0625 20.40625 
Q 21.234375 32.375 27.171875 43.484375 
Q 33.109375 54.59375 39.796875 62.203125 
z
" id="ArialMT-55"/>
       </defs>
       <use xlink:href="#ArialMT-48"/>
       <use x="55.615234" xlink:href="#ArialMT-46"/>
       <use x="83.398438" xlink:href="#ArialMT-48"/>
       <use x="139.013672" xlink:href="#ArialMT-52"/>
       <use x="194.628906" xlink:href="#ArialMT-55"/>
       <use x="250.244141" xlink:href="#ArialMT-50"/>
      </g>
     </g>
    </g>
    <g id="ytick_16">
     <g id="line2d_25">
      <path clip-path="url(#p2ef5730dc5)" d="M 521.085986 596.381841 
L 547.707157 596.381841 
" style="fill:none;stroke:#ffffff;stroke-linecap:round;"/>
     </g>
     <g id="line2d_26">
      <g>
       <use style="fill:#262626;stroke:#262626;stroke-width:1.25;" x="547.707157" xlink:href="#m9195cdf27b" y="596.381841"/>
      </g>
     </g>
     <g id="text_14">
      <!-- 0.1535 -->
      <g style="fill:#262626;" transform="translate(557.207157 607.11856)scale(0.3 -0.3)">
       <use xlink:href="#ArialMT-48"/>
       <use x="55.615234" xlink:href="#ArialMT-46"/>
       <use x="83.398438" xlink:href="#ArialMT-49"/>
       <use x="139.013672" xlink:href="#ArialMT-53"/>
       <use x="194.628906" xlink:href="#ArialMT-51"/>
       <use x="250.244141" xlink:href="#ArialMT-53"/>
      </g>
     </g>
    </g>
    <g id="ytick_17">
     <g id="line2d_27">
      <path clip-path="url(#p2ef5730dc5)" d="M 521.085986 537.223683 
L 547.707157 537.223683 
" style="fill:none;stroke:#ffffff;stroke-linecap:round;"/>
     </g>
     <g id="line2d_28">
      <g>
       <use style="fill:#262626;stroke:#262626;stroke-width:1.25;" x="547.707157" xlink:href="#m9195cdf27b" y="537.223683"/>
      </g>
     </g>
     <g id="text_15">
      <!-- 0.2452 -->
      <g style="fill:#262626;" transform="translate(557.207157 547.960401)scale(0.3 -0.3)">
       <use xlink:href="#ArialMT-48"/>
       <use x="55.615234" xlink:href="#ArialMT-46"/>
       <use x="83.398438" xlink:href="#ArialMT-50"/>
       <use x="139.013672" xlink:href="#ArialMT-52"/>
       <use x="194.628906" xlink:href="#ArialMT-53"/>
       <use x="250.244141" xlink:href="#ArialMT-50"/>
      </g>
     </g>
    </g>
    <g id="ytick_18">
     <g id="line2d_29">
      <path clip-path="url(#p2ef5730dc5)" d="M 521.085986 478.065524 
L 547.707157 478.065524 
" style="fill:none;stroke:#ffffff;stroke-linecap:round;"/>
     </g>
     <g id="line2d_30">
      <g>
       <use style="fill:#262626;stroke:#262626;stroke-width:1.25;" x="547.707157" xlink:href="#m9195cdf27b" y="478.065524"/>
      </g>
     </g>
     <g id="text_16">
      <!-- 0.3248 -->
      <g style="fill:#262626;" transform="translate(557.207157 488.802243)scale(0.3 -0.3)">
       <defs>
        <path d="M 17.671875 38.8125 
Q 12.203125 40.828125 9.5625 44.53125 
Q 6.9375 48.25 6.9375 53.421875 
Q 6.9375 61.234375 12.546875 66.546875 
Q 18.171875 71.875 27.484375 71.875 
Q 36.859375 71.875 42.578125 66.421875 
Q 48.296875 60.984375 48.296875 53.171875 
Q 48.296875 48.1875 45.671875 44.5 
Q 43.0625 40.828125 37.75 38.8125 
Q 44.34375 36.671875 47.78125 31.875 
Q 51.21875 27.09375 51.21875 20.453125 
Q 51.21875 11.28125 44.71875 5.03125 
Q 38.234375 -1.21875 27.640625 -1.21875 
Q 17.046875 -1.21875 10.546875 5.046875 
Q 4.046875 11.328125 4.046875 20.703125 
Q 4.046875 27.6875 7.59375 32.390625 
Q 11.140625 37.109375 17.671875 38.8125 
z
M 15.921875 53.71875 
Q 15.921875 48.640625 19.1875 45.40625 
Q 22.46875 42.1875 27.6875 42.1875 
Q 32.765625 42.1875 36.015625 45.375 
Q 39.265625 48.578125 39.265625 53.21875 
Q 39.265625 58.0625 35.90625 61.359375 
Q 32.5625 64.65625 27.59375 64.65625 
Q 22.5625 64.65625 19.234375 61.421875 
Q 15.921875 58.203125 15.921875 53.71875 
z
M 13.09375 20.65625 
Q 13.09375 16.890625 14.875 13.375 
Q 16.65625 9.859375 20.171875 7.921875 
Q 23.6875 6 27.734375 6 
Q 34.03125 6 38.125 10.046875 
Q 42.234375 14.109375 42.234375 20.359375 
Q 42.234375 26.703125 38.015625 30.859375 
Q 33.796875 35.015625 27.4375 35.015625 
Q 21.234375 35.015625 17.15625 30.90625 
Q 13.09375 26.8125 13.09375 20.65625 
z
" id="ArialMT-56"/>
       </defs>
       <use xlink:href="#ArialMT-48"/>
       <use x="55.615234" xlink:href="#ArialMT-46"/>
       <use x="83.398438" xlink:href="#ArialMT-51"/>
       <use x="139.013672" xlink:href="#ArialMT-50"/>
       <use x="194.628906" xlink:href="#ArialMT-52"/>
       <use x="250.244141" xlink:href="#ArialMT-56"/>
      </g>
     </g>
    </g>
    <g id="ytick_19">
     <g id="line2d_31">
      <path clip-path="url(#p2ef5730dc5)" d="M 521.085986 418.907365 
L 547.707157 418.907365 
" style="fill:none;stroke:#ffffff;stroke-linecap:round;"/>
     </g>
     <g id="line2d_32">
      <g>
       <use style="fill:#262626;stroke:#262626;stroke-width:1.25;" x="547.707157" xlink:href="#m9195cdf27b" y="418.907365"/>
      </g>
     </g>
     <g id="text_17">
      <!-- 0.3965 -->
      <g style="fill:#262626;" transform="translate(557.207157 429.644084)scale(0.3 -0.3)">
       <defs>
        <path d="M 5.46875 16.546875 
L 13.921875 17.328125 
Q 14.984375 11.375 18.015625 8.6875 
Q 21.046875 6 25.78125 6 
Q 29.828125 6 32.875 7.859375 
Q 35.9375 9.71875 37.890625 12.8125 
Q 39.84375 15.921875 41.15625 21.1875 
Q 42.484375 26.46875 42.484375 31.9375 
Q 42.484375 32.515625 42.4375 33.6875 
Q 39.796875 29.5 35.234375 26.875 
Q 30.671875 24.265625 25.34375 24.265625 
Q 16.453125 24.265625 10.296875 30.703125 
Q 4.15625 37.15625 4.15625 47.703125 
Q 4.15625 58.59375 10.578125 65.234375 
Q 17 71.875 26.65625 71.875 
Q 33.640625 71.875 39.421875 68.109375 
Q 45.21875 64.359375 48.21875 57.390625 
Q 51.21875 50.4375 51.21875 37.25 
Q 51.21875 23.53125 48.234375 15.40625 
Q 45.265625 7.28125 39.375 3.03125 
Q 33.5 -1.21875 25.59375 -1.21875 
Q 17.1875 -1.21875 11.859375 3.4375 
Q 6.546875 8.109375 5.46875 16.546875 
z
M 41.453125 48.140625 
Q 41.453125 55.71875 37.421875 60.15625 
Q 33.40625 64.59375 27.734375 64.59375 
Q 21.875 64.59375 17.53125 59.8125 
Q 13.1875 55.03125 13.1875 47.40625 
Q 13.1875 40.578125 17.3125 36.296875 
Q 21.4375 32.03125 27.484375 32.03125 
Q 33.59375 32.03125 37.515625 36.296875 
Q 41.453125 40.578125 41.453125 48.140625 
z
" id="ArialMT-57"/>
        <path d="M 49.75 54.046875 
L 41.015625 53.375 
Q 39.84375 58.546875 37.703125 60.890625 
Q 34.125 64.65625 28.90625 64.65625 
Q 24.703125 64.65625 21.53125 62.3125 
Q 17.390625 59.28125 14.984375 53.46875 
Q 12.59375 47.65625 12.5 36.921875 
Q 15.671875 41.75 20.265625 44.09375 
Q 24.859375 46.4375 29.890625 46.4375 
Q 38.671875 46.4375 44.84375 39.96875 
Q 51.03125 33.5 51.03125 23.25 
Q 51.03125 16.5 48.125 10.71875 
Q 45.21875 4.9375 40.140625 1.859375 
Q 35.0625 -1.21875 28.609375 -1.21875 
Q 17.625 -1.21875 10.6875 6.859375 
Q 3.765625 14.9375 3.765625 33.5 
Q 3.765625 54.25 11.421875 63.671875 
Q 18.109375 71.875 29.4375 71.875 
Q 37.890625 71.875 43.28125 67.140625 
Q 48.6875 62.40625 49.75 54.046875 
z
M 13.875 23.1875 
Q 13.875 18.65625 15.796875 14.5 
Q 17.71875 10.359375 21.1875 8.171875 
Q 24.65625 6 28.46875 6 
Q 34.03125 6 38.03125 10.484375 
Q 42.046875 14.984375 42.046875 22.703125 
Q 42.046875 30.125 38.078125 34.390625 
Q 34.125 38.671875 28.125 38.671875 
Q 22.171875 38.671875 18.015625 34.390625 
Q 13.875 30.125 13.875 23.1875 
z
" id="ArialMT-54"/>
       </defs>
       <use xlink:href="#ArialMT-48"/>
       <use x="55.615234" xlink:href="#ArialMT-46"/>
       <use x="83.398438" xlink:href="#ArialMT-51"/>
       <use x="139.013672" xlink:href="#ArialMT-57"/>
       <use x="194.628906" xlink:href="#ArialMT-54"/>
       <use x="250.244141" xlink:href="#ArialMT-53"/>
      </g>
     </g>
    </g>
    <g id="ytick_20">
     <g id="line2d_33">
      <path clip-path="url(#p2ef5730dc5)" d="M 521.085986 359.749206 
L 547.707157 359.749206 
" style="fill:none;stroke:#ffffff;stroke-linecap:round;"/>
     </g>
     <g id="line2d_34">
      <g>
       <use style="fill:#262626;stroke:#262626;stroke-width:1.25;" x="547.707157" xlink:href="#m9195cdf27b" y="359.749206"/>
      </g>
     </g>
     <g id="text_18">
      <!-- 0.4522 -->
      <g style="fill:#262626;" transform="translate(557.207157 370.485925)scale(0.3 -0.3)">
       <use xlink:href="#ArialMT-48"/>
       <use x="55.615234" xlink:href="#ArialMT-46"/>
       <use x="83.398438" xlink:href="#ArialMT-52"/>
       <use x="139.013672" xlink:href="#ArialMT-53"/>
       <use x="194.628906" xlink:href="#ArialMT-50"/>
       <use x="250.244141" xlink:href="#ArialMT-50"/>
      </g>
     </g>
    </g>
    <g id="ytick_21">
     <g id="line2d_35">
      <path clip-path="url(#p2ef5730dc5)" d="M 521.085986 300.591048 
L 547.707157 300.591048 
" style="fill:none;stroke:#ffffff;stroke-linecap:round;"/>
     </g>
     <g id="line2d_36">
      <g>
       <use style="fill:#262626;stroke:#262626;stroke-width:1.25;" x="547.707157" xlink:href="#m9195cdf27b" y="300.591048"/>
      </g>
     </g>
     <g id="text_19">
      <!-- 0.5279 -->
      <g style="fill:#262626;" transform="translate(557.207157 311.327766)scale(0.3 -0.3)">
       <use xlink:href="#ArialMT-48"/>
       <use x="55.615234" xlink:href="#ArialMT-46"/>
       <use x="83.398438" xlink:href="#ArialMT-53"/>
       <use x="139.013672" xlink:href="#ArialMT-50"/>
       <use x="194.628906" xlink:href="#ArialMT-55"/>
       <use x="250.244141" xlink:href="#ArialMT-57"/>
      </g>
     </g>
    </g>
    <g id="ytick_22">
     <g id="line2d_37">
      <path clip-path="url(#p2ef5730dc5)" d="M 521.085986 241.432889 
L 547.707157 241.432889 
" style="fill:none;stroke:#ffffff;stroke-linecap:round;"/>
     </g>
     <g id="line2d_38">
      <g>
       <use style="fill:#262626;stroke:#262626;stroke-width:1.25;" x="547.707157" xlink:href="#m9195cdf27b" y="241.432889"/>
      </g>
     </g>
     <g id="text_20">
      <!-- 0.5955 -->
      <g style="fill:#262626;" transform="translate(557.207157 252.169608)scale(0.3 -0.3)">
       <use xlink:href="#ArialMT-48"/>
       <use x="55.615234" xlink:href="#ArialMT-46"/>
       <use x="83.398438" xlink:href="#ArialMT-53"/>
       <use x="139.013672" xlink:href="#ArialMT-57"/>
       <use x="194.628906" xlink:href="#ArialMT-53"/>
       <use x="250.244141" xlink:href="#ArialMT-53"/>
      </g>
     </g>
    </g>
    <g id="ytick_23">
     <g id="line2d_39">
      <path clip-path="url(#p2ef5730dc5)" d="M 521.085986 182.27473 
L 547.707157 182.27473 
" style="fill:none;stroke:#ffffff;stroke-linecap:round;"/>
     </g>
     <g id="line2d_40">
      <g>
       <use style="fill:#262626;stroke:#262626;stroke-width:1.25;" x="547.707157" xlink:href="#m9195cdf27b" y="182.27473"/>
      </g>
     </g>
     <g id="text_21">
      <!-- 0.6526 -->
      <g style="fill:#262626;" transform="translate(557.207157 193.011449)scale(0.3 -0.3)">
       <use xlink:href="#ArialMT-48"/>
       <use x="55.615234" xlink:href="#ArialMT-46"/>
       <use x="83.398438" xlink:href="#ArialMT-54"/>
       <use x="139.013672" xlink:href="#ArialMT-53"/>
       <use x="194.628906" xlink:href="#ArialMT-50"/>
       <use x="250.244141" xlink:href="#ArialMT-54"/>
      </g>
     </g>
    </g>
    <g id="ytick_24">
     <g id="line2d_41">
      <path clip-path="url(#p2ef5730dc5)" d="M 521.085986 123.116571 
L 547.707157 123.116571 
" style="fill:none;stroke:#ffffff;stroke-linecap:round;"/>
     </g>
     <g id="line2d_42">
      <g>
       <use style="fill:#262626;stroke:#262626;stroke-width:1.25;" x="547.707157" xlink:href="#m9195cdf27b" y="123.116571"/>
      </g>
     </g>
     <g id="text_22">
      <!-- 0.6954 -->
      <g style="fill:#262626;" transform="translate(557.207157 133.85329)scale(0.3 -0.3)">
       <use xlink:href="#ArialMT-48"/>
       <use x="55.615234" xlink:href="#ArialMT-46"/>
       <use x="83.398438" xlink:href="#ArialMT-54"/>
       <use x="139.013672" xlink:href="#ArialMT-57"/>
       <use x="194.628906" xlink:href="#ArialMT-53"/>
       <use x="250.244141" xlink:href="#ArialMT-52"/>
      </g>
     </g>
    </g>
   </g>
   <g id="LineCollection_11">
    <path clip-path="url(#p2ef5730dc5)" d="M 521.085986 655.54 
L 547.707157 655.54 
" style="fill:none;stroke:#800080;stroke-width:1.5;"/>
    <path clip-path="url(#p2ef5730dc5)" d="M 521.085986 596.381841 
L 547.707157 596.381841 
" style="fill:none;stroke:#800080;stroke-width:1.5;"/>
    <path clip-path="url(#p2ef5730dc5)" d="M 521.085986 537.223683 
L 547.707157 537.223683 
" style="fill:none;stroke:#800080;stroke-width:1.5;"/>
    <path clip-path="url(#p2ef5730dc5)" d="M 521.085986 478.065524 
L 547.707157 478.065524 
" style="fill:none;stroke:#800080;stroke-width:1.5;"/>
    <path clip-path="url(#p2ef5730dc5)" d="M 521.085986 418.907365 
L 547.707157 418.907365 
" style="fill:none;stroke:#800080;stroke-width:1.5;"/>
    <path clip-path="url(#p2ef5730dc5)" d="M 521.085986 359.749206 
L 547.707157 359.749206 
" style="fill:none;stroke:#800080;stroke-width:1.5;"/>
    <path clip-path="url(#p2ef5730dc5)" d="M 521.085986 300.591048 
L 547.707157 300.591048 
" style="fill:none;stroke:#800080;stroke-width:1.5;"/>
    <path clip-path="url(#p2ef5730dc5)" d="M 521.085986 241.432889 
L 547.707157 241.432889 
" style="fill:none;stroke:#800080;stroke-width:1.5;"/>
    <path clip-path="url(#p2ef5730dc5)" d="M 521.085986 182.27473 
L 547.707157 182.27473 
" style="fill:none;stroke:#800080;stroke-width:1.5;"/>
    <path clip-path="url(#p2ef5730dc5)" d="M 521.085986 123.116571 
L 547.707157 123.116571 
" style="fill:none;stroke:#800080;stroke-width:1.5;"/>
   </g>
   <g id="patch_10">
    <path d="M 521.085986 655.54 
L 521.085986 596.381841 
L 521.085986 182.27473 
L 521.085986 123.116571 
L 547.707157 123.116571 
L 547.707157 182.27473 
L 547.707157 596.381841 
L 547.707157 655.54 
z
" style="fill:none;stroke:#ffffff;stroke-linejoin:miter;stroke-width:1.25;"/>
   </g>
  </g>
 </g>
 <defs>
  <clipPath id="pf3e79a67f2">
   <rect height="532.423429" width="416.824457" x="78.21" y="123.116571"/>
  </clipPath>
  <clipPath id="p17672ab807">
   <rect height="91.797143" width="521.030571" x="78.21" y="12.96"/>
  </clipPath>
  <clipPath id="pb82914f9a4">
   <rect height="532.423429" width="89.832857" x="617.207143" y="123.116571"/>
  </clipPath>
  <clipPath id="p2ef5730dc5">
   <rect height="532.423429" width="26.621171" x="521.085986" y="123.116571"/>
  </clipPath>
 </defs>
</svg>
